<svg width="1920" height="1080" viewBox="0 0 1920 1080" fill="none" xmlns="http://www.w3.org/2000/svg">
<rect width="1920" height="1080" fill="#0C0A09"/>
<path d="M589.682 102.364H570.455C570.318 100.773 569.955 99.3295 569.364 98.0341C568.795 96.7386 568 95.625 566.977 94.6932C565.977 93.7386 564.761 93.0114 563.33 92.5114C561.898 91.9886 560.273 91.7273 558.455 91.7273C555.273 91.7273 552.58 92.5 550.375 94.0455C548.193 95.5909 546.534 97.8068 545.398 100.693C544.284 103.58 543.727 107.045 543.727 111.091C543.727 115.364 544.295 118.943 545.432 121.83C546.591 124.693 548.261 126.852 550.443 128.307C552.625 129.739 555.25 130.455 558.318 130.455C560.068 130.455 561.636 130.239 563.023 129.807C564.409 129.352 565.614 128.705 566.636 127.864C567.659 127.023 568.489 126.011 569.125 124.83C569.784 123.625 570.227 122.273 570.455 120.773L589.682 120.909C589.455 123.864 588.625 126.875 587.193 129.943C585.761 132.989 583.727 135.807 581.091 138.398C578.477 140.966 575.239 143.034 571.375 144.602C567.511 146.17 563.023 146.955 557.909 146.955C551.5 146.955 545.75 145.58 540.659 142.83C535.591 140.08 531.58 136.034 528.625 130.693C525.693 125.352 524.227 118.818 524.227 111.091C524.227 103.318 525.727 96.7727 528.727 91.4545C531.727 86.1136 535.773 82.0795 540.864 79.3523C545.955 76.6023 551.636 75.2273 557.909 75.2273C562.318 75.2273 566.375 75.8295 570.08 77.0341C573.784 78.2386 577.034 80 579.83 82.3182C582.625 84.6136 584.875 87.4432 586.58 90.8068C588.284 94.1705 589.318 98.0227 589.682 102.364ZM613.145 146.818C609.804 146.818 606.849 146.273 604.281 145.182C601.736 144.068 599.736 142.386 598.281 140.136C596.827 137.886 596.099 135.023 596.099 131.545C596.099 128.682 596.588 126.239 597.565 124.216C598.543 122.17 599.906 120.5 601.656 119.205C603.406 117.909 605.44 116.92 607.759 116.239C610.099 115.557 612.622 115.114 615.327 114.909C618.259 114.682 620.611 114.409 622.384 114.091C624.179 113.75 625.474 113.284 626.27 112.693C627.065 112.08 627.463 111.273 627.463 110.273V110.136C627.463 108.773 626.94 107.727 625.895 107C624.849 106.273 623.509 105.909 621.872 105.909C620.077 105.909 618.611 106.307 617.474 107.102C616.361 107.875 615.69 109.068 615.463 110.682H598.145C598.372 107.5 599.384 104.568 601.179 101.886C602.997 99.1818 605.645 97.0227 609.122 95.4091C612.599 93.7727 616.94 92.9545 622.145 92.9545C625.895 92.9545 629.259 93.3977 632.236 94.2841C635.213 95.1477 637.747 96.3636 639.838 97.9318C641.929 99.4773 643.52 101.295 644.611 103.386C645.724 105.455 646.281 107.705 646.281 110.136V146H628.69V138.636H628.281C627.236 140.591 625.963 142.17 624.463 143.375C622.986 144.58 621.293 145.455 619.384 146C617.497 146.545 615.418 146.818 613.145 146.818ZM619.281 134.955C620.713 134.955 622.054 134.659 623.304 134.068C624.577 133.477 625.611 132.625 626.406 131.511C627.202 130.398 627.599 129.045 627.599 127.455V123.091C627.099 123.295 626.565 123.489 625.997 123.67C625.452 123.852 624.861 124.023 624.224 124.182C623.611 124.341 622.952 124.489 622.247 124.625C621.565 124.761 620.849 124.886 620.099 125C618.645 125.227 617.452 125.602 616.52 126.125C615.611 126.625 614.929 127.25 614.474 128C614.043 128.727 613.827 129.545 613.827 130.455C613.827 131.909 614.338 133.023 615.361 133.795C616.384 134.568 617.69 134.955 619.281 134.955ZM674.227 146.682C670.5 146.682 667.068 145.705 663.932 143.75C660.818 141.795 658.318 138.83 656.432 134.852C654.568 130.875 653.636 125.864 653.636 119.818C653.636 113.5 654.614 108.364 656.568 104.409C658.545 100.455 661.091 97.5568 664.205 95.7159C667.341 93.875 670.636 92.9545 674.091 92.9545C676.682 92.9545 678.955 93.4091 680.909 94.3182C682.864 95.2045 684.5 96.3977 685.818 97.8977C687.136 99.375 688.136 101 688.818 102.773H689.091V76.1818H707.909V146H689.227V137.409H688.818C688.091 139.182 687.045 140.773 685.682 142.182C684.341 143.568 682.705 144.67 680.773 145.489C678.864 146.284 676.682 146.682 674.227 146.682ZM681.182 132.227C682.909 132.227 684.386 131.727 685.614 130.727C686.864 129.705 687.818 128.273 688.477 126.432C689.159 124.568 689.5 122.364 689.5 119.818C689.5 117.227 689.159 115.011 688.477 113.17C687.818 111.307 686.864 109.886 685.614 108.909C684.386 107.909 682.909 107.409 681.182 107.409C679.455 107.409 677.977 107.909 676.75 108.909C675.545 109.886 674.614 111.307 673.955 113.17C673.318 115.011 673 117.227 673 119.818C673 122.409 673.318 124.636 673.955 126.5C674.614 128.341 675.545 129.761 676.75 130.761C677.977 131.739 679.455 132.227 681.182 132.227ZM742.239 146.955C736.648 146.955 731.83 145.886 727.784 143.75C723.761 141.591 720.659 138.5 718.477 134.477C716.318 130.432 715.239 125.591 715.239 119.955C715.239 114.545 716.33 109.818 718.511 105.773C720.693 101.727 723.773 98.5795 727.75 96.3295C731.727 94.0795 736.42 92.9545 741.83 92.9545C745.784 92.9545 749.364 93.5682 752.568 94.7955C755.773 96.0227 758.511 97.8068 760.784 100.148C763.057 102.466 764.807 105.284 766.034 108.602C767.261 111.92 767.875 115.659 767.875 119.818V124.182H721.102V113.818H750.557C750.534 112.318 750.148 111 749.398 109.864C748.67 108.705 747.682 107.807 746.432 107.17C745.205 106.511 743.807 106.182 742.239 106.182C740.716 106.182 739.318 106.511 738.045 107.17C736.773 107.807 735.75 108.693 734.977 109.83C734.227 110.966 733.83 112.295 733.784 113.818V125C733.784 126.682 734.136 128.182 734.841 129.5C735.545 130.818 736.557 131.852 737.875 132.602C739.193 133.352 740.784 133.727 742.648 133.727C743.943 133.727 745.125 133.545 746.193 133.182C747.284 132.818 748.216 132.295 748.989 131.614C749.761 130.909 750.33 130.068 750.693 129.091H767.875C767.284 132.727 765.886 135.886 763.682 138.568C761.477 141.227 758.557 143.295 754.92 144.773C751.307 146.227 747.08 146.955 742.239 146.955ZM794.372 116.545V146H775.554V93.6364H793.418V103.591H793.963C795.099 100.273 797.099 97.6705 799.963 95.7841C802.849 93.8977 806.213 92.9545 810.054 92.9545C813.759 92.9545 816.974 93.8068 819.702 95.5114C822.452 97.1932 824.577 99.5114 826.077 102.466C827.599 105.42 828.349 108.795 828.327 112.591V146H809.509V116.545C809.531 113.955 808.872 111.92 807.531 110.443C806.213 108.966 804.372 108.227 802.009 108.227C800.463 108.227 799.111 108.568 797.952 109.25C796.815 109.909 795.94 110.864 795.327 112.114C794.713 113.341 794.395 114.818 794.372 116.545ZM862.844 146.955C857.162 146.955 852.298 145.83 848.253 143.58C844.207 141.307 841.105 138.148 838.946 134.102C836.787 130.034 835.707 125.318 835.707 119.955C835.707 114.591 836.787 109.886 838.946 105.841C841.105 101.773 844.207 98.6136 848.253 96.3636C852.298 94.0909 857.162 92.9545 862.844 92.9545C867.98 92.9545 872.423 93.8864 876.173 95.75C879.946 97.5909 882.866 100.205 884.935 103.591C887.003 106.955 888.048 110.909 888.071 115.455H870.616C870.366 112.705 869.571 110.614 868.23 109.182C866.912 107.727 865.207 107 863.116 107C861.48 107 860.048 107.477 858.821 108.432C857.594 109.364 856.639 110.784 855.957 112.693C855.276 114.58 854.935 116.955 854.935 119.818C854.935 122.682 855.276 125.068 855.957 126.977C856.639 128.864 857.594 130.284 858.821 131.239C860.048 132.17 861.48 132.636 863.116 132.636C864.503 132.636 865.73 132.318 866.798 131.682C867.866 131.023 868.73 130.068 869.389 128.818C870.071 127.545 870.48 126 870.616 124.182H888.071C888.003 128.795 886.946 132.818 884.901 136.25C882.855 139.659 879.957 142.295 876.207 144.159C872.48 146.023 868.026 146.955 862.844 146.955ZM920.926 146.955C915.335 146.955 910.517 145.886 906.472 143.75C902.449 141.591 899.347 138.5 897.165 134.477C895.006 130.432 893.926 125.591 893.926 119.955C893.926 114.545 895.017 109.818 897.199 105.773C899.381 101.727 902.46 98.5795 906.438 96.3295C910.415 94.0795 915.108 92.9545 920.517 92.9545C924.472 92.9545 928.051 93.5682 931.256 94.7955C934.46 96.0227 937.199 97.8068 939.472 100.148C941.744 102.466 943.494 105.284 944.722 108.602C945.949 111.92 946.562 115.659 946.562 119.818V124.182H899.79V113.818H929.244C929.222 112.318 928.835 111 928.085 109.864C927.358 108.705 926.369 107.807 925.119 107.17C923.892 106.511 922.494 106.182 920.926 106.182C919.403 106.182 918.006 106.511 916.733 107.17C915.46 107.807 914.438 108.693 913.665 109.83C912.915 110.966 912.517 112.295 912.472 113.818V125C912.472 126.682 912.824 128.182 913.528 129.5C914.233 130.818 915.244 131.852 916.562 132.602C917.881 133.352 919.472 133.727 921.335 133.727C922.631 133.727 923.813 133.545 924.881 133.182C925.972 132.818 926.903 132.295 927.676 131.614C928.449 130.909 929.017 130.068 929.381 129.091H946.562C945.972 132.727 944.574 135.886 942.369 138.568C940.165 141.227 937.244 143.295 933.608 144.773C929.994 146.227 925.767 146.955 920.926 146.955ZM1038.28 102.364H1019.05C1018.91 100.773 1018.55 99.3295 1017.96 98.0341C1017.39 96.7386 1016.59 95.625 1015.57 94.6932C1014.57 93.7386 1013.36 93.0114 1011.92 92.5114C1010.49 91.9886 1008.87 91.7273 1007.05 91.7273C1003.87 91.7273 1001.17 92.5 998.969 94.0455C996.787 95.5909 995.128 97.8068 993.991 100.693C992.878 103.58 992.321 107.045 992.321 111.091C992.321 115.364 992.889 118.943 994.026 121.83C995.185 124.693 996.855 126.852 999.037 128.307C1001.22 129.739 1003.84 130.455 1006.91 130.455C1008.66 130.455 1010.23 130.239 1011.62 129.807C1013 129.352 1014.21 128.705 1015.23 127.864C1016.25 127.023 1017.08 126.011 1017.72 124.83C1018.38 123.625 1018.82 122.273 1019.05 120.773L1038.28 120.909C1038.05 123.864 1037.22 126.875 1035.79 129.943C1034.36 132.989 1032.32 135.807 1029.68 138.398C1027.07 140.966 1023.83 143.034 1019.97 144.602C1016.11 146.17 1011.62 146.955 1006.5 146.955C1000.09 146.955 994.344 145.58 989.253 142.83C984.185 140.08 980.173 136.034 977.219 130.693C974.287 125.352 972.821 118.818 972.821 111.091C972.821 103.318 974.321 96.7727 977.321 91.4545C980.321 86.1136 984.366 82.0795 989.457 79.3523C994.548 76.6023 1000.23 75.2273 1006.5 75.2273C1010.91 75.2273 1014.97 75.8295 1018.67 77.0341C1022.38 78.2386 1025.63 80 1028.42 82.3182C1031.22 84.6136 1033.47 87.4432 1035.17 90.8068C1036.88 94.1705 1037.91 98.0227 1038.28 102.364ZM1065.97 76.1818V146H1047.15V76.1818H1065.97ZM1100.78 146.955C1095.1 146.955 1090.24 145.83 1086.19 143.58C1082.14 141.307 1079.04 138.148 1076.88 134.102C1074.72 130.034 1073.64 125.318 1073.64 119.955C1073.64 114.591 1074.72 109.886 1076.88 105.841C1079.04 101.773 1082.14 98.6136 1086.19 96.3636C1090.24 94.0909 1095.1 92.9545 1100.78 92.9545C1106.46 92.9545 1111.33 94.0909 1115.37 96.3636C1119.42 98.6136 1122.52 101.773 1124.68 105.841C1126.84 109.886 1127.92 114.591 1127.92 119.955C1127.92 125.318 1126.84 130.034 1124.68 134.102C1122.52 138.148 1119.42 141.307 1115.37 143.58C1111.33 145.83 1106.46 146.955 1100.78 146.955ZM1100.92 133.045C1102.51 133.045 1103.88 132.511 1105.04 131.443C1106.2 130.375 1107.1 128.852 1107.74 126.875C1108.37 124.898 1108.69 122.545 1108.69 119.818C1108.69 117.068 1108.37 114.716 1107.74 112.761C1107.1 110.784 1106.2 109.261 1105.04 108.193C1103.88 107.125 1102.51 106.591 1100.92 106.591C1099.24 106.591 1097.79 107.125 1096.59 108.193C1095.38 109.261 1094.46 110.784 1093.83 112.761C1093.19 114.716 1092.87 117.068 1092.87 119.818C1092.87 122.545 1093.19 124.898 1093.83 126.875C1094.46 128.852 1095.38 130.375 1096.59 131.443C1097.79 132.511 1099.24 133.045 1100.92 133.045ZM1160.78 146.955C1155.1 146.955 1150.24 145.83 1146.19 143.58C1142.14 141.307 1139.04 138.148 1136.88 134.102C1134.72 130.034 1133.64 125.318 1133.64 119.955C1133.64 114.591 1134.72 109.886 1136.88 105.841C1139.04 101.773 1142.14 98.6136 1146.19 96.3636C1150.24 94.0909 1155.1 92.9545 1160.78 92.9545C1165.92 92.9545 1170.36 93.8864 1174.11 95.75C1177.88 97.5909 1180.8 100.205 1182.87 103.591C1184.94 106.955 1185.99 110.909 1186.01 115.455H1168.55C1168.3 112.705 1167.51 110.614 1166.17 109.182C1164.85 107.727 1163.14 107 1161.05 107C1159.42 107 1157.99 107.477 1156.76 108.432C1155.53 109.364 1154.58 110.784 1153.89 112.693C1153.21 114.58 1152.87 116.955 1152.87 119.818C1152.87 122.682 1153.21 125.068 1153.89 126.977C1154.58 128.864 1155.53 130.284 1156.76 131.239C1157.99 132.17 1159.42 132.636 1161.05 132.636C1162.44 132.636 1163.67 132.318 1164.74 131.682C1165.8 131.023 1166.67 130.068 1167.33 128.818C1168.01 127.545 1168.42 126 1168.55 124.182H1186.01C1185.94 128.795 1184.88 132.818 1182.84 136.25C1180.79 139.659 1177.89 142.295 1174.14 144.159C1170.42 146.023 1165.96 146.955 1160.78 146.955ZM1210.68 133.591L1210.82 111.227H1213.27L1225.95 93.6364H1247.09L1225.82 121.045H1220.5L1210.68 133.591ZM1193.77 146V76.1818H1212.59V146H1193.77ZM1226.09 146L1214.09 125.273L1226.36 111.909L1247.64 146H1226.09Z" fill="#BBF7D0"/>
<path d="M97.9091 272H80V225.455H97.7273C102.515 225.455 106.652 226.386 110.136 228.25C113.636 230.098 116.333 232.765 118.227 236.25C120.136 239.72 121.091 243.879 121.091 248.727C121.091 253.576 120.144 257.742 118.25 261.227C116.356 264.697 113.674 267.364 110.205 269.227C106.735 271.076 102.636 272 97.9091 272ZM92.6364 261.273H97.4545C99.7576 261.273 101.72 260.902 103.341 260.159C104.977 259.417 106.22 258.136 107.068 256.318C107.932 254.5 108.364 251.97 108.364 248.727C108.364 245.485 107.924 242.955 107.045 241.136C106.182 239.318 104.909 238.038 103.227 237.295C101.561 236.553 99.5152 236.182 97.0909 236.182H92.6364V261.273ZM143.847 272.636C140.119 272.636 136.907 271.924 134.21 270.5C131.528 269.061 129.46 267 128.006 264.318C126.566 261.621 125.847 258.394 125.847 254.636C125.847 251.03 126.574 247.879 128.028 245.182C129.483 242.485 131.536 240.386 134.188 238.886C136.839 237.386 139.968 236.636 143.574 236.636C146.21 236.636 148.597 237.045 150.733 237.864C152.869 238.682 154.695 239.871 156.21 241.432C157.725 242.977 158.892 244.856 159.71 247.068C160.528 249.28 160.938 251.773 160.938 254.545V257.455H129.756V250.545H149.392C149.377 249.545 149.119 248.667 148.619 247.909C148.134 247.136 147.475 246.538 146.642 246.114C145.824 245.674 144.892 245.455 143.847 245.455C142.831 245.455 141.9 245.674 141.051 246.114C140.203 246.538 139.521 247.129 139.006 247.886C138.506 248.644 138.241 249.53 138.21 250.545V258C138.21 259.121 138.445 260.121 138.915 261C139.384 261.879 140.059 262.568 140.938 263.068C141.816 263.568 142.877 263.818 144.119 263.818C144.983 263.818 145.771 263.697 146.483 263.455C147.21 263.212 147.831 262.864 148.347 262.409C148.862 261.939 149.241 261.379 149.483 260.727H160.938C160.544 263.152 159.612 265.258 158.142 267.045C156.672 268.818 154.725 270.197 152.301 271.182C149.892 272.152 147.074 272.636 143.847 272.636ZM197.966 248.455H186.42C186.36 247.742 186.11 247.129 185.67 246.614C185.231 246.098 184.663 245.705 183.966 245.432C183.284 245.144 182.527 245 181.693 245C180.617 245 179.693 245.197 178.92 245.591C178.148 245.985 177.769 246.545 177.784 247.273C177.769 247.788 177.989 248.265 178.443 248.705C178.913 249.144 179.814 249.485 181.148 249.727L188.239 251C191.814 251.652 194.473 252.75 196.216 254.295C197.973 255.826 198.86 257.879 198.875 260.455C198.86 262.939 198.117 265.098 196.648 266.932C195.193 268.75 193.201 270.159 190.67 271.159C188.155 272.144 185.284 272.636 182.057 272.636C176.723 272.636 172.549 271.545 169.534 269.364C166.534 267.182 164.86 264.303 164.511 260.727H176.966C177.133 261.833 177.678 262.689 178.602 263.295C179.542 263.886 180.723 264.182 182.148 264.182C183.299 264.182 184.246 263.985 184.989 263.591C185.746 263.197 186.133 262.636 186.148 261.909C186.133 261.242 185.799 260.712 185.148 260.318C184.511 259.924 183.511 259.606 182.148 259.364L175.966 258.273C172.405 257.652 169.739 256.47 167.966 254.727C166.193 252.985 165.314 250.742 165.33 248C165.314 245.576 165.951 243.523 167.239 241.841C168.542 240.144 170.398 238.856 172.807 237.977C175.231 237.083 178.102 236.636 181.42 236.636C186.466 236.636 190.443 237.682 193.352 239.773C196.277 241.864 197.814 244.758 197.966 248.455ZM203.682 272V237.091H216.227V272H203.682ZM209.955 233.455C208.258 233.455 206.803 232.894 205.591 231.773C204.379 230.652 203.773 229.303 203.773 227.727C203.773 226.152 204.379 224.803 205.591 223.682C206.803 222.561 208.258 222 209.955 222C211.667 222 213.121 222.561 214.318 223.682C215.53 224.803 216.136 226.152 216.136 227.727C216.136 229.303 215.53 230.652 214.318 231.773C213.121 232.894 211.667 233.455 209.955 233.455ZM222.619 272V237.091H234.801V243.727H235.165C235.801 241.273 236.809 239.477 238.188 238.341C239.581 237.205 241.21 236.636 243.074 236.636C243.619 236.636 244.157 236.682 244.688 236.773C245.233 236.848 245.756 236.962 246.256 237.114V247.818C245.634 247.606 244.869 247.447 243.96 247.341C243.051 247.235 242.271 247.182 241.619 247.182C240.392 247.182 239.286 247.462 238.301 248.023C237.331 248.568 236.566 249.341 236.006 250.341C235.445 251.326 235.165 252.485 235.165 253.818V272H222.619ZM265.097 272.636C261.369 272.636 258.157 271.924 255.46 270.5C252.778 269.061 250.71 267 249.256 264.318C247.816 261.621 247.097 258.394 247.097 254.636C247.097 251.03 247.824 247.879 249.278 245.182C250.733 242.485 252.786 240.386 255.438 238.886C258.089 237.386 261.218 236.636 264.824 236.636C267.46 236.636 269.847 237.045 271.983 237.864C274.119 238.682 275.945 239.871 277.46 241.432C278.975 242.977 280.142 244.856 280.96 247.068C281.778 249.28 282.188 251.773 282.188 254.545V257.455H251.006V250.545H270.642C270.627 249.545 270.369 248.667 269.869 247.909C269.384 247.136 268.725 246.538 267.892 246.114C267.074 245.674 266.142 245.455 265.097 245.455C264.081 245.455 263.15 245.674 262.301 246.114C261.453 246.538 260.771 247.129 260.256 247.886C259.756 248.644 259.491 249.53 259.46 250.545V258C259.46 259.121 259.695 260.121 260.165 261C260.634 261.879 261.309 262.568 262.188 263.068C263.066 263.568 264.127 263.818 265.369 263.818C266.233 263.818 267.021 263.697 267.733 263.455C268.46 263.212 269.081 262.864 269.597 262.409C270.112 261.939 270.491 261.379 270.733 260.727H282.188C281.794 263.152 280.862 265.258 279.392 267.045C277.922 268.818 275.975 270.197 273.551 271.182C271.142 272.152 268.324 272.636 265.097 272.636ZM299.943 272.455C297.458 272.455 295.17 271.803 293.08 270.5C291.004 269.197 289.337 267.22 288.08 264.568C286.837 261.917 286.216 258.576 286.216 254.545C286.216 250.333 286.867 246.909 288.17 244.273C289.489 241.636 291.186 239.705 293.261 238.477C295.352 237.25 297.549 236.636 299.852 236.636C301.58 236.636 303.095 236.939 304.398 237.545C305.701 238.136 306.792 238.932 307.67 239.932C308.549 240.917 309.216 242 309.67 243.182H309.852V225.455H322.398V272H309.943V266.273H309.67C309.186 267.455 308.489 268.515 307.58 269.455C306.686 270.379 305.595 271.114 304.307 271.659C303.034 272.189 301.58 272.455 299.943 272.455ZM304.58 262.818C305.731 262.818 306.716 262.485 307.534 261.818C308.367 261.136 309.004 260.182 309.443 258.955C309.898 257.712 310.125 256.242 310.125 254.545C310.125 252.818 309.898 251.341 309.443 250.114C309.004 248.871 308.367 247.924 307.534 247.273C306.716 246.606 305.731 246.273 304.58 246.273C303.428 246.273 302.443 246.606 301.625 247.273C300.822 247.924 300.201 248.871 299.761 250.114C299.337 251.341 299.125 252.818 299.125 254.545C299.125 256.273 299.337 257.758 299.761 259C300.201 260.227 300.822 261.174 301.625 261.841C302.443 262.492 303.428 262.818 304.58 262.818ZM353.761 225.455V272H341.125V225.455H353.761ZM380.75 237.091V246.182H357.75V237.091H380.75ZM362.205 228.727H374.75V260.773C374.75 261.258 374.833 261.667 375 262C375.167 262.318 375.424 262.561 375.773 262.727C376.121 262.879 376.568 262.955 377.114 262.955C377.492 262.955 377.932 262.909 378.432 262.818C378.947 262.727 379.326 262.652 379.568 262.591L381.386 271.409C380.826 271.576 380.023 271.78 378.977 272.023C377.947 272.265 376.72 272.424 375.295 272.5C372.417 272.652 370 272.356 368.045 271.614C366.091 270.856 364.621 269.667 363.636 268.045C362.652 266.424 362.174 264.394 362.205 261.955V228.727ZM402.222 272.636C398.494 272.636 395.282 271.924 392.585 270.5C389.903 269.061 387.835 267 386.381 264.318C384.941 261.621 384.222 258.394 384.222 254.636C384.222 251.03 384.949 247.879 386.403 245.182C387.858 242.485 389.911 240.386 392.562 238.886C395.214 237.386 398.343 236.636 401.949 236.636C404.585 236.636 406.972 237.045 409.108 237.864C411.244 238.682 413.07 239.871 414.585 241.432C416.1 242.977 417.267 244.856 418.085 247.068C418.903 249.28 419.312 251.773 419.312 254.545V257.455H388.131V250.545H407.767C407.752 249.545 407.494 248.667 406.994 247.909C406.509 247.136 405.85 246.538 405.017 246.114C404.199 245.674 403.267 245.455 402.222 245.455C401.206 245.455 400.275 245.674 399.426 246.114C398.578 246.538 397.896 247.129 397.381 247.886C396.881 248.644 396.616 249.53 396.585 250.545V258C396.585 259.121 396.82 260.121 397.29 261C397.759 261.879 398.434 262.568 399.312 263.068C400.191 263.568 401.252 263.818 402.494 263.818C403.358 263.818 404.146 263.697 404.858 263.455C405.585 263.212 406.206 262.864 406.722 262.409C407.237 261.939 407.616 261.379 407.858 260.727H419.312C418.919 263.152 417.987 265.258 416.517 267.045C415.047 268.818 413.1 270.197 410.676 271.182C408.267 272.152 405.449 272.636 402.222 272.636ZM424.432 272V237.091H436.341V243.727H436.705C437.432 241.545 438.674 239.818 440.432 238.545C442.189 237.273 444.28 236.636 446.705 236.636C449.159 236.636 451.273 237.288 453.045 238.591C454.818 239.879 455.886 241.591 456.25 243.727H456.614C457.205 241.591 458.462 239.879 460.386 238.591C462.311 237.288 464.568 236.636 467.159 236.636C470.508 236.636 473.22 237.712 475.295 239.864C477.386 242.015 478.432 244.879 478.432 248.455V272H465.886V251.636C465.886 250.106 465.5 248.909 464.727 248.045C463.955 247.167 462.917 246.727 461.614 246.727C460.326 246.727 459.303 247.167 458.545 248.045C457.803 248.909 457.432 250.106 457.432 251.636V272H445.432V251.636C445.432 250.106 445.045 248.909 444.273 248.045C443.5 247.167 442.462 246.727 441.159 246.727C440.295 246.727 439.553 246.924 438.932 247.318C438.311 247.712 437.826 248.28 437.477 249.023C437.144 249.75 436.977 250.621 436.977 251.636V272H424.432ZM516.528 248.455H504.983C504.922 247.742 504.672 247.129 504.233 246.614C503.794 246.098 503.225 245.705 502.528 245.432C501.847 245.144 501.089 245 500.256 245C499.18 245 498.256 245.197 497.483 245.591C496.71 245.985 496.331 246.545 496.347 247.273C496.331 247.788 496.551 248.265 497.006 248.705C497.475 249.144 498.377 249.485 499.71 249.727L506.801 251C510.377 251.652 513.036 252.75 514.778 254.295C516.536 255.826 517.422 257.879 517.438 260.455C517.422 262.939 516.68 265.098 515.21 266.932C513.756 268.75 511.763 270.159 509.233 271.159C506.718 272.144 503.847 272.636 500.619 272.636C495.286 272.636 491.112 271.545 488.097 269.364C485.097 267.182 483.422 264.303 483.074 260.727H495.528C495.695 261.833 496.241 262.689 497.165 263.295C498.104 263.886 499.286 264.182 500.71 264.182C501.862 264.182 502.809 263.985 503.551 263.591C504.309 263.197 504.695 262.636 504.71 261.909C504.695 261.242 504.362 260.712 503.71 260.318C503.074 259.924 502.074 259.606 500.71 259.364L494.528 258.273C490.968 257.652 488.301 256.47 486.528 254.727C484.756 252.985 483.877 250.742 483.892 248C483.877 245.576 484.513 243.523 485.801 241.841C487.104 240.144 488.96 238.856 491.369 237.977C493.794 237.083 496.665 236.636 499.983 236.636C505.028 236.636 509.006 237.682 511.915 239.773C514.839 241.864 516.377 244.758 516.528 248.455ZM555.903 237.091V246.182H532.54V237.091H555.903ZM536.994 272V236.091C536.994 233.212 537.509 230.826 538.54 228.932C539.57 227.038 541.025 225.621 542.903 224.682C544.782 223.742 546.994 223.273 549.54 223.273C551.131 223.273 552.676 223.394 554.176 223.636C555.691 223.879 556.813 224.091 557.54 224.273L555.722 233.273C555.267 233.136 554.737 233.03 554.131 232.955C553.525 232.864 552.994 232.818 552.54 232.818C551.358 232.818 550.563 233.068 550.153 233.568C549.744 234.068 549.54 234.727 549.54 235.545V272H536.994ZM576.5 272.636C572.712 272.636 569.47 271.886 566.773 270.386C564.076 268.871 562.008 266.765 560.568 264.068C559.129 261.356 558.409 258.212 558.409 254.636C558.409 251.061 559.129 247.924 560.568 245.227C562.008 242.515 564.076 240.409 566.773 238.909C569.47 237.394 572.712 236.636 576.5 236.636C580.288 236.636 583.53 237.394 586.227 238.909C588.924 240.409 590.992 242.515 592.432 245.227C593.871 247.924 594.591 251.061 594.591 254.636C594.591 258.212 593.871 261.356 592.432 264.068C590.992 266.765 588.924 268.871 586.227 270.386C583.53 271.886 580.288 272.636 576.5 272.636ZM576.591 263.364C577.652 263.364 578.568 263.008 579.341 262.295C580.114 261.583 580.712 260.568 581.136 259.25C581.561 257.932 581.773 256.364 581.773 254.545C581.773 252.712 581.561 251.144 581.136 249.841C580.712 248.523 580.114 247.508 579.341 246.795C578.568 246.083 577.652 245.727 576.591 245.727C575.47 245.727 574.508 246.083 573.705 246.795C572.902 247.508 572.288 248.523 571.864 249.841C571.439 251.144 571.227 252.712 571.227 254.545C571.227 256.364 571.439 257.932 571.864 259.25C572.288 260.568 572.902 261.583 573.705 262.295C574.508 263.008 575.47 263.364 576.591 263.364ZM599.682 272V237.091H611.864V243.727H612.227C612.864 241.273 613.871 239.477 615.25 238.341C616.644 237.205 618.273 236.636 620.136 236.636C620.682 236.636 621.22 236.682 621.75 236.773C622.295 236.848 622.818 236.962 623.318 237.114V247.818C622.697 247.606 621.932 247.447 621.023 247.341C620.114 247.235 619.333 247.182 618.682 247.182C617.455 247.182 616.348 247.462 615.364 248.023C614.394 248.568 613.629 249.341 613.068 250.341C612.508 251.326 612.227 252.485 612.227 253.818V272H599.682ZM652.75 272V225.455H685.477V235.636H665.386V243.636H683.477V253.818H665.386V272H652.75ZM704.562 272.636C700.775 272.636 697.532 271.886 694.835 270.386C692.138 268.871 690.07 266.765 688.631 264.068C687.191 261.356 686.472 258.212 686.472 254.636C686.472 251.061 687.191 247.924 688.631 245.227C690.07 242.515 692.138 240.409 694.835 238.909C697.532 237.394 700.775 236.636 704.562 236.636C708.35 236.636 711.593 237.394 714.29 238.909C716.987 240.409 719.055 242.515 720.494 245.227C721.934 247.924 722.653 251.061 722.653 254.636C722.653 258.212 721.934 261.356 720.494 264.068C719.055 266.765 716.987 268.871 714.29 270.386C711.593 271.886 708.35 272.636 704.562 272.636ZM704.653 263.364C705.714 263.364 706.631 263.008 707.403 262.295C708.176 261.583 708.775 260.568 709.199 259.25C709.623 257.932 709.835 256.364 709.835 254.545C709.835 252.712 709.623 251.144 709.199 249.841C708.775 248.523 708.176 247.508 707.403 246.795C706.631 246.083 705.714 245.727 704.653 245.727C703.532 245.727 702.57 246.083 701.767 246.795C700.964 247.508 700.35 248.523 699.926 249.841C699.502 251.144 699.29 252.712 699.29 254.545C699.29 256.364 699.502 257.932 699.926 259.25C700.35 260.568 700.964 261.583 701.767 262.295C702.57 263.008 703.532 263.364 704.653 263.364ZM744.562 272.636C740.775 272.636 737.532 271.886 734.835 270.386C732.138 268.871 730.07 266.765 728.631 264.068C727.191 261.356 726.472 258.212 726.472 254.636C726.472 251.061 727.191 247.924 728.631 245.227C730.07 242.515 732.138 240.409 734.835 238.909C737.532 237.394 740.775 236.636 744.562 236.636C747.987 236.636 750.949 237.258 753.449 238.5C755.964 239.727 757.911 241.47 759.29 243.727C760.669 245.97 761.366 248.606 761.381 251.636H749.744C749.578 249.803 749.047 248.409 748.153 247.455C747.275 246.485 746.138 246 744.744 246C743.653 246 742.699 246.318 741.881 246.955C741.063 247.576 740.426 248.523 739.972 249.795C739.517 251.053 739.29 252.636 739.29 254.545C739.29 256.455 739.517 258.045 739.972 259.318C740.426 260.576 741.063 261.523 741.881 262.159C742.699 262.78 743.653 263.091 744.744 263.091C745.669 263.091 746.487 262.879 747.199 262.455C747.911 262.015 748.487 261.379 748.926 260.545C749.381 259.697 749.653 258.667 749.744 257.455H761.381C761.335 260.53 760.631 263.212 759.267 265.5C757.903 267.773 755.972 269.53 753.472 270.773C750.987 272.015 748.017 272.636 744.562 272.636ZM789.193 256.727V237.091H801.739V272H789.83V265.364H789.466C788.708 267.591 787.383 269.333 785.489 270.591C783.595 271.833 781.345 272.455 778.739 272.455C776.299 272.455 774.163 271.894 772.33 270.773C770.511 269.652 769.095 268.106 768.08 266.136C767.08 264.167 766.572 261.909 766.557 259.364V237.091H779.102V256.727C779.117 258.455 779.557 259.811 780.42 260.795C781.299 261.78 782.527 262.273 784.102 262.273C785.148 262.273 786.049 262.053 786.807 261.614C787.58 261.159 788.17 260.523 788.58 259.705C789.004 258.871 789.208 257.879 789.193 256.727ZM840.028 248.455H828.483C828.422 247.742 828.172 247.129 827.733 246.614C827.294 246.098 826.725 245.705 826.028 245.432C825.347 245.144 824.589 245 823.756 245C822.68 245 821.756 245.197 820.983 245.591C820.21 245.985 819.831 246.545 819.847 247.273C819.831 247.788 820.051 248.265 820.506 248.705C820.975 249.144 821.877 249.485 823.21 249.727L830.301 251C833.877 251.652 836.536 252.75 838.278 254.295C840.036 255.826 840.922 257.879 840.938 260.455C840.922 262.939 840.18 265.098 838.71 266.932C837.256 268.75 835.263 270.159 832.733 271.159C830.218 272.144 827.347 272.636 824.119 272.636C818.786 272.636 814.612 271.545 811.597 269.364C808.597 267.182 806.922 264.303 806.574 260.727H819.028C819.195 261.833 819.741 262.689 820.665 263.295C821.604 263.886 822.786 264.182 824.21 264.182C825.362 264.182 826.309 263.985 827.051 263.591C827.809 263.197 828.195 262.636 828.21 261.909C828.195 261.242 827.862 260.712 827.21 260.318C826.574 259.924 825.574 259.606 824.21 259.364L818.028 258.273C814.468 257.652 811.801 256.47 810.028 254.727C808.256 252.985 807.377 250.742 807.392 248C807.377 245.576 808.013 243.523 809.301 241.841C810.604 240.144 812.46 238.856 814.869 237.977C817.294 237.083 820.165 236.636 823.483 236.636C828.528 236.636 832.506 237.682 835.415 239.773C838.339 241.864 839.877 244.758 840.028 248.455ZM858.312 272V225.455H878.403C881.858 225.455 884.881 226.136 887.472 227.5C890.063 228.864 892.078 230.78 893.517 233.25C894.956 235.72 895.676 238.606 895.676 241.909C895.676 245.242 894.934 248.129 893.449 250.568C891.979 253.008 889.911 254.886 887.244 256.205C884.593 257.523 881.494 258.182 877.949 258.182H865.949V248.364H875.403C876.888 248.364 878.153 248.106 879.199 247.591C880.259 247.061 881.07 246.311 881.631 245.341C882.206 244.371 882.494 243.227 882.494 241.909C882.494 240.576 882.206 239.439 881.631 238.5C881.07 237.545 880.259 236.818 879.199 236.318C878.153 235.803 876.888 235.545 875.403 235.545H870.949V272H858.312ZM908.659 272.545C906.432 272.545 904.462 272.182 902.75 271.455C901.053 270.712 899.72 269.591 898.75 268.091C897.78 266.591 897.295 264.682 897.295 262.364C897.295 260.455 897.621 258.826 898.273 257.477C898.924 256.114 899.833 255 901 254.136C902.167 253.273 903.523 252.614 905.068 252.159C906.629 251.705 908.311 251.409 910.114 251.273C912.068 251.121 913.636 250.939 914.818 250.727C916.015 250.5 916.879 250.189 917.409 249.795C917.939 249.386 918.205 248.848 918.205 248.182V248.091C918.205 247.182 917.856 246.485 917.159 246C916.462 245.515 915.568 245.273 914.477 245.273C913.28 245.273 912.303 245.538 911.545 246.068C910.803 246.583 910.356 247.379 910.205 248.455H898.659C898.811 246.333 899.485 244.379 900.682 242.591C901.894 240.788 903.659 239.348 905.977 238.273C908.295 237.182 911.189 236.636 914.659 236.636C917.159 236.636 919.402 236.932 921.386 237.523C923.371 238.098 925.061 238.909 926.455 239.955C927.848 240.985 928.909 242.197 929.636 243.591C930.379 244.97 930.75 246.47 930.75 248.091V272H919.023V267.091H918.75C918.053 268.394 917.205 269.447 916.205 270.25C915.22 271.053 914.091 271.636 912.818 272C911.561 272.364 910.174 272.545 908.659 272.545ZM912.75 264.636C913.705 264.636 914.598 264.439 915.432 264.045C916.28 263.652 916.97 263.083 917.5 262.341C918.03 261.598 918.295 260.697 918.295 259.636V256.727C917.962 256.864 917.606 256.992 917.227 257.114C916.864 257.235 916.47 257.348 916.045 257.455C915.636 257.561 915.197 257.659 914.727 257.75C914.273 257.841 913.795 257.924 913.295 258C912.326 258.152 911.53 258.402 910.909 258.75C910.303 259.083 909.848 259.5 909.545 260C909.258 260.485 909.114 261.03 909.114 261.636C909.114 262.606 909.455 263.348 910.136 263.864C910.818 264.379 911.689 264.636 912.75 264.636ZM953.562 285.818C950.062 285.818 947.062 285.318 944.562 284.318C942.078 283.333 940.146 281.97 938.767 280.227C937.403 278.5 936.638 276.515 936.472 274.273H948.562C948.684 275.015 948.987 275.614 949.472 276.068C949.956 276.523 950.578 276.848 951.335 277.045C952.108 277.258 952.972 277.364 953.926 277.364C955.547 277.364 956.888 276.97 957.949 276.182C959.025 275.394 959.562 273.97 959.562 271.909V266H959.199C958.744 267.182 958.047 268.189 957.108 269.023C956.169 269.841 955.04 270.47 953.722 270.909C952.403 271.333 950.956 271.545 949.381 271.545C946.896 271.545 944.608 270.97 942.517 269.818C940.441 268.667 938.775 266.841 937.517 264.341C936.275 261.841 935.653 258.576 935.653 254.545C935.653 250.333 936.305 246.909 937.608 244.273C938.926 241.636 940.623 239.705 942.699 238.477C944.79 237.25 946.987 236.636 949.29 236.636C951.017 236.636 952.532 236.939 953.835 237.545C955.138 238.136 956.229 238.932 957.108 239.932C957.987 240.917 958.653 242 959.108 243.182H959.381V237.091H971.926V271.909C971.926 274.864 971.161 277.371 969.631 279.432C968.116 281.508 965.979 283.091 963.222 284.182C960.464 285.273 957.244 285.818 953.562 285.818ZM954.017 262.636C955.169 262.636 956.153 262.318 956.972 261.682C957.805 261.03 958.441 260.106 958.881 258.909C959.335 257.697 959.562 256.242 959.562 254.545C959.562 252.818 959.335 251.341 958.881 250.114C958.441 248.871 957.805 247.924 956.972 247.273C956.153 246.606 955.169 246.273 954.017 246.273C952.866 246.273 951.881 246.606 951.062 247.273C950.259 247.924 949.638 248.871 949.199 250.114C948.775 251.341 948.562 252.818 948.562 254.545C948.562 256.273 948.775 257.742 949.199 258.955C949.638 260.152 950.259 261.068 951.062 261.705C951.881 262.326 952.866 262.636 954.017 262.636ZM995.034 272.636C991.307 272.636 988.095 271.924 985.398 270.5C982.716 269.061 980.648 267 979.193 264.318C977.754 261.621 977.034 258.394 977.034 254.636C977.034 251.03 977.761 247.879 979.216 245.182C980.67 242.485 982.723 240.386 985.375 238.886C988.027 237.386 991.155 236.636 994.761 236.636C997.398 236.636 999.784 237.045 1001.92 237.864C1004.06 238.682 1005.88 239.871 1007.4 241.432C1008.91 242.977 1010.08 244.856 1010.9 247.068C1011.72 249.28 1012.12 251.773 1012.12 254.545V257.455H980.943V250.545H1000.58C1000.56 249.545 1000.31 248.667 999.807 247.909C999.322 247.136 998.663 246.538 997.83 246.114C997.011 245.674 996.08 245.455 995.034 245.455C994.019 245.455 993.087 245.674 992.239 246.114C991.39 246.538 990.708 247.129 990.193 247.886C989.693 248.644 989.428 249.53 989.398 250.545V258C989.398 259.121 989.633 260.121 990.102 261C990.572 261.879 991.246 262.568 992.125 263.068C993.004 263.568 994.064 263.818 995.307 263.818C996.17 263.818 996.958 263.697 997.67 263.455C998.398 263.212 999.019 262.864 999.534 262.409C1000.05 261.939 1000.43 261.379 1000.67 260.727H1012.12C1011.73 263.152 1010.8 265.258 1009.33 267.045C1007.86 268.818 1005.91 270.197 1003.49 271.182C1001.08 272.152 998.261 272.636 995.034 272.636ZM125.009 341.455C123.175 341.455 121.501 341.008 119.986 340.114C118.471 339.205 117.259 337.992 116.349 336.477C115.455 334.962 115.009 333.288 115.009 331.455C115.009 329.606 115.455 327.932 116.349 326.432C117.259 324.917 118.471 323.712 119.986 322.818C121.501 321.909 123.175 321.455 125.009 321.455C126.857 321.455 128.531 321.909 130.031 322.818C131.546 323.712 132.751 324.917 133.645 326.432C134.554 327.932 135.009 329.606 135.009 331.455C135.009 333.288 134.554 334.962 133.645 336.477C132.751 337.992 131.546 339.205 130.031 340.114C128.531 341.008 126.857 341.455 125.009 341.455ZM219.455 320.909H206.636C206.545 319.848 206.303 318.886 205.909 318.023C205.53 317.159 205 316.417 204.318 315.795C203.652 315.159 202.841 314.674 201.886 314.341C200.932 313.992 199.848 313.818 198.636 313.818C196.515 313.818 194.72 314.333 193.25 315.364C191.795 316.394 190.689 317.871 189.932 319.795C189.189 321.72 188.818 324.03 188.818 326.727C188.818 329.576 189.197 331.962 189.955 333.886C190.727 335.795 191.841 337.235 193.295 338.205C194.75 339.159 196.5 339.636 198.545 339.636C199.712 339.636 200.758 339.492 201.682 339.205C202.606 338.902 203.409 338.47 204.091 337.909C204.773 337.348 205.326 336.674 205.75 335.886C206.189 335.083 206.485 334.182 206.636 333.182L219.455 333.273C219.303 335.242 218.75 337.25 217.795 339.295C216.841 341.326 215.485 343.205 213.727 344.932C211.985 346.644 209.826 348.023 207.25 349.068C204.674 350.114 201.682 350.636 198.273 350.636C194 350.636 190.167 349.72 186.773 347.886C183.394 346.053 180.72 343.356 178.75 339.795C176.795 336.235 175.818 331.879 175.818 326.727C175.818 321.545 176.818 317.182 178.818 313.636C180.818 310.076 183.515 307.386 186.909 305.568C190.303 303.735 194.091 302.818 198.273 302.818C201.212 302.818 203.917 303.22 206.386 304.023C208.856 304.826 211.023 306 212.886 307.545C214.75 309.076 216.25 310.962 217.386 313.205C218.523 315.447 219.212 318.015 219.455 320.909ZM242.188 350.636C238.4 350.636 235.157 349.886 232.46 348.386C229.763 346.871 227.695 344.765 226.256 342.068C224.816 339.356 224.097 336.212 224.097 332.636C224.097 329.061 224.816 325.924 226.256 323.227C227.695 320.515 229.763 318.409 232.46 316.909C235.157 315.394 238.4 314.636 242.188 314.636C245.975 314.636 249.218 315.394 251.915 316.909C254.612 318.409 256.68 320.515 258.119 323.227C259.559 325.924 260.278 329.061 260.278 332.636C260.278 336.212 259.559 339.356 258.119 342.068C256.68 344.765 254.612 346.871 251.915 348.386C249.218 349.886 245.975 350.636 242.188 350.636ZM242.278 341.364C243.339 341.364 244.256 341.008 245.028 340.295C245.801 339.583 246.4 338.568 246.824 337.25C247.248 335.932 247.46 334.364 247.46 332.545C247.46 330.712 247.248 329.144 246.824 327.841C246.4 326.523 245.801 325.508 245.028 324.795C244.256 324.083 243.339 323.727 242.278 323.727C241.157 323.727 240.195 324.083 239.392 324.795C238.589 325.508 237.975 326.523 237.551 327.841C237.127 329.144 236.915 330.712 236.915 332.545C236.915 334.364 237.127 335.932 237.551 337.25C237.975 338.568 238.589 339.583 239.392 340.295C240.195 341.008 241.157 341.364 242.278 341.364ZM288.006 334.727V315.091H300.551V350H288.642V343.364H288.278C287.521 345.591 286.195 347.333 284.301 348.591C282.407 349.833 280.157 350.455 277.551 350.455C275.112 350.455 272.975 349.894 271.142 348.773C269.324 347.652 267.907 346.106 266.892 344.136C265.892 342.167 265.384 339.909 265.369 337.364V315.091H277.915V334.727C277.93 336.455 278.369 337.811 279.233 338.795C280.112 339.78 281.339 340.273 282.915 340.273C283.96 340.273 284.862 340.053 285.619 339.614C286.392 339.159 286.983 338.523 287.392 337.705C287.816 336.871 288.021 335.879 288.006 334.727ZM319.477 330.364V350H306.932V315.091H318.841V321.727H319.205C319.962 319.515 321.295 317.78 323.205 316.523C325.129 315.265 327.371 314.636 329.932 314.636C332.402 314.636 334.545 315.205 336.364 316.341C338.197 317.462 339.614 319.008 340.614 320.977C341.629 322.947 342.129 325.197 342.114 327.727V350H329.568V330.364C329.583 328.636 329.144 327.28 328.25 326.295C327.371 325.311 326.144 324.818 324.568 324.818C323.538 324.818 322.636 325.045 321.864 325.5C321.106 325.939 320.523 326.576 320.114 327.409C319.705 328.227 319.492 329.212 319.477 330.364ZM369.125 315.091V324.182H346.125V315.091H369.125ZM350.58 306.727H363.125V338.773C363.125 339.258 363.208 339.667 363.375 340C363.542 340.318 363.799 340.561 364.148 340.727C364.496 340.879 364.943 340.955 365.489 340.955C365.867 340.955 366.307 340.909 366.807 340.818C367.322 340.727 367.701 340.652 367.943 340.591L369.761 349.409C369.201 349.576 368.398 349.78 367.352 350.023C366.322 350.265 365.095 350.424 363.67 350.5C360.792 350.652 358.375 350.356 356.42 349.614C354.466 348.856 352.996 347.667 352.011 346.045C351.027 344.424 350.549 342.394 350.58 339.955V306.727ZM386.506 350.455C384.021 350.455 381.733 349.803 379.642 348.5C377.566 347.197 375.9 345.22 374.642 342.568C373.4 339.917 372.778 336.576 372.778 332.545C372.778 328.333 373.43 324.909 374.733 322.273C376.051 319.636 377.748 317.705 379.824 316.477C381.915 315.25 384.112 314.636 386.415 314.636C388.142 314.636 389.657 314.939 390.96 315.545C392.263 316.136 393.354 316.932 394.233 317.932C395.112 318.917 395.778 320 396.233 321.182H396.415V303.455H408.96V350H396.506V344.273H396.233C395.748 345.455 395.051 346.515 394.142 347.455C393.248 348.379 392.157 349.114 390.869 349.659C389.597 350.189 388.142 350.455 386.506 350.455ZM391.142 340.818C392.294 340.818 393.278 340.485 394.097 339.818C394.93 339.136 395.566 338.182 396.006 336.955C396.46 335.712 396.688 334.242 396.688 332.545C396.688 330.818 396.46 329.341 396.006 328.114C395.566 326.871 394.93 325.924 394.097 325.273C393.278 324.606 392.294 324.273 391.142 324.273C389.991 324.273 389.006 324.606 388.188 325.273C387.384 325.924 386.763 326.871 386.324 328.114C385.9 329.341 385.688 330.818 385.688 332.545C385.688 334.273 385.9 335.758 386.324 337C386.763 338.227 387.384 339.174 388.188 339.841C389.006 340.492 389.991 340.818 391.142 340.818ZM431.938 350.636C428.15 350.636 424.907 349.886 422.21 348.386C419.513 346.871 417.445 344.765 416.006 342.068C414.566 339.356 413.847 336.212 413.847 332.636C413.847 329.061 414.566 325.924 416.006 323.227C417.445 320.515 419.513 318.409 422.21 316.909C424.907 315.394 428.15 314.636 431.938 314.636C435.725 314.636 438.968 315.394 441.665 316.909C444.362 318.409 446.43 320.515 447.869 323.227C449.309 325.924 450.028 329.061 450.028 332.636C450.028 336.212 449.309 339.356 447.869 342.068C446.43 344.765 444.362 346.871 441.665 348.386C438.968 349.886 435.725 350.636 431.938 350.636ZM432.028 341.364C433.089 341.364 434.006 341.008 434.778 340.295C435.551 339.583 436.15 338.568 436.574 337.25C436.998 335.932 437.21 334.364 437.21 332.545C437.21 330.712 436.998 329.144 436.574 327.841C436.15 326.523 435.551 325.508 434.778 324.795C434.006 324.083 433.089 323.727 432.028 323.727C430.907 323.727 429.945 324.083 429.142 324.795C428.339 325.508 427.725 326.523 427.301 327.841C426.877 329.144 426.665 330.712 426.665 332.545C426.665 334.364 426.877 335.932 427.301 337.25C427.725 338.568 428.339 339.583 429.142 340.295C429.945 341.008 430.907 341.364 432.028 341.364ZM460.676 350L451.949 315.091H464.494L468.494 336.364H468.767L473.222 315.091H485.403L490.04 336.182H490.312L494.131 315.091H506.676L497.949 350H484.403L479.494 331.273H479.131L474.222 350H460.676ZM523.04 330.364V350H510.494V315.091H522.403V321.727H522.767C523.525 319.515 524.858 317.78 526.767 316.523C528.691 315.265 530.934 314.636 533.494 314.636C535.964 314.636 538.108 315.205 539.926 316.341C541.759 317.462 543.176 319.008 544.176 320.977C545.191 322.947 545.691 325.197 545.676 327.727V350H533.131V330.364C533.146 328.636 532.706 327.28 531.812 326.295C530.934 325.311 529.706 324.818 528.131 324.818C527.1 324.818 526.199 325.045 525.426 325.5C524.669 325.939 524.085 326.576 523.676 327.409C523.267 328.227 523.055 329.212 523.04 330.364ZM564.438 350V303.455H584.619C588.165 303.455 591.142 303.932 593.551 304.886C595.975 305.841 597.801 307.189 599.028 308.932C600.271 310.674 600.892 312.727 600.892 315.091C600.892 316.803 600.513 318.364 599.756 319.773C599.013 321.182 597.968 322.364 596.619 323.318C595.271 324.258 593.695 324.909 591.892 325.273V325.727C593.892 325.803 595.71 326.311 597.347 327.25C598.983 328.174 600.286 329.455 601.256 331.091C602.225 332.712 602.71 334.621 602.71 336.818C602.71 339.364 602.044 341.629 600.71 343.614C599.392 345.598 597.513 347.159 595.074 348.295C592.634 349.432 589.725 350 586.347 350H564.438ZM577.074 339.909H582.983C585.104 339.909 586.695 339.515 587.756 338.727C588.816 337.924 589.347 336.742 589.347 335.182C589.347 334.091 589.097 333.167 588.597 332.409C588.097 331.652 587.384 331.076 586.46 330.682C585.551 330.288 584.453 330.091 583.165 330.091H577.074V339.909ZM577.074 322.273H582.256C583.362 322.273 584.339 322.098 585.188 321.75C586.036 321.402 586.695 320.902 587.165 320.25C587.65 319.583 587.892 318.773 587.892 317.818C587.892 316.379 587.377 315.28 586.347 314.523C585.316 313.75 584.013 313.364 582.438 313.364H577.074V322.273ZM630.006 334.727V315.091H642.551V350H630.642V343.364H630.278C629.521 345.591 628.195 347.333 626.301 348.591C624.407 349.833 622.157 350.455 619.551 350.455C617.112 350.455 614.975 349.894 613.142 348.773C611.324 347.652 609.907 346.106 608.892 344.136C607.892 342.167 607.384 339.909 607.369 337.364V315.091H619.915V334.727C619.93 336.455 620.369 337.811 621.233 338.795C622.112 339.78 623.339 340.273 624.915 340.273C625.96 340.273 626.862 340.053 627.619 339.614C628.392 339.159 628.983 338.523 629.392 337.705C629.816 336.871 630.021 335.879 630.006 334.727ZM648.75 350V303.455H661.295V321.182H661.477C661.932 320 662.598 318.917 663.477 317.932C664.356 316.932 665.447 316.136 666.75 315.545C668.053 314.939 669.568 314.636 671.295 314.636C673.598 314.636 675.788 315.25 677.864 316.477C679.955 317.705 681.652 319.636 682.955 322.273C684.273 324.909 684.932 328.333 684.932 332.545C684.932 336.576 684.303 339.917 683.045 342.568C681.803 345.22 680.136 347.197 678.045 348.5C675.97 349.803 673.689 350.455 671.205 350.455C669.568 350.455 668.106 350.189 666.818 349.659C665.545 349.114 664.455 348.379 663.545 347.455C662.652 346.515 661.962 345.455 661.477 344.273H661.205V350H648.75ZM661.023 332.545C661.023 334.242 661.242 335.712 661.682 336.955C662.136 338.182 662.773 339.136 663.591 339.818C664.424 340.485 665.417 340.818 666.568 340.818C667.72 340.818 668.697 340.492 669.5 339.841C670.318 339.174 670.939 338.227 671.364 337C671.803 335.758 672.023 334.273 672.023 332.545C672.023 330.818 671.803 329.341 671.364 328.114C670.939 326.871 670.318 325.924 669.5 325.273C668.697 324.606 667.72 324.273 666.568 324.273C665.417 324.273 664.424 324.606 663.591 325.273C662.773 325.924 662.136 326.871 661.682 328.114C661.242 329.341 661.023 330.818 661.023 332.545ZM690 350V303.455H702.545V321.182H702.727C703.182 320 703.848 318.917 704.727 317.932C705.606 316.932 706.697 316.136 708 315.545C709.303 314.939 710.818 314.636 712.545 314.636C714.848 314.636 717.038 315.25 719.114 316.477C721.205 317.705 722.902 319.636 724.205 322.273C725.523 324.909 726.182 328.333 726.182 332.545C726.182 336.576 725.553 339.917 724.295 342.568C723.053 345.22 721.386 347.197 719.295 348.5C717.22 349.803 714.939 350.455 712.455 350.455C710.818 350.455 709.356 350.189 708.068 349.659C706.795 349.114 705.705 348.379 704.795 347.455C703.902 346.515 703.212 345.455 702.727 344.273H702.455V350H690ZM702.273 332.545C702.273 334.242 702.492 335.712 702.932 336.955C703.386 338.182 704.023 339.136 704.841 339.818C705.674 340.485 706.667 340.818 707.818 340.818C708.97 340.818 709.947 340.492 710.75 339.841C711.568 339.174 712.189 338.227 712.614 337C713.053 335.758 713.273 334.273 713.273 332.545C713.273 330.818 713.053 329.341 712.614 328.114C712.189 326.871 711.568 325.924 710.75 325.273C709.947 324.606 708.97 324.273 707.818 324.273C706.667 324.273 705.674 324.606 704.841 325.273C704.023 325.924 703.386 326.871 702.932 328.114C702.492 329.341 702.273 330.818 702.273 332.545ZM743.977 303.455V350H731.432V303.455H743.977ZM767.097 350.636C763.369 350.636 760.157 349.924 757.46 348.5C754.778 347.061 752.71 345 751.256 342.318C749.816 339.621 749.097 336.394 749.097 332.636C749.097 329.03 749.824 325.879 751.278 323.182C752.733 320.485 754.786 318.386 757.438 316.886C760.089 315.386 763.218 314.636 766.824 314.636C769.46 314.636 771.847 315.045 773.983 315.864C776.119 316.682 777.945 317.871 779.46 319.432C780.975 320.977 782.142 322.856 782.96 325.068C783.778 327.28 784.188 329.773 784.188 332.545V335.455H753.006V328.545H772.642C772.627 327.545 772.369 326.667 771.869 325.909C771.384 325.136 770.725 324.538 769.892 324.114C769.074 323.674 768.142 323.455 767.097 323.455C766.081 323.455 765.15 323.674 764.301 324.114C763.453 324.538 762.771 325.129 762.256 325.886C761.756 326.644 761.491 327.53 761.46 328.545V336C761.46 337.121 761.695 338.121 762.165 339C762.634 339.879 763.309 340.568 764.188 341.068C765.066 341.568 766.127 341.818 767.369 341.818C768.233 341.818 769.021 341.697 769.733 341.455C770.46 341.212 771.081 340.864 771.597 340.409C772.112 339.939 772.491 339.379 772.733 338.727H784.188C783.794 341.152 782.862 343.258 781.392 345.045C779.922 346.818 777.975 348.197 775.551 349.182C773.142 350.152 770.324 350.636 767.097 350.636ZM125.009 418.455C123.175 418.455 121.501 418.008 119.986 417.114C118.471 416.205 117.259 414.992 116.349 413.477C115.455 411.962 115.009 410.288 115.009 408.455C115.009 406.606 115.455 404.932 116.349 403.432C117.259 401.917 118.471 400.712 119.986 399.818C121.501 398.909 123.175 398.455 125.009 398.455C126.857 398.455 128.531 398.909 130.031 399.818C131.546 400.712 132.751 401.917 133.645 403.432C134.554 404.932 135.009 406.606 135.009 408.455C135.009 410.288 134.554 411.962 133.645 413.477C132.751 414.992 131.546 416.205 130.031 417.114C128.531 418.008 126.857 418.455 125.009 418.455ZM176 427V380.455H196.091C199.545 380.455 202.568 381.136 205.159 382.5C207.75 383.864 209.765 385.78 211.205 388.25C212.644 390.72 213.364 393.606 213.364 396.909C213.364 400.242 212.621 403.129 211.136 405.568C209.667 408.008 207.598 409.886 204.932 411.205C202.28 412.523 199.182 413.182 195.636 413.182H183.636V403.364H193.091C194.576 403.364 195.841 403.106 196.886 402.591C197.947 402.061 198.758 401.311 199.318 400.341C199.894 399.371 200.182 398.227 200.182 396.909C200.182 395.576 199.894 394.439 199.318 393.5C198.758 392.545 197.947 391.818 196.886 391.318C195.841 390.803 194.576 390.545 193.091 390.545H188.636V427H176ZM226.347 427.545C224.119 427.545 222.15 427.182 220.438 426.455C218.741 425.712 217.407 424.591 216.438 423.091C215.468 421.591 214.983 419.682 214.983 417.364C214.983 415.455 215.309 413.826 215.96 412.477C216.612 411.114 217.521 410 218.688 409.136C219.854 408.273 221.21 407.614 222.756 407.159C224.316 406.705 225.998 406.409 227.801 406.273C229.756 406.121 231.324 405.939 232.506 405.727C233.703 405.5 234.566 405.189 235.097 404.795C235.627 404.386 235.892 403.848 235.892 403.182V403.091C235.892 402.182 235.544 401.485 234.847 401C234.15 400.515 233.256 400.273 232.165 400.273C230.968 400.273 229.991 400.538 229.233 401.068C228.491 401.583 228.044 402.379 227.892 403.455H216.347C216.498 401.333 217.172 399.379 218.369 397.591C219.581 395.788 221.347 394.348 223.665 393.273C225.983 392.182 228.877 391.636 232.347 391.636C234.847 391.636 237.089 391.932 239.074 392.523C241.059 393.098 242.748 393.909 244.142 394.955C245.536 395.985 246.597 397.197 247.324 398.591C248.066 399.97 248.438 401.47 248.438 403.091V427H236.71V422.091H236.438C235.741 423.394 234.892 424.447 233.892 425.25C232.907 426.053 231.778 426.636 230.506 427C229.248 427.364 227.862 427.545 226.347 427.545ZM230.438 419.636C231.392 419.636 232.286 419.439 233.119 419.045C233.968 418.652 234.657 418.083 235.188 417.341C235.718 416.598 235.983 415.697 235.983 414.636V411.727C235.65 411.864 235.294 411.992 234.915 412.114C234.551 412.235 234.157 412.348 233.733 412.455C233.324 412.561 232.884 412.659 232.415 412.75C231.96 412.841 231.483 412.924 230.983 413C230.013 413.152 229.218 413.402 228.597 413.75C227.991 414.083 227.536 414.5 227.233 415C226.945 415.485 226.801 416.03 226.801 416.636C226.801 417.606 227.142 418.348 227.824 418.864C228.506 419.379 229.377 419.636 230.438 419.636ZM277.068 411.727V392.091H289.614V427H277.705V420.364H277.341C276.583 422.591 275.258 424.333 273.364 425.591C271.47 426.833 269.22 427.455 266.614 427.455C264.174 427.455 262.038 426.894 260.205 425.773C258.386 424.652 256.97 423.106 255.955 421.136C254.955 419.167 254.447 416.909 254.432 414.364V392.091H266.977V411.727C266.992 413.455 267.432 414.811 268.295 415.795C269.174 416.78 270.402 417.273 271.977 417.273C273.023 417.273 273.924 417.053 274.682 416.614C275.455 416.159 276.045 415.523 276.455 414.705C276.879 413.871 277.083 412.879 277.068 411.727ZM327.903 403.455H316.358C316.297 402.742 316.047 402.129 315.608 401.614C315.169 401.098 314.6 400.705 313.903 400.432C313.222 400.144 312.464 400 311.631 400C310.555 400 309.631 400.197 308.858 400.591C308.085 400.985 307.706 401.545 307.722 402.273C307.706 402.788 307.926 403.265 308.381 403.705C308.85 404.144 309.752 404.485 311.085 404.727L318.176 406C321.752 406.652 324.411 407.75 326.153 409.295C327.911 410.826 328.797 412.879 328.812 415.455C328.797 417.939 328.055 420.098 326.585 421.932C325.131 423.75 323.138 425.159 320.608 426.159C318.093 427.144 315.222 427.636 311.994 427.636C306.661 427.636 302.487 426.545 299.472 424.364C296.472 422.182 294.797 419.303 294.449 415.727H306.903C307.07 416.833 307.616 417.689 308.54 418.295C309.479 418.886 310.661 419.182 312.085 419.182C313.237 419.182 314.184 418.985 314.926 418.591C315.684 418.197 316.07 417.636 316.085 416.909C316.07 416.242 315.737 415.712 315.085 415.318C314.449 414.924 313.449 414.606 312.085 414.364L305.903 413.273C302.343 412.652 299.676 411.47 297.903 409.727C296.131 407.985 295.252 405.742 295.267 403C295.252 400.576 295.888 398.523 297.176 396.841C298.479 395.144 300.335 393.856 302.744 392.977C305.169 392.083 308.04 391.636 311.358 391.636C316.403 391.636 320.381 392.682 323.29 394.773C326.214 396.864 327.752 399.758 327.903 403.455ZM350.347 427.636C346.619 427.636 343.407 426.924 340.71 425.5C338.028 424.061 335.96 422 334.506 419.318C333.066 416.621 332.347 413.394 332.347 409.636C332.347 406.03 333.074 402.879 334.528 400.182C335.983 397.485 338.036 395.386 340.688 393.886C343.339 392.386 346.468 391.636 350.074 391.636C352.71 391.636 355.097 392.045 357.233 392.864C359.369 393.682 361.195 394.871 362.71 396.432C364.225 397.977 365.392 399.856 366.21 402.068C367.028 404.28 367.438 406.773 367.438 409.545V412.455H336.256V405.545H355.892C355.877 404.545 355.619 403.667 355.119 402.909C354.634 402.136 353.975 401.538 353.142 401.114C352.324 400.674 351.392 400.455 350.347 400.455C349.331 400.455 348.4 400.674 347.551 401.114C346.703 401.538 346.021 402.129 345.506 402.886C345.006 403.644 344.741 404.53 344.71 405.545V413C344.71 414.121 344.945 415.121 345.415 416C345.884 416.879 346.559 417.568 347.438 418.068C348.316 418.568 349.377 418.818 350.619 418.818C351.483 418.818 352.271 418.697 352.983 418.455C353.71 418.212 354.331 417.864 354.847 417.409C355.362 416.939 355.741 416.379 355.983 415.727H367.438C367.044 418.152 366.112 420.258 364.642 422.045C363.172 423.818 361.225 425.197 358.801 426.182C356.392 427.152 353.574 427.636 350.347 427.636ZM385.125 427V380.455H417.852V390.636H397.761V398.636H415.852V408.818H397.761V427H385.125ZM433.5 392.091L438.591 402.909L443.955 392.091H456.409L447.045 409.545L456.864 427H444.5L438.591 415.909L432.864 427H420.318L430.227 409.545L420.955 392.091H433.5ZM221.009 495.455C219.175 495.455 217.501 495.008 215.986 494.114C214.471 493.205 213.259 491.992 212.349 490.477C211.455 488.962 211.009 487.288 211.009 485.455C211.009 483.606 211.455 481.932 212.349 480.432C213.259 478.917 214.471 477.712 215.986 476.818C217.501 475.909 219.175 475.455 221.009 475.455C222.857 475.455 224.531 475.909 226.031 476.818C227.546 477.712 228.751 478.917 229.645 480.432C230.554 481.932 231.009 483.606 231.009 485.455C231.009 487.288 230.554 488.962 229.645 490.477C228.751 491.992 227.546 493.205 226.031 494.114C224.531 495.008 222.857 495.455 221.009 495.455ZM272.182 504V469.091H284.091V475.727H284.455C285.182 473.545 286.424 471.818 288.182 470.545C289.939 469.273 292.03 468.636 294.455 468.636C296.909 468.636 299.023 469.288 300.795 470.591C302.568 471.879 303.636 473.591 304 475.727H304.364C304.955 473.591 306.212 471.879 308.136 470.591C310.061 469.288 312.318 468.636 314.909 468.636C318.258 468.636 320.97 469.712 323.045 471.864C325.136 474.015 326.182 476.879 326.182 480.455V504H313.636V483.636C313.636 482.106 313.25 480.909 312.477 480.045C311.705 479.167 310.667 478.727 309.364 478.727C308.076 478.727 307.053 479.167 306.295 480.045C305.553 480.909 305.182 482.106 305.182 483.636V504H293.182V483.636C293.182 482.106 292.795 480.909 292.023 480.045C291.25 479.167 290.212 478.727 288.909 478.727C288.045 478.727 287.303 478.924 286.682 479.318C286.061 479.712 285.576 480.28 285.227 481.023C284.894 481.75 284.727 482.621 284.727 483.636V504H272.182ZM355.006 488.727V469.091H367.551V504H355.642V497.364H355.278C354.521 499.591 353.195 501.333 351.301 502.591C349.407 503.833 347.157 504.455 344.551 504.455C342.112 504.455 339.975 503.894 338.142 502.773C336.324 501.652 334.907 500.106 333.892 498.136C332.892 496.167 332.384 493.909 332.369 491.364V469.091H344.915V488.727C344.93 490.455 345.369 491.811 346.233 492.795C347.112 493.78 348.339 494.273 349.915 494.273C350.96 494.273 351.862 494.053 352.619 493.614C353.392 493.159 353.983 492.523 354.392 491.705C354.816 490.871 355.021 489.879 355.006 488.727ZM405.841 480.455H394.295C394.235 479.742 393.985 479.129 393.545 478.614C393.106 478.098 392.538 477.705 391.841 477.432C391.159 477.144 390.402 477 389.568 477C388.492 477 387.568 477.197 386.795 477.591C386.023 477.985 385.644 478.545 385.659 479.273C385.644 479.788 385.864 480.265 386.318 480.705C386.788 481.144 387.689 481.485 389.023 481.727L396.114 483C399.689 483.652 402.348 484.75 404.091 486.295C405.848 487.826 406.735 489.879 406.75 492.455C406.735 494.939 405.992 497.098 404.523 498.932C403.068 500.75 401.076 502.159 398.545 503.159C396.03 504.144 393.159 504.636 389.932 504.636C384.598 504.636 380.424 503.545 377.409 501.364C374.409 499.182 372.735 496.303 372.386 492.727H384.841C385.008 493.833 385.553 494.689 386.477 495.295C387.417 495.886 388.598 496.182 390.023 496.182C391.174 496.182 392.121 495.985 392.864 495.591C393.621 495.197 394.008 494.636 394.023 493.909C394.008 493.242 393.674 492.712 393.023 492.318C392.386 491.924 391.386 491.606 390.023 491.364L383.841 490.273C380.28 489.652 377.614 488.47 375.841 486.727C374.068 484.985 373.189 482.742 373.205 480C373.189 477.576 373.826 475.523 375.114 473.841C376.417 472.144 378.273 470.856 380.682 469.977C383.106 469.083 385.977 468.636 389.295 468.636C394.341 468.636 398.318 469.682 401.227 471.773C404.152 473.864 405.689 476.758 405.841 480.455ZM411.557 504V469.091H424.102V504H411.557ZM417.83 465.455C416.133 465.455 414.678 464.894 413.466 463.773C412.254 462.652 411.648 461.303 411.648 459.727C411.648 458.152 412.254 456.803 413.466 455.682C414.678 454.561 416.133 454 417.83 454C419.542 454 420.996 454.561 422.193 455.682C423.405 456.803 424.011 458.152 424.011 459.727C424.011 461.303 423.405 462.652 422.193 463.773C420.996 464.894 419.542 465.455 417.83 465.455ZM447.312 504.636C443.525 504.636 440.282 503.886 437.585 502.386C434.888 500.871 432.82 498.765 431.381 496.068C429.941 493.356 429.222 490.212 429.222 486.636C429.222 483.061 429.941 479.924 431.381 477.227C432.82 474.515 434.888 472.409 437.585 470.909C440.282 469.394 443.525 468.636 447.312 468.636C450.737 468.636 453.699 469.258 456.199 470.5C458.714 471.727 460.661 473.47 462.04 475.727C463.419 477.97 464.116 480.606 464.131 483.636H452.494C452.328 481.803 451.797 480.409 450.903 479.455C450.025 478.485 448.888 478 447.494 478C446.403 478 445.449 478.318 444.631 478.955C443.813 479.576 443.176 480.523 442.722 481.795C442.267 483.053 442.04 484.636 442.04 486.545C442.04 488.455 442.267 490.045 442.722 491.318C443.176 492.576 443.813 493.523 444.631 494.159C445.449 494.78 446.403 495.091 447.494 495.091C448.419 495.091 449.237 494.879 449.949 494.455C450.661 494.015 451.237 493.379 451.676 492.545C452.131 491.697 452.403 490.667 452.494 489.455H464.131C464.085 492.53 463.381 495.212 462.017 497.5C460.653 499.773 458.722 501.53 456.222 502.773C453.737 504.015 450.767 504.636 447.312 504.636ZM221.009 572.455C219.175 572.455 217.501 572.008 215.986 571.114C214.471 570.205 213.259 568.992 212.349 567.477C211.455 565.962 211.009 564.288 211.009 562.455C211.009 560.606 211.455 558.932 212.349 557.432C213.259 555.917 214.471 554.712 215.986 553.818C217.501 552.909 219.175 552.455 221.009 552.455C222.857 552.455 224.531 552.909 226.031 553.818C227.546 554.712 228.751 555.917 229.645 557.432C230.554 558.932 231.009 560.606 231.009 562.455C231.009 564.288 230.554 565.962 229.645 567.477C228.751 568.992 227.546 570.205 226.031 571.114C224.531 572.008 222.857 572.455 221.009 572.455ZM293 546.091V555.182H270V546.091H293ZM274.455 537.727H287V569.773C287 570.258 287.083 570.667 287.25 571C287.417 571.318 287.674 571.561 288.023 571.727C288.371 571.879 288.818 571.955 289.364 571.955C289.742 571.955 290.182 571.909 290.682 571.818C291.197 571.727 291.576 571.652 291.818 571.591L293.636 580.409C293.076 580.576 292.273 580.78 291.227 581.023C290.197 581.265 288.97 581.424 287.545 581.5C284.667 581.652 282.25 581.356 280.295 580.614C278.341 579.856 276.871 578.667 275.886 577.045C274.902 575.424 274.424 573.394 274.455 570.955V537.727ZM298.119 581V546.091H310.665V581H298.119ZM304.392 542.455C302.695 542.455 301.241 541.894 300.028 540.773C298.816 539.652 298.21 538.303 298.21 536.727C298.21 535.152 298.816 533.803 300.028 532.682C301.241 531.561 302.695 531 304.392 531C306.104 531 307.559 531.561 308.756 532.682C309.968 533.803 310.574 535.152 310.574 536.727C310.574 538.303 309.968 539.652 308.756 540.773C307.559 541.894 306.104 542.455 304.392 542.455ZM317.057 581V546.091H328.966V552.727H329.33C330.057 550.545 331.299 548.818 333.057 547.545C334.814 546.273 336.905 545.636 339.33 545.636C341.784 545.636 343.898 546.288 345.67 547.591C347.443 548.879 348.511 550.591 348.875 552.727H349.239C349.83 550.591 351.087 548.879 353.011 547.591C354.936 546.288 357.193 545.636 359.784 545.636C363.133 545.636 365.845 546.712 367.92 548.864C370.011 551.015 371.057 553.879 371.057 557.455V581H358.511V560.636C358.511 559.106 358.125 557.909 357.352 557.045C356.58 556.167 355.542 555.727 354.239 555.727C352.951 555.727 351.928 556.167 351.17 557.045C350.428 557.909 350.057 559.106 350.057 560.636V581H338.057V560.636C338.057 559.106 337.67 557.909 336.898 557.045C336.125 556.167 335.087 555.727 333.784 555.727C332.92 555.727 332.178 555.924 331.557 556.318C330.936 556.712 330.451 557.28 330.102 558.023C329.769 558.75 329.602 559.621 329.602 560.636V581H317.057ZM393.972 581.636C390.244 581.636 387.032 580.924 384.335 579.5C381.653 578.061 379.585 576 378.131 573.318C376.691 570.621 375.972 567.394 375.972 563.636C375.972 560.03 376.699 556.879 378.153 554.182C379.608 551.485 381.661 549.386 384.312 547.886C386.964 546.386 390.093 545.636 393.699 545.636C396.335 545.636 398.722 546.045 400.858 546.864C402.994 547.682 404.82 548.871 406.335 550.432C407.85 551.977 409.017 553.856 409.835 556.068C410.653 558.28 411.062 560.773 411.062 563.545V566.455H379.881V559.545H399.517C399.502 558.545 399.244 557.667 398.744 556.909C398.259 556.136 397.6 555.538 396.767 555.114C395.949 554.674 395.017 554.455 393.972 554.455C392.956 554.455 392.025 554.674 391.176 555.114C390.328 555.538 389.646 556.129 389.131 556.886C388.631 557.644 388.366 558.53 388.335 559.545V567C388.335 568.121 388.57 569.121 389.04 570C389.509 570.879 390.184 571.568 391.062 572.068C391.941 572.568 393.002 572.818 394.244 572.818C395.108 572.818 395.896 572.697 396.608 572.455C397.335 572.212 397.956 571.864 398.472 571.409C398.987 570.939 399.366 570.379 399.608 569.727H411.062C410.669 572.152 409.737 574.258 408.267 576.045C406.797 577.818 404.85 579.197 402.426 580.182C400.017 581.152 397.199 581.636 393.972 581.636ZM416.182 581V546.091H428.364V552.727H428.727C429.364 550.273 430.371 548.477 431.75 547.341C433.144 546.205 434.773 545.636 436.636 545.636C437.182 545.636 437.72 545.682 438.25 545.773C438.795 545.848 439.318 545.962 439.818 546.114V556.818C439.197 556.606 438.432 556.447 437.523 556.341C436.614 556.235 435.833 556.182 435.182 556.182C433.955 556.182 432.848 556.462 431.864 557.023C430.894 557.568 430.129 558.341 429.568 559.341C429.008 560.326 428.727 561.485 428.727 562.818V581H416.182ZM125.009 649.455C123.175 649.455 121.501 649.008 119.986 648.114C118.471 647.205 117.259 645.992 116.349 644.477C115.455 642.962 115.009 641.288 115.009 639.455C115.009 637.606 115.455 635.932 116.349 634.432C117.259 632.917 118.471 631.712 119.986 630.818C121.501 629.909 123.175 629.455 125.009 629.455C126.857 629.455 128.531 629.909 130.031 630.818C131.546 631.712 132.751 632.917 133.645 634.432C134.554 635.932 135.009 637.606 135.009 639.455C135.009 641.288 134.554 642.962 133.645 644.477C132.751 645.992 131.546 647.205 130.031 648.114C128.531 649.008 126.857 649.455 125.009 649.455ZM174.727 621.636V611.455H215.182V621.636H201.182V658H188.727V621.636H174.727ZM216.494 658V623.091H228.676V629.727H229.04C229.676 627.273 230.684 625.477 232.062 624.341C233.456 623.205 235.085 622.636 236.949 622.636C237.494 622.636 238.032 622.682 238.562 622.773C239.108 622.848 239.631 622.962 240.131 623.114V633.818C239.509 633.606 238.744 633.447 237.835 633.341C236.926 633.235 236.146 633.182 235.494 633.182C234.267 633.182 233.161 633.462 232.176 634.023C231.206 634.568 230.441 635.341 229.881 636.341C229.32 637.326 229.04 638.485 229.04 639.818V658H216.494ZM252.347 658.545C250.119 658.545 248.15 658.182 246.438 657.455C244.741 656.712 243.407 655.591 242.438 654.091C241.468 652.591 240.983 650.682 240.983 648.364C240.983 646.455 241.309 644.826 241.96 643.477C242.612 642.114 243.521 641 244.688 640.136C245.854 639.273 247.21 638.614 248.756 638.159C250.316 637.705 251.998 637.409 253.801 637.273C255.756 637.121 257.324 636.939 258.506 636.727C259.703 636.5 260.566 636.189 261.097 635.795C261.627 635.386 261.892 634.848 261.892 634.182V634.091C261.892 633.182 261.544 632.485 260.847 632C260.15 631.515 259.256 631.273 258.165 631.273C256.968 631.273 255.991 631.538 255.233 632.068C254.491 632.583 254.044 633.379 253.892 634.455H242.347C242.498 632.333 243.172 630.379 244.369 628.591C245.581 626.788 247.347 625.348 249.665 624.273C251.983 623.182 254.877 622.636 258.347 622.636C260.847 622.636 263.089 622.932 265.074 623.523C267.059 624.098 268.748 624.909 270.142 625.955C271.536 626.985 272.597 628.197 273.324 629.591C274.066 630.97 274.438 632.47 274.438 634.091V658H262.71V653.091H262.438C261.741 654.394 260.892 655.447 259.892 656.25C258.907 657.053 257.778 657.636 256.506 658C255.248 658.364 253.862 658.545 252.347 658.545ZM256.438 650.636C257.392 650.636 258.286 650.439 259.119 650.045C259.968 649.652 260.657 649.083 261.188 648.341C261.718 647.598 261.983 646.697 261.983 645.636V642.727C261.65 642.864 261.294 642.992 260.915 643.114C260.551 643.235 260.157 643.348 259.733 643.455C259.324 643.561 258.884 643.659 258.415 643.75C257.96 643.841 257.483 643.924 256.983 644C256.013 644.152 255.218 644.402 254.597 644.75C253.991 645.083 253.536 645.5 253.233 646C252.945 646.485 252.801 647.03 252.801 647.636C252.801 648.606 253.142 649.348 253.824 649.864C254.506 650.379 255.377 650.636 256.438 650.636ZM292.977 638.364V658H280.432V623.091H292.341V629.727H292.705C293.462 627.515 294.795 625.78 296.705 624.523C298.629 623.265 300.871 622.636 303.432 622.636C305.902 622.636 308.045 623.205 309.864 624.341C311.697 625.462 313.114 627.008 314.114 628.977C315.129 630.947 315.629 633.197 315.614 635.727V658H303.068V638.364C303.083 636.636 302.644 635.28 301.75 634.295C300.871 633.311 299.644 632.818 298.068 632.818C297.038 632.818 296.136 633.045 295.364 633.5C294.606 633.939 294.023 634.576 293.614 635.409C293.205 636.227 292.992 637.212 292.977 638.364ZM353.716 634.455H342.17C342.11 633.742 341.86 633.129 341.42 632.614C340.981 632.098 340.413 631.705 339.716 631.432C339.034 631.144 338.277 631 337.443 631C336.367 631 335.443 631.197 334.67 631.591C333.898 631.985 333.519 632.545 333.534 633.273C333.519 633.788 333.739 634.265 334.193 634.705C334.663 635.144 335.564 635.485 336.898 635.727L343.989 637C347.564 637.652 350.223 638.75 351.966 640.295C353.723 641.826 354.61 643.879 354.625 646.455C354.61 648.939 353.867 651.098 352.398 652.932C350.943 654.75 348.951 656.159 346.42 657.159C343.905 658.144 341.034 658.636 337.807 658.636C332.473 658.636 328.299 657.545 325.284 655.364C322.284 653.182 320.61 650.303 320.261 646.727H332.716C332.883 647.833 333.428 648.689 334.352 649.295C335.292 649.886 336.473 650.182 337.898 650.182C339.049 650.182 339.996 649.985 340.739 649.591C341.496 649.197 341.883 648.636 341.898 647.909C341.883 647.242 341.549 646.712 340.898 646.318C340.261 645.924 339.261 645.606 337.898 645.364L331.716 644.273C328.155 643.652 325.489 642.47 323.716 640.727C321.943 638.985 321.064 636.742 321.08 634C321.064 631.576 321.701 629.523 322.989 627.841C324.292 626.144 326.148 624.856 328.557 623.977C330.981 623.083 333.852 622.636 337.17 622.636C342.216 622.636 346.193 623.682 349.102 625.773C352.027 627.864 353.564 630.758 353.716 634.455ZM359.432 658V623.091H371.977V658H359.432ZM365.705 619.455C364.008 619.455 362.553 618.894 361.341 617.773C360.129 616.652 359.523 615.303 359.523 613.727C359.523 612.152 360.129 610.803 361.341 609.682C362.553 608.561 364.008 608 365.705 608C367.417 608 368.871 608.561 370.068 609.682C371.28 610.803 371.886 612.152 371.886 613.727C371.886 615.303 371.28 616.652 370.068 617.773C368.871 618.894 367.417 619.455 365.705 619.455ZM399.188 623.091V632.182H376.188V623.091H399.188ZM380.642 614.727H393.188V646.773C393.188 647.258 393.271 647.667 393.438 648C393.604 648.318 393.862 648.561 394.21 648.727C394.559 648.879 395.006 648.955 395.551 648.955C395.93 648.955 396.369 648.909 396.869 648.818C397.384 648.727 397.763 648.652 398.006 648.591L399.824 657.409C399.263 657.576 398.46 657.78 397.415 658.023C396.384 658.265 395.157 658.424 393.733 658.5C390.854 658.652 388.438 658.356 386.483 657.614C384.528 656.856 383.059 655.667 382.074 654.045C381.089 652.424 380.612 650.394 380.642 647.955V614.727ZM404.307 658V623.091H416.852V658H404.307ZM410.58 619.455C408.883 619.455 407.428 618.894 406.216 617.773C405.004 616.652 404.398 615.303 404.398 613.727C404.398 612.152 405.004 610.803 406.216 609.682C407.428 608.561 408.883 608 410.58 608C412.292 608 413.746 608.561 414.943 609.682C416.155 610.803 416.761 612.152 416.761 613.727C416.761 615.303 416.155 616.652 414.943 617.773C413.746 618.894 412.292 619.455 410.58 619.455ZM440.062 658.636C436.275 658.636 433.032 657.886 430.335 656.386C427.638 654.871 425.57 652.765 424.131 650.068C422.691 647.356 421.972 644.212 421.972 640.636C421.972 637.061 422.691 633.924 424.131 631.227C425.57 628.515 427.638 626.409 430.335 624.909C433.032 623.394 436.275 622.636 440.062 622.636C443.85 622.636 447.093 623.394 449.79 624.909C452.487 626.409 454.555 628.515 455.994 631.227C457.434 633.924 458.153 637.061 458.153 640.636C458.153 644.212 457.434 647.356 455.994 650.068C454.555 652.765 452.487 654.871 449.79 656.386C447.093 657.886 443.85 658.636 440.062 658.636ZM440.153 649.364C441.214 649.364 442.131 649.008 442.903 648.295C443.676 647.583 444.275 646.568 444.699 645.25C445.123 643.932 445.335 642.364 445.335 640.545C445.335 638.712 445.123 637.144 444.699 635.841C444.275 634.523 443.676 633.508 442.903 632.795C442.131 632.083 441.214 631.727 440.153 631.727C439.032 631.727 438.07 632.083 437.267 632.795C436.464 633.508 435.85 634.523 435.426 635.841C435.002 637.144 434.79 638.712 434.79 640.545C434.79 642.364 435.002 643.932 435.426 645.25C435.85 646.568 436.464 647.583 437.267 648.295C438.07 649.008 439.032 649.364 440.153 649.364ZM475.79 638.364V658H463.244V623.091H475.153V629.727H475.517C476.275 627.515 477.608 625.78 479.517 624.523C481.441 623.265 483.684 622.636 486.244 622.636C488.714 622.636 490.858 623.205 492.676 624.341C494.509 625.462 495.926 627.008 496.926 628.977C497.941 630.947 498.441 633.197 498.426 635.727V658H485.881V638.364C485.896 636.636 485.456 635.28 484.562 634.295C483.684 633.311 482.456 632.818 480.881 632.818C479.85 632.818 478.949 633.045 478.176 633.5C477.419 633.939 476.835 634.576 476.426 635.409C476.017 636.227 475.805 637.212 475.79 638.364ZM221.009 726.455C219.175 726.455 217.501 726.008 215.986 725.114C214.471 724.205 213.259 722.992 212.349 721.477C211.455 719.962 211.009 718.288 211.009 716.455C211.009 714.606 211.455 712.932 212.349 711.432C213.259 709.917 214.471 708.712 215.986 707.818C217.501 706.909 219.175 706.455 221.009 706.455C222.857 706.455 224.531 706.909 226.031 707.818C227.546 708.712 228.751 709.917 229.645 711.432C230.554 712.932 231.009 714.606 231.009 716.455C231.009 718.288 230.554 719.962 229.645 721.477C228.751 722.992 227.546 724.205 226.031 725.114C224.531 726.008 222.857 726.455 221.009 726.455ZM270.727 698.636V688.455H311.182V698.636H297.182V735H284.727V698.636H270.727ZM316.119 735V700.091H328.665V735H316.119ZM322.392 696.455C320.695 696.455 319.241 695.894 318.028 694.773C316.816 693.652 316.21 692.303 316.21 690.727C316.21 689.152 316.816 687.803 318.028 686.682C319.241 685.561 320.695 685 322.392 685C324.104 685 325.559 685.561 326.756 686.682C327.968 687.803 328.574 689.152 328.574 690.727C328.574 692.303 327.968 693.652 326.756 694.773C325.559 695.894 324.104 696.455 322.392 696.455ZM335.057 735V700.091H346.966V706.727H347.33C348.057 704.545 349.299 702.818 351.057 701.545C352.814 700.273 354.905 699.636 357.33 699.636C359.784 699.636 361.898 700.288 363.67 701.591C365.443 702.879 366.511 704.591 366.875 706.727H367.239C367.83 704.591 369.087 702.879 371.011 701.591C372.936 700.288 375.193 699.636 377.784 699.636C381.133 699.636 383.845 700.712 385.92 702.864C388.011 705.015 389.057 707.879 389.057 711.455V735H376.511V714.636C376.511 713.106 376.125 711.909 375.352 711.045C374.58 710.167 373.542 709.727 372.239 709.727C370.951 709.727 369.928 710.167 369.17 711.045C368.428 711.909 368.057 713.106 368.057 714.636V735H356.057V714.636C356.057 713.106 355.67 711.909 354.898 711.045C354.125 710.167 353.087 709.727 351.784 709.727C350.92 709.727 350.178 709.924 349.557 710.318C348.936 710.712 348.451 711.28 348.102 712.023C347.769 712.75 347.602 713.621 347.602 714.636V735H335.057ZM411.972 735.636C408.244 735.636 405.032 734.924 402.335 733.5C399.653 732.061 397.585 730 396.131 727.318C394.691 724.621 393.972 721.394 393.972 717.636C393.972 714.03 394.699 710.879 396.153 708.182C397.608 705.485 399.661 703.386 402.312 701.886C404.964 700.386 408.093 699.636 411.699 699.636C414.335 699.636 416.722 700.045 418.858 700.864C420.994 701.682 422.82 702.871 424.335 704.432C425.85 705.977 427.017 707.856 427.835 710.068C428.653 712.28 429.062 714.773 429.062 717.545V720.455H397.881V713.545H417.517C417.502 712.545 417.244 711.667 416.744 710.909C416.259 710.136 415.6 709.538 414.767 709.114C413.949 708.674 413.017 708.455 411.972 708.455C410.956 708.455 410.025 708.674 409.176 709.114C408.328 709.538 407.646 710.129 407.131 710.886C406.631 711.644 406.366 712.53 406.335 713.545V721C406.335 722.121 406.57 723.121 407.04 724C407.509 724.879 408.184 725.568 409.062 726.068C409.941 726.568 411.002 726.818 412.244 726.818C413.108 726.818 413.896 726.697 414.608 726.455C415.335 726.212 415.956 725.864 416.472 725.409C416.987 724.939 417.366 724.379 417.608 723.727H429.062C428.669 726.152 427.737 728.258 426.267 730.045C424.797 731.818 422.85 733.197 420.426 734.182C418.017 735.152 415.199 735.636 411.972 735.636ZM467.75 700.091V709.182H444.75V700.091H467.75ZM449.205 691.727H461.75V723.773C461.75 724.258 461.833 724.667 462 725C462.167 725.318 462.424 725.561 462.773 725.727C463.121 725.879 463.568 725.955 464.114 725.955C464.492 725.955 464.932 725.909 465.432 725.818C465.947 725.727 466.326 725.652 466.568 725.591L468.386 734.409C467.826 734.576 467.023 734.78 465.977 735.023C464.947 735.265 463.72 735.424 462.295 735.5C459.417 735.652 457 735.356 455.045 734.614C453.091 733.856 451.621 732.667 450.636 731.045C449.652 729.424 449.174 727.394 449.205 724.955V691.727ZM489.312 735.636C485.525 735.636 482.282 734.886 479.585 733.386C476.888 731.871 474.82 729.765 473.381 727.068C471.941 724.356 471.222 721.212 471.222 717.636C471.222 714.061 471.941 710.924 473.381 708.227C474.82 705.515 476.888 703.409 479.585 701.909C482.282 700.394 485.525 699.636 489.312 699.636C493.1 699.636 496.343 700.394 499.04 701.909C501.737 703.409 503.805 705.515 505.244 708.227C506.684 710.924 507.403 714.061 507.403 717.636C507.403 721.212 506.684 724.356 505.244 727.068C503.805 729.765 501.737 731.871 499.04 733.386C496.343 734.886 493.1 735.636 489.312 735.636ZM489.403 726.364C490.464 726.364 491.381 726.008 492.153 725.295C492.926 724.583 493.525 723.568 493.949 722.25C494.373 720.932 494.585 719.364 494.585 717.545C494.585 715.712 494.373 714.144 493.949 712.841C493.525 711.523 492.926 710.508 492.153 709.795C491.381 709.083 490.464 708.727 489.403 708.727C488.282 708.727 487.32 709.083 486.517 709.795C485.714 710.508 485.1 711.523 484.676 712.841C484.252 714.144 484.04 715.712 484.04 717.545C484.04 719.364 484.252 720.932 484.676 722.25C485.1 723.568 485.714 724.583 486.517 725.295C487.32 726.008 488.282 726.364 489.403 726.364ZM525.062 735V688.455H545.153C548.608 688.455 551.631 689.083 554.222 690.341C556.813 691.598 558.828 693.409 560.267 695.773C561.706 698.136 562.426 700.97 562.426 704.273C562.426 707.606 561.684 710.417 560.199 712.705C558.729 714.992 556.661 716.72 553.994 717.886C551.343 719.053 548.244 719.636 544.699 719.636H532.699V709.818H542.153C543.638 709.818 544.903 709.636 545.949 709.273C547.009 708.894 547.82 708.295 548.381 707.477C548.956 706.659 549.244 705.591 549.244 704.273C549.244 702.939 548.956 701.856 548.381 701.023C547.82 700.174 547.009 699.553 545.949 699.159C544.903 698.75 543.638 698.545 542.153 698.545H537.699V735H525.062ZM552.335 713.636L563.972 735H550.244L538.881 713.636H552.335ZM583.972 735.636C580.244 735.636 577.032 734.924 574.335 733.5C571.653 732.061 569.585 730 568.131 727.318C566.691 724.621 565.972 721.394 565.972 717.636C565.972 714.03 566.699 710.879 568.153 708.182C569.608 705.485 571.661 703.386 574.312 701.886C576.964 700.386 580.093 699.636 583.699 699.636C586.335 699.636 588.722 700.045 590.858 700.864C592.994 701.682 594.82 702.871 596.335 704.432C597.85 705.977 599.017 707.856 599.835 710.068C600.653 712.28 601.062 714.773 601.062 717.545V720.455H569.881V713.545H589.517C589.502 712.545 589.244 711.667 588.744 710.909C588.259 710.136 587.6 709.538 586.767 709.114C585.949 708.674 585.017 708.455 583.972 708.455C582.956 708.455 582.025 708.674 581.176 709.114C580.328 709.538 579.646 710.129 579.131 710.886C578.631 711.644 578.366 712.53 578.335 713.545V721C578.335 722.121 578.57 723.121 579.04 724C579.509 724.879 580.184 725.568 581.062 726.068C581.941 726.568 583.002 726.818 584.244 726.818C585.108 726.818 585.896 726.697 586.608 726.455C587.335 726.212 587.956 725.864 588.472 725.409C588.987 724.939 589.366 724.379 589.608 723.727H601.062C600.669 726.152 599.737 728.258 598.267 730.045C596.797 731.818 594.85 733.197 592.426 734.182C590.017 735.152 587.199 735.636 583.972 735.636ZM638.091 711.455H626.545C626.485 710.742 626.235 710.129 625.795 709.614C625.356 709.098 624.788 708.705 624.091 708.432C623.409 708.144 622.652 708 621.818 708C620.742 708 619.818 708.197 619.045 708.591C618.273 708.985 617.894 709.545 617.909 710.273C617.894 710.788 618.114 711.265 618.568 711.705C619.038 712.144 619.939 712.485 621.273 712.727L628.364 714C631.939 714.652 634.598 715.75 636.341 717.295C638.098 718.826 638.985 720.879 639 723.455C638.985 725.939 638.242 728.098 636.773 729.932C635.318 731.75 633.326 733.159 630.795 734.159C628.28 735.144 625.409 735.636 622.182 735.636C616.848 735.636 612.674 734.545 609.659 732.364C606.659 730.182 604.985 727.303 604.636 723.727H617.091C617.258 724.833 617.803 725.689 618.727 726.295C619.667 726.886 620.848 727.182 622.273 727.182C623.424 727.182 624.371 726.985 625.114 726.591C625.871 726.197 626.258 725.636 626.273 724.909C626.258 724.242 625.924 723.712 625.273 723.318C624.636 722.924 623.636 722.606 622.273 722.364L616.091 721.273C612.53 720.652 609.864 719.47 608.091 717.727C606.318 715.985 605.439 713.742 605.455 711C605.439 708.576 606.076 706.523 607.364 704.841C608.667 703.144 610.523 701.856 612.932 700.977C615.356 700.083 618.227 699.636 621.545 699.636C626.591 699.636 630.568 700.682 633.477 702.773C636.402 704.864 637.939 707.758 638.091 711.455ZM664.625 700.091V709.182H641.625V700.091H664.625ZM646.08 691.727H658.625V723.773C658.625 724.258 658.708 724.667 658.875 725C659.042 725.318 659.299 725.561 659.648 725.727C659.996 725.879 660.443 725.955 660.989 725.955C661.367 725.955 661.807 725.909 662.307 725.818C662.822 725.727 663.201 725.652 663.443 725.591L665.261 734.409C664.701 734.576 663.898 734.78 662.852 735.023C661.822 735.265 660.595 735.424 659.17 735.5C656.292 735.652 653.875 735.356 651.92 734.614C649.966 733.856 648.496 732.667 647.511 731.045C646.527 729.424 646.049 727.394 646.08 724.955V691.727ZM678.926 720.455V719.364C678.926 716.864 679.123 714.871 679.517 713.386C679.911 711.902 680.494 710.712 681.267 709.818C682.04 708.909 682.987 708.091 684.108 707.364C685.078 706.727 685.941 706.114 686.699 705.523C687.472 704.932 688.078 704.303 688.517 703.636C688.972 702.97 689.199 702.212 689.199 701.364C689.199 700.606 689.017 699.939 688.653 699.364C688.29 698.788 687.797 698.341 687.176 698.023C686.555 697.705 685.866 697.545 685.108 697.545C684.29 697.545 683.532 697.735 682.835 698.114C682.153 698.492 681.6 699.015 681.176 699.682C680.767 700.348 680.562 701.121 680.562 702H668.926C668.956 698.667 669.714 695.962 671.199 693.886C672.684 691.795 674.653 690.265 677.108 689.295C679.563 688.311 682.259 687.818 685.199 687.818C688.441 687.818 691.335 688.295 693.881 689.25C696.426 690.189 698.434 691.614 699.903 693.523C701.373 695.417 702.108 697.788 702.108 700.636C702.108 702.47 701.79 704.083 701.153 705.477C700.532 706.856 699.661 708.076 698.54 709.136C697.434 710.182 696.138 711.136 694.653 712C693.563 712.636 692.646 713.295 691.903 713.977C691.161 714.644 690.6 715.409 690.222 716.273C689.843 717.121 689.653 718.152 689.653 719.364V720.455H678.926ZM684.472 735.727C682.714 735.727 681.206 735.114 679.949 733.886C678.706 732.644 678.093 731.136 678.108 729.364C678.093 727.636 678.706 726.159 679.949 724.932C681.206 723.705 682.714 723.091 684.472 723.091C686.138 723.091 687.608 723.705 688.881 724.932C690.169 726.159 690.82 727.636 690.835 729.364C690.82 730.545 690.509 731.621 689.903 732.591C689.313 733.545 688.54 734.311 687.585 734.886C686.631 735.447 685.593 735.727 684.472 735.727Z" fill="#BBF7D0"/>
<path d="M1070.5 601L1340.5 617" stroke="black"/>
<path d="M707 685.5H913.5" stroke="black" stroke-width="3"/>
</svg>
