<svg width="1920" height="1080" viewBox="0 0 1920 1080" fill="none" xmlns="http://www.w3.org/2000/svg">
<rect width="1920" height="1080" fill="#0C0A09"/>
<path d="M589.682 102.364H570.455C570.318 100.773 569.955 99.3295 569.364 98.0341C568.795 96.7386 568 95.625 566.977 94.6932C565.977 93.7386 564.761 93.0114 563.33 92.5114C561.898 91.9886 560.273 91.7273 558.455 91.7273C555.273 91.7273 552.58 92.5 550.375 94.0455C548.193 95.5909 546.534 97.8068 545.398 100.693C544.284 103.58 543.727 107.045 543.727 111.091C543.727 115.364 544.295 118.943 545.432 121.83C546.591 124.693 548.261 126.852 550.443 128.307C552.625 129.739 555.25 130.455 558.318 130.455C560.068 130.455 561.636 130.239 563.023 129.807C564.409 129.352 565.614 128.705 566.636 127.864C567.659 127.023 568.489 126.011 569.125 124.83C569.784 123.625 570.227 122.273 570.455 120.773L589.682 120.909C589.455 123.864 588.625 126.875 587.193 129.943C585.761 132.989 583.727 135.807 581.091 138.398C578.477 140.966 575.239 143.034 571.375 144.602C567.511 146.17 563.023 146.955 557.909 146.955C551.5 146.955 545.75 145.58 540.659 142.83C535.591 140.08 531.58 136.034 528.625 130.693C525.693 125.352 524.227 118.818 524.227 111.091C524.227 103.318 525.727 96.7727 528.727 91.4545C531.727 86.1136 535.773 82.0795 540.864 79.3523C545.955 76.6023 551.636 75.2273 557.909 75.2273C562.318 75.2273 566.375 75.8295 570.08 77.0341C573.784 78.2386 577.034 80 579.83 82.3182C582.625 84.6136 584.875 87.4432 586.58 90.8068C588.284 94.1705 589.318 98.0227 589.682 102.364ZM613.145 146.818C609.804 146.818 606.849 146.273 604.281 145.182C601.736 144.068 599.736 142.386 598.281 140.136C596.827 137.886 596.099 135.023 596.099 131.545C596.099 128.682 596.588 126.239 597.565 124.216C598.543 122.17 599.906 120.5 601.656 119.205C603.406 117.909 605.44 116.92 607.759 116.239C610.099 115.557 612.622 115.114 615.327 114.909C618.259 114.682 620.611 114.409 622.384 114.091C624.179 113.75 625.474 113.284 626.27 112.693C627.065 112.08 627.463 111.273 627.463 110.273V110.136C627.463 108.773 626.94 107.727 625.895 107C624.849 106.273 623.509 105.909 621.872 105.909C620.077 105.909 618.611 106.307 617.474 107.102C616.361 107.875 615.69 109.068 615.463 110.682H598.145C598.372 107.5 599.384 104.568 601.179 101.886C602.997 99.1818 605.645 97.0227 609.122 95.4091C612.599 93.7727 616.94 92.9545 622.145 92.9545C625.895 92.9545 629.259 93.3977 632.236 94.2841C635.213 95.1477 637.747 96.3636 639.838 97.9318C641.929 99.4773 643.52 101.295 644.611 103.386C645.724 105.455 646.281 107.705 646.281 110.136V146H628.69V138.636H628.281C627.236 140.591 625.963 142.17 624.463 143.375C622.986 144.58 621.293 145.455 619.384 146C617.497 146.545 615.418 146.818 613.145 146.818ZM619.281 134.955C620.713 134.955 622.054 134.659 623.304 134.068C624.577 133.477 625.611 132.625 626.406 131.511C627.202 130.398 627.599 129.045 627.599 127.455V123.091C627.099 123.295 626.565 123.489 625.997 123.67C625.452 123.852 624.861 124.023 624.224 124.182C623.611 124.341 622.952 124.489 622.247 124.625C621.565 124.761 620.849 124.886 620.099 125C618.645 125.227 617.452 125.602 616.52 126.125C615.611 126.625 614.929 127.25 614.474 128C614.043 128.727 613.827 129.545 613.827 130.455C613.827 131.909 614.338 133.023 615.361 133.795C616.384 134.568 617.69 134.955 619.281 134.955ZM674.227 146.682C670.5 146.682 667.068 145.705 663.932 143.75C660.818 141.795 658.318 138.83 656.432 134.852C654.568 130.875 653.636 125.864 653.636 119.818C653.636 113.5 654.614 108.364 656.568 104.409C658.545 100.455 661.091 97.5568 664.205 95.7159C667.341 93.875 670.636 92.9545 674.091 92.9545C676.682 92.9545 678.955 93.4091 680.909 94.3182C682.864 95.2045 684.5 96.3977 685.818 97.8977C687.136 99.375 688.136 101 688.818 102.773H689.091V76.1818H707.909V146H689.227V137.409H688.818C688.091 139.182 687.045 140.773 685.682 142.182C684.341 143.568 682.705 144.67 680.773 145.489C678.864 146.284 676.682 146.682 674.227 146.682ZM681.182 132.227C682.909 132.227 684.386 131.727 685.614 130.727C686.864 129.705 687.818 128.273 688.477 126.432C689.159 124.568 689.5 122.364 689.5 119.818C689.5 117.227 689.159 115.011 688.477 113.17C687.818 111.307 686.864 109.886 685.614 108.909C684.386 107.909 682.909 107.409 681.182 107.409C679.455 107.409 677.977 107.909 676.75 108.909C675.545 109.886 674.614 111.307 673.955 113.17C673.318 115.011 673 117.227 673 119.818C673 122.409 673.318 124.636 673.955 126.5C674.614 128.341 675.545 129.761 676.75 130.761C677.977 131.739 679.455 132.227 681.182 132.227ZM742.239 146.955C736.648 146.955 731.83 145.886 727.784 143.75C723.761 141.591 720.659 138.5 718.477 134.477C716.318 130.432 715.239 125.591 715.239 119.955C715.239 114.545 716.33 109.818 718.511 105.773C720.693 101.727 723.773 98.5795 727.75 96.3295C731.727 94.0795 736.42 92.9545 741.83 92.9545C745.784 92.9545 749.364 93.5682 752.568 94.7955C755.773 96.0227 758.511 97.8068 760.784 100.148C763.057 102.466 764.807 105.284 766.034 108.602C767.261 111.92 767.875 115.659 767.875 119.818V124.182H721.102V113.818H750.557C750.534 112.318 750.148 111 749.398 109.864C748.67 108.705 747.682 107.807 746.432 107.17C745.205 106.511 743.807 106.182 742.239 106.182C740.716 106.182 739.318 106.511 738.045 107.17C736.773 107.807 735.75 108.693 734.977 109.83C734.227 110.966 733.83 112.295 733.784 113.818V125C733.784 126.682 734.136 128.182 734.841 129.5C735.545 130.818 736.557 131.852 737.875 132.602C739.193 133.352 740.784 133.727 742.648 133.727C743.943 133.727 745.125 133.545 746.193 133.182C747.284 132.818 748.216 132.295 748.989 131.614C749.761 130.909 750.33 130.068 750.693 129.091H767.875C767.284 132.727 765.886 135.886 763.682 138.568C761.477 141.227 758.557 143.295 754.92 144.773C751.307 146.227 747.08 146.955 742.239 146.955ZM794.372 116.545V146H775.554V93.6364H793.418V103.591H793.963C795.099 100.273 797.099 97.6705 799.963 95.7841C802.849 93.8977 806.213 92.9545 810.054 92.9545C813.759 92.9545 816.974 93.8068 819.702 95.5114C822.452 97.1932 824.577 99.5114 826.077 102.466C827.599 105.42 828.349 108.795 828.327 112.591V146H809.509V116.545C809.531 113.955 808.872 111.92 807.531 110.443C806.213 108.966 804.372 108.227 802.009 108.227C800.463 108.227 799.111 108.568 797.952 109.25C796.815 109.909 795.94 110.864 795.327 112.114C794.713 113.341 794.395 114.818 794.372 116.545ZM862.844 146.955C857.162 146.955 852.298 145.83 848.253 143.58C844.207 141.307 841.105 138.148 838.946 134.102C836.787 130.034 835.707 125.318 835.707 119.955C835.707 114.591 836.787 109.886 838.946 105.841C841.105 101.773 844.207 98.6136 848.253 96.3636C852.298 94.0909 857.162 92.9545 862.844 92.9545C867.98 92.9545 872.423 93.8864 876.173 95.75C879.946 97.5909 882.866 100.205 884.935 103.591C887.003 106.955 888.048 110.909 888.071 115.455H870.616C870.366 112.705 869.571 110.614 868.23 109.182C866.912 107.727 865.207 107 863.116 107C861.48 107 860.048 107.477 858.821 108.432C857.594 109.364 856.639 110.784 855.957 112.693C855.276 114.58 854.935 116.955 854.935 119.818C854.935 122.682 855.276 125.068 855.957 126.977C856.639 128.864 857.594 130.284 858.821 131.239C860.048 132.17 861.48 132.636 863.116 132.636C864.503 132.636 865.73 132.318 866.798 131.682C867.866 131.023 868.73 130.068 869.389 128.818C870.071 127.545 870.48 126 870.616 124.182H888.071C888.003 128.795 886.946 132.818 884.901 136.25C882.855 139.659 879.957 142.295 876.207 144.159C872.48 146.023 868.026 146.955 862.844 146.955ZM920.926 146.955C915.335 146.955 910.517 145.886 906.472 143.75C902.449 141.591 899.347 138.5 897.165 134.477C895.006 130.432 893.926 125.591 893.926 119.955C893.926 114.545 895.017 109.818 897.199 105.773C899.381 101.727 902.46 98.5795 906.438 96.3295C910.415 94.0795 915.108 92.9545 920.517 92.9545C924.472 92.9545 928.051 93.5682 931.256 94.7955C934.46 96.0227 937.199 97.8068 939.472 100.148C941.744 102.466 943.494 105.284 944.722 108.602C945.949 111.92 946.562 115.659 946.562 119.818V124.182H899.79V113.818H929.244C929.222 112.318 928.835 111 928.085 109.864C927.358 108.705 926.369 107.807 925.119 107.17C923.892 106.511 922.494 106.182 920.926 106.182C919.403 106.182 918.006 106.511 916.733 107.17C915.46 107.807 914.438 108.693 913.665 109.83C912.915 110.966 912.517 112.295 912.472 113.818V125C912.472 126.682 912.824 128.182 913.528 129.5C914.233 130.818 915.244 131.852 916.562 132.602C917.881 133.352 919.472 133.727 921.335 133.727C922.631 133.727 923.813 133.545 924.881 133.182C925.972 132.818 926.903 132.295 927.676 131.614C928.449 130.909 929.017 130.068 929.381 129.091H946.562C945.972 132.727 944.574 135.886 942.369 138.568C940.165 141.227 937.244 143.295 933.608 144.773C929.994 146.227 925.767 146.955 920.926 146.955ZM1038.28 102.364H1019.05C1018.91 100.773 1018.55 99.3295 1017.96 98.0341C1017.39 96.7386 1016.59 95.625 1015.57 94.6932C1014.57 93.7386 1013.36 93.0114 1011.92 92.5114C1010.49 91.9886 1008.87 91.7273 1007.05 91.7273C1003.87 91.7273 1001.17 92.5 998.969 94.0455C996.787 95.5909 995.128 97.8068 993.991 100.693C992.878 103.58 992.321 107.045 992.321 111.091C992.321 115.364 992.889 118.943 994.026 121.83C995.185 124.693 996.855 126.852 999.037 128.307C1001.22 129.739 1003.84 130.455 1006.91 130.455C1008.66 130.455 1010.23 130.239 1011.62 129.807C1013 129.352 1014.21 128.705 1015.23 127.864C1016.25 127.023 1017.08 126.011 1017.72 124.83C1018.38 123.625 1018.82 122.273 1019.05 120.773L1038.28 120.909C1038.05 123.864 1037.22 126.875 1035.79 129.943C1034.36 132.989 1032.32 135.807 1029.68 138.398C1027.07 140.966 1023.83 143.034 1019.97 144.602C1016.11 146.17 1011.62 146.955 1006.5 146.955C1000.09 146.955 994.344 145.58 989.253 142.83C984.185 140.08 980.173 136.034 977.219 130.693C974.287 125.352 972.821 118.818 972.821 111.091C972.821 103.318 974.321 96.7727 977.321 91.4545C980.321 86.1136 984.366 82.0795 989.457 79.3523C994.548 76.6023 1000.23 75.2273 1006.5 75.2273C1010.91 75.2273 1014.97 75.8295 1018.67 77.0341C1022.38 78.2386 1025.63 80 1028.42 82.3182C1031.22 84.6136 1033.47 87.4432 1035.17 90.8068C1036.88 94.1705 1037.91 98.0227 1038.28 102.364ZM1065.97 76.1818V146H1047.15V76.1818H1065.97ZM1100.78 146.955C1095.1 146.955 1090.24 145.83 1086.19 143.58C1082.14 141.307 1079.04 138.148 1076.88 134.102C1074.72 130.034 1073.64 125.318 1073.64 119.955C1073.64 114.591 1074.72 109.886 1076.88 105.841C1079.04 101.773 1082.14 98.6136 1086.19 96.3636C1090.24 94.0909 1095.1 92.9545 1100.78 92.9545C1106.46 92.9545 1111.33 94.0909 1115.37 96.3636C1119.42 98.6136 1122.52 101.773 1124.68 105.841C1126.84 109.886 1127.92 114.591 1127.92 119.955C1127.92 125.318 1126.84 130.034 1124.68 134.102C1122.52 138.148 1119.42 141.307 1115.37 143.58C1111.33 145.83 1106.46 146.955 1100.78 146.955ZM1100.92 133.045C1102.51 133.045 1103.88 132.511 1105.04 131.443C1106.2 130.375 1107.1 128.852 1107.74 126.875C1108.37 124.898 1108.69 122.545 1108.69 119.818C1108.69 117.068 1108.37 114.716 1107.74 112.761C1107.1 110.784 1106.2 109.261 1105.04 108.193C1103.88 107.125 1102.51 106.591 1100.92 106.591C1099.24 106.591 1097.79 107.125 1096.59 108.193C1095.38 109.261 1094.46 110.784 1093.83 112.761C1093.19 114.716 1092.87 117.068 1092.87 119.818C1092.87 122.545 1093.19 124.898 1093.83 126.875C1094.46 128.852 1095.38 130.375 1096.59 131.443C1097.79 132.511 1099.24 133.045 1100.92 133.045ZM1160.78 146.955C1155.1 146.955 1150.24 145.83 1146.19 143.58C1142.14 141.307 1139.04 138.148 1136.88 134.102C1134.72 130.034 1133.64 125.318 1133.64 119.955C1133.64 114.591 1134.72 109.886 1136.88 105.841C1139.04 101.773 1142.14 98.6136 1146.19 96.3636C1150.24 94.0909 1155.1 92.9545 1160.78 92.9545C1165.92 92.9545 1170.36 93.8864 1174.11 95.75C1177.88 97.5909 1180.8 100.205 1182.87 103.591C1184.94 106.955 1185.99 110.909 1186.01 115.455H1168.55C1168.3 112.705 1167.51 110.614 1166.17 109.182C1164.85 107.727 1163.14 107 1161.05 107C1159.42 107 1157.99 107.477 1156.76 108.432C1155.53 109.364 1154.58 110.784 1153.89 112.693C1153.21 114.58 1152.87 116.955 1152.87 119.818C1152.87 122.682 1153.21 125.068 1153.89 126.977C1154.58 128.864 1155.53 130.284 1156.76 131.239C1157.99 132.17 1159.42 132.636 1161.05 132.636C1162.44 132.636 1163.67 132.318 1164.74 131.682C1165.8 131.023 1166.67 130.068 1167.33 128.818C1168.01 127.545 1168.42 126 1168.55 124.182H1186.01C1185.94 128.795 1184.88 132.818 1182.84 136.25C1180.79 139.659 1177.89 142.295 1174.14 144.159C1170.42 146.023 1165.96 146.955 1160.78 146.955ZM1210.68 133.591L1210.82 111.227H1213.27L1225.95 93.6364H1247.09L1225.82 121.045H1220.5L1210.68 133.591ZM1193.77 146V76.1818H1212.59V146H1193.77ZM1226.09 146L1214.09 125.273L1226.36 111.909L1247.64 146H1226.09Z" fill="#BBF7D0"/>
<path d="M97.9091 272H80V225.455H97.7273C102.515 225.455 106.652 226.386 110.136 228.25C113.636 230.098 116.333 232.765 118.227 236.25C120.136 239.72 121.091 243.879 121.091 248.727C121.091 253.576 120.144 257.742 118.25 261.227C116.356 264.697 113.674 267.364 110.205 269.227C106.735 271.076 102.636 272 97.9091 272ZM92.6364 261.273H97.4545C99.7576 261.273 101.72 260.902 103.341 260.159C104.977 259.417 106.22 258.136 107.068 256.318C107.932 254.5 108.364 251.97 108.364 248.727C108.364 245.485 107.924 242.955 107.045 241.136C106.182 239.318 104.909 238.038 103.227 237.295C101.561 236.553 99.5152 236.182 97.0909 236.182H92.6364V261.273ZM143.847 272.636C140.119 272.636 136.907 271.924 134.21 270.5C131.528 269.061 129.46 267 128.006 264.318C126.566 261.621 125.847 258.394 125.847 254.636C125.847 251.03 126.574 247.879 128.028 245.182C129.483 242.485 131.536 240.386 134.188 238.886C136.839 237.386 139.968 236.636 143.574 236.636C146.21 236.636 148.597 237.045 150.733 237.864C152.869 238.682 154.695 239.871 156.21 241.432C157.725 242.977 158.892 244.856 159.71 247.068C160.528 249.28 160.938 251.773 160.938 254.545V257.455H129.756V250.545H149.392C149.377 249.545 149.119 248.667 148.619 247.909C148.134 247.136 147.475 246.538 146.642 246.114C145.824 245.674 144.892 245.455 143.847 245.455C142.831 245.455 141.9 245.674 141.051 246.114C140.203 246.538 139.521 247.129 139.006 247.886C138.506 248.644 138.241 249.53 138.21 250.545V258C138.21 259.121 138.445 260.121 138.915 261C139.384 261.879 140.059 262.568 140.938 263.068C141.816 263.568 142.877 263.818 144.119 263.818C144.983 263.818 145.771 263.697 146.483 263.455C147.21 263.212 147.831 262.864 148.347 262.409C148.862 261.939 149.241 261.379 149.483 260.727H160.938C160.544 263.152 159.612 265.258 158.142 267.045C156.672 268.818 154.725 270.197 152.301 271.182C149.892 272.152 147.074 272.636 143.847 272.636ZM197.966 248.455H186.42C186.36 247.742 186.11 247.129 185.67 246.614C185.231 246.098 184.663 245.705 183.966 245.432C183.284 245.144 182.527 245 181.693 245C180.617 245 179.693 245.197 178.92 245.591C178.148 245.985 177.769 246.545 177.784 247.273C177.769 247.788 177.989 248.265 178.443 248.705C178.913 249.144 179.814 249.485 181.148 249.727L188.239 251C191.814 251.652 194.473 252.75 196.216 254.295C197.973 255.826 198.86 257.879 198.875 260.455C198.86 262.939 198.117 265.098 196.648 266.932C195.193 268.75 193.201 270.159 190.67 271.159C188.155 272.144 185.284 272.636 182.057 272.636C176.723 272.636 172.549 271.545 169.534 269.364C166.534 267.182 164.86 264.303 164.511 260.727H176.966C177.133 261.833 177.678 262.689 178.602 263.295C179.542 263.886 180.723 264.182 182.148 264.182C183.299 264.182 184.246 263.985 184.989 263.591C185.746 263.197 186.133 262.636 186.148 261.909C186.133 261.242 185.799 260.712 185.148 260.318C184.511 259.924 183.511 259.606 182.148 259.364L175.966 258.273C172.405 257.652 169.739 256.47 167.966 254.727C166.193 252.985 165.314 250.742 165.33 248C165.314 245.576 165.951 243.523 167.239 241.841C168.542 240.144 170.398 238.856 172.807 237.977C175.231 237.083 178.102 236.636 181.42 236.636C186.466 236.636 190.443 237.682 193.352 239.773C196.277 241.864 197.814 244.758 197.966 248.455ZM203.682 272V237.091H216.227V272H203.682ZM209.955 233.455C208.258 233.455 206.803 232.894 205.591 231.773C204.379 230.652 203.773 229.303 203.773 227.727C203.773 226.152 204.379 224.803 205.591 223.682C206.803 222.561 208.258 222 209.955 222C211.667 222 213.121 222.561 214.318 223.682C215.53 224.803 216.136 226.152 216.136 227.727C216.136 229.303 215.53 230.652 214.318 231.773C213.121 232.894 211.667 233.455 209.955 233.455ZM222.619 272V237.091H234.801V243.727H235.165C235.801 241.273 236.809 239.477 238.188 238.341C239.581 237.205 241.21 236.636 243.074 236.636C243.619 236.636 244.157 236.682 244.688 236.773C245.233 236.848 245.756 236.962 246.256 237.114V247.818C245.634 247.606 244.869 247.447 243.96 247.341C243.051 247.235 242.271 247.182 241.619 247.182C240.392 247.182 239.286 247.462 238.301 248.023C237.331 248.568 236.566 249.341 236.006 250.341C235.445 251.326 235.165 252.485 235.165 253.818V272H222.619ZM265.097 272.636C261.369 272.636 258.157 271.924 255.46 270.5C252.778 269.061 250.71 267 249.256 264.318C247.816 261.621 247.097 258.394 247.097 254.636C247.097 251.03 247.824 247.879 249.278 245.182C250.733 242.485 252.786 240.386 255.438 238.886C258.089 237.386 261.218 236.636 264.824 236.636C267.46 236.636 269.847 237.045 271.983 237.864C274.119 238.682 275.945 239.871 277.46 241.432C278.975 242.977 280.142 244.856 280.96 247.068C281.778 249.28 282.188 251.773 282.188 254.545V257.455H251.006V250.545H270.642C270.627 249.545 270.369 248.667 269.869 247.909C269.384 247.136 268.725 246.538 267.892 246.114C267.074 245.674 266.142 245.455 265.097 245.455C264.081 245.455 263.15 245.674 262.301 246.114C261.453 246.538 260.771 247.129 260.256 247.886C259.756 248.644 259.491 249.53 259.46 250.545V258C259.46 259.121 259.695 260.121 260.165 261C260.634 261.879 261.309 262.568 262.188 263.068C263.066 263.568 264.127 263.818 265.369 263.818C266.233 263.818 267.021 263.697 267.733 263.455C268.46 263.212 269.081 262.864 269.597 262.409C270.112 261.939 270.491 261.379 270.733 260.727H282.188C281.794 263.152 280.862 265.258 279.392 267.045C277.922 268.818 275.975 270.197 273.551 271.182C271.142 272.152 268.324 272.636 265.097 272.636ZM299.943 272.455C297.458 272.455 295.17 271.803 293.08 270.5C291.004 269.197 289.337 267.22 288.08 264.568C286.837 261.917 286.216 258.576 286.216 254.545C286.216 250.333 286.867 246.909 288.17 244.273C289.489 241.636 291.186 239.705 293.261 238.477C295.352 237.25 297.549 236.636 299.852 236.636C301.58 236.636 303.095 236.939 304.398 237.545C305.701 238.136 306.792 238.932 307.67 239.932C308.549 240.917 309.216 242 309.67 243.182H309.852V225.455H322.398V272H309.943V266.273H309.67C309.186 267.455 308.489 268.515 307.58 269.455C306.686 270.379 305.595 271.114 304.307 271.659C303.034 272.189 301.58 272.455 299.943 272.455ZM304.58 262.818C305.731 262.818 306.716 262.485 307.534 261.818C308.367 261.136 309.004 260.182 309.443 258.955C309.898 257.712 310.125 256.242 310.125 254.545C310.125 252.818 309.898 251.341 309.443 250.114C309.004 248.871 308.367 247.924 307.534 247.273C306.716 246.606 305.731 246.273 304.58 246.273C303.428 246.273 302.443 246.606 301.625 247.273C300.822 247.924 300.201 248.871 299.761 250.114C299.337 251.341 299.125 252.818 299.125 254.545C299.125 256.273 299.337 257.758 299.761 259C300.201 260.227 300.822 261.174 301.625 261.841C302.443 262.492 303.428 262.818 304.58 262.818ZM341.125 272V225.455H361.216C364.67 225.455 367.693 226.136 370.284 227.5C372.875 228.864 374.89 230.78 376.33 233.25C377.769 235.72 378.489 238.606 378.489 241.909C378.489 245.242 377.746 248.129 376.261 250.568C374.792 253.008 372.723 254.886 370.057 256.205C367.405 257.523 364.307 258.182 360.761 258.182H348.761V248.364H358.216C359.701 248.364 360.966 248.106 362.011 247.591C363.072 247.061 363.883 246.311 364.443 245.341C365.019 244.371 365.307 243.227 365.307 241.909C365.307 240.576 365.019 239.439 364.443 238.5C363.883 237.545 363.072 236.818 362.011 236.318C360.966 235.803 359.701 235.545 358.216 235.545H353.761V272H341.125ZM391.472 272.545C389.244 272.545 387.275 272.182 385.562 271.455C383.866 270.712 382.532 269.591 381.562 268.091C380.593 266.591 380.108 264.682 380.108 262.364C380.108 260.455 380.434 258.826 381.085 257.477C381.737 256.114 382.646 255 383.812 254.136C384.979 253.273 386.335 252.614 387.881 252.159C389.441 251.705 391.123 251.409 392.926 251.273C394.881 251.121 396.449 250.939 397.631 250.727C398.828 250.5 399.691 250.189 400.222 249.795C400.752 249.386 401.017 248.848 401.017 248.182V248.091C401.017 247.182 400.669 246.485 399.972 246C399.275 245.515 398.381 245.273 397.29 245.273C396.093 245.273 395.116 245.538 394.358 246.068C393.616 246.583 393.169 247.379 393.017 248.455H381.472C381.623 246.333 382.297 244.379 383.494 242.591C384.706 240.788 386.472 239.348 388.79 238.273C391.108 237.182 394.002 236.636 397.472 236.636C399.972 236.636 402.214 236.932 404.199 237.523C406.184 238.098 407.873 238.909 409.267 239.955C410.661 240.985 411.722 242.197 412.449 243.591C413.191 244.97 413.562 246.47 413.562 248.091V272H401.835V267.091H401.562C400.866 268.394 400.017 269.447 399.017 270.25C398.032 271.053 396.903 271.636 395.631 272C394.373 272.364 392.987 272.545 391.472 272.545ZM395.562 264.636C396.517 264.636 397.411 264.439 398.244 264.045C399.093 263.652 399.782 263.083 400.312 262.341C400.843 261.598 401.108 260.697 401.108 259.636V256.727C400.775 256.864 400.419 256.992 400.04 257.114C399.676 257.235 399.282 257.348 398.858 257.455C398.449 257.561 398.009 257.659 397.54 257.75C397.085 257.841 396.608 257.924 396.108 258C395.138 258.152 394.343 258.402 393.722 258.75C393.116 259.083 392.661 259.5 392.358 260C392.07 260.485 391.926 261.03 391.926 261.636C391.926 262.606 392.267 263.348 392.949 263.864C393.631 264.379 394.502 264.636 395.562 264.636ZM436.375 285.818C432.875 285.818 429.875 285.318 427.375 284.318C424.89 283.333 422.958 281.97 421.58 280.227C420.216 278.5 419.451 276.515 419.284 274.273H431.375C431.496 275.015 431.799 275.614 432.284 276.068C432.769 276.523 433.39 276.848 434.148 277.045C434.92 277.258 435.784 277.364 436.739 277.364C438.36 277.364 439.701 276.97 440.761 276.182C441.837 275.394 442.375 273.97 442.375 271.909V266H442.011C441.557 267.182 440.86 268.189 439.92 269.023C438.981 269.841 437.852 270.47 436.534 270.909C435.216 271.333 433.769 271.545 432.193 271.545C429.708 271.545 427.42 270.97 425.33 269.818C423.254 268.667 421.587 266.841 420.33 264.341C419.087 261.841 418.466 258.576 418.466 254.545C418.466 250.333 419.117 246.909 420.42 244.273C421.739 241.636 423.436 239.705 425.511 238.477C427.602 237.25 429.799 236.636 432.102 236.636C433.83 236.636 435.345 236.939 436.648 237.545C437.951 238.136 439.042 238.932 439.92 239.932C440.799 240.917 441.466 242 441.92 243.182H442.193V237.091H454.739V271.909C454.739 274.864 453.973 277.371 452.443 279.432C450.928 281.508 448.792 283.091 446.034 284.182C443.277 285.273 440.057 285.818 436.375 285.818ZM436.83 262.636C437.981 262.636 438.966 262.318 439.784 261.682C440.617 261.03 441.254 260.106 441.693 258.909C442.148 257.697 442.375 256.242 442.375 254.545C442.375 252.818 442.148 251.341 441.693 250.114C441.254 248.871 440.617 247.924 439.784 247.273C438.966 246.606 437.981 246.273 436.83 246.273C435.678 246.273 434.693 246.606 433.875 247.273C433.072 247.924 432.451 248.871 432.011 250.114C431.587 251.341 431.375 252.818 431.375 254.545C431.375 256.273 431.587 257.742 432.011 258.955C432.451 260.152 433.072 261.068 433.875 261.705C434.693 262.326 435.678 262.636 436.83 262.636ZM477.847 272.636C474.119 272.636 470.907 271.924 468.21 270.5C465.528 269.061 463.46 267 462.006 264.318C460.566 261.621 459.847 258.394 459.847 254.636C459.847 251.03 460.574 247.879 462.028 245.182C463.483 242.485 465.536 240.386 468.188 238.886C470.839 237.386 473.968 236.636 477.574 236.636C480.21 236.636 482.597 237.045 484.733 237.864C486.869 238.682 488.695 239.871 490.21 241.432C491.725 242.977 492.892 244.856 493.71 247.068C494.528 249.28 494.938 251.773 494.938 254.545V257.455H463.756V250.545H483.392C483.377 249.545 483.119 248.667 482.619 247.909C482.134 247.136 481.475 246.538 480.642 246.114C479.824 245.674 478.892 245.455 477.847 245.455C476.831 245.455 475.9 245.674 475.051 246.114C474.203 246.538 473.521 247.129 473.006 247.886C472.506 248.644 472.241 249.53 472.21 250.545V258C472.21 259.121 472.445 260.121 472.915 261C473.384 261.879 474.059 262.568 474.938 263.068C475.816 263.568 476.877 263.818 478.119 263.818C478.983 263.818 479.771 263.697 480.483 263.455C481.21 263.212 481.831 262.864 482.347 262.409C482.862 261.939 483.241 261.379 483.483 260.727H494.938C494.544 263.152 493.612 265.258 492.142 267.045C490.672 268.818 488.725 270.197 486.301 271.182C483.892 272.152 481.074 272.636 477.847 272.636ZM531.966 248.455H520.42C520.36 247.742 520.11 247.129 519.67 246.614C519.231 246.098 518.663 245.705 517.966 245.432C517.284 245.144 516.527 245 515.693 245C514.617 245 513.693 245.197 512.92 245.591C512.148 245.985 511.769 246.545 511.784 247.273C511.769 247.788 511.989 248.265 512.443 248.705C512.913 249.144 513.814 249.485 515.148 249.727L522.239 251C525.814 251.652 528.473 252.75 530.216 254.295C531.973 255.826 532.86 257.879 532.875 260.455C532.86 262.939 532.117 265.098 530.648 266.932C529.193 268.75 527.201 270.159 524.67 271.159C522.155 272.144 519.284 272.636 516.057 272.636C510.723 272.636 506.549 271.545 503.534 269.364C500.534 267.182 498.86 264.303 498.511 260.727H510.966C511.133 261.833 511.678 262.689 512.602 263.295C513.542 263.886 514.723 264.182 516.148 264.182C517.299 264.182 518.246 263.985 518.989 263.591C519.746 263.197 520.133 262.636 520.148 261.909C520.133 261.242 519.799 260.712 519.148 260.318C518.511 259.924 517.511 259.606 516.148 259.364L509.966 258.273C506.405 257.652 503.739 256.47 501.966 254.727C500.193 252.985 499.314 250.742 499.33 248C499.314 245.576 499.951 243.523 501.239 241.841C502.542 240.144 504.398 238.856 506.807 237.977C509.231 237.083 512.102 236.636 515.42 236.636C520.466 236.636 524.443 237.682 527.352 239.773C530.277 241.864 531.814 244.758 531.966 248.455ZM125.009 341.455C123.175 341.455 121.501 341.008 119.986 340.114C118.471 339.205 117.259 337.992 116.349 336.477C115.455 334.962 115.009 333.288 115.009 331.455C115.009 329.606 115.455 327.932 116.349 326.432C117.259 324.917 118.471 323.712 119.986 322.818C121.501 321.909 123.175 321.455 125.009 321.455C126.857 321.455 128.531 321.909 130.031 322.818C131.546 323.712 132.751 324.917 133.645 326.432C134.554 327.932 135.009 329.606 135.009 331.455C135.009 333.288 134.554 334.962 133.645 336.477C132.751 337.992 131.546 339.205 130.031 340.114C128.531 341.008 126.857 341.455 125.009 341.455ZM176 350V303.455H188.636V339.818H207.455V350H176ZM229.562 350.636C225.775 350.636 222.532 349.886 219.835 348.386C217.138 346.871 215.07 344.765 213.631 342.068C212.191 339.356 211.472 336.212 211.472 332.636C211.472 329.061 212.191 325.924 213.631 323.227C215.07 320.515 217.138 318.409 219.835 316.909C222.532 315.394 225.775 314.636 229.562 314.636C233.35 314.636 236.593 315.394 239.29 316.909C241.987 318.409 244.055 320.515 245.494 323.227C246.934 325.924 247.653 329.061 247.653 332.636C247.653 336.212 246.934 339.356 245.494 342.068C244.055 344.765 241.987 346.871 239.29 348.386C236.593 349.886 233.35 350.636 229.562 350.636ZM229.653 341.364C230.714 341.364 231.631 341.008 232.403 340.295C233.176 339.583 233.775 338.568 234.199 337.25C234.623 335.932 234.835 334.364 234.835 332.545C234.835 330.712 234.623 329.144 234.199 327.841C233.775 326.523 233.176 325.508 232.403 324.795C231.631 324.083 230.714 323.727 229.653 323.727C228.532 323.727 227.57 324.083 226.767 324.795C225.964 325.508 225.35 326.523 224.926 327.841C224.502 329.144 224.29 330.712 224.29 332.545C224.29 334.364 224.502 335.932 224.926 337.25C225.35 338.568 225.964 339.583 226.767 340.295C227.57 341.008 228.532 341.364 229.653 341.364ZM262.472 350.545C260.244 350.545 258.275 350.182 256.562 349.455C254.866 348.712 253.532 347.591 252.562 346.091C251.593 344.591 251.108 342.682 251.108 340.364C251.108 338.455 251.434 336.826 252.085 335.477C252.737 334.114 253.646 333 254.812 332.136C255.979 331.273 257.335 330.614 258.881 330.159C260.441 329.705 262.123 329.409 263.926 329.273C265.881 329.121 267.449 328.939 268.631 328.727C269.828 328.5 270.691 328.189 271.222 327.795C271.752 327.386 272.017 326.848 272.017 326.182V326.091C272.017 325.182 271.669 324.485 270.972 324C270.275 323.515 269.381 323.273 268.29 323.273C267.093 323.273 266.116 323.538 265.358 324.068C264.616 324.583 264.169 325.379 264.017 326.455H252.472C252.623 324.333 253.297 322.379 254.494 320.591C255.706 318.788 257.472 317.348 259.79 316.273C262.108 315.182 265.002 314.636 268.472 314.636C270.972 314.636 273.214 314.932 275.199 315.523C277.184 316.098 278.873 316.909 280.267 317.955C281.661 318.985 282.722 320.197 283.449 321.591C284.191 322.97 284.562 324.47 284.562 326.091V350H272.835V345.091H272.562C271.866 346.394 271.017 347.447 270.017 348.25C269.032 349.053 267.903 349.636 266.631 350C265.373 350.364 263.987 350.545 262.472 350.545ZM266.562 342.636C267.517 342.636 268.411 342.439 269.244 342.045C270.093 341.652 270.782 341.083 271.312 340.341C271.843 339.598 272.108 338.697 272.108 337.636V334.727C271.775 334.864 271.419 334.992 271.04 335.114C270.676 335.235 270.282 335.348 269.858 335.455C269.449 335.561 269.009 335.659 268.54 335.75C268.085 335.841 267.608 335.924 267.108 336C266.138 336.152 265.343 336.402 264.722 336.75C264.116 337.083 263.661 337.5 263.358 338C263.07 338.485 262.926 339.03 262.926 339.636C262.926 340.606 263.267 341.348 263.949 341.864C264.631 342.379 265.502 342.636 266.562 342.636ZM303.193 350.455C300.708 350.455 298.42 349.803 296.33 348.5C294.254 347.197 292.587 345.22 291.33 342.568C290.087 339.917 289.466 336.576 289.466 332.545C289.466 328.333 290.117 324.909 291.42 322.273C292.739 319.636 294.436 317.705 296.511 316.477C298.602 315.25 300.799 314.636 303.102 314.636C304.83 314.636 306.345 314.939 307.648 315.545C308.951 316.136 310.042 316.932 310.92 317.932C311.799 318.917 312.466 320 312.92 321.182H313.102V303.455H325.648V350H313.193V344.273H312.92C312.436 345.455 311.739 346.515 310.83 347.455C309.936 348.379 308.845 349.114 307.557 349.659C306.284 350.189 304.83 350.455 303.193 350.455ZM307.83 340.818C308.981 340.818 309.966 340.485 310.784 339.818C311.617 339.136 312.254 338.182 312.693 336.955C313.148 335.712 313.375 334.242 313.375 332.545C313.375 330.818 313.148 329.341 312.693 328.114C312.254 326.871 311.617 325.924 310.784 325.273C309.966 324.606 308.981 324.273 307.83 324.273C306.678 324.273 305.693 324.606 304.875 325.273C304.072 325.924 303.451 326.871 303.011 328.114C302.587 329.341 302.375 330.818 302.375 332.545C302.375 334.273 302.587 335.758 303.011 337C303.451 338.227 304.072 339.174 304.875 339.841C305.693 340.492 306.678 340.818 307.83 340.818ZM331.807 350V315.091H344.352V350H331.807ZM338.08 311.455C336.383 311.455 334.928 310.894 333.716 309.773C332.504 308.652 331.898 307.303 331.898 305.727C331.898 304.152 332.504 302.803 333.716 301.682C334.928 300.561 336.383 300 338.08 300C339.792 300 341.246 300.561 342.443 301.682C343.655 302.803 344.261 304.152 344.261 305.727C344.261 307.303 343.655 308.652 342.443 309.773C341.246 310.894 339.792 311.455 338.08 311.455ZM363.29 330.364V350H350.744V315.091H362.653V321.727H363.017C363.775 319.515 365.108 317.78 367.017 316.523C368.941 315.265 371.184 314.636 373.744 314.636C376.214 314.636 378.358 315.205 380.176 316.341C382.009 317.462 383.426 319.008 384.426 320.977C385.441 322.947 385.941 325.197 385.926 327.727V350H373.381V330.364C373.396 328.636 372.956 327.28 372.062 326.295C371.184 325.311 369.956 324.818 368.381 324.818C367.35 324.818 366.449 325.045 365.676 325.5C364.919 325.939 364.335 326.576 363.926 327.409C363.517 328.227 363.305 329.212 363.29 330.364ZM408.938 363.818C405.438 363.818 402.438 363.318 399.938 362.318C397.453 361.333 395.521 359.97 394.142 358.227C392.778 356.5 392.013 354.515 391.847 352.273H403.938C404.059 353.015 404.362 353.614 404.847 354.068C405.331 354.523 405.953 354.848 406.71 355.045C407.483 355.258 408.347 355.364 409.301 355.364C410.922 355.364 412.263 354.97 413.324 354.182C414.4 353.394 414.938 351.97 414.938 349.909V344H414.574C414.119 345.182 413.422 346.189 412.483 347.023C411.544 347.841 410.415 348.47 409.097 348.909C407.778 349.333 406.331 349.545 404.756 349.545C402.271 349.545 399.983 348.97 397.892 347.818C395.816 346.667 394.15 344.841 392.892 342.341C391.65 339.841 391.028 336.576 391.028 332.545C391.028 328.333 391.68 324.909 392.983 322.273C394.301 319.636 395.998 317.705 398.074 316.477C400.165 315.25 402.362 314.636 404.665 314.636C406.392 314.636 407.907 314.939 409.21 315.545C410.513 316.136 411.604 316.932 412.483 317.932C413.362 318.917 414.028 320 414.483 321.182H414.756V315.091H427.301V349.909C427.301 352.864 426.536 355.371 425.006 357.432C423.491 359.508 421.354 361.091 418.597 362.182C415.839 363.273 412.619 363.818 408.938 363.818ZM409.392 340.636C410.544 340.636 411.528 340.318 412.347 339.682C413.18 339.03 413.816 338.106 414.256 336.909C414.71 335.697 414.938 334.242 414.938 332.545C414.938 330.818 414.71 329.341 414.256 328.114C413.816 326.871 413.18 325.924 412.347 325.273C411.528 324.606 410.544 324.273 409.392 324.273C408.241 324.273 407.256 324.606 406.438 325.273C405.634 325.924 405.013 326.871 404.574 328.114C404.15 329.341 403.938 330.818 403.938 332.545C403.938 334.273 404.15 335.742 404.574 336.955C405.013 338.152 405.634 339.068 406.438 339.705C407.256 340.326 408.241 340.636 409.392 340.636ZM446.25 350V303.455H466.341C469.795 303.455 472.818 304.136 475.409 305.5C478 306.864 480.015 308.78 481.455 311.25C482.894 313.72 483.614 316.606 483.614 319.909C483.614 323.242 482.871 326.129 481.386 328.568C479.917 331.008 477.848 332.886 475.182 334.205C472.53 335.523 469.432 336.182 465.886 336.182H453.886V326.364H463.341C464.826 326.364 466.091 326.106 467.136 325.591C468.197 325.061 469.008 324.311 469.568 323.341C470.144 322.371 470.432 321.227 470.432 319.909C470.432 318.576 470.144 317.439 469.568 316.5C469.008 315.545 468.197 314.818 467.136 314.318C466.091 313.803 464.826 313.545 463.341 313.545H458.886V350H446.25ZM496.597 350.545C494.369 350.545 492.4 350.182 490.688 349.455C488.991 348.712 487.657 347.591 486.688 346.091C485.718 344.591 485.233 342.682 485.233 340.364C485.233 338.455 485.559 336.826 486.21 335.477C486.862 334.114 487.771 333 488.938 332.136C490.104 331.273 491.46 330.614 493.006 330.159C494.566 329.705 496.248 329.409 498.051 329.273C500.006 329.121 501.574 328.939 502.756 328.727C503.953 328.5 504.816 328.189 505.347 327.795C505.877 327.386 506.142 326.848 506.142 326.182V326.091C506.142 325.182 505.794 324.485 505.097 324C504.4 323.515 503.506 323.273 502.415 323.273C501.218 323.273 500.241 323.538 499.483 324.068C498.741 324.583 498.294 325.379 498.142 326.455H486.597C486.748 324.333 487.422 322.379 488.619 320.591C489.831 318.788 491.597 317.348 493.915 316.273C496.233 315.182 499.127 314.636 502.597 314.636C505.097 314.636 507.339 314.932 509.324 315.523C511.309 316.098 512.998 316.909 514.392 317.955C515.786 318.985 516.847 320.197 517.574 321.591C518.316 322.97 518.688 324.47 518.688 326.091V350H506.96V345.091H506.688C505.991 346.394 505.142 347.447 504.142 348.25C503.157 349.053 502.028 349.636 500.756 350C499.498 350.364 498.112 350.545 496.597 350.545ZM500.688 342.636C501.642 342.636 502.536 342.439 503.369 342.045C504.218 341.652 504.907 341.083 505.438 340.341C505.968 339.598 506.233 338.697 506.233 337.636V334.727C505.9 334.864 505.544 334.992 505.165 335.114C504.801 335.235 504.407 335.348 503.983 335.455C503.574 335.561 503.134 335.659 502.665 335.75C502.21 335.841 501.733 335.924 501.233 336C500.263 336.152 499.468 336.402 498.847 336.75C498.241 337.083 497.786 337.5 497.483 338C497.195 338.485 497.051 339.03 497.051 339.636C497.051 340.606 497.392 341.348 498.074 341.864C498.756 342.379 499.627 342.636 500.688 342.636ZM541.5 363.818C538 363.818 535 363.318 532.5 362.318C530.015 361.333 528.083 359.97 526.705 358.227C525.341 356.5 524.576 354.515 524.409 352.273H536.5C536.621 353.015 536.924 353.614 537.409 354.068C537.894 354.523 538.515 354.848 539.273 355.045C540.045 355.258 540.909 355.364 541.864 355.364C543.485 355.364 544.826 354.97 545.886 354.182C546.962 353.394 547.5 351.97 547.5 349.909V344H547.136C546.682 345.182 545.985 346.189 545.045 347.023C544.106 347.841 542.977 348.47 541.659 348.909C540.341 349.333 538.894 349.545 537.318 349.545C534.833 349.545 532.545 348.97 530.455 347.818C528.379 346.667 526.712 344.841 525.455 342.341C524.212 339.841 523.591 336.576 523.591 332.545C523.591 328.333 524.242 324.909 525.545 322.273C526.864 319.636 528.561 317.705 530.636 316.477C532.727 315.25 534.924 314.636 537.227 314.636C538.955 314.636 540.47 314.939 541.773 315.545C543.076 316.136 544.167 316.932 545.045 317.932C545.924 318.917 546.591 320 547.045 321.182H547.318V315.091H559.864V349.909C559.864 352.864 559.098 355.371 557.568 357.432C556.053 359.508 553.917 361.091 551.159 362.182C548.402 363.273 545.182 363.818 541.5 363.818ZM541.955 340.636C543.106 340.636 544.091 340.318 544.909 339.682C545.742 339.03 546.379 338.106 546.818 336.909C547.273 335.697 547.5 334.242 547.5 332.545C547.5 330.818 547.273 329.341 546.818 328.114C546.379 326.871 545.742 325.924 544.909 325.273C544.091 324.606 543.106 324.273 541.955 324.273C540.803 324.273 539.818 324.606 539 325.273C538.197 325.924 537.576 326.871 537.136 328.114C536.712 329.341 536.5 330.818 536.5 332.545C536.5 334.273 536.712 335.742 537.136 336.955C537.576 338.152 538.197 339.068 539 339.705C539.818 340.326 540.803 340.636 541.955 340.636ZM582.972 350.636C579.244 350.636 576.032 349.924 573.335 348.5C570.653 347.061 568.585 345 567.131 342.318C565.691 339.621 564.972 336.394 564.972 332.636C564.972 329.03 565.699 325.879 567.153 323.182C568.608 320.485 570.661 318.386 573.312 316.886C575.964 315.386 579.093 314.636 582.699 314.636C585.335 314.636 587.722 315.045 589.858 315.864C591.994 316.682 593.82 317.871 595.335 319.432C596.85 320.977 598.017 322.856 598.835 325.068C599.653 327.28 600.062 329.773 600.062 332.545V335.455H568.881V328.545H588.517C588.502 327.545 588.244 326.667 587.744 325.909C587.259 325.136 586.6 324.538 585.767 324.114C584.949 323.674 584.017 323.455 582.972 323.455C581.956 323.455 581.025 323.674 580.176 324.114C579.328 324.538 578.646 325.129 578.131 325.886C577.631 326.644 577.366 327.53 577.335 328.545V336C577.335 337.121 577.57 338.121 578.04 339C578.509 339.879 579.184 340.568 580.062 341.068C580.941 341.568 582.002 341.818 583.244 341.818C584.108 341.818 584.896 341.697 585.608 341.455C586.335 341.212 586.956 340.864 587.472 340.409C587.987 339.939 588.366 339.379 588.608 338.727H600.062C599.669 341.152 598.737 343.258 597.267 345.045C595.797 346.818 593.85 348.197 591.426 349.182C589.017 350.152 586.199 350.636 582.972 350.636ZM125.009 418.455C123.175 418.455 121.501 418.008 119.986 417.114C118.471 416.205 117.259 414.992 116.349 413.477C115.455 411.962 115.009 410.288 115.009 408.455C115.009 406.606 115.455 404.932 116.349 403.432C117.259 401.917 118.471 400.712 119.986 399.818C121.501 398.909 123.175 398.455 125.009 398.455C126.857 398.455 128.531 398.909 130.031 399.818C131.546 400.712 132.751 401.917 133.645 403.432C134.554 404.932 135.009 406.606 135.009 408.455C135.009 410.288 134.554 411.962 133.645 413.477C132.751 414.992 131.546 416.205 130.031 417.114C128.531 418.008 126.857 418.455 125.009 418.455ZM176 427V380.455H208.727V390.636H188.636V398.636H206.727V408.818H188.636V427H176ZM227.812 427.636C224.025 427.636 220.782 426.886 218.085 425.386C215.388 423.871 213.32 421.765 211.881 419.068C210.441 416.356 209.722 413.212 209.722 409.636C209.722 406.061 210.441 402.924 211.881 400.227C213.32 397.515 215.388 395.409 218.085 393.909C220.782 392.394 224.025 391.636 227.812 391.636C231.6 391.636 234.843 392.394 237.54 393.909C240.237 395.409 242.305 397.515 243.744 400.227C245.184 402.924 245.903 406.061 245.903 409.636C245.903 413.212 245.184 416.356 243.744 419.068C242.305 421.765 240.237 423.871 237.54 425.386C234.843 426.886 231.6 427.636 227.812 427.636ZM227.903 418.364C228.964 418.364 229.881 418.008 230.653 417.295C231.426 416.583 232.025 415.568 232.449 414.25C232.873 412.932 233.085 411.364 233.085 409.545C233.085 407.712 232.873 406.144 232.449 404.841C232.025 403.523 231.426 402.508 230.653 401.795C229.881 401.083 228.964 400.727 227.903 400.727C226.782 400.727 225.82 401.083 225.017 401.795C224.214 402.508 223.6 403.523 223.176 404.841C222.752 406.144 222.54 407.712 222.54 409.545C222.54 411.364 222.752 412.932 223.176 414.25C223.6 415.568 224.214 416.583 225.017 417.295C225.82 418.008 226.782 418.364 227.903 418.364ZM267.812 427.636C264.025 427.636 260.782 426.886 258.085 425.386C255.388 423.871 253.32 421.765 251.881 419.068C250.441 416.356 249.722 413.212 249.722 409.636C249.722 406.061 250.441 402.924 251.881 400.227C253.32 397.515 255.388 395.409 258.085 393.909C260.782 392.394 264.025 391.636 267.812 391.636C271.237 391.636 274.199 392.258 276.699 393.5C279.214 394.727 281.161 396.47 282.54 398.727C283.919 400.97 284.616 403.606 284.631 406.636H272.994C272.828 404.803 272.297 403.409 271.403 402.455C270.525 401.485 269.388 401 267.994 401C266.903 401 265.949 401.318 265.131 401.955C264.313 402.576 263.676 403.523 263.222 404.795C262.767 406.053 262.54 407.636 262.54 409.545C262.54 411.455 262.767 413.045 263.222 414.318C263.676 415.576 264.313 416.523 265.131 417.159C265.949 417.78 266.903 418.091 267.994 418.091C268.919 418.091 269.737 417.879 270.449 417.455C271.161 417.015 271.737 416.379 272.176 415.545C272.631 414.697 272.903 413.667 272.994 412.455H284.631C284.585 415.53 283.881 418.212 282.517 420.5C281.153 422.773 279.222 424.53 276.722 425.773C274.237 427.015 271.267 427.636 267.812 427.636ZM312.443 411.727V392.091H324.989V427H313.08V420.364H312.716C311.958 422.591 310.633 424.333 308.739 425.591C306.845 426.833 304.595 427.455 301.989 427.455C299.549 427.455 297.413 426.894 295.58 425.773C293.761 424.652 292.345 423.106 291.33 421.136C290.33 419.167 289.822 416.909 289.807 414.364V392.091H302.352V411.727C302.367 413.455 302.807 414.811 303.67 415.795C304.549 416.78 305.777 417.273 307.352 417.273C308.398 417.273 309.299 417.053 310.057 416.614C310.83 416.159 311.42 415.523 311.83 414.705C312.254 413.871 312.458 412.879 312.443 411.727ZM363.278 403.455H351.733C351.672 402.742 351.422 402.129 350.983 401.614C350.544 401.098 349.975 400.705 349.278 400.432C348.597 400.144 347.839 400 347.006 400C345.93 400 345.006 400.197 344.233 400.591C343.46 400.985 343.081 401.545 343.097 402.273C343.081 402.788 343.301 403.265 343.756 403.705C344.225 404.144 345.127 404.485 346.46 404.727L353.551 406C357.127 406.652 359.786 407.75 361.528 409.295C363.286 410.826 364.172 412.879 364.188 415.455C364.172 417.939 363.43 420.098 361.96 421.932C360.506 423.75 358.513 425.159 355.983 426.159C353.468 427.144 350.597 427.636 347.369 427.636C342.036 427.636 337.862 426.545 334.847 424.364C331.847 422.182 330.172 419.303 329.824 415.727H342.278C342.445 416.833 342.991 417.689 343.915 418.295C344.854 418.886 346.036 419.182 347.46 419.182C348.612 419.182 349.559 418.985 350.301 418.591C351.059 418.197 351.445 417.636 351.46 416.909C351.445 416.242 351.112 415.712 350.46 415.318C349.824 414.924 348.824 414.606 347.46 414.364L341.278 413.273C337.718 412.652 335.051 411.47 333.278 409.727C331.506 407.985 330.627 405.742 330.642 403C330.627 400.576 331.263 398.523 332.551 396.841C333.854 395.144 335.71 393.856 338.119 392.977C340.544 392.083 343.415 391.636 346.733 391.636C351.778 391.636 355.756 392.682 358.665 394.773C361.589 396.864 363.127 399.758 363.278 403.455ZM381.562 427V380.455H401.653C405.108 380.455 408.131 381.136 410.722 382.5C413.313 383.864 415.328 385.78 416.767 388.25C418.206 390.72 418.926 393.606 418.926 396.909C418.926 400.242 418.184 403.129 416.699 405.568C415.229 408.008 413.161 409.886 410.494 411.205C407.843 412.523 404.744 413.182 401.199 413.182H389.199V403.364H398.653C400.138 403.364 401.403 403.106 402.449 402.591C403.509 402.061 404.32 401.311 404.881 400.341C405.456 399.371 405.744 398.227 405.744 396.909C405.744 395.576 405.456 394.439 404.881 393.5C404.32 392.545 403.509 391.818 402.449 391.318C401.403 390.803 400.138 390.545 398.653 390.545H394.199V427H381.562ZM431.909 427.545C429.682 427.545 427.712 427.182 426 426.455C424.303 425.712 422.97 424.591 422 423.091C421.03 421.591 420.545 419.682 420.545 417.364C420.545 415.455 420.871 413.826 421.523 412.477C422.174 411.114 423.083 410 424.25 409.136C425.417 408.273 426.773 407.614 428.318 407.159C429.879 406.705 431.561 406.409 433.364 406.273C435.318 406.121 436.886 405.939 438.068 405.727C439.265 405.5 440.129 405.189 440.659 404.795C441.189 404.386 441.455 403.848 441.455 403.182V403.091C441.455 402.182 441.106 401.485 440.409 401C439.712 400.515 438.818 400.273 437.727 400.273C436.53 400.273 435.553 400.538 434.795 401.068C434.053 401.583 433.606 402.379 433.455 403.455H421.909C422.061 401.333 422.735 399.379 423.932 397.591C425.144 395.788 426.909 394.348 429.227 393.273C431.545 392.182 434.439 391.636 437.909 391.636C440.409 391.636 442.652 391.932 444.636 392.523C446.621 393.098 448.311 393.909 449.705 394.955C451.098 395.985 452.159 397.197 452.886 398.591C453.629 399.97 454 401.47 454 403.091V427H442.273V422.091H442C441.303 423.394 440.455 424.447 439.455 425.25C438.47 426.053 437.341 426.636 436.068 427C434.811 427.364 433.424 427.545 431.909 427.545ZM436 419.636C436.955 419.636 437.848 419.439 438.682 419.045C439.53 418.652 440.22 418.083 440.75 417.341C441.28 416.598 441.545 415.697 441.545 414.636V411.727C441.212 411.864 440.856 411.992 440.477 412.114C440.114 412.235 439.72 412.348 439.295 412.455C438.886 412.561 438.447 412.659 437.977 412.75C437.523 412.841 437.045 412.924 436.545 413C435.576 413.152 434.78 413.402 434.159 413.75C433.553 414.083 433.098 414.5 432.795 415C432.508 415.485 432.364 416.03 432.364 416.636C432.364 417.606 432.705 418.348 433.386 418.864C434.068 419.379 434.939 419.636 436 419.636ZM476.812 440.818C473.312 440.818 470.312 440.318 467.812 439.318C465.328 438.333 463.396 436.97 462.017 435.227C460.653 433.5 459.888 431.515 459.722 429.273H471.812C471.934 430.015 472.237 430.614 472.722 431.068C473.206 431.523 473.828 431.848 474.585 432.045C475.358 432.258 476.222 432.364 477.176 432.364C478.797 432.364 480.138 431.97 481.199 431.182C482.275 430.394 482.812 428.97 482.812 426.909V421H482.449C481.994 422.182 481.297 423.189 480.358 424.023C479.419 424.841 478.29 425.47 476.972 425.909C475.653 426.333 474.206 426.545 472.631 426.545C470.146 426.545 467.858 425.97 465.767 424.818C463.691 423.667 462.025 421.841 460.767 419.341C459.525 416.841 458.903 413.576 458.903 409.545C458.903 405.333 459.555 401.909 460.858 399.273C462.176 396.636 463.873 394.705 465.949 393.477C468.04 392.25 470.237 391.636 472.54 391.636C474.267 391.636 475.782 391.939 477.085 392.545C478.388 393.136 479.479 393.932 480.358 394.932C481.237 395.917 481.903 397 482.358 398.182H482.631V392.091H495.176V426.909C495.176 429.864 494.411 432.371 492.881 434.432C491.366 436.508 489.229 438.091 486.472 439.182C483.714 440.273 480.494 440.818 476.812 440.818ZM477.267 417.636C478.419 417.636 479.403 417.318 480.222 416.682C481.055 416.03 481.691 415.106 482.131 413.909C482.585 412.697 482.812 411.242 482.812 409.545C482.812 407.818 482.585 406.341 482.131 405.114C481.691 403.871 481.055 402.924 480.222 402.273C479.403 401.606 478.419 401.273 477.267 401.273C476.116 401.273 475.131 401.606 474.312 402.273C473.509 402.924 472.888 403.871 472.449 405.114C472.025 406.341 471.812 407.818 471.812 409.545C471.812 411.273 472.025 412.742 472.449 413.955C472.888 415.152 473.509 416.068 474.312 416.705C475.131 417.326 476.116 417.636 477.267 417.636ZM518.284 427.636C514.557 427.636 511.345 426.924 508.648 425.5C505.966 424.061 503.898 422 502.443 419.318C501.004 416.621 500.284 413.394 500.284 409.636C500.284 406.03 501.011 402.879 502.466 400.182C503.92 397.485 505.973 395.386 508.625 393.886C511.277 392.386 514.405 391.636 518.011 391.636C520.648 391.636 523.034 392.045 525.17 392.864C527.307 393.682 529.133 394.871 530.648 396.432C532.163 397.977 533.33 399.856 534.148 402.068C534.966 404.28 535.375 406.773 535.375 409.545V412.455H504.193V405.545H523.83C523.814 404.545 523.557 403.667 523.057 402.909C522.572 402.136 521.913 401.538 521.08 401.114C520.261 400.674 519.33 400.455 518.284 400.455C517.269 400.455 516.337 400.674 515.489 401.114C514.64 401.538 513.958 402.129 513.443 402.886C512.943 403.644 512.678 404.53 512.648 405.545V413C512.648 414.121 512.883 415.121 513.352 416C513.822 416.879 514.496 417.568 515.375 418.068C516.254 418.568 517.314 418.818 518.557 418.818C519.42 418.818 520.208 418.697 520.92 418.455C521.648 418.212 522.269 417.864 522.784 417.409C523.299 416.939 523.678 416.379 523.92 415.727H535.375C534.981 418.152 534.049 420.258 532.58 422.045C531.11 423.818 529.163 425.197 526.739 426.182C524.33 427.152 521.511 427.636 518.284 427.636ZM221.009 495.455C219.175 495.455 217.501 495.008 215.986 494.114C214.471 493.205 213.259 491.992 212.349 490.477C211.455 488.962 211.009 487.288 211.009 485.455C211.009 483.606 211.455 481.932 212.349 480.432C213.259 478.917 214.471 477.712 215.986 476.818C217.501 475.909 219.175 475.455 221.009 475.455C222.857 475.455 224.531 475.909 226.031 476.818C227.546 477.712 228.751 478.917 229.645 480.432C230.554 481.932 231.009 483.606 231.009 485.455C231.009 487.288 230.554 488.962 229.645 490.477C228.751 491.992 227.546 493.205 226.031 494.114C224.531 495.008 222.857 495.455 221.009 495.455ZM281.909 504.545C279.682 504.545 277.712 504.182 276 503.455C274.303 502.712 272.97 501.591 272 500.091C271.03 498.591 270.545 496.682 270.545 494.364C270.545 492.455 270.871 490.826 271.523 489.477C272.174 488.114 273.083 487 274.25 486.136C275.417 485.273 276.773 484.614 278.318 484.159C279.879 483.705 281.561 483.409 283.364 483.273C285.318 483.121 286.886 482.939 288.068 482.727C289.265 482.5 290.129 482.189 290.659 481.795C291.189 481.386 291.455 480.848 291.455 480.182V480.091C291.455 479.182 291.106 478.485 290.409 478C289.712 477.515 288.818 477.273 287.727 477.273C286.53 477.273 285.553 477.538 284.795 478.068C284.053 478.583 283.606 479.379 283.455 480.455H271.909C272.061 478.333 272.735 476.379 273.932 474.591C275.144 472.788 276.909 471.348 279.227 470.273C281.545 469.182 284.439 468.636 287.909 468.636C290.409 468.636 292.652 468.932 294.636 469.523C296.621 470.098 298.311 470.909 299.705 471.955C301.098 472.985 302.159 474.197 302.886 475.591C303.629 476.97 304 478.47 304 480.091V504H292.273V499.091H292C291.303 500.394 290.455 501.447 289.455 502.25C288.47 503.053 287.341 503.636 286.068 504C284.811 504.364 283.424 504.545 281.909 504.545ZM286 496.636C286.955 496.636 287.848 496.439 288.682 496.045C289.53 495.652 290.22 495.083 290.75 494.341C291.28 493.598 291.545 492.697 291.545 491.636V488.727C291.212 488.864 290.856 488.992 290.477 489.114C290.114 489.235 289.72 489.348 289.295 489.455C288.886 489.561 288.447 489.659 287.977 489.75C287.523 489.841 287.045 489.924 286.545 490C285.576 490.152 284.78 490.402 284.159 490.75C283.553 491.083 283.098 491.5 282.795 492C282.508 492.485 282.364 493.03 282.364 493.636C282.364 494.606 282.705 495.348 283.386 495.864C284.068 496.379 284.939 496.636 286 496.636ZM322.54 484.364V504H309.994V469.091H321.903V475.727H322.267C323.025 473.515 324.358 471.78 326.267 470.523C328.191 469.265 330.434 468.636 332.994 468.636C335.464 468.636 337.608 469.205 339.426 470.341C341.259 471.462 342.676 473.008 343.676 474.977C344.691 476.947 345.191 479.197 345.176 481.727V504H332.631V484.364C332.646 482.636 332.206 481.28 331.312 480.295C330.434 479.311 329.206 478.818 327.631 478.818C326.6 478.818 325.699 479.045 324.926 479.5C324.169 479.939 323.585 480.576 323.176 481.409C322.767 482.227 322.555 483.212 322.54 484.364ZM364.006 504.455C361.521 504.455 359.233 503.803 357.142 502.5C355.066 501.197 353.4 499.22 352.142 496.568C350.9 493.917 350.278 490.576 350.278 486.545C350.278 482.333 350.93 478.909 352.233 476.273C353.551 473.636 355.248 471.705 357.324 470.477C359.415 469.25 361.612 468.636 363.915 468.636C365.642 468.636 367.157 468.939 368.46 469.545C369.763 470.136 370.854 470.932 371.733 471.932C372.612 472.917 373.278 474 373.733 475.182H373.915V457.455H386.46V504H374.006V498.273H373.733C373.248 499.455 372.551 500.515 371.642 501.455C370.748 502.379 369.657 503.114 368.369 503.659C367.097 504.189 365.642 504.455 364.006 504.455ZM368.642 494.818C369.794 494.818 370.778 494.485 371.597 493.818C372.43 493.136 373.066 492.182 373.506 490.955C373.96 489.712 374.188 488.242 374.188 486.545C374.188 484.818 373.96 483.341 373.506 482.114C373.066 480.871 372.43 479.924 371.597 479.273C370.778 478.606 369.794 478.273 368.642 478.273C367.491 478.273 366.506 478.606 365.688 479.273C364.884 479.924 364.263 480.871 363.824 482.114C363.4 483.341 363.188 484.818 363.188 486.545C363.188 488.273 363.4 489.758 363.824 491C364.263 492.227 364.884 493.174 365.688 493.841C366.506 494.492 367.491 494.818 368.642 494.818ZM426.188 469.091V478.182H403.188V469.091H426.188ZM407.642 460.727H420.188V492.773C420.188 493.258 420.271 493.667 420.438 494C420.604 494.318 420.862 494.561 421.21 494.727C421.559 494.879 422.006 494.955 422.551 494.955C422.93 494.955 423.369 494.909 423.869 494.818C424.384 494.727 424.763 494.652 425.006 494.591L426.824 503.409C426.263 503.576 425.46 503.78 424.415 504.023C423.384 504.265 422.157 504.424 420.733 504.5C417.854 504.652 415.438 504.356 413.483 503.614C411.528 502.856 410.059 501.667 409.074 500.045C408.089 498.424 407.612 496.394 407.642 493.955V460.727ZM431.307 504V469.091H443.489V475.727H443.852C444.489 473.273 445.496 471.477 446.875 470.341C448.269 469.205 449.898 468.636 451.761 468.636C452.307 468.636 452.845 468.682 453.375 468.773C453.92 468.848 454.443 468.962 454.943 469.114V479.818C454.322 479.606 453.557 479.447 452.648 479.341C451.739 479.235 450.958 479.182 450.307 479.182C449.08 479.182 447.973 479.462 446.989 480.023C446.019 480.568 445.254 481.341 444.693 482.341C444.133 483.326 443.852 484.485 443.852 485.818V504H431.307ZM467.159 504.545C464.932 504.545 462.962 504.182 461.25 503.455C459.553 502.712 458.22 501.591 457.25 500.091C456.28 498.591 455.795 496.682 455.795 494.364C455.795 492.455 456.121 490.826 456.773 489.477C457.424 488.114 458.333 487 459.5 486.136C460.667 485.273 462.023 484.614 463.568 484.159C465.129 483.705 466.811 483.409 468.614 483.273C470.568 483.121 472.136 482.939 473.318 482.727C474.515 482.5 475.379 482.189 475.909 481.795C476.439 481.386 476.705 480.848 476.705 480.182V480.091C476.705 479.182 476.356 478.485 475.659 478C474.962 477.515 474.068 477.273 472.977 477.273C471.78 477.273 470.803 477.538 470.045 478.068C469.303 478.583 468.856 479.379 468.705 480.455H457.159C457.311 478.333 457.985 476.379 459.182 474.591C460.394 472.788 462.159 471.348 464.477 470.273C466.795 469.182 469.689 468.636 473.159 468.636C475.659 468.636 477.902 468.932 479.886 469.523C481.871 470.098 483.561 470.909 484.955 471.955C486.348 472.985 487.409 474.197 488.136 475.591C488.879 476.97 489.25 478.47 489.25 480.091V504H477.523V499.091H477.25C476.553 500.394 475.705 501.447 474.705 502.25C473.72 503.053 472.591 503.636 471.318 504C470.061 504.364 468.674 504.545 467.159 504.545ZM471.25 496.636C472.205 496.636 473.098 496.439 473.932 496.045C474.78 495.652 475.47 495.083 476 494.341C476.53 493.598 476.795 492.697 476.795 491.636V488.727C476.462 488.864 476.106 488.992 475.727 489.114C475.364 489.235 474.97 489.348 474.545 489.455C474.136 489.561 473.697 489.659 473.227 489.75C472.773 489.841 472.295 489.924 471.795 490C470.826 490.152 470.03 490.402 469.409 490.75C468.803 491.083 468.348 491.5 468.045 492C467.758 492.485 467.614 493.03 467.614 493.636C467.614 494.606 467.955 495.348 468.636 495.864C469.318 496.379 470.189 496.636 471.25 496.636ZM507.79 484.364V504H495.244V469.091H507.153V475.727H507.517C508.275 473.515 509.608 471.78 511.517 470.523C513.441 469.265 515.684 468.636 518.244 468.636C520.714 468.636 522.858 469.205 524.676 470.341C526.509 471.462 527.926 473.008 528.926 474.977C529.941 476.947 530.441 479.197 530.426 481.727V504H517.881V484.364C517.896 482.636 517.456 481.28 516.562 480.295C515.684 479.311 514.456 478.818 512.881 478.818C511.85 478.818 510.949 479.045 510.176 479.5C509.419 479.939 508.835 480.576 508.426 481.409C508.017 482.227 507.805 483.212 507.79 484.364ZM568.528 480.455H556.983C556.922 479.742 556.672 479.129 556.233 478.614C555.794 478.098 555.225 477.705 554.528 477.432C553.847 477.144 553.089 477 552.256 477C551.18 477 550.256 477.197 549.483 477.591C548.71 477.985 548.331 478.545 548.347 479.273C548.331 479.788 548.551 480.265 549.006 480.705C549.475 481.144 550.377 481.485 551.71 481.727L558.801 483C562.377 483.652 565.036 484.75 566.778 486.295C568.536 487.826 569.422 489.879 569.438 492.455C569.422 494.939 568.68 497.098 567.21 498.932C565.756 500.75 563.763 502.159 561.233 503.159C558.718 504.144 555.847 504.636 552.619 504.636C547.286 504.636 543.112 503.545 540.097 501.364C537.097 499.182 535.422 496.303 535.074 492.727H547.528C547.695 493.833 548.241 494.689 549.165 495.295C550.104 495.886 551.286 496.182 552.71 496.182C553.862 496.182 554.809 495.985 555.551 495.591C556.309 495.197 556.695 494.636 556.71 493.909C556.695 493.242 556.362 492.712 555.71 492.318C555.074 491.924 554.074 491.606 552.71 491.364L546.528 490.273C542.968 489.652 540.301 488.47 538.528 486.727C536.756 484.985 535.877 482.742 535.892 480C535.877 477.576 536.513 475.523 537.801 473.841C539.104 472.144 540.96 470.856 543.369 469.977C545.794 469.083 548.665 468.636 551.983 468.636C557.028 468.636 561.006 469.682 563.915 471.773C566.839 473.864 568.377 476.758 568.528 480.455ZM574.244 504V469.091H586.79V504H574.244ZM580.517 465.455C578.82 465.455 577.366 464.894 576.153 463.773C574.941 462.652 574.335 461.303 574.335 459.727C574.335 458.152 574.941 456.803 576.153 455.682C577.366 454.561 578.82 454 580.517 454C582.229 454 583.684 454.561 584.881 455.682C586.093 456.803 586.699 458.152 586.699 459.727C586.699 461.303 586.093 462.652 584.881 463.773C583.684 464.894 582.229 465.455 580.517 465.455ZM614 469.091V478.182H591V469.091H614ZM595.455 460.727H608V492.773C608 493.258 608.083 493.667 608.25 494C608.417 494.318 608.674 494.561 609.023 494.727C609.371 494.879 609.818 494.955 610.364 494.955C610.742 494.955 611.182 494.909 611.682 494.818C612.197 494.727 612.576 494.652 612.818 494.591L614.636 503.409C614.076 503.576 613.273 503.78 612.227 504.023C611.197 504.265 609.97 504.424 608.545 504.5C605.667 504.652 603.25 504.356 601.295 503.614C599.341 502.856 597.871 501.667 596.886 500.045C595.902 498.424 595.424 496.394 595.455 493.955V460.727ZM619.119 504V469.091H631.665V504H619.119ZM625.392 465.455C623.695 465.455 622.241 464.894 621.028 463.773C619.816 462.652 619.21 461.303 619.21 459.727C619.21 458.152 619.816 456.803 621.028 455.682C622.241 454.561 623.695 454 625.392 454C627.104 454 628.559 454.561 629.756 455.682C630.968 456.803 631.574 458.152 631.574 459.727C631.574 461.303 630.968 462.652 629.756 463.773C628.559 464.894 627.104 465.455 625.392 465.455ZM654.875 504.636C651.087 504.636 647.845 503.886 645.148 502.386C642.451 500.871 640.383 498.765 638.943 496.068C637.504 493.356 636.784 490.212 636.784 486.636C636.784 483.061 637.504 479.924 638.943 477.227C640.383 474.515 642.451 472.409 645.148 470.909C647.845 469.394 651.087 468.636 654.875 468.636C658.663 468.636 661.905 469.394 664.602 470.909C667.299 472.409 669.367 474.515 670.807 477.227C672.246 479.924 672.966 483.061 672.966 486.636C672.966 490.212 672.246 493.356 670.807 496.068C669.367 498.765 667.299 500.871 664.602 502.386C661.905 503.886 658.663 504.636 654.875 504.636ZM654.966 495.364C656.027 495.364 656.943 495.008 657.716 494.295C658.489 493.583 659.087 492.568 659.511 491.25C659.936 489.932 660.148 488.364 660.148 486.545C660.148 484.712 659.936 483.144 659.511 481.841C659.087 480.523 658.489 479.508 657.716 478.795C656.943 478.083 656.027 477.727 654.966 477.727C653.845 477.727 652.883 478.083 652.08 478.795C651.277 479.508 650.663 480.523 650.239 481.841C649.814 483.144 649.602 484.712 649.602 486.545C649.602 488.364 649.814 489.932 650.239 491.25C650.663 492.568 651.277 493.583 652.08 494.295C652.883 495.008 653.845 495.364 654.966 495.364ZM690.602 484.364V504H678.057V469.091H689.966V475.727H690.33C691.087 473.515 692.42 471.78 694.33 470.523C696.254 469.265 698.496 468.636 701.057 468.636C703.527 468.636 705.67 469.205 707.489 470.341C709.322 471.462 710.739 473.008 711.739 474.977C712.754 476.947 713.254 479.197 713.239 481.727V504H700.693V484.364C700.708 482.636 700.269 481.28 699.375 480.295C698.496 479.311 697.269 478.818 695.693 478.818C694.663 478.818 693.761 479.045 692.989 479.5C692.231 479.939 691.648 480.576 691.239 481.409C690.83 482.227 690.617 483.212 690.602 484.364ZM125.009 572.455C123.175 572.455 121.501 572.008 119.986 571.114C118.471 570.205 117.259 568.992 116.349 567.477C115.455 565.962 115.009 564.288 115.009 562.455C115.009 560.606 115.455 558.932 116.349 557.432C117.259 555.917 118.471 554.712 119.986 553.818C121.501 552.909 123.175 552.455 125.009 552.455C126.857 552.455 128.531 552.909 130.031 553.818C131.546 554.712 132.751 555.917 133.645 557.432C134.554 558.932 135.009 560.606 135.009 562.455C135.009 564.288 134.554 565.962 133.645 567.477C132.751 568.992 131.546 570.205 130.031 571.114C128.531 572.008 126.857 572.455 125.009 572.455ZM176 581V534.455H196.091C199.545 534.455 202.568 535.083 205.159 536.341C207.75 537.598 209.765 539.409 211.205 541.773C212.644 544.136 213.364 546.97 213.364 550.273C213.364 553.606 212.621 556.417 211.136 558.705C209.667 560.992 207.598 562.72 204.932 563.886C202.28 565.053 199.182 565.636 195.636 565.636H183.636V555.818H193.091C194.576 555.818 195.841 555.636 196.886 555.273C197.947 554.894 198.758 554.295 199.318 553.477C199.894 552.659 200.182 551.591 200.182 550.273C200.182 548.939 199.894 547.856 199.318 547.023C198.758 546.174 197.947 545.553 196.886 545.159C195.841 544.75 194.576 544.545 193.091 544.545H188.636V581H176ZM203.273 559.636L214.909 581H201.182L189.818 559.636H203.273ZM234.909 581.636C231.182 581.636 227.97 580.924 225.273 579.5C222.591 578.061 220.523 576 219.068 573.318C217.629 570.621 216.909 567.394 216.909 563.636C216.909 560.03 217.636 556.879 219.091 554.182C220.545 551.485 222.598 549.386 225.25 547.886C227.902 546.386 231.03 545.636 234.636 545.636C237.273 545.636 239.659 546.045 241.795 546.864C243.932 547.682 245.758 548.871 247.273 550.432C248.788 551.977 249.955 553.856 250.773 556.068C251.591 558.28 252 560.773 252 563.545V566.455H220.818V559.545H240.455C240.439 558.545 240.182 557.667 239.682 556.909C239.197 556.136 238.538 555.538 237.705 555.114C236.886 554.674 235.955 554.455 234.909 554.455C233.894 554.455 232.962 554.674 232.114 555.114C231.265 555.538 230.583 556.129 230.068 556.886C229.568 557.644 229.303 558.53 229.273 559.545V567C229.273 568.121 229.508 569.121 229.977 570C230.447 570.879 231.121 571.568 232 572.068C232.879 572.568 233.939 572.818 235.182 572.818C236.045 572.818 236.833 572.697 237.545 572.455C238.273 572.212 238.894 571.864 239.409 571.409C239.924 570.939 240.303 570.379 240.545 569.727H252C251.606 572.152 250.674 574.258 249.205 576.045C247.735 577.818 245.788 579.197 243.364 580.182C240.955 581.152 238.136 581.636 234.909 581.636ZM289.028 557.455H277.483C277.422 556.742 277.172 556.129 276.733 555.614C276.294 555.098 275.725 554.705 275.028 554.432C274.347 554.144 273.589 554 272.756 554C271.68 554 270.756 554.197 269.983 554.591C269.21 554.985 268.831 555.545 268.847 556.273C268.831 556.788 269.051 557.265 269.506 557.705C269.975 558.144 270.877 558.485 272.21 558.727L279.301 560C282.877 560.652 285.536 561.75 287.278 563.295C289.036 564.826 289.922 566.879 289.938 569.455C289.922 571.939 289.18 574.098 287.71 575.932C286.256 577.75 284.263 579.159 281.733 580.159C279.218 581.144 276.347 581.636 273.119 581.636C267.786 581.636 263.612 580.545 260.597 578.364C257.597 576.182 255.922 573.303 255.574 569.727H268.028C268.195 570.833 268.741 571.689 269.665 572.295C270.604 572.886 271.786 573.182 273.21 573.182C274.362 573.182 275.309 572.985 276.051 572.591C276.809 572.197 277.195 571.636 277.21 570.909C277.195 570.242 276.862 569.712 276.21 569.318C275.574 568.924 274.574 568.606 273.21 568.364L267.028 567.273C263.468 566.652 260.801 565.47 259.028 563.727C257.256 561.985 256.377 559.742 256.392 557C256.377 554.576 257.013 552.523 258.301 550.841C259.604 549.144 261.46 547.856 263.869 546.977C266.294 546.083 269.165 545.636 272.483 545.636C277.528 545.636 281.506 546.682 284.415 548.773C287.339 550.864 288.877 553.758 289.028 557.455ZM315.562 546.091V555.182H292.562V546.091H315.562ZM297.017 537.727H309.562V569.773C309.562 570.258 309.646 570.667 309.812 571C309.979 571.318 310.237 571.561 310.585 571.727C310.934 571.879 311.381 571.955 311.926 571.955C312.305 571.955 312.744 571.909 313.244 571.818C313.759 571.727 314.138 571.652 314.381 571.591L316.199 580.409C315.638 580.576 314.835 580.78 313.79 581.023C312.759 581.265 311.532 581.424 310.108 581.5C307.229 581.652 304.813 581.356 302.858 580.614C300.903 579.856 299.434 578.667 298.449 577.045C297.464 575.424 296.987 573.394 297.017 570.955V537.727ZM333.25 581V534.455H353.341C356.795 534.455 359.818 535.136 362.409 536.5C365 537.864 367.015 539.78 368.455 542.25C369.894 544.72 370.614 547.606 370.614 550.909C370.614 554.242 369.871 557.129 368.386 559.568C366.917 562.008 364.848 563.886 362.182 565.205C359.53 566.523 356.432 567.182 352.886 567.182H340.886V557.364H350.341C351.826 557.364 353.091 557.106 354.136 556.591C355.197 556.061 356.008 555.311 356.568 554.341C357.144 553.371 357.432 552.227 357.432 550.909C357.432 549.576 357.144 548.439 356.568 547.5C356.008 546.545 355.197 545.818 354.136 545.318C353.091 544.803 351.826 544.545 350.341 544.545H345.886V581H333.25ZM383.597 581.545C381.369 581.545 379.4 581.182 377.688 580.455C375.991 579.712 374.657 578.591 373.688 577.091C372.718 575.591 372.233 573.682 372.233 571.364C372.233 569.455 372.559 567.826 373.21 566.477C373.862 565.114 374.771 564 375.938 563.136C377.104 562.273 378.46 561.614 380.006 561.159C381.566 560.705 383.248 560.409 385.051 560.273C387.006 560.121 388.574 559.939 389.756 559.727C390.953 559.5 391.816 559.189 392.347 558.795C392.877 558.386 393.142 557.848 393.142 557.182V557.091C393.142 556.182 392.794 555.485 392.097 555C391.4 554.515 390.506 554.273 389.415 554.273C388.218 554.273 387.241 554.538 386.483 555.068C385.741 555.583 385.294 556.379 385.142 557.455H373.597C373.748 555.333 374.422 553.379 375.619 551.591C376.831 549.788 378.597 548.348 380.915 547.273C383.233 546.182 386.127 545.636 389.597 545.636C392.097 545.636 394.339 545.932 396.324 546.523C398.309 547.098 399.998 547.909 401.392 548.955C402.786 549.985 403.847 551.197 404.574 552.591C405.316 553.97 405.688 555.47 405.688 557.091V581H393.96V576.091H393.688C392.991 577.394 392.142 578.447 391.142 579.25C390.157 580.053 389.028 580.636 387.756 581C386.498 581.364 385.112 581.545 383.597 581.545ZM387.688 573.636C388.642 573.636 389.536 573.439 390.369 573.045C391.218 572.652 391.907 572.083 392.438 571.341C392.968 570.598 393.233 569.697 393.233 568.636V565.727C392.9 565.864 392.544 565.992 392.165 566.114C391.801 566.235 391.407 566.348 390.983 566.455C390.574 566.561 390.134 566.659 389.665 566.75C389.21 566.841 388.733 566.924 388.233 567C387.263 567.152 386.468 567.402 385.847 567.75C385.241 568.083 384.786 568.5 384.483 569C384.195 569.485 384.051 570.03 384.051 570.636C384.051 571.606 384.392 572.348 385.074 572.864C385.756 573.379 386.627 573.636 387.688 573.636ZM428.5 594.818C425 594.818 422 594.318 419.5 593.318C417.015 592.333 415.083 590.97 413.705 589.227C412.341 587.5 411.576 585.515 411.409 583.273H423.5C423.621 584.015 423.924 584.614 424.409 585.068C424.894 585.523 425.515 585.848 426.273 586.045C427.045 586.258 427.909 586.364 428.864 586.364C430.485 586.364 431.826 585.97 432.886 585.182C433.962 584.394 434.5 582.97 434.5 580.909V575H434.136C433.682 576.182 432.985 577.189 432.045 578.023C431.106 578.841 429.977 579.47 428.659 579.909C427.341 580.333 425.894 580.545 424.318 580.545C421.833 580.545 419.545 579.97 417.455 578.818C415.379 577.667 413.712 575.841 412.455 573.341C411.212 570.841 410.591 567.576 410.591 563.545C410.591 559.333 411.242 555.909 412.545 553.273C413.864 550.636 415.561 548.705 417.636 547.477C419.727 546.25 421.924 545.636 424.227 545.636C425.955 545.636 427.47 545.939 428.773 546.545C430.076 547.136 431.167 547.932 432.045 548.932C432.924 549.917 433.591 551 434.045 552.182H434.318V546.091H446.864V580.909C446.864 583.864 446.098 586.371 444.568 588.432C443.053 590.508 440.917 592.091 438.159 593.182C435.402 594.273 432.182 594.818 428.5 594.818ZM428.955 571.636C430.106 571.636 431.091 571.318 431.909 570.682C432.742 570.03 433.379 569.106 433.818 567.909C434.273 566.697 434.5 565.242 434.5 563.545C434.5 561.818 434.273 560.341 433.818 559.114C433.379 557.871 432.742 556.924 431.909 556.273C431.091 555.606 430.106 555.273 428.955 555.273C427.803 555.273 426.818 555.606 426 556.273C425.197 556.924 424.576 557.871 424.136 559.114C423.712 560.341 423.5 561.818 423.5 563.545C423.5 565.273 423.712 566.742 424.136 567.955C424.576 569.152 425.197 570.068 426 570.705C426.818 571.326 427.803 571.636 428.955 571.636ZM469.972 581.636C466.244 581.636 463.032 580.924 460.335 579.5C457.653 578.061 455.585 576 454.131 573.318C452.691 570.621 451.972 567.394 451.972 563.636C451.972 560.03 452.699 556.879 454.153 554.182C455.608 551.485 457.661 549.386 460.312 547.886C462.964 546.386 466.093 545.636 469.699 545.636C472.335 545.636 474.722 546.045 476.858 546.864C478.994 547.682 480.82 548.871 482.335 550.432C483.85 551.977 485.017 553.856 485.835 556.068C486.653 558.28 487.062 560.773 487.062 563.545V566.455H455.881V559.545H475.517C475.502 558.545 475.244 557.667 474.744 556.909C474.259 556.136 473.6 555.538 472.767 555.114C471.949 554.674 471.017 554.455 469.972 554.455C468.956 554.455 468.025 554.674 467.176 555.114C466.328 555.538 465.646 556.129 465.131 556.886C464.631 557.644 464.366 558.53 464.335 559.545V567C464.335 568.121 464.57 569.121 465.04 570C465.509 570.879 466.184 571.568 467.062 572.068C467.941 572.568 469.002 572.818 470.244 572.818C471.108 572.818 471.896 572.697 472.608 572.455C473.335 572.212 473.956 571.864 474.472 571.409C474.987 570.939 475.366 570.379 475.608 569.727H487.062C486.669 572.152 485.737 574.258 484.267 576.045C482.797 577.818 480.85 579.197 478.426 580.182C476.017 581.152 473.199 581.636 469.972 581.636ZM221.009 649.455C219.175 649.455 217.501 649.008 215.986 648.114C214.471 647.205 213.259 645.992 212.349 644.477C211.455 642.962 211.009 641.288 211.009 639.455C211.009 637.606 211.455 635.932 212.349 634.432C213.259 632.917 214.471 631.712 215.986 630.818C217.501 629.909 219.175 629.455 221.009 629.455C222.857 629.455 224.531 629.909 226.031 630.818C227.546 631.712 228.751 632.917 229.645 634.432C230.554 635.932 231.009 637.606 231.009 639.455C231.009 641.288 230.554 642.962 229.645 644.477C228.751 645.992 227.546 647.205 226.031 648.114C224.531 649.008 222.857 649.455 221.009 649.455ZM281.909 658.545C279.682 658.545 277.712 658.182 276 657.455C274.303 656.712 272.97 655.591 272 654.091C271.03 652.591 270.545 650.682 270.545 648.364C270.545 646.455 270.871 644.826 271.523 643.477C272.174 642.114 273.083 641 274.25 640.136C275.417 639.273 276.773 638.614 278.318 638.159C279.879 637.705 281.561 637.409 283.364 637.273C285.318 637.121 286.886 636.939 288.068 636.727C289.265 636.5 290.129 636.189 290.659 635.795C291.189 635.386 291.455 634.848 291.455 634.182V634.091C291.455 633.182 291.106 632.485 290.409 632C289.712 631.515 288.818 631.273 287.727 631.273C286.53 631.273 285.553 631.538 284.795 632.068C284.053 632.583 283.606 633.379 283.455 634.455H271.909C272.061 632.333 272.735 630.379 273.932 628.591C275.144 626.788 276.909 625.348 279.227 624.273C281.545 623.182 284.439 622.636 287.909 622.636C290.409 622.636 292.652 622.932 294.636 623.523C296.621 624.098 298.311 624.909 299.705 625.955C301.098 626.985 302.159 628.197 302.886 629.591C303.629 630.97 304 632.47 304 634.091V658H292.273V653.091H292C291.303 654.394 290.455 655.447 289.455 656.25C288.47 657.053 287.341 657.636 286.068 658C284.811 658.364 283.424 658.545 281.909 658.545ZM286 650.636C286.955 650.636 287.848 650.439 288.682 650.045C289.53 649.652 290.22 649.083 290.75 648.341C291.28 647.598 291.545 646.697 291.545 645.636V642.727C291.212 642.864 290.856 642.992 290.477 643.114C290.114 643.235 289.72 643.348 289.295 643.455C288.886 643.561 288.447 643.659 287.977 643.75C287.523 643.841 287.045 643.924 286.545 644C285.576 644.152 284.78 644.402 284.159 644.75C283.553 645.083 283.098 645.5 282.795 646C282.508 646.485 282.364 647.03 282.364 647.636C282.364 648.606 282.705 649.348 283.386 649.864C284.068 650.379 284.939 650.636 286 650.636ZM322.54 638.364V658H309.994V623.091H321.903V629.727H322.267C323.025 627.515 324.358 625.78 326.267 624.523C328.191 623.265 330.434 622.636 332.994 622.636C335.464 622.636 337.608 623.205 339.426 624.341C341.259 625.462 342.676 627.008 343.676 628.977C344.691 630.947 345.191 633.197 345.176 635.727V658H332.631V638.364C332.646 636.636 332.206 635.28 331.312 634.295C330.434 633.311 329.206 632.818 327.631 632.818C326.6 632.818 325.699 633.045 324.926 633.5C324.169 633.939 323.585 634.576 323.176 635.409C322.767 636.227 322.555 637.212 322.54 638.364ZM364.006 658.455C361.521 658.455 359.233 657.803 357.142 656.5C355.066 655.197 353.4 653.22 352.142 650.568C350.9 647.917 350.278 644.576 350.278 640.545C350.278 636.333 350.93 632.909 352.233 630.273C353.551 627.636 355.248 625.705 357.324 624.477C359.415 623.25 361.612 622.636 363.915 622.636C365.642 622.636 367.157 622.939 368.46 623.545C369.763 624.136 370.854 624.932 371.733 625.932C372.612 626.917 373.278 628 373.733 629.182H373.915V611.455H386.46V658H374.006V652.273H373.733C373.248 653.455 372.551 654.515 371.642 655.455C370.748 656.379 369.657 657.114 368.369 657.659C367.097 658.189 365.642 658.455 364.006 658.455ZM368.642 648.818C369.794 648.818 370.778 648.485 371.597 647.818C372.43 647.136 373.066 646.182 373.506 644.955C373.96 643.712 374.188 642.242 374.188 640.545C374.188 638.818 373.96 637.341 373.506 636.114C373.066 634.871 372.43 633.924 371.597 633.273C370.778 632.606 369.794 632.273 368.642 632.273C367.491 632.273 366.506 632.606 365.688 633.273C364.884 633.924 364.263 634.871 363.824 636.114C363.4 637.341 363.188 638.818 363.188 640.545C363.188 642.273 363.4 643.758 363.824 645C364.263 646.227 364.884 647.174 365.688 647.841C366.506 648.492 367.491 648.818 368.642 648.818ZM426.188 623.091V632.182H403.188V623.091H426.188ZM407.642 614.727H420.188V646.773C420.188 647.258 420.271 647.667 420.438 648C420.604 648.318 420.862 648.561 421.21 648.727C421.559 648.879 422.006 648.955 422.551 648.955C422.93 648.955 423.369 648.909 423.869 648.818C424.384 648.727 424.763 648.652 425.006 648.591L426.824 657.409C426.263 657.576 425.46 657.78 424.415 658.023C423.384 658.265 422.157 658.424 420.733 658.5C417.854 658.652 415.438 658.356 413.483 657.614C411.528 656.856 410.059 655.667 409.074 654.045C408.089 652.424 407.612 650.394 407.642 647.955V614.727ZM431.307 658V623.091H443.489V629.727H443.852C444.489 627.273 445.496 625.477 446.875 624.341C448.269 623.205 449.898 622.636 451.761 622.636C452.307 622.636 452.845 622.682 453.375 622.773C453.92 622.848 454.443 622.962 454.943 623.114V633.818C454.322 633.606 453.557 633.447 452.648 633.341C451.739 633.235 450.958 633.182 450.307 633.182C449.08 633.182 447.973 633.462 446.989 634.023C446.019 634.568 445.254 635.341 444.693 636.341C444.133 637.326 443.852 638.485 443.852 639.818V658H431.307ZM467.159 658.545C464.932 658.545 462.962 658.182 461.25 657.455C459.553 656.712 458.22 655.591 457.25 654.091C456.28 652.591 455.795 650.682 455.795 648.364C455.795 646.455 456.121 644.826 456.773 643.477C457.424 642.114 458.333 641 459.5 640.136C460.667 639.273 462.023 638.614 463.568 638.159C465.129 637.705 466.811 637.409 468.614 637.273C470.568 637.121 472.136 636.939 473.318 636.727C474.515 636.5 475.379 636.189 475.909 635.795C476.439 635.386 476.705 634.848 476.705 634.182V634.091C476.705 633.182 476.356 632.485 475.659 632C474.962 631.515 474.068 631.273 472.977 631.273C471.78 631.273 470.803 631.538 470.045 632.068C469.303 632.583 468.856 633.379 468.705 634.455H457.159C457.311 632.333 457.985 630.379 459.182 628.591C460.394 626.788 462.159 625.348 464.477 624.273C466.795 623.182 469.689 622.636 473.159 622.636C475.659 622.636 477.902 622.932 479.886 623.523C481.871 624.098 483.561 624.909 484.955 625.955C486.348 626.985 487.409 628.197 488.136 629.591C488.879 630.97 489.25 632.47 489.25 634.091V658H477.523V653.091H477.25C476.553 654.394 475.705 655.447 474.705 656.25C473.72 657.053 472.591 657.636 471.318 658C470.061 658.364 468.674 658.545 467.159 658.545ZM471.25 650.636C472.205 650.636 473.098 650.439 473.932 650.045C474.78 649.652 475.47 649.083 476 648.341C476.53 647.598 476.795 646.697 476.795 645.636V642.727C476.462 642.864 476.106 642.992 475.727 643.114C475.364 643.235 474.97 643.348 474.545 643.455C474.136 643.561 473.697 643.659 473.227 643.75C472.773 643.841 472.295 643.924 471.795 644C470.826 644.152 470.03 644.402 469.409 644.75C468.803 645.083 468.348 645.5 468.045 646C467.758 646.485 467.614 647.03 467.614 647.636C467.614 648.606 467.955 649.348 468.636 649.864C469.318 650.379 470.189 650.636 471.25 650.636ZM507.79 638.364V658H495.244V623.091H507.153V629.727H507.517C508.275 627.515 509.608 625.78 511.517 624.523C513.441 623.265 515.684 622.636 518.244 622.636C520.714 622.636 522.858 623.205 524.676 624.341C526.509 625.462 527.926 627.008 528.926 628.977C529.941 630.947 530.441 633.197 530.426 635.727V658H517.881V638.364C517.896 636.636 517.456 635.28 516.562 634.295C515.684 633.311 514.456 632.818 512.881 632.818C511.85 632.818 510.949 633.045 510.176 633.5C509.419 633.939 508.835 634.576 508.426 635.409C508.017 636.227 507.805 637.212 507.79 638.364ZM568.528 634.455H556.983C556.922 633.742 556.672 633.129 556.233 632.614C555.794 632.098 555.225 631.705 554.528 631.432C553.847 631.144 553.089 631 552.256 631C551.18 631 550.256 631.197 549.483 631.591C548.71 631.985 548.331 632.545 548.347 633.273C548.331 633.788 548.551 634.265 549.006 634.705C549.475 635.144 550.377 635.485 551.71 635.727L558.801 637C562.377 637.652 565.036 638.75 566.778 640.295C568.536 641.826 569.422 643.879 569.438 646.455C569.422 648.939 568.68 651.098 567.21 652.932C565.756 654.75 563.763 656.159 561.233 657.159C558.718 658.144 555.847 658.636 552.619 658.636C547.286 658.636 543.112 657.545 540.097 655.364C537.097 653.182 535.422 650.303 535.074 646.727H547.528C547.695 647.833 548.241 648.689 549.165 649.295C550.104 649.886 551.286 650.182 552.71 650.182C553.862 650.182 554.809 649.985 555.551 649.591C556.309 649.197 556.695 648.636 556.71 647.909C556.695 647.242 556.362 646.712 555.71 646.318C555.074 645.924 554.074 645.606 552.71 645.364L546.528 644.273C542.968 643.652 540.301 642.47 538.528 640.727C536.756 638.985 535.877 636.742 535.892 634C535.877 631.576 536.513 629.523 537.801 627.841C539.104 626.144 540.96 624.856 543.369 623.977C545.794 623.083 548.665 622.636 551.983 622.636C557.028 622.636 561.006 623.682 563.915 625.773C566.839 627.864 568.377 630.758 568.528 634.455ZM574.244 658V623.091H586.79V658H574.244ZM580.517 619.455C578.82 619.455 577.366 618.894 576.153 617.773C574.941 616.652 574.335 615.303 574.335 613.727C574.335 612.152 574.941 610.803 576.153 609.682C577.366 608.561 578.82 608 580.517 608C582.229 608 583.684 608.561 584.881 609.682C586.093 610.803 586.699 612.152 586.699 613.727C586.699 615.303 586.093 616.652 584.881 617.773C583.684 618.894 582.229 619.455 580.517 619.455ZM614 623.091V632.182H591V623.091H614ZM595.455 614.727H608V646.773C608 647.258 608.083 647.667 608.25 648C608.417 648.318 608.674 648.561 609.023 648.727C609.371 648.879 609.818 648.955 610.364 648.955C610.742 648.955 611.182 648.909 611.682 648.818C612.197 648.727 612.576 648.652 612.818 648.591L614.636 657.409C614.076 657.576 613.273 657.78 612.227 658.023C611.197 658.265 609.97 658.424 608.545 658.5C605.667 658.652 603.25 658.356 601.295 657.614C599.341 656.856 597.871 655.667 596.886 654.045C595.902 652.424 595.424 650.394 595.455 647.955V614.727ZM619.119 658V623.091H631.665V658H619.119ZM625.392 619.455C623.695 619.455 622.241 618.894 621.028 617.773C619.816 616.652 619.21 615.303 619.21 613.727C619.21 612.152 619.816 610.803 621.028 609.682C622.241 608.561 623.695 608 625.392 608C627.104 608 628.559 608.561 629.756 609.682C630.968 610.803 631.574 612.152 631.574 613.727C631.574 615.303 630.968 616.652 629.756 617.773C628.559 618.894 627.104 619.455 625.392 619.455ZM654.875 658.636C651.087 658.636 647.845 657.886 645.148 656.386C642.451 654.871 640.383 652.765 638.943 650.068C637.504 647.356 636.784 644.212 636.784 640.636C636.784 637.061 637.504 633.924 638.943 631.227C640.383 628.515 642.451 626.409 645.148 624.909C647.845 623.394 651.087 622.636 654.875 622.636C658.663 622.636 661.905 623.394 664.602 624.909C667.299 626.409 669.367 628.515 670.807 631.227C672.246 633.924 672.966 637.061 672.966 640.636C672.966 644.212 672.246 647.356 670.807 650.068C669.367 652.765 667.299 654.871 664.602 656.386C661.905 657.886 658.663 658.636 654.875 658.636ZM654.966 649.364C656.027 649.364 656.943 649.008 657.716 648.295C658.489 647.583 659.087 646.568 659.511 645.25C659.936 643.932 660.148 642.364 660.148 640.545C660.148 638.712 659.936 637.144 659.511 635.841C659.087 634.523 658.489 633.508 657.716 632.795C656.943 632.083 656.027 631.727 654.966 631.727C653.845 631.727 652.883 632.083 652.08 632.795C651.277 633.508 650.663 634.523 650.239 635.841C649.814 637.144 649.602 638.712 649.602 640.545C649.602 642.364 649.814 643.932 650.239 645.25C650.663 646.568 651.277 647.583 652.08 648.295C652.883 649.008 653.845 649.364 654.966 649.364ZM690.602 638.364V658H678.057V623.091H689.966V629.727H690.33C691.087 627.515 692.42 625.78 694.33 624.523C696.254 623.265 698.496 622.636 701.057 622.636C703.527 622.636 705.67 623.205 707.489 624.341C709.322 625.462 710.739 627.008 711.739 628.977C712.754 630.947 713.254 633.197 713.239 635.727V658H700.693V638.364C700.708 636.636 700.269 635.28 699.375 634.295C698.496 633.311 697.269 632.818 695.693 632.818C694.663 632.818 693.761 633.045 692.989 633.5C692.231 633.939 691.648 634.576 691.239 635.409C690.83 636.227 690.617 637.212 690.602 638.364Z" fill="#BBF7D0"/>
<path d="M1070.5 601L1340.5 617" stroke="black"/>
<path d="M707 685.5H913.5" stroke="black" stroke-width="3"/>
</svg>
