<svg width="1920" height="1080" viewBox="0 0 1920 1080" fill="none" xmlns="http://www.w3.org/2000/svg">
<rect width="1920" height="1080" fill="url(#paint0_radial_234_353)"/>
<path d="M636.682 147.364H617.455C617.318 145.773 616.955 144.33 616.364 143.034C615.795 141.739 615 140.625 613.977 139.693C612.977 138.739 611.761 138.011 610.33 137.511C608.898 136.989 607.273 136.727 605.455 136.727C602.273 136.727 599.58 137.5 597.375 139.045C595.193 140.591 593.534 142.807 592.398 145.693C591.284 148.58 590.727 152.045 590.727 156.091C590.727 160.364 591.295 163.943 592.432 166.83C593.591 169.693 595.261 171.852 597.443 173.307C599.625 174.739 602.25 175.455 605.318 175.455C607.068 175.455 608.636 175.239 610.023 174.807C611.409 174.352 612.614 173.705 613.636 172.864C614.659 172.023 615.489 171.011 616.125 169.83C616.784 168.625 617.227 167.273 617.455 165.773L636.682 165.909C636.455 168.864 635.625 171.875 634.193 174.943C632.761 177.989 630.727 180.807 628.091 183.398C625.477 185.966 622.239 188.034 618.375 189.602C614.511 191.17 610.023 191.955 604.909 191.955C598.5 191.955 592.75 190.58 587.659 187.83C582.591 185.08 578.58 181.034 575.625 175.693C572.693 170.352 571.227 163.818 571.227 156.091C571.227 148.318 572.727 141.773 575.727 136.455C578.727 131.114 582.773 127.08 587.864 124.352C592.955 121.602 598.636 120.227 604.909 120.227C609.318 120.227 613.375 120.83 617.08 122.034C620.784 123.239 624.034 125 626.83 127.318C629.625 129.614 631.875 132.443 633.58 135.807C635.284 139.17 636.318 143.023 636.682 147.364ZM660.145 191.818C656.804 191.818 653.849 191.273 651.281 190.182C648.736 189.068 646.736 187.386 645.281 185.136C643.827 182.886 643.099 180.023 643.099 176.545C643.099 173.682 643.588 171.239 644.565 169.216C645.543 167.17 646.906 165.5 648.656 164.205C650.406 162.909 652.44 161.92 654.759 161.239C657.099 160.557 659.622 160.114 662.327 159.909C665.259 159.682 667.611 159.409 669.384 159.091C671.179 158.75 672.474 158.284 673.27 157.693C674.065 157.08 674.463 156.273 674.463 155.273V155.136C674.463 153.773 673.94 152.727 672.895 152C671.849 151.273 670.509 150.909 668.872 150.909C667.077 150.909 665.611 151.307 664.474 152.102C663.361 152.875 662.69 154.068 662.463 155.682H645.145C645.372 152.5 646.384 149.568 648.179 146.886C649.997 144.182 652.645 142.023 656.122 140.409C659.599 138.773 663.94 137.955 669.145 137.955C672.895 137.955 676.259 138.398 679.236 139.284C682.213 140.148 684.747 141.364 686.838 142.932C688.929 144.477 690.52 146.295 691.611 148.386C692.724 150.455 693.281 152.705 693.281 155.136V191H675.69V183.636H675.281C674.236 185.591 672.963 187.17 671.463 188.375C669.986 189.58 668.293 190.455 666.384 191C664.497 191.545 662.418 191.818 660.145 191.818ZM666.281 179.955C667.713 179.955 669.054 179.659 670.304 179.068C671.577 178.477 672.611 177.625 673.406 176.511C674.202 175.398 674.599 174.045 674.599 172.455V168.091C674.099 168.295 673.565 168.489 672.997 168.67C672.452 168.852 671.861 169.023 671.224 169.182C670.611 169.341 669.952 169.489 669.247 169.625C668.565 169.761 667.849 169.886 667.099 170C665.645 170.227 664.452 170.602 663.52 171.125C662.611 171.625 661.929 172.25 661.474 173C661.043 173.727 660.827 174.545 660.827 175.455C660.827 176.909 661.338 178.023 662.361 178.795C663.384 179.568 664.69 179.955 666.281 179.955ZM721.227 191.682C717.5 191.682 714.068 190.705 710.932 188.75C707.818 186.795 705.318 183.83 703.432 179.852C701.568 175.875 700.636 170.864 700.636 164.818C700.636 158.5 701.614 153.364 703.568 149.409C705.545 145.455 708.091 142.557 711.205 140.716C714.341 138.875 717.636 137.955 721.091 137.955C723.682 137.955 725.955 138.409 727.909 139.318C729.864 140.205 731.5 141.398 732.818 142.898C734.136 144.375 735.136 146 735.818 147.773H736.091V121.182H754.909V191H736.227V182.409H735.818C735.091 184.182 734.045 185.773 732.682 187.182C731.341 188.568 729.705 189.67 727.773 190.489C725.864 191.284 723.682 191.682 721.227 191.682ZM728.182 177.227C729.909 177.227 731.386 176.727 732.614 175.727C733.864 174.705 734.818 173.273 735.477 171.432C736.159 169.568 736.5 167.364 736.5 164.818C736.5 162.227 736.159 160.011 735.477 158.17C734.818 156.307 733.864 154.886 732.614 153.909C731.386 152.909 729.909 152.409 728.182 152.409C726.455 152.409 724.977 152.909 723.75 153.909C722.545 154.886 721.614 156.307 720.955 158.17C720.318 160.011 720 162.227 720 164.818C720 167.409 720.318 169.636 720.955 171.5C721.614 173.341 722.545 174.761 723.75 175.761C724.977 176.739 726.455 177.227 728.182 177.227ZM789.239 191.955C783.648 191.955 778.83 190.886 774.784 188.75C770.761 186.591 767.659 183.5 765.477 179.477C763.318 175.432 762.239 170.591 762.239 164.955C762.239 159.545 763.33 154.818 765.511 150.773C767.693 146.727 770.773 143.58 774.75 141.33C778.727 139.08 783.42 137.955 788.83 137.955C792.784 137.955 796.364 138.568 799.568 139.795C802.773 141.023 805.511 142.807 807.784 145.148C810.057 147.466 811.807 150.284 813.034 153.602C814.261 156.92 814.875 160.659 814.875 164.818V169.182H768.102V158.818H797.557C797.534 157.318 797.148 156 796.398 154.864C795.67 153.705 794.682 152.807 793.432 152.17C792.205 151.511 790.807 151.182 789.239 151.182C787.716 151.182 786.318 151.511 785.045 152.17C783.773 152.807 782.75 153.693 781.977 154.83C781.227 155.966 780.83 157.295 780.784 158.818V170C780.784 171.682 781.136 173.182 781.841 174.5C782.545 175.818 783.557 176.852 784.875 177.602C786.193 178.352 787.784 178.727 789.648 178.727C790.943 178.727 792.125 178.545 793.193 178.182C794.284 177.818 795.216 177.295 795.989 176.614C796.761 175.909 797.33 175.068 797.693 174.091H814.875C814.284 177.727 812.886 180.886 810.682 183.568C808.477 186.227 805.557 188.295 801.92 189.773C798.307 191.227 794.08 191.955 789.239 191.955ZM841.372 161.545V191H822.554V138.636H840.418V148.591H840.963C842.099 145.273 844.099 142.67 846.963 140.784C849.849 138.898 853.213 137.955 857.054 137.955C860.759 137.955 863.974 138.807 866.702 140.511C869.452 142.193 871.577 144.511 873.077 147.466C874.599 150.42 875.349 153.795 875.327 157.591V191H856.509V161.545C856.531 158.955 855.872 156.92 854.531 155.443C853.213 153.966 851.372 153.227 849.009 153.227C847.463 153.227 846.111 153.568 844.952 154.25C843.815 154.909 842.94 155.864 842.327 157.114C841.713 158.341 841.395 159.818 841.372 161.545ZM909.844 191.955C904.162 191.955 899.298 190.83 895.253 188.58C891.207 186.307 888.105 183.148 885.946 179.102C883.787 175.034 882.707 170.318 882.707 164.955C882.707 159.591 883.787 154.886 885.946 150.841C888.105 146.773 891.207 143.614 895.253 141.364C899.298 139.091 904.162 137.955 909.844 137.955C914.98 137.955 919.423 138.886 923.173 140.75C926.946 142.591 929.866 145.205 931.935 148.591C934.003 151.955 935.048 155.909 935.071 160.455H917.616C917.366 157.705 916.571 155.614 915.23 154.182C913.912 152.727 912.207 152 910.116 152C908.48 152 907.048 152.477 905.821 153.432C904.594 154.364 903.639 155.784 902.957 157.693C902.276 159.58 901.935 161.955 901.935 164.818C901.935 167.682 902.276 170.068 902.957 171.977C903.639 173.864 904.594 175.284 905.821 176.239C907.048 177.17 908.48 177.636 910.116 177.636C911.503 177.636 912.73 177.318 913.798 176.682C914.866 176.023 915.73 175.068 916.389 173.818C917.071 172.545 917.48 171 917.616 169.182H935.071C935.003 173.795 933.946 177.818 931.901 181.25C929.855 184.659 926.957 187.295 923.207 189.159C919.48 191.023 915.026 191.955 909.844 191.955ZM967.926 191.955C962.335 191.955 957.517 190.886 953.472 188.75C949.449 186.591 946.347 183.5 944.165 179.477C942.006 175.432 940.926 170.591 940.926 164.955C940.926 159.545 942.017 154.818 944.199 150.773C946.381 146.727 949.46 143.58 953.438 141.33C957.415 139.08 962.108 137.955 967.517 137.955C971.472 137.955 975.051 138.568 978.256 139.795C981.46 141.023 984.199 142.807 986.472 145.148C988.744 147.466 990.494 150.284 991.722 153.602C992.949 156.92 993.562 160.659 993.562 164.818V169.182H946.79V158.818H976.244C976.222 157.318 975.835 156 975.085 154.864C974.358 153.705 973.369 152.807 972.119 152.17C970.892 151.511 969.494 151.182 967.926 151.182C966.403 151.182 965.006 151.511 963.733 152.17C962.46 152.807 961.438 153.693 960.665 154.83C959.915 155.966 959.517 157.295 959.472 158.818V170C959.472 171.682 959.824 173.182 960.528 174.5C961.233 175.818 962.244 176.852 963.562 177.602C964.881 178.352 966.472 178.727 968.335 178.727C969.631 178.727 970.813 178.545 971.881 178.182C972.972 177.818 973.903 177.295 974.676 176.614C975.449 175.909 976.017 175.068 976.381 174.091H993.562C992.972 177.727 991.574 180.886 989.369 183.568C987.165 186.227 984.244 188.295 980.608 189.773C976.994 191.227 972.767 191.955 967.926 191.955ZM1085.28 147.364H1066.05C1065.91 145.773 1065.55 144.33 1064.96 143.034C1064.39 141.739 1063.59 140.625 1062.57 139.693C1061.57 138.739 1060.36 138.011 1058.92 137.511C1057.49 136.989 1055.87 136.727 1054.05 136.727C1050.87 136.727 1048.17 137.5 1045.97 139.045C1043.79 140.591 1042.13 142.807 1040.99 145.693C1039.88 148.58 1039.32 152.045 1039.32 156.091C1039.32 160.364 1039.89 163.943 1041.03 166.83C1042.18 169.693 1043.86 171.852 1046.04 173.307C1048.22 174.739 1050.84 175.455 1053.91 175.455C1055.66 175.455 1057.23 175.239 1058.62 174.807C1060 174.352 1061.21 173.705 1062.23 172.864C1063.25 172.023 1064.08 171.011 1064.72 169.83C1065.38 168.625 1065.82 167.273 1066.05 165.773L1085.28 165.909C1085.05 168.864 1084.22 171.875 1082.79 174.943C1081.36 177.989 1079.32 180.807 1076.68 183.398C1074.07 185.966 1070.83 188.034 1066.97 189.602C1063.11 191.17 1058.62 191.955 1053.5 191.955C1047.09 191.955 1041.34 190.58 1036.25 187.83C1031.18 185.08 1027.17 181.034 1024.22 175.693C1021.29 170.352 1019.82 163.818 1019.82 156.091C1019.82 148.318 1021.32 141.773 1024.32 136.455C1027.32 131.114 1031.37 127.08 1036.46 124.352C1041.55 121.602 1047.23 120.227 1053.5 120.227C1057.91 120.227 1061.97 120.83 1065.67 122.034C1069.38 123.239 1072.63 125 1075.42 127.318C1078.22 129.614 1080.47 132.443 1082.17 135.807C1083.88 139.17 1084.91 143.023 1085.28 147.364ZM1112.97 121.182V191H1094.15V121.182H1112.97ZM1147.78 191.955C1142.1 191.955 1137.24 190.83 1133.19 188.58C1129.14 186.307 1126.04 183.148 1123.88 179.102C1121.72 175.034 1120.64 170.318 1120.64 164.955C1120.64 159.591 1121.72 154.886 1123.88 150.841C1126.04 146.773 1129.14 143.614 1133.19 141.364C1137.24 139.091 1142.1 137.955 1147.78 137.955C1153.46 137.955 1158.33 139.091 1162.37 141.364C1166.42 143.614 1169.52 146.773 1171.68 150.841C1173.84 154.886 1174.92 159.591 1174.92 164.955C1174.92 170.318 1173.84 175.034 1171.68 179.102C1169.52 183.148 1166.42 186.307 1162.37 188.58C1158.33 190.83 1153.46 191.955 1147.78 191.955ZM1147.92 178.045C1149.51 178.045 1150.88 177.511 1152.04 176.443C1153.2 175.375 1154.1 173.852 1154.74 171.875C1155.37 169.898 1155.69 167.545 1155.69 164.818C1155.69 162.068 1155.37 159.716 1154.74 157.761C1154.1 155.784 1153.2 154.261 1152.04 153.193C1150.88 152.125 1149.51 151.591 1147.92 151.591C1146.24 151.591 1144.79 152.125 1143.59 153.193C1142.38 154.261 1141.46 155.784 1140.83 157.761C1140.19 159.716 1139.87 162.068 1139.87 164.818C1139.87 167.545 1140.19 169.898 1140.83 171.875C1141.46 173.852 1142.38 175.375 1143.59 176.443C1144.79 177.511 1146.24 178.045 1147.92 178.045ZM1207.78 191.955C1202.1 191.955 1197.24 190.83 1193.19 188.58C1189.14 186.307 1186.04 183.148 1183.88 179.102C1181.72 175.034 1180.64 170.318 1180.64 164.955C1180.64 159.591 1181.72 154.886 1183.88 150.841C1186.04 146.773 1189.14 143.614 1193.19 141.364C1197.24 139.091 1202.1 137.955 1207.78 137.955C1212.92 137.955 1217.36 138.886 1221.11 140.75C1224.88 142.591 1227.8 145.205 1229.87 148.591C1231.94 151.955 1232.99 155.909 1233.01 160.455H1215.55C1215.3 157.705 1214.51 155.614 1213.17 154.182C1211.85 152.727 1210.14 152 1208.05 152C1206.42 152 1204.99 152.477 1203.76 153.432C1202.53 154.364 1201.58 155.784 1200.89 157.693C1200.21 159.58 1199.87 161.955 1199.87 164.818C1199.87 167.682 1200.21 170.068 1200.89 171.977C1201.58 173.864 1202.53 175.284 1203.76 176.239C1204.99 177.17 1206.42 177.636 1208.05 177.636C1209.44 177.636 1210.67 177.318 1211.74 176.682C1212.8 176.023 1213.67 175.068 1214.33 173.818C1215.01 172.545 1215.42 171 1215.55 169.182H1233.01C1232.94 173.795 1231.88 177.818 1229.84 181.25C1227.79 184.659 1224.89 187.295 1221.14 189.159C1217.42 191.023 1212.96 191.955 1207.78 191.955ZM1257.68 178.591L1257.82 156.227H1260.27L1272.95 138.636H1294.09L1272.82 166.045H1267.5L1257.68 178.591ZM1240.77 191V121.182H1259.59V191H1240.77ZM1273.09 191L1261.09 170.273L1273.36 156.909L1294.64 191H1273.09Z" fill="#F1CE73"/>
<path d="M342.531 342V295.455H355.168V313.636H371.895V295.455H384.531V342H371.895V323.818H355.168V342H342.531ZM407.531 342.636C403.743 342.636 400.501 341.886 397.804 340.386C395.107 338.871 393.039 336.765 391.599 334.068C390.16 331.356 389.44 328.212 389.44 324.636C389.44 321.061 390.16 317.924 391.599 315.227C393.039 312.515 395.107 310.409 397.804 308.909C400.501 307.394 403.743 306.636 407.531 306.636C411.319 306.636 414.562 307.394 417.259 308.909C419.955 310.409 422.024 312.515 423.463 315.227C424.902 317.924 425.622 321.061 425.622 324.636C425.622 328.212 424.902 331.356 423.463 334.068C422.024 336.765 419.955 338.871 417.259 340.386C414.562 341.886 411.319 342.636 407.531 342.636ZM407.622 333.364C408.683 333.364 409.599 333.008 410.372 332.295C411.145 331.583 411.743 330.568 412.168 329.25C412.592 327.932 412.804 326.364 412.804 324.545C412.804 322.712 412.592 321.144 412.168 319.841C411.743 318.523 411.145 317.508 410.372 316.795C409.599 316.083 408.683 315.727 407.622 315.727C406.501 315.727 405.539 316.083 404.736 316.795C403.933 317.508 403.319 318.523 402.895 319.841C402.471 321.144 402.259 322.712 402.259 324.545C402.259 326.364 402.471 327.932 402.895 329.25C403.319 330.568 403.933 331.583 404.736 332.295C405.539 333.008 406.501 333.364 407.622 333.364ZM436.27 342L427.543 307.091H440.088L444.088 328.364H444.361L448.815 307.091H460.997L465.634 328.182H465.906L469.724 307.091H482.27L473.543 342H459.997L455.088 323.273H454.724L449.815 342H436.27ZM511.384 295.455V342H498.838V295.455H511.384ZM534.594 342.636C530.806 342.636 527.563 341.886 524.866 340.386C522.17 338.871 520.101 336.765 518.662 334.068C517.223 331.356 516.503 328.212 516.503 324.636C516.503 321.061 517.223 317.924 518.662 315.227C520.101 312.515 522.17 310.409 524.866 308.909C527.563 307.394 530.806 306.636 534.594 306.636C538.382 306.636 541.624 307.394 544.321 308.909C547.018 310.409 549.086 312.515 550.526 315.227C551.965 317.924 552.685 321.061 552.685 324.636C552.685 328.212 551.965 331.356 550.526 334.068C549.086 336.765 547.018 338.871 544.321 340.386C541.624 341.886 538.382 342.636 534.594 342.636ZM534.685 333.364C535.745 333.364 536.662 333.008 537.435 332.295C538.207 331.583 538.806 330.568 539.23 329.25C539.654 327.932 539.866 326.364 539.866 324.545C539.866 322.712 539.654 321.144 539.23 319.841C538.806 318.523 538.207 317.508 537.435 316.795C536.662 316.083 535.745 315.727 534.685 315.727C533.563 315.727 532.601 316.083 531.798 316.795C530.995 317.508 530.382 318.523 529.957 319.841C529.533 321.144 529.321 322.712 529.321 324.545C529.321 326.364 529.533 327.932 529.957 329.25C530.382 330.568 530.995 331.583 531.798 332.295C532.601 333.008 533.563 333.364 534.685 333.364ZM570.321 322.364V342H557.776V307.091H569.685V313.727H570.048C570.806 311.515 572.139 309.78 574.048 308.523C575.973 307.265 578.215 306.636 580.776 306.636C583.245 306.636 585.389 307.205 587.207 308.341C589.041 309.462 590.457 311.008 591.457 312.977C592.473 314.947 592.973 317.197 592.957 319.727V342H580.412V322.364C580.427 320.636 579.988 319.28 579.094 318.295C578.215 317.311 576.988 316.818 575.412 316.818C574.382 316.818 573.48 317.045 572.707 317.5C571.95 317.939 571.366 318.576 570.957 319.409C570.548 320.227 570.336 321.212 570.321 322.364ZM615.969 355.818C612.469 355.818 609.469 355.318 606.969 354.318C604.484 353.333 602.552 351.97 601.173 350.227C599.81 348.5 599.045 346.515 598.878 344.273H610.969C611.09 345.015 611.393 345.614 611.878 346.068C612.363 346.523 612.984 346.848 613.741 347.045C614.514 347.258 615.378 347.364 616.332 347.364C617.954 347.364 619.295 346.97 620.355 346.182C621.431 345.394 621.969 343.97 621.969 341.909V336H621.605C621.151 337.182 620.454 338.189 619.514 339.023C618.575 339.841 617.446 340.47 616.128 340.909C614.81 341.333 613.363 341.545 611.787 341.545C609.302 341.545 607.014 340.97 604.923 339.818C602.848 338.667 601.181 336.841 599.923 334.341C598.681 331.841 598.06 328.576 598.06 324.545C598.06 320.333 598.711 316.909 600.014 314.273C601.332 311.636 603.029 309.705 605.105 308.477C607.196 307.25 609.393 306.636 611.696 306.636C613.423 306.636 614.938 306.939 616.241 307.545C617.545 308.136 618.635 308.932 619.514 309.932C620.393 310.917 621.06 312 621.514 313.182H621.787V307.091H634.332V341.909C634.332 344.864 633.567 347.371 632.037 349.432C630.522 351.508 628.385 353.091 625.628 354.182C622.87 355.273 619.651 355.818 615.969 355.818ZM616.423 332.636C617.575 332.636 618.56 332.318 619.378 331.682C620.211 331.03 620.848 330.106 621.287 328.909C621.741 327.697 621.969 326.242 621.969 324.545C621.969 322.818 621.741 321.341 621.287 320.114C620.848 318.871 620.211 317.924 619.378 317.273C618.56 316.606 617.575 316.273 616.423 316.273C615.272 316.273 614.287 316.606 613.469 317.273C612.666 317.924 612.045 318.871 611.605 320.114C611.181 321.341 610.969 322.818 610.969 324.545C610.969 326.273 611.181 327.742 611.605 328.955C612.045 330.152 612.666 331.068 613.469 331.705C614.287 332.326 615.272 332.636 616.423 332.636ZM674.281 307.091V316.182H651.281V307.091H674.281ZM655.736 298.727H668.281V330.773C668.281 331.258 668.365 331.667 668.531 332C668.698 332.318 668.955 332.561 669.304 332.727C669.652 332.879 670.099 332.955 670.645 332.955C671.024 332.955 671.463 332.909 671.963 332.818C672.478 332.727 672.857 332.652 673.099 332.591L674.918 341.409C674.357 341.576 673.554 341.78 672.509 342.023C671.478 342.265 670.251 342.424 668.827 342.5C665.948 342.652 663.531 342.356 661.577 341.614C659.622 340.856 658.152 339.667 657.168 338.045C656.183 336.424 655.705 334.394 655.736 331.955V298.727ZM695.844 342.636C692.056 342.636 688.813 341.886 686.116 340.386C683.42 338.871 681.351 336.765 679.912 334.068C678.473 331.356 677.753 328.212 677.753 324.636C677.753 321.061 678.473 317.924 679.912 315.227C681.351 312.515 683.42 310.409 686.116 308.909C688.813 307.394 692.056 306.636 695.844 306.636C699.632 306.636 702.874 307.394 705.571 308.909C708.268 310.409 710.336 312.515 711.776 315.227C713.215 317.924 713.935 321.061 713.935 324.636C713.935 328.212 713.215 331.356 711.776 334.068C710.336 336.765 708.268 338.871 705.571 340.386C702.874 341.886 699.632 342.636 695.844 342.636ZM695.935 333.364C696.995 333.364 697.912 333.008 698.685 332.295C699.457 331.583 700.056 330.568 700.48 329.25C700.904 327.932 701.116 326.364 701.116 324.545C701.116 322.712 700.904 321.144 700.48 319.841C700.056 318.523 699.457 317.508 698.685 316.795C697.912 316.083 696.995 315.727 695.935 315.727C694.813 315.727 693.851 316.083 693.048 316.795C692.245 317.508 691.632 318.523 691.207 319.841C690.783 321.144 690.571 322.712 690.571 324.545C690.571 326.364 690.783 327.932 691.207 329.25C691.632 330.568 692.245 331.583 693.048 332.295C693.851 333.008 694.813 333.364 695.935 333.364ZM731.594 342V295.455H751.685C755.139 295.455 758.162 296.083 760.753 297.341C763.344 298.598 765.359 300.409 766.798 302.773C768.238 305.136 768.957 307.97 768.957 311.273C768.957 314.606 768.215 317.417 766.73 319.705C765.26 321.992 763.192 323.72 760.526 324.886C757.874 326.053 754.776 326.636 751.23 326.636H739.23V316.818H748.685C750.17 316.818 751.435 316.636 752.48 316.273C753.541 315.894 754.351 315.295 754.912 314.477C755.488 313.659 755.776 312.591 755.776 311.273C755.776 309.939 755.488 308.856 754.912 308.023C754.351 307.174 753.541 306.553 752.48 306.159C751.435 305.75 750.17 305.545 748.685 305.545H744.23V342H731.594ZM758.866 320.636L770.503 342H756.776L745.412 320.636H758.866ZM790.503 342.636C786.776 342.636 783.563 341.924 780.866 340.5C778.185 339.061 776.116 337 774.662 334.318C773.223 331.621 772.503 328.394 772.503 324.636C772.503 321.03 773.23 317.879 774.685 315.182C776.139 312.485 778.192 310.386 780.844 308.886C783.495 307.386 786.624 306.636 790.23 306.636C792.866 306.636 795.253 307.045 797.389 307.864C799.526 308.682 801.351 309.871 802.866 311.432C804.382 312.977 805.548 314.856 806.366 317.068C807.185 319.28 807.594 321.773 807.594 324.545V327.455H776.412V320.545H796.048C796.033 319.545 795.776 318.667 795.276 317.909C794.791 317.136 794.132 316.538 793.298 316.114C792.48 315.674 791.548 315.455 790.503 315.455C789.488 315.455 788.556 315.674 787.707 316.114C786.859 316.538 786.177 317.129 785.662 317.886C785.162 318.644 784.897 319.53 784.866 320.545V328C784.866 329.121 785.101 330.121 785.571 331C786.041 331.879 786.715 332.568 787.594 333.068C788.473 333.568 789.533 333.818 790.776 333.818C791.639 333.818 792.427 333.697 793.139 333.455C793.866 333.212 794.488 332.864 795.003 332.409C795.518 331.939 795.897 331.379 796.139 330.727H807.594C807.2 333.152 806.268 335.258 804.798 337.045C803.329 338.818 801.382 340.197 798.957 341.182C796.548 342.152 793.73 342.636 790.503 342.636ZM844.622 318.455H833.077C833.016 317.742 832.766 317.129 832.327 316.614C831.887 316.098 831.319 315.705 830.622 315.432C829.94 315.144 829.183 315 828.349 315C827.274 315 826.349 315.197 825.577 315.591C824.804 315.985 824.425 316.545 824.44 317.273C824.425 317.788 824.645 318.265 825.099 318.705C825.569 319.144 826.471 319.485 827.804 319.727L834.895 321C838.471 321.652 841.13 322.75 842.872 324.295C844.63 325.826 845.516 327.879 845.531 330.455C845.516 332.939 844.774 335.098 843.304 336.932C841.849 338.75 839.857 340.159 837.327 341.159C834.812 342.144 831.94 342.636 828.713 342.636C823.38 342.636 819.205 341.545 816.19 339.364C813.19 337.182 811.516 334.303 811.168 330.727H823.622C823.789 331.833 824.334 332.689 825.259 333.295C826.198 333.886 827.38 334.182 828.804 334.182C829.955 334.182 830.902 333.985 831.645 333.591C832.402 333.197 832.789 332.636 832.804 331.909C832.789 331.242 832.455 330.712 831.804 330.318C831.168 329.924 830.168 329.606 828.804 329.364L822.622 328.273C819.062 327.652 816.395 326.47 814.622 324.727C812.849 322.985 811.971 320.742 811.986 318C811.971 315.576 812.607 313.523 813.895 311.841C815.198 310.144 817.054 308.856 819.463 307.977C821.887 307.083 824.759 306.636 828.077 306.636C833.122 306.636 837.099 307.682 840.009 309.773C842.933 311.864 844.471 314.758 844.622 318.455ZM871.156 307.091V316.182H848.156V307.091H871.156ZM852.611 298.727H865.156V330.773C865.156 331.258 865.24 331.667 865.406 332C865.573 332.318 865.83 332.561 866.179 332.727C866.527 332.879 866.974 332.955 867.52 332.955C867.899 332.955 868.338 332.909 868.838 332.818C869.353 332.727 869.732 332.652 869.974 332.591L871.793 341.409C871.232 341.576 870.429 341.78 869.384 342.023C868.353 342.265 867.126 342.424 865.702 342.5C862.823 342.652 860.406 342.356 858.452 341.614C856.497 340.856 855.027 339.667 854.043 338.045C853.058 336.424 852.58 334.394 852.611 331.955V298.727ZM885.457 327.455V326.364C885.457 323.864 885.654 321.871 886.048 320.386C886.442 318.902 887.026 317.712 887.798 316.818C888.571 315.909 889.518 315.091 890.639 314.364C891.609 313.727 892.473 313.114 893.23 312.523C894.003 311.932 894.609 311.303 895.048 310.636C895.503 309.97 895.73 309.212 895.73 308.364C895.73 307.606 895.548 306.939 895.185 306.364C894.821 305.788 894.329 305.341 893.707 305.023C893.086 304.705 892.397 304.545 891.639 304.545C890.821 304.545 890.063 304.735 889.366 305.114C888.685 305.492 888.132 306.015 887.707 306.682C887.298 307.348 887.094 308.121 887.094 309H875.457C875.488 305.667 876.245 302.962 877.73 300.886C879.215 298.795 881.185 297.265 883.639 296.295C886.094 295.311 888.791 294.818 891.73 294.818C894.973 294.818 897.866 295.295 900.412 296.25C902.957 297.189 904.965 298.614 906.435 300.523C907.904 302.417 908.639 304.788 908.639 307.636C908.639 309.47 908.321 311.083 907.685 312.477C907.063 313.856 906.192 315.076 905.071 316.136C903.965 317.182 902.67 318.136 901.185 319C900.094 319.636 899.177 320.295 898.435 320.977C897.692 321.644 897.132 322.409 896.753 323.273C896.374 324.121 896.185 325.152 896.185 326.364V327.455H885.457ZM891.003 342.727C889.245 342.727 887.738 342.114 886.48 340.886C885.238 339.644 884.624 338.136 884.639 336.364C884.624 334.636 885.238 333.159 886.48 331.932C887.738 330.705 889.245 330.091 891.003 330.091C892.67 330.091 894.139 330.705 895.412 331.932C896.7 333.159 897.351 334.636 897.366 336.364C897.351 337.545 897.041 338.621 896.435 339.591C895.844 340.545 895.071 341.311 894.116 341.886C893.162 342.447 892.124 342.727 891.003 342.727Z" fill="#FAF1C4"/>
<path d="M337.094 481V434.455H357.185C360.639 434.455 363.662 435.136 366.253 436.5C368.844 437.864 370.859 439.78 372.298 442.25C373.738 444.72 374.457 447.606 374.457 450.909C374.457 454.242 373.715 457.129 372.23 459.568C370.76 462.008 368.692 463.886 366.026 465.205C363.374 466.523 360.276 467.182 356.73 467.182H344.73V457.364H354.185C355.67 457.364 356.935 457.106 357.98 456.591C359.041 456.061 359.851 455.311 360.412 454.341C360.988 453.371 361.276 452.227 361.276 450.909C361.276 449.576 360.988 448.439 360.412 447.5C359.851 446.545 359.041 445.818 357.98 445.318C356.935 444.803 355.67 444.545 354.185 444.545H349.73V481H337.094ZM391.821 434.455V481H379.276V434.455H391.821ZM407.94 481.545C405.713 481.545 403.743 481.182 402.031 480.455C400.334 479.712 399.001 478.591 398.031 477.091C397.062 475.591 396.577 473.682 396.577 471.364C396.577 469.455 396.902 467.826 397.554 466.477C398.205 465.114 399.115 464 400.281 463.136C401.448 462.273 402.804 461.614 404.349 461.159C405.91 460.705 407.592 460.409 409.395 460.273C411.349 460.121 412.918 459.939 414.099 459.727C415.296 459.5 416.16 459.189 416.69 458.795C417.221 458.386 417.486 457.848 417.486 457.182V457.091C417.486 456.182 417.137 455.485 416.44 455C415.743 454.515 414.849 454.273 413.759 454.273C412.562 454.273 411.584 454.538 410.827 455.068C410.084 455.583 409.637 456.379 409.486 457.455H397.94C398.092 455.333 398.766 453.379 399.963 451.591C401.175 449.788 402.94 448.348 405.259 447.273C407.577 446.182 410.471 445.636 413.94 445.636C416.44 445.636 418.683 445.932 420.668 446.523C422.652 447.098 424.342 447.909 425.736 448.955C427.13 449.985 428.19 451.197 428.918 452.591C429.66 453.97 430.031 455.47 430.031 457.091V481H418.304V476.091H418.031C417.334 477.394 416.486 478.447 415.486 479.25C414.501 480.053 413.372 480.636 412.099 481C410.842 481.364 409.455 481.545 407.94 481.545ZM412.031 473.636C412.986 473.636 413.88 473.439 414.713 473.045C415.562 472.652 416.251 472.083 416.781 471.341C417.312 470.598 417.577 469.697 417.577 468.636V465.727C417.243 465.864 416.887 465.992 416.509 466.114C416.145 466.235 415.751 466.348 415.327 466.455C414.918 466.561 414.478 466.659 414.009 466.75C413.554 466.841 413.077 466.924 412.577 467C411.607 467.152 410.812 467.402 410.19 467.75C409.584 468.083 409.13 468.5 408.827 469C408.539 469.485 408.395 470.03 408.395 470.636C408.395 471.606 408.736 472.348 409.418 472.864C410.099 473.379 410.971 473.636 412.031 473.636ZM442.412 494.091C440.973 494.091 439.601 493.977 438.298 493.75C436.995 493.538 435.851 493.242 434.866 492.864L437.594 483.955C438.624 484.318 439.563 484.553 440.412 484.659C441.276 484.765 442.01 484.705 442.616 484.477C443.238 484.25 443.685 483.818 443.957 483.182L444.23 482.545L431.957 446.091H445.048L450.685 470.273H451.048L456.776 446.091H469.957L457.23 483.909C456.594 485.833 455.67 487.561 454.457 489.091C453.26 490.636 451.685 491.856 449.73 492.75C447.776 493.644 445.336 494.091 442.412 494.091ZM486.071 434.455V481H473.526V434.455H486.071ZM492.463 481V446.091H505.009V481H492.463ZM498.736 442.455C497.039 442.455 495.584 441.894 494.372 440.773C493.16 439.652 492.554 438.303 492.554 436.727C492.554 435.152 493.16 433.803 494.372 432.682C495.584 431.561 497.039 431 498.736 431C500.448 431 501.902 431.561 503.099 432.682C504.312 433.803 504.918 435.152 504.918 436.727C504.918 438.303 504.312 439.652 503.099 440.773C501.902 441.894 500.448 442.455 498.736 442.455ZM543.31 457.455H531.764C531.704 456.742 531.454 456.129 531.014 455.614C530.575 455.098 530.007 454.705 529.31 454.432C528.628 454.144 527.87 454 527.037 454C525.961 454 525.037 454.197 524.264 454.591C523.491 454.985 523.113 455.545 523.128 456.273C523.113 456.788 523.332 457.265 523.787 457.705C524.257 458.144 525.158 458.485 526.491 458.727L533.582 460C537.158 460.652 539.817 461.75 541.56 463.295C543.317 464.826 544.204 466.879 544.219 469.455C544.204 471.939 543.461 474.098 541.991 475.932C540.537 477.75 538.545 479.159 536.014 480.159C533.499 481.144 530.628 481.636 527.401 481.636C522.067 481.636 517.893 480.545 514.878 478.364C511.878 476.182 510.204 473.303 509.855 469.727H522.31C522.476 470.833 523.022 471.689 523.946 472.295C524.885 472.886 526.067 473.182 527.491 473.182C528.643 473.182 529.59 472.985 530.332 472.591C531.09 472.197 531.476 471.636 531.491 470.909C531.476 470.242 531.143 469.712 530.491 469.318C529.855 468.924 528.855 468.606 527.491 468.364L521.31 467.273C517.749 466.652 515.082 465.47 513.31 463.727C511.537 461.985 510.658 459.742 510.673 457C510.658 454.576 511.295 452.523 512.582 450.841C513.885 449.144 515.741 447.856 518.151 446.977C520.575 446.083 523.446 445.636 526.764 445.636C531.81 445.636 535.787 446.682 538.696 448.773C541.62 450.864 543.158 453.758 543.31 457.455ZM569.844 446.091V455.182H546.844V446.091H569.844ZM551.298 437.727H563.844V469.773C563.844 470.258 563.927 470.667 564.094 471C564.26 471.318 564.518 471.561 564.866 471.727C565.215 471.879 565.662 471.955 566.207 471.955C566.586 471.955 567.026 471.909 567.526 471.818C568.041 471.727 568.42 471.652 568.662 471.591L570.48 480.409C569.92 480.576 569.116 480.78 568.071 481.023C567.041 481.265 565.813 481.424 564.389 481.5C561.51 481.652 559.094 481.356 557.139 480.614C555.185 479.856 553.715 478.667 552.73 477.045C551.745 475.424 551.268 473.394 551.298 470.955V437.727ZM615.077 434.455H627.713V464.273C627.713 467.818 626.865 470.886 625.168 473.477C623.486 476.053 621.137 478.045 618.122 479.455C615.107 480.848 611.607 481.545 607.622 481.545C603.607 481.545 600.092 480.848 597.077 479.455C594.062 478.045 591.713 476.053 590.031 473.477C588.365 470.886 587.531 467.818 587.531 464.273V434.455H600.168V463.182C600.168 464.621 600.486 465.909 601.122 467.045C601.759 468.167 602.637 469.045 603.759 469.682C604.895 470.318 606.183 470.636 607.622 470.636C609.077 470.636 610.365 470.318 611.486 469.682C612.607 469.045 613.486 468.167 614.122 467.045C614.759 465.909 615.077 464.621 615.077 463.182V434.455ZM633.719 481V434.455H653.81C657.264 434.455 660.287 435.083 662.878 436.341C665.469 437.598 667.484 439.409 668.923 441.773C670.363 444.136 671.082 446.97 671.082 450.273C671.082 453.606 670.34 456.417 668.855 458.705C667.385 460.992 665.317 462.72 662.651 463.886C659.999 465.053 656.901 465.636 653.355 465.636H641.355V455.818H650.81C652.295 455.818 653.56 455.636 654.605 455.273C655.666 454.894 656.476 454.295 657.037 453.477C657.613 452.659 657.901 451.591 657.901 450.273C657.901 448.939 657.613 447.856 657.037 447.023C656.476 446.174 655.666 445.553 654.605 445.159C653.56 444.75 652.295 444.545 650.81 444.545H646.355V481H633.719ZM660.991 459.636L672.628 481H658.901L647.537 459.636H660.991ZM676.469 481V434.455H689.105V470.818H707.923V481H676.469ZM746.872 446.091V455.182H723.509V446.091H746.872ZM727.963 481V445.091C727.963 442.212 728.478 439.826 729.509 437.932C730.539 436.038 731.993 434.621 733.872 433.682C735.751 432.742 737.963 432.273 740.509 432.273C742.099 432.273 743.645 432.394 745.145 432.636C746.66 432.879 747.781 433.091 748.509 433.273L746.69 442.273C746.236 442.136 745.705 442.03 745.099 441.955C744.493 441.864 743.963 441.818 743.509 441.818C742.327 441.818 741.531 442.068 741.122 442.568C740.713 443.068 740.509 443.727 740.509 444.545V481H727.963ZM767.469 481.636C763.681 481.636 760.438 480.886 757.741 479.386C755.045 477.871 752.976 475.765 751.537 473.068C750.098 470.356 749.378 467.212 749.378 463.636C749.378 460.061 750.098 456.924 751.537 454.227C752.976 451.515 755.045 449.409 757.741 447.909C760.438 446.394 763.681 445.636 767.469 445.636C771.257 445.636 774.499 446.394 777.196 447.909C779.893 449.409 781.961 451.515 783.401 454.227C784.84 456.924 785.56 460.061 785.56 463.636C785.56 467.212 784.84 470.356 783.401 473.068C781.961 475.765 779.893 477.871 777.196 479.386C774.499 480.886 771.257 481.636 767.469 481.636ZM767.56 472.364C768.62 472.364 769.537 472.008 770.31 471.295C771.082 470.583 771.681 469.568 772.105 468.25C772.529 466.932 772.741 465.364 772.741 463.545C772.741 461.712 772.529 460.144 772.105 458.841C771.681 457.523 771.082 456.508 770.31 455.795C769.537 455.083 768.62 454.727 767.56 454.727C766.438 454.727 765.476 455.083 764.673 455.795C763.87 456.508 763.257 457.523 762.832 458.841C762.408 460.144 762.196 461.712 762.196 463.545C762.196 465.364 762.408 466.932 762.832 468.25C763.257 469.568 763.87 470.583 764.673 471.295C765.476 472.008 766.438 472.364 767.56 472.364ZM790.651 481V446.091H802.832V452.727H803.196C803.832 450.273 804.84 448.477 806.219 447.341C807.613 446.205 809.241 445.636 811.105 445.636C811.651 445.636 812.188 445.682 812.719 445.773C813.264 445.848 813.787 445.962 814.287 446.114V456.818C813.666 456.606 812.901 456.447 811.991 456.341C811.082 456.235 810.302 456.182 809.651 456.182C808.423 456.182 807.317 456.462 806.332 457.023C805.363 457.568 804.598 458.341 804.037 459.341C803.476 460.326 803.196 461.485 803.196 462.818V481H790.651ZM830.969 481V434.455H851.06C854.514 434.455 857.537 435.083 860.128 436.341C862.719 437.598 864.734 439.409 866.173 441.773C867.613 444.136 868.332 446.97 868.332 450.273C868.332 453.606 867.59 456.417 866.105 458.705C864.635 460.992 862.567 462.72 859.901 463.886C857.249 465.053 854.151 465.636 850.605 465.636H838.605V455.818H848.06C849.545 455.818 850.81 455.636 851.855 455.273C852.916 454.894 853.726 454.295 854.287 453.477C854.863 452.659 855.151 451.591 855.151 450.273C855.151 448.939 854.863 447.856 854.287 447.023C853.726 446.174 852.916 445.553 851.855 445.159C850.81 444.75 849.545 444.545 848.06 444.545H843.605V481H830.969ZM858.241 459.636L869.878 481H856.151L844.787 459.636H858.241ZM889.878 481.636C886.151 481.636 882.938 480.924 880.241 479.5C877.56 478.061 875.491 476 874.037 473.318C872.598 470.621 871.878 467.394 871.878 463.636C871.878 460.03 872.605 456.879 874.06 454.182C875.514 451.485 877.567 449.386 880.219 447.886C882.87 446.386 885.999 445.636 889.605 445.636C892.241 445.636 894.628 446.045 896.764 446.864C898.901 447.682 900.726 448.871 902.241 450.432C903.757 451.977 904.923 453.856 905.741 456.068C906.56 458.28 906.969 460.773 906.969 463.545V466.455H875.787V459.545H895.423C895.408 458.545 895.151 457.667 894.651 456.909C894.166 456.136 893.507 455.538 892.673 455.114C891.855 454.674 890.923 454.455 889.878 454.455C888.863 454.455 887.931 454.674 887.082 455.114C886.234 455.538 885.552 456.129 885.037 456.886C884.537 457.644 884.272 458.53 884.241 459.545V467C884.241 468.121 884.476 469.121 884.946 470C885.416 470.879 886.09 471.568 886.969 472.068C887.848 472.568 888.908 472.818 890.151 472.818C891.014 472.818 891.802 472.697 892.514 472.455C893.241 472.212 893.863 471.864 894.378 471.409C894.893 470.939 895.272 470.379 895.514 469.727H906.969C906.575 472.152 905.643 474.258 904.173 476.045C902.704 477.818 900.757 479.197 898.332 480.182C895.923 481.152 893.105 481.636 889.878 481.636ZM943.997 457.455H932.452C932.391 456.742 932.141 456.129 931.702 455.614C931.262 455.098 930.694 454.705 929.997 454.432C929.315 454.144 928.558 454 927.724 454C926.649 454 925.724 454.197 924.952 454.591C924.179 454.985 923.8 455.545 923.815 456.273C923.8 456.788 924.02 457.265 924.474 457.705C924.944 458.144 925.846 458.485 927.179 458.727L934.27 460C937.846 460.652 940.505 461.75 942.247 463.295C944.005 464.826 944.891 466.879 944.906 469.455C944.891 471.939 944.149 474.098 942.679 475.932C941.224 477.75 939.232 479.159 936.702 480.159C934.187 481.144 931.315 481.636 928.088 481.636C922.755 481.636 918.58 480.545 915.565 478.364C912.565 476.182 910.891 473.303 910.543 469.727H922.997C923.164 470.833 923.709 471.689 924.634 472.295C925.573 472.886 926.755 473.182 928.179 473.182C929.33 473.182 930.277 472.985 931.02 472.591C931.777 472.197 932.164 471.636 932.179 470.909C932.164 470.242 931.83 469.712 931.179 469.318C930.543 468.924 929.543 468.606 928.179 468.364L921.997 467.273C918.437 466.652 915.77 465.47 913.997 463.727C912.224 461.985 911.346 459.742 911.361 457C911.346 454.576 911.982 452.523 913.27 450.841C914.573 449.144 916.429 447.856 918.838 446.977C921.262 446.083 924.134 445.636 927.452 445.636C932.497 445.636 936.474 446.682 939.384 448.773C942.308 450.864 943.846 453.758 943.997 457.455ZM970.531 446.091V455.182H947.531V446.091H970.531ZM951.986 437.727H964.531V469.773C964.531 470.258 964.615 470.667 964.781 471C964.948 471.318 965.205 471.561 965.554 471.727C965.902 471.879 966.349 471.955 966.895 471.955C967.274 471.955 967.713 471.909 968.213 471.818C968.728 471.727 969.107 471.652 969.349 471.591L971.168 480.409C970.607 480.576 969.804 480.78 968.759 481.023C967.728 481.265 966.501 481.424 965.077 481.5C962.198 481.652 959.781 481.356 957.827 480.614C955.872 479.856 954.402 478.667 953.418 477.045C952.433 475.424 951.955 473.394 951.986 470.955V437.727ZM986.946 444.636V434.455H1027.4V444.636H1013.4V481H1000.95V444.636H986.946ZM1050.22 465.727V446.091H1062.77V481H1050.86V474.364H1050.5C1049.74 476.591 1048.41 478.333 1046.52 479.591C1044.63 480.833 1042.38 481.455 1039.77 481.455C1037.33 481.455 1035.19 480.894 1033.36 479.773C1031.54 478.652 1030.13 477.106 1029.11 475.136C1028.11 473.167 1027.6 470.909 1027.59 468.364V446.091H1040.13V465.727C1040.15 467.455 1040.59 468.811 1041.45 469.795C1042.33 470.78 1043.56 471.273 1045.13 471.273C1046.18 471.273 1047.08 471.053 1047.84 470.614C1048.61 470.159 1049.2 469.523 1049.61 468.705C1050.04 467.871 1050.24 466.879 1050.22 465.727ZM1081.7 461.364V481H1069.15V446.091H1081.06V452.727H1081.42C1082.18 450.515 1083.51 448.78 1085.42 447.523C1087.35 446.265 1089.59 445.636 1092.15 445.636C1094.62 445.636 1096.76 446.205 1098.58 447.341C1100.42 448.462 1101.83 450.008 1102.83 451.977C1103.85 453.947 1104.35 456.197 1104.33 458.727V481H1091.79V461.364C1091.8 459.636 1091.36 458.28 1090.47 457.295C1089.59 456.311 1088.36 455.818 1086.79 455.818C1085.76 455.818 1084.86 456.045 1084.08 456.5C1083.32 456.939 1082.74 457.576 1082.33 458.409C1081.92 459.227 1081.71 460.212 1081.7 461.364ZM1127.25 481.636C1123.53 481.636 1120.31 480.924 1117.62 479.5C1114.93 478.061 1112.87 476 1111.41 473.318C1109.97 470.621 1109.25 467.394 1109.25 463.636C1109.25 460.03 1109.98 456.879 1111.43 454.182C1112.89 451.485 1114.94 449.386 1117.59 447.886C1120.25 446.386 1123.37 445.636 1126.98 445.636C1129.62 445.636 1132 446.045 1134.14 446.864C1136.28 447.682 1138.1 448.871 1139.62 450.432C1141.13 451.977 1142.3 453.856 1143.12 456.068C1143.93 458.28 1144.34 460.773 1144.34 463.545V466.455H1113.16V459.545H1132.8C1132.78 458.545 1132.53 457.667 1132.03 456.909C1131.54 456.136 1130.88 455.538 1130.05 455.114C1129.23 454.674 1128.3 454.455 1127.25 454.455C1126.24 454.455 1125.31 454.674 1124.46 455.114C1123.61 455.538 1122.93 456.129 1122.41 456.886C1121.91 457.644 1121.65 458.53 1121.62 459.545V467C1121.62 468.121 1121.85 469.121 1122.32 470C1122.79 470.879 1123.46 471.568 1124.34 472.068C1125.22 472.568 1126.28 472.818 1127.53 472.818C1128.39 472.818 1129.18 472.697 1129.89 472.455C1130.62 472.212 1131.24 471.864 1131.75 471.409C1132.27 470.939 1132.65 470.379 1132.89 469.727H1144.34C1143.95 472.152 1143.02 474.258 1141.55 476.045C1140.08 477.818 1138.13 479.197 1135.71 480.182C1133.3 481.152 1130.48 481.636 1127.25 481.636ZM1181.37 457.455H1169.83C1169.77 456.742 1169.52 456.129 1169.08 455.614C1168.64 455.098 1168.07 454.705 1167.37 454.432C1166.69 454.144 1165.93 454 1165.1 454C1164.02 454 1163.1 454.197 1162.33 454.591C1161.55 454.985 1161.18 455.545 1161.19 456.273C1161.18 456.788 1161.39 457.265 1161.85 457.705C1162.32 458.144 1163.22 458.485 1164.55 458.727L1171.64 460C1175.22 460.652 1177.88 461.75 1179.62 463.295C1181.38 464.826 1182.27 466.879 1182.28 469.455C1182.27 471.939 1181.52 474.098 1180.05 475.932C1178.6 477.75 1176.61 479.159 1174.08 480.159C1171.56 481.144 1168.69 481.636 1165.46 481.636C1160.13 481.636 1155.96 480.545 1152.94 478.364C1149.94 476.182 1148.27 473.303 1147.92 469.727H1160.37C1160.54 470.833 1161.08 471.689 1162.01 472.295C1162.95 472.886 1164.13 473.182 1165.55 473.182C1166.71 473.182 1167.65 472.985 1168.39 472.591C1169.15 472.197 1169.54 471.636 1169.55 470.909C1169.54 470.242 1169.21 469.712 1168.55 469.318C1167.92 468.924 1166.92 468.606 1165.55 468.364L1159.37 467.273C1155.81 466.652 1153.14 465.47 1151.37 463.727C1149.6 461.985 1148.72 459.742 1148.74 457C1148.72 454.576 1149.36 452.523 1150.64 450.841C1151.95 449.144 1153.8 447.856 1156.21 446.977C1158.64 446.083 1161.51 445.636 1164.83 445.636C1169.87 445.636 1173.85 446.682 1176.76 448.773C1179.68 450.864 1181.22 453.758 1181.37 457.455Z" fill="#FAF1C4"/>
<path d="M355.778 612H342.142L357.506 565.455H374.778L390.142 612H376.506L366.324 578.273H365.96L355.778 612ZM353.233 593.636H378.869V603.091H353.233V593.636ZM417.443 596.727V577.091H429.989V612H418.08V605.364H417.716C416.958 607.591 415.633 609.333 413.739 610.591C411.845 611.833 409.595 612.455 406.989 612.455C404.549 612.455 402.413 611.894 400.58 610.773C398.761 609.652 397.345 608.106 396.33 606.136C395.33 604.167 394.822 601.909 394.807 599.364V577.091H407.352V596.727C407.367 598.455 407.807 599.811 408.67 600.795C409.549 601.78 410.777 602.273 412.352 602.273C413.398 602.273 414.299 602.053 415.057 601.614C415.83 601.159 416.42 600.523 416.83 599.705C417.254 598.871 417.458 597.879 417.443 596.727ZM457.188 577.091V586.182H434.188V577.091H457.188ZM438.642 568.727H451.188V600.773C451.188 601.258 451.271 601.667 451.438 602C451.604 602.318 451.862 602.561 452.21 602.727C452.559 602.879 453.006 602.955 453.551 602.955C453.93 602.955 454.369 602.909 454.869 602.818C455.384 602.727 455.763 602.652 456.006 602.591L457.824 611.409C457.263 611.576 456.46 611.78 455.415 612.023C454.384 612.265 453.157 612.424 451.733 612.5C448.854 612.652 446.438 612.356 444.483 611.614C442.528 610.856 441.059 609.667 440.074 608.045C439.089 606.424 438.612 604.394 438.642 601.955V568.727ZM478.75 612.636C474.962 612.636 471.72 611.886 469.023 610.386C466.326 608.871 464.258 606.765 462.818 604.068C461.379 601.356 460.659 598.212 460.659 594.636C460.659 591.061 461.379 587.924 462.818 585.227C464.258 582.515 466.326 580.409 469.023 578.909C471.72 577.394 474.962 576.636 478.75 576.636C482.538 576.636 485.78 577.394 488.477 578.909C491.174 580.409 493.242 582.515 494.682 585.227C496.121 587.924 496.841 591.061 496.841 594.636C496.841 598.212 496.121 601.356 494.682 604.068C493.242 606.765 491.174 608.871 488.477 610.386C485.78 611.886 482.538 612.636 478.75 612.636ZM478.841 603.364C479.902 603.364 480.818 603.008 481.591 602.295C482.364 601.583 482.962 600.568 483.386 599.25C483.811 597.932 484.023 596.364 484.023 594.545C484.023 592.712 483.811 591.144 483.386 589.841C482.962 588.523 482.364 587.508 481.591 586.795C480.818 586.083 479.902 585.727 478.841 585.727C477.72 585.727 476.758 586.083 475.955 586.795C475.152 587.508 474.538 588.523 474.114 589.841C473.689 591.144 473.477 592.712 473.477 594.545C473.477 596.364 473.689 597.932 474.114 599.25C474.538 600.568 475.152 601.583 475.955 602.295C476.758 603.008 477.72 603.364 478.841 603.364ZM514.5 612V565.455H547.227V575.636H527.136V583.636H545.227V593.818H527.136V612H514.5ZM566.312 612.636C562.525 612.636 559.282 611.886 556.585 610.386C553.888 608.871 551.82 606.765 550.381 604.068C548.941 601.356 548.222 598.212 548.222 594.636C548.222 591.061 548.941 587.924 550.381 585.227C551.82 582.515 553.888 580.409 556.585 578.909C559.282 577.394 562.525 576.636 566.312 576.636C570.1 576.636 573.343 577.394 576.04 578.909C578.737 580.409 580.805 582.515 582.244 585.227C583.684 587.924 584.403 591.061 584.403 594.636C584.403 598.212 583.684 601.356 582.244 604.068C580.805 606.765 578.737 608.871 576.04 610.386C573.343 611.886 570.1 612.636 566.312 612.636ZM566.403 603.364C567.464 603.364 568.381 603.008 569.153 602.295C569.926 601.583 570.525 600.568 570.949 599.25C571.373 597.932 571.585 596.364 571.585 594.545C571.585 592.712 571.373 591.144 570.949 589.841C570.525 588.523 569.926 587.508 569.153 586.795C568.381 586.083 567.464 585.727 566.403 585.727C565.282 585.727 564.32 586.083 563.517 586.795C562.714 587.508 562.1 588.523 561.676 589.841C561.252 591.144 561.04 592.712 561.04 594.545C561.04 596.364 561.252 597.932 561.676 599.25C562.1 600.568 562.714 601.583 563.517 602.295C564.32 603.008 565.282 603.364 566.403 603.364ZM606.312 612.636C602.525 612.636 599.282 611.886 596.585 610.386C593.888 608.871 591.82 606.765 590.381 604.068C588.941 601.356 588.222 598.212 588.222 594.636C588.222 591.061 588.941 587.924 590.381 585.227C591.82 582.515 593.888 580.409 596.585 578.909C599.282 577.394 602.525 576.636 606.312 576.636C609.737 576.636 612.699 577.258 615.199 578.5C617.714 579.727 619.661 581.47 621.04 583.727C622.419 585.97 623.116 588.606 623.131 591.636H611.494C611.328 589.803 610.797 588.409 609.903 587.455C609.025 586.485 607.888 586 606.494 586C605.403 586 604.449 586.318 603.631 586.955C602.813 587.576 602.176 588.523 601.722 589.795C601.267 591.053 601.04 592.636 601.04 594.545C601.04 596.455 601.267 598.045 601.722 599.318C602.176 600.576 602.813 601.523 603.631 602.159C604.449 602.78 605.403 603.091 606.494 603.091C607.419 603.091 608.237 602.879 608.949 602.455C609.661 602.015 610.237 601.379 610.676 600.545C611.131 599.697 611.403 598.667 611.494 597.455H623.131C623.085 600.53 622.381 603.212 621.017 605.5C619.653 607.773 617.722 609.53 615.222 610.773C612.737 612.015 609.767 612.636 606.312 612.636ZM650.943 596.727V577.091H663.489V612H651.58V605.364H651.216C650.458 607.591 649.133 609.333 647.239 610.591C645.345 611.833 643.095 612.455 640.489 612.455C638.049 612.455 635.913 611.894 634.08 610.773C632.261 609.652 630.845 608.106 629.83 606.136C628.83 604.167 628.322 601.909 628.307 599.364V577.091H640.852V596.727C640.867 598.455 641.307 599.811 642.17 600.795C643.049 601.78 644.277 602.273 645.852 602.273C646.898 602.273 647.799 602.053 648.557 601.614C649.33 601.159 649.92 600.523 650.33 599.705C650.754 598.871 650.958 597.879 650.943 596.727ZM701.778 588.455H690.233C690.172 587.742 689.922 587.129 689.483 586.614C689.044 586.098 688.475 585.705 687.778 585.432C687.097 585.144 686.339 585 685.506 585C684.43 585 683.506 585.197 682.733 585.591C681.96 585.985 681.581 586.545 681.597 587.273C681.581 587.788 681.801 588.265 682.256 588.705C682.725 589.144 683.627 589.485 684.96 589.727L692.051 591C695.627 591.652 698.286 592.75 700.028 594.295C701.786 595.826 702.672 597.879 702.688 600.455C702.672 602.939 701.93 605.098 700.46 606.932C699.006 608.75 697.013 610.159 694.483 611.159C691.968 612.144 689.097 612.636 685.869 612.636C680.536 612.636 676.362 611.545 673.347 609.364C670.347 607.182 668.672 604.303 668.324 600.727H680.778C680.945 601.833 681.491 602.689 682.415 603.295C683.354 603.886 684.536 604.182 685.96 604.182C687.112 604.182 688.059 603.985 688.801 603.591C689.559 603.197 689.945 602.636 689.96 601.909C689.945 601.242 689.612 600.712 688.96 600.318C688.324 599.924 687.324 599.606 685.96 599.364L679.778 598.273C676.218 597.652 673.551 596.47 671.778 594.727C670.006 592.985 669.127 590.742 669.142 588C669.127 585.576 669.763 583.523 671.051 581.841C672.354 580.144 674.21 578.856 676.619 577.977C679.044 577.083 681.915 576.636 685.233 576.636C690.278 576.636 694.256 577.682 697.165 579.773C700.089 581.864 701.627 584.758 701.778 588.455Z" fill="#FAF1C4"/>
<path d="M342.531 734V687.455H376.077V697.636H355.168V705.636H374.349V715.818H355.168V723.818H375.986V734H342.531ZM395.071 714.364V734H382.526V699.091H394.435V705.727H394.798C395.556 703.515 396.889 701.78 398.798 700.523C400.723 699.265 402.965 698.636 405.526 698.636C407.995 698.636 410.139 699.205 411.957 700.341C413.791 701.462 415.207 703.008 416.207 704.977C417.223 706.947 417.723 709.197 417.707 711.727V734H405.162V714.364C405.177 712.636 404.738 711.28 403.844 710.295C402.965 709.311 401.738 708.818 400.162 708.818C399.132 708.818 398.23 709.045 397.457 709.5C396.7 709.939 396.116 710.576 395.707 711.409C395.298 712.227 395.086 713.212 395.071 714.364ZM436.537 734.455C434.052 734.455 431.764 733.803 429.673 732.5C427.598 731.197 425.931 729.22 424.673 726.568C423.431 723.917 422.81 720.576 422.81 716.545C422.81 712.333 423.461 708.909 424.764 706.273C426.082 703.636 427.779 701.705 429.855 700.477C431.946 699.25 434.143 698.636 436.446 698.636C438.173 698.636 439.688 698.939 440.991 699.545C442.295 700.136 443.385 700.932 444.264 701.932C445.143 702.917 445.81 704 446.264 705.182H446.446V687.455H458.991V734H446.537V728.273H446.264C445.779 729.455 445.082 730.515 444.173 731.455C443.279 732.379 442.188 733.114 440.901 733.659C439.628 734.189 438.173 734.455 436.537 734.455ZM441.173 724.818C442.325 724.818 443.31 724.485 444.128 723.818C444.961 723.136 445.598 722.182 446.037 720.955C446.491 719.712 446.719 718.242 446.719 716.545C446.719 714.818 446.491 713.341 446.037 712.114C445.598 710.871 444.961 709.924 444.128 709.273C443.31 708.606 442.325 708.273 441.173 708.273C440.022 708.273 439.037 708.606 438.219 709.273C437.416 709.924 436.795 710.871 436.355 712.114C435.931 713.341 435.719 714.818 435.719 716.545C435.719 718.273 435.931 719.758 436.355 721C436.795 722.227 437.416 723.174 438.219 723.841C439.037 724.492 440.022 724.818 441.173 724.818ZM494.719 734.636C490.931 734.636 487.688 733.886 484.991 732.386C482.295 730.871 480.226 728.765 478.787 726.068C477.348 723.356 476.628 720.212 476.628 716.636C476.628 713.061 477.348 709.924 478.787 707.227C480.226 704.515 482.295 702.409 484.991 700.909C487.688 699.394 490.931 698.636 494.719 698.636C498.507 698.636 501.749 699.394 504.446 700.909C507.143 702.409 509.211 704.515 510.651 707.227C512.09 709.924 512.81 713.061 512.81 716.636C512.81 720.212 512.09 723.356 510.651 726.068C509.211 728.765 507.143 730.871 504.446 732.386C501.749 733.886 498.507 734.636 494.719 734.636ZM494.81 725.364C495.87 725.364 496.787 725.008 497.56 724.295C498.332 723.583 498.931 722.568 499.355 721.25C499.779 719.932 499.991 718.364 499.991 716.545C499.991 714.712 499.779 713.144 499.355 711.841C498.931 710.523 498.332 709.508 497.56 708.795C496.787 708.083 495.87 707.727 494.81 707.727C493.688 707.727 492.726 708.083 491.923 708.795C491.12 709.508 490.507 710.523 490.082 711.841C489.658 713.144 489.446 714.712 489.446 716.545C489.446 718.364 489.658 719.932 490.082 721.25C490.507 722.568 491.12 723.583 491.923 724.295C492.726 725.008 493.688 725.364 494.81 725.364ZM538.81 699.091V708.182H515.446V699.091H538.81ZM519.901 734V698.091C519.901 695.212 520.416 692.826 521.446 690.932C522.476 689.038 523.931 687.621 525.81 686.682C527.688 685.742 529.901 685.273 532.446 685.273C534.037 685.273 535.582 685.394 537.082 685.636C538.598 685.879 539.719 686.091 540.446 686.273L538.628 695.273C538.173 695.136 537.643 695.03 537.037 694.955C536.431 694.864 535.901 694.818 535.446 694.818C534.264 694.818 533.469 695.068 533.06 695.568C532.651 696.068 532.446 696.727 532.446 697.545V734H519.901ZM556.219 734V687.455H576.31C579.764 687.455 582.787 688.083 585.378 689.341C587.969 690.598 589.984 692.409 591.423 694.773C592.863 697.136 593.582 699.97 593.582 703.273C593.582 706.606 592.84 709.417 591.355 711.705C589.885 713.992 587.817 715.72 585.151 716.886C582.499 718.053 579.401 718.636 575.855 718.636H563.855V708.818H573.31C574.795 708.818 576.06 708.636 577.105 708.273C578.166 707.894 578.976 707.295 579.537 706.477C580.113 705.659 580.401 704.591 580.401 703.273C580.401 701.939 580.113 700.856 579.537 700.023C578.976 699.174 578.166 698.553 577.105 698.159C576.06 697.75 574.795 697.545 573.31 697.545H568.855V734H556.219ZM583.491 712.636L595.128 734H581.401L570.037 712.636H583.491ZM615.128 734.636C611.401 734.636 608.188 733.924 605.491 732.5C602.81 731.061 600.741 729 599.287 726.318C597.848 723.621 597.128 720.394 597.128 716.636C597.128 713.03 597.855 709.879 599.31 707.182C600.764 704.485 602.817 702.386 605.469 700.886C608.12 699.386 611.249 698.636 614.855 698.636C617.491 698.636 619.878 699.045 622.014 699.864C624.151 700.682 625.976 701.871 627.491 703.432C629.007 704.977 630.173 706.856 630.991 709.068C631.81 711.28 632.219 713.773 632.219 716.545V719.455H601.037V712.545H620.673C620.658 711.545 620.401 710.667 619.901 709.909C619.416 709.136 618.757 708.538 617.923 708.114C617.105 707.674 616.173 707.455 615.128 707.455C614.113 707.455 613.181 707.674 612.332 708.114C611.484 708.538 610.802 709.129 610.287 709.886C609.787 710.644 609.522 711.53 609.491 712.545V720C609.491 721.121 609.726 722.121 610.196 723C610.666 723.879 611.34 724.568 612.219 725.068C613.098 725.568 614.158 725.818 615.401 725.818C616.264 725.818 617.052 725.697 617.764 725.455C618.491 725.212 619.113 724.864 619.628 724.409C620.143 723.939 620.522 723.379 620.764 722.727H632.219C631.825 725.152 630.893 727.258 629.423 729.045C627.954 730.818 626.007 732.197 623.582 733.182C621.173 734.152 618.355 734.636 615.128 734.636ZM669.247 710.455H657.702C657.641 709.742 657.391 709.129 656.952 708.614C656.512 708.098 655.944 707.705 655.247 707.432C654.565 707.144 653.808 707 652.974 707C651.899 707 650.974 707.197 650.202 707.591C649.429 707.985 649.05 708.545 649.065 709.273C649.05 709.788 649.27 710.265 649.724 710.705C650.194 711.144 651.096 711.485 652.429 711.727L659.52 713C663.096 713.652 665.755 714.75 667.497 716.295C669.255 717.826 670.141 719.879 670.156 722.455C670.141 724.939 669.399 727.098 667.929 728.932C666.474 730.75 664.482 732.159 661.952 733.159C659.437 734.144 656.565 734.636 653.338 734.636C648.005 734.636 643.83 733.545 640.815 731.364C637.815 729.182 636.141 726.303 635.793 722.727H648.247C648.414 723.833 648.959 724.689 649.884 725.295C650.823 725.886 652.005 726.182 653.429 726.182C654.58 726.182 655.527 725.985 656.27 725.591C657.027 725.197 657.414 724.636 657.429 723.909C657.414 723.242 657.08 722.712 656.429 722.318C655.793 721.924 654.793 721.606 653.429 721.364L647.247 720.273C643.687 719.652 641.02 718.47 639.247 716.727C637.474 714.985 636.596 712.742 636.611 710C636.596 707.576 637.232 705.523 638.52 703.841C639.823 702.144 641.679 700.856 644.088 699.977C646.512 699.083 649.384 698.636 652.702 698.636C657.747 698.636 661.724 699.682 664.634 701.773C667.558 703.864 669.096 706.758 669.247 710.455ZM695.781 699.091V708.182H672.781V699.091H695.781ZM677.236 690.727H689.781V722.773C689.781 723.258 689.865 723.667 690.031 724C690.198 724.318 690.455 724.561 690.804 724.727C691.152 724.879 691.599 724.955 692.145 724.955C692.524 724.955 692.963 724.909 693.463 724.818C693.978 724.727 694.357 724.652 694.599 724.591L696.418 733.409C695.857 733.576 695.054 733.78 694.009 734.023C692.978 734.265 691.751 734.424 690.327 734.5C687.448 734.652 685.031 734.356 683.077 733.614C681.122 732.856 679.652 731.667 678.668 730.045C677.683 728.424 677.205 726.394 677.236 723.955V690.727ZM712.196 697.636V687.455H752.651V697.636H738.651V734H726.196V697.636H712.196ZM757.588 734V699.091H770.134V734H757.588ZM763.861 695.455C762.164 695.455 760.709 694.894 759.497 693.773C758.285 692.652 757.679 691.303 757.679 689.727C757.679 688.152 758.285 686.803 759.497 685.682C760.709 684.561 762.164 684 763.861 684C765.573 684 767.027 684.561 768.224 685.682C769.437 686.803 770.043 688.152 770.043 689.727C770.043 691.303 769.437 692.652 768.224 693.773C767.027 694.894 765.573 695.455 763.861 695.455ZM776.526 734V699.091H788.435V705.727H788.798C789.526 703.545 790.768 701.818 792.526 700.545C794.283 699.273 796.374 698.636 798.798 698.636C801.253 698.636 803.366 699.288 805.139 700.591C806.912 701.879 807.98 703.591 808.344 705.727H808.707C809.298 703.591 810.556 701.879 812.48 700.591C814.404 699.288 816.662 698.636 819.253 698.636C822.601 698.636 825.313 699.712 827.389 701.864C829.48 704.015 830.526 706.879 830.526 710.455V734H817.98V713.636C817.98 712.106 817.594 710.909 816.821 710.045C816.048 709.167 815.01 708.727 813.707 708.727C812.42 708.727 811.397 709.167 810.639 710.045C809.897 710.909 809.526 712.106 809.526 713.636V734H797.526V713.636C797.526 712.106 797.139 710.909 796.366 710.045C795.594 709.167 794.556 708.727 793.253 708.727C792.389 708.727 791.647 708.924 791.026 709.318C790.404 709.712 789.92 710.28 789.571 711.023C789.238 711.75 789.071 712.621 789.071 713.636V734H776.526ZM853.44 734.636C849.713 734.636 846.501 733.924 843.804 732.5C841.122 731.061 839.054 729 837.599 726.318C836.16 723.621 835.44 720.394 835.44 716.636C835.44 713.03 836.168 709.879 837.622 707.182C839.077 704.485 841.13 702.386 843.781 700.886C846.433 699.386 849.562 698.636 853.168 698.636C855.804 698.636 858.19 699.045 860.327 699.864C862.463 700.682 864.289 701.871 865.804 703.432C867.319 704.977 868.486 706.856 869.304 709.068C870.122 711.28 870.531 713.773 870.531 716.545V719.455H839.349V712.545H858.986C858.971 711.545 858.713 710.667 858.213 709.909C857.728 709.136 857.069 708.538 856.236 708.114C855.418 707.674 854.486 707.455 853.44 707.455C852.425 707.455 851.493 707.674 850.645 708.114C849.796 708.538 849.115 709.129 848.599 709.886C848.099 710.644 847.834 711.53 847.804 712.545V720C847.804 721.121 848.039 722.121 848.509 723C848.978 723.879 849.652 724.568 850.531 725.068C851.41 725.568 852.471 725.818 853.713 725.818C854.577 725.818 855.365 725.697 856.077 725.455C856.804 725.212 857.425 724.864 857.94 724.409C858.455 723.939 858.834 723.379 859.077 722.727H870.531C870.137 725.152 869.205 727.258 867.736 729.045C866.266 730.818 864.319 732.197 861.895 733.182C859.486 734.152 856.668 734.636 853.44 734.636Z" fill="#FAF1C4"/>
<path d="M935.803 732V705.818H954.212V711.545H942.911V716.045H953.087V721.773H942.911V732H935.803ZM961.978 732.307C960.725 732.307 959.617 732.102 958.654 731.693C957.7 731.276 956.95 730.645 956.404 729.801C955.859 728.957 955.586 727.884 955.586 726.58C955.586 725.506 955.769 724.589 956.136 723.831C956.502 723.064 957.014 722.438 957.67 721.952C958.326 721.466 959.089 721.095 959.958 720.839C960.836 720.584 961.782 720.418 962.796 720.341C963.896 720.256 964.778 720.153 965.443 720.034C966.116 719.906 966.602 719.732 966.9 719.51C967.198 719.28 967.347 718.977 967.347 718.602V718.551C967.347 718.04 967.151 717.648 966.759 717.375C966.367 717.102 965.865 716.966 965.251 716.966C964.578 716.966 964.028 717.115 963.602 717.413C963.184 717.703 962.933 718.151 962.847 718.756H956.353C956.438 717.562 956.818 716.463 957.491 715.457C958.173 714.443 959.166 713.634 960.47 713.028C961.774 712.415 963.401 712.108 965.353 712.108C966.759 712.108 968.021 712.274 969.137 712.607C970.254 712.93 971.204 713.386 971.988 713.974C972.772 714.554 973.369 715.236 973.778 716.02C974.195 716.795 974.404 717.639 974.404 718.551V732H967.808V729.239H967.654C967.262 729.972 966.785 730.564 966.222 731.016C965.669 731.467 965.034 731.795 964.318 732C963.61 732.205 962.83 732.307 961.978 732.307ZM964.279 727.858C964.816 727.858 965.319 727.747 965.788 727.526C966.265 727.304 966.653 726.984 966.951 726.567C967.249 726.149 967.399 725.642 967.399 725.045V723.409C967.211 723.486 967.011 723.558 966.798 723.626C966.593 723.695 966.372 723.759 966.133 723.818C965.903 723.878 965.656 723.933 965.392 723.984C965.136 724.036 964.867 724.082 964.586 724.125C964.041 724.21 963.593 724.351 963.244 724.547C962.903 724.734 962.647 724.969 962.477 725.25C962.315 725.523 962.234 725.83 962.234 726.17C962.234 726.716 962.426 727.134 962.809 727.423C963.193 727.713 963.683 727.858 964.279 727.858ZM984.884 732.256C983.486 732.256 982.199 731.889 981.023 731.156C979.856 730.423 978.918 729.311 978.211 727.82C977.512 726.328 977.162 724.449 977.162 722.182C977.162 719.812 977.529 717.886 978.262 716.403C979.003 714.92 979.958 713.834 981.126 713.143C982.302 712.453 983.537 712.108 984.833 712.108C985.805 712.108 986.657 712.278 987.39 712.619C988.123 712.952 988.736 713.399 989.231 713.962C989.725 714.516 990.1 715.125 990.356 715.79H990.458V705.818H997.515V732H990.509V728.778H990.356C990.083 729.443 989.691 730.04 989.18 730.568C988.677 731.088 988.063 731.501 987.339 731.808C986.623 732.107 985.805 732.256 984.884 732.256ZM987.492 726.835C988.14 726.835 988.694 726.648 989.154 726.273C989.623 725.889 989.981 725.352 990.228 724.662C990.483 723.963 990.611 723.136 990.611 722.182C990.611 721.21 990.483 720.379 990.228 719.689C989.981 718.99 989.623 718.457 989.154 718.091C988.694 717.716 988.14 717.528 987.492 717.528C986.844 717.528 986.29 717.716 985.83 718.091C985.378 718.457 985.029 718.99 984.782 719.689C984.543 720.379 984.424 721.21 984.424 722.182C984.424 723.153 984.543 723.989 984.782 724.688C985.029 725.378 985.378 725.911 985.83 726.286C986.29 726.652 986.844 726.835 987.492 726.835ZM1010.39 732.358C1008.29 732.358 1006.48 731.957 1004.97 731.156C1003.46 730.347 1002.3 729.187 1001.48 727.679C1000.67 726.162 1000.26 724.347 1000.26 722.233C1000.26 720.205 1000.67 718.432 1001.49 716.915C1002.31 715.398 1003.46 714.217 1004.96 713.374C1006.45 712.53 1008.21 712.108 1010.23 712.108C1011.72 712.108 1013.06 712.338 1014.26 712.798C1015.46 713.259 1016.49 713.928 1017.34 714.805C1018.2 715.675 1018.85 716.732 1019.31 717.976C1019.77 719.22 1020 720.622 1020 722.182V723.818H1002.46V719.932H1013.51C1013.5 719.369 1013.35 718.875 1013.07 718.449C1012.8 718.014 1012.43 717.678 1011.96 717.439C1011.5 717.192 1010.98 717.068 1010.39 717.068C1009.82 717.068 1009.29 717.192 1008.82 717.439C1008.34 717.678 1007.96 718.01 1007.67 718.436C1007.38 718.862 1007.23 719.361 1007.22 719.932V724.125C1007.22 724.756 1007.35 725.318 1007.61 725.812C1007.88 726.307 1008.26 726.695 1008.75 726.976C1009.25 727.257 1009.84 727.398 1010.54 727.398C1011.03 727.398 1011.47 727.33 1011.87 727.193C1012.28 727.057 1012.63 726.861 1012.92 726.605C1013.21 726.341 1013.42 726.026 1013.56 725.659H1020C1019.78 727.023 1019.26 728.207 1018.43 729.213C1017.6 730.21 1016.51 730.986 1015.14 731.54C1013.79 732.085 1012.2 732.358 1010.39 732.358ZM1055.31 718.909C1055.31 721.824 1054.75 724.283 1053.61 726.286C1052.48 728.28 1050.95 729.793 1049.03 730.824C1047.1 731.847 1044.95 732.358 1042.58 732.358C1040.2 732.358 1038.04 731.842 1036.11 730.811C1034.2 729.771 1032.67 728.254 1031.54 726.26C1030.41 724.257 1029.85 721.807 1029.85 718.909C1029.85 715.994 1030.41 713.54 1031.54 711.545C1032.67 709.543 1034.2 708.03 1036.11 707.007C1038.04 705.976 1040.2 705.46 1042.58 705.46C1044.95 705.46 1047.1 705.976 1049.03 707.007C1050.95 708.03 1052.48 709.543 1053.61 711.545C1054.75 713.54 1055.31 715.994 1055.31 718.909ZM1048 718.909C1048 717.341 1047.79 716.02 1047.38 714.946C1046.97 713.864 1046.36 713.045 1045.55 712.491C1044.75 711.929 1043.76 711.648 1042.58 711.648C1041.41 711.648 1040.41 711.929 1039.6 712.491C1038.8 713.045 1038.19 713.864 1037.78 714.946C1037.37 716.02 1037.16 717.341 1037.16 718.909C1037.16 720.477 1037.37 721.803 1037.78 722.885C1038.19 723.959 1038.8 724.777 1039.6 725.339C1040.41 725.893 1041.41 726.17 1042.58 726.17C1043.76 726.17 1044.75 725.893 1045.55 725.339C1046.36 724.777 1046.97 723.959 1047.38 722.885C1047.79 721.803 1048 720.477 1048 718.909ZM1071.44 723.409V712.364H1078.5V732H1071.8V728.267H1071.59C1071.17 729.52 1070.42 730.5 1069.35 731.207C1068.29 731.906 1067.02 732.256 1065.56 732.256C1064.19 732.256 1062.98 731.94 1061.95 731.31C1060.93 730.679 1060.13 729.81 1059.56 728.702C1059 727.594 1058.71 726.324 1058.71 724.892V712.364H1065.76V723.409C1065.77 724.381 1066.02 725.143 1066.5 725.697C1067 726.251 1067.69 726.528 1068.58 726.528C1069.16 726.528 1069.67 726.405 1070.1 726.158C1070.53 725.902 1070.86 725.544 1071.09 725.084C1071.33 724.615 1071.45 724.057 1071.44 723.409ZM1093.79 712.364V717.477H1080.86V712.364H1093.79ZM1083.36 707.659H1090.42V725.685C1090.42 725.957 1090.47 726.188 1090.56 726.375C1090.65 726.554 1090.8 726.69 1091 726.784C1091.19 726.869 1091.44 726.912 1091.75 726.912C1091.96 726.912 1092.21 726.886 1092.49 726.835C1092.78 726.784 1092.99 726.741 1093.13 726.707L1094.15 731.668C1093.84 731.761 1093.39 731.876 1092.8 732.013C1092.22 732.149 1091.53 732.239 1090.73 732.281C1089.11 732.366 1087.75 732.2 1086.65 731.783C1085.55 731.357 1084.72 730.687 1084.17 729.776C1083.61 728.864 1083.35 727.722 1083.36 726.349V707.659Z" fill="#FAF1C4"/>
<path d="M1218.02 732V705.818H1236.43V711.545H1225.13V716.045H1235.3V721.773H1225.13V732H1218.02ZM1239.14 732V712.364H1246.2V732H1239.14ZM1242.67 710.318C1241.72 710.318 1240.9 710.003 1240.22 709.372C1239.54 708.741 1239.19 707.983 1239.19 707.097C1239.19 706.21 1239.54 705.452 1240.22 704.821C1240.9 704.19 1241.72 703.875 1242.67 703.875C1243.63 703.875 1244.45 704.19 1245.13 704.821C1245.81 705.452 1246.15 706.21 1246.15 707.097C1246.15 707.983 1245.81 708.741 1245.13 709.372C1244.45 710.003 1243.63 710.318 1242.67 710.318ZM1256.85 720.955V732H1249.8V712.364H1256.49V716.097H1256.7C1257.13 714.852 1257.88 713.876 1258.95 713.169C1260.03 712.462 1261.29 712.108 1262.73 712.108C1264.12 712.108 1265.33 712.428 1266.35 713.067C1267.38 713.697 1268.18 714.567 1268.74 715.675C1269.31 716.783 1269.59 718.048 1269.59 719.472V732H1262.53V720.955C1262.54 719.983 1262.29 719.22 1261.79 718.666C1261.29 718.112 1260.6 717.835 1259.72 717.835C1259.14 717.835 1258.63 717.963 1258.19 718.219C1257.77 718.466 1257.44 718.824 1257.21 719.293C1256.98 719.753 1256.86 720.307 1256.85 720.955ZM1273.07 732V712.364H1280.13V732H1273.07ZM1276.6 710.318C1275.64 710.318 1274.82 710.003 1274.14 709.372C1273.46 708.741 1273.12 707.983 1273.12 707.097C1273.12 706.21 1273.46 705.452 1274.14 704.821C1274.82 704.19 1275.64 703.875 1276.6 703.875C1277.56 703.875 1278.38 704.19 1279.05 704.821C1279.73 705.452 1280.07 706.21 1280.07 707.097C1280.07 707.983 1279.73 708.741 1279.05 709.372C1278.38 710.003 1277.56 710.318 1276.6 710.318ZM1301.67 718.756H1295.18C1295.14 718.355 1295 718.01 1294.75 717.72C1294.51 717.43 1294.19 717.209 1293.8 717.055C1293.41 716.893 1292.99 716.812 1292.52 716.812C1291.91 716.812 1291.39 716.923 1290.96 717.145C1290.52 717.366 1290.31 717.682 1290.32 718.091C1290.31 718.381 1290.43 718.649 1290.69 718.896C1290.95 719.143 1291.46 719.335 1292.21 719.472L1296.2 720.188C1298.21 720.554 1299.71 721.172 1300.69 722.041C1301.67 722.902 1302.17 724.057 1302.18 725.506C1302.17 726.903 1301.76 728.118 1300.93 729.149C1300.11 730.172 1298.99 730.964 1297.57 731.527C1296.15 732.081 1294.54 732.358 1292.72 732.358C1289.72 732.358 1287.37 731.744 1285.68 730.517C1283.99 729.29 1283.05 727.67 1282.85 725.659H1289.86C1289.95 726.281 1290.26 726.763 1290.78 727.104C1291.31 727.436 1291.97 727.602 1292.77 727.602C1293.42 727.602 1293.95 727.491 1294.37 727.27C1294.8 727.048 1295.01 726.733 1295.02 726.324C1295.01 725.949 1294.83 725.651 1294.46 725.429C1294.1 725.207 1293.54 725.028 1292.77 724.892L1289.3 724.278C1287.29 723.929 1285.79 723.264 1284.8 722.284C1283.8 721.304 1283.3 720.043 1283.31 718.5C1283.3 717.136 1283.66 715.982 1284.39 715.036C1285.12 714.081 1286.16 713.357 1287.52 712.862C1288.88 712.359 1290.5 712.108 1292.36 712.108C1295.2 712.108 1297.44 712.696 1299.08 713.872C1300.72 715.048 1301.59 716.676 1301.67 718.756ZM1311.94 720.955V732H1304.89V705.818H1311.69V716.097H1311.89C1312.33 714.844 1313.07 713.868 1314.1 713.169C1315.13 712.462 1316.37 712.108 1317.82 712.108C1319.21 712.108 1320.42 712.423 1321.44 713.054C1322.47 713.685 1323.27 714.554 1323.83 715.662C1324.4 716.77 1324.68 718.04 1324.68 719.472V732H1317.62V720.955C1317.63 719.983 1317.38 719.22 1316.89 718.666C1316.4 718.112 1315.71 717.835 1314.81 717.835C1314.23 717.835 1313.73 717.963 1313.3 718.219C1312.87 718.466 1312.54 718.824 1312.3 719.293C1312.07 719.753 1311.95 720.307 1311.94 720.955ZM1349.34 714C1349.27 713.148 1348.95 712.483 1348.38 712.006C1347.82 711.528 1346.96 711.29 1345.81 711.29C1345.08 711.29 1344.48 711.379 1344.01 711.558C1343.55 711.729 1343.21 711.963 1342.99 712.261C1342.77 712.56 1342.65 712.901 1342.64 713.284C1342.63 713.599 1342.68 713.885 1342.81 714.141C1342.95 714.388 1343.16 714.614 1343.45 714.818C1343.74 715.014 1344.11 715.193 1344.56 715.355C1345.01 715.517 1345.55 715.662 1346.17 715.79L1348.32 716.25C1349.77 716.557 1351.01 716.962 1352.04 717.464C1353.07 717.967 1353.91 718.56 1354.57 719.241C1355.23 719.915 1355.71 720.673 1356.02 721.517C1356.33 722.361 1356.49 723.281 1356.5 724.278C1356.49 726 1356.06 727.457 1355.21 728.651C1354.36 729.844 1353.14 730.751 1351.55 731.374C1349.98 731.996 1348.08 732.307 1345.86 732.307C1343.59 732.307 1341.6 731.97 1339.91 731.297C1338.22 730.624 1336.91 729.588 1335.97 728.19C1335.04 726.784 1334.57 724.986 1334.56 722.795H1341.31C1341.36 723.597 1341.56 724.27 1341.91 724.815C1342.27 725.361 1342.78 725.774 1343.42 726.055C1344.08 726.337 1344.86 726.477 1345.76 726.477C1346.52 726.477 1347.16 726.384 1347.67 726.196C1348.18 726.009 1348.57 725.749 1348.83 725.416C1349.09 725.084 1349.23 724.705 1349.24 724.278C1349.23 723.878 1349.1 723.528 1348.84 723.23C1348.6 722.923 1348.19 722.651 1347.62 722.412C1347.05 722.165 1346.27 721.935 1345.3 721.722L1342.69 721.159C1340.38 720.656 1338.55 719.817 1337.21 718.641C1335.88 717.456 1335.22 715.841 1335.23 713.795C1335.22 712.134 1335.66 710.68 1336.56 709.436C1337.46 708.183 1338.71 707.207 1340.3 706.509C1341.91 705.81 1343.74 705.46 1345.81 705.46C1347.93 705.46 1349.76 705.814 1351.3 706.521C1352.84 707.229 1354.03 708.226 1354.86 709.513C1355.71 710.791 1356.13 712.287 1356.14 714H1349.34ZM1368.77 732.358C1366.64 732.358 1364.81 731.936 1363.3 731.092C1361.78 730.24 1360.62 729.055 1359.81 727.538C1359 726.013 1358.59 724.244 1358.59 722.233C1358.59 720.222 1359 718.457 1359.81 716.94C1360.62 715.415 1361.78 714.23 1363.3 713.386C1364.81 712.534 1366.64 712.108 1368.77 712.108C1370.9 712.108 1372.72 712.534 1374.24 713.386C1375.76 714.23 1376.92 715.415 1377.73 716.94C1378.54 718.457 1378.94 720.222 1378.94 722.233C1378.94 724.244 1378.54 726.013 1377.73 727.538C1376.92 729.055 1375.76 730.24 1374.24 731.092C1372.72 731.936 1370.9 732.358 1368.77 732.358ZM1368.82 727.142C1369.42 727.142 1369.93 726.942 1370.37 726.541C1370.8 726.141 1371.14 725.57 1371.38 724.828C1371.61 724.087 1371.73 723.205 1371.73 722.182C1371.73 721.151 1371.61 720.268 1371.38 719.536C1371.14 718.794 1370.8 718.223 1370.37 717.822C1369.93 717.422 1369.42 717.222 1368.82 717.222C1368.19 717.222 1367.65 717.422 1367.2 717.822C1366.74 718.223 1366.4 718.794 1366.16 719.536C1365.92 720.268 1365.8 721.151 1365.8 722.182C1365.8 723.205 1365.92 724.087 1366.16 724.828C1366.4 725.57 1366.74 726.141 1367.2 726.541C1367.65 726.942 1368.19 727.142 1368.82 727.142ZM1388.86 720.955V732H1381.81V712.364H1388.51V716.097H1388.71C1389.14 714.852 1389.89 713.876 1390.96 713.169C1392.04 712.462 1393.3 712.108 1394.74 712.108C1396.13 712.108 1397.34 712.428 1398.36 713.067C1399.39 713.697 1400.19 714.567 1400.75 715.675C1401.32 716.783 1401.61 718.048 1401.6 719.472V732H1394.54V720.955C1394.55 719.983 1394.3 719.22 1393.8 718.666C1393.3 718.112 1392.61 717.835 1391.73 717.835C1391.15 717.835 1390.64 717.963 1390.21 718.219C1389.78 718.466 1389.45 718.824 1389.22 719.293C1388.99 719.753 1388.87 720.307 1388.86 720.955ZM1414.54 739.773C1412.57 739.773 1410.88 739.491 1409.48 738.929C1408.08 738.375 1406.99 737.608 1406.22 736.628C1405.45 735.656 1405.02 734.54 1404.93 733.278H1411.73C1411.8 733.696 1411.97 734.033 1412.24 734.288C1412.51 734.544 1412.86 734.727 1413.29 734.838C1413.72 734.957 1414.21 735.017 1414.75 735.017C1415.66 735.017 1416.41 734.795 1417.01 734.352C1417.61 733.909 1417.92 733.108 1417.92 731.949V728.625H1417.71C1417.46 729.29 1417.06 729.857 1416.54 730.325C1416.01 730.786 1415.37 731.139 1414.63 731.386C1413.89 731.625 1413.08 731.744 1412.19 731.744C1410.79 731.744 1409.5 731.42 1408.33 730.773C1407.16 730.125 1406.22 729.098 1405.52 727.692C1404.82 726.286 1404.47 724.449 1404.47 722.182C1404.47 719.812 1404.83 717.886 1405.57 716.403C1406.31 714.92 1407.26 713.834 1408.43 713.143C1409.61 712.453 1410.84 712.108 1412.14 712.108C1413.11 712.108 1413.96 712.278 1414.69 712.619C1415.43 712.952 1416.04 713.399 1416.54 713.962C1417.03 714.516 1417.4 715.125 1417.66 715.79H1417.81V712.364H1424.87V731.949C1424.87 733.611 1424.44 735.021 1423.58 736.18C1422.73 737.348 1421.53 738.239 1419.97 738.852C1418.42 739.466 1416.61 739.773 1414.54 739.773ZM1414.8 726.733C1415.44 726.733 1416 726.554 1416.46 726.196C1416.93 725.83 1417.29 725.31 1417.53 724.636C1417.79 723.955 1417.92 723.136 1417.92 722.182C1417.92 721.21 1417.79 720.379 1417.53 719.689C1417.29 718.99 1416.93 718.457 1416.46 718.091C1416 717.716 1415.44 717.528 1414.8 717.528C1414.15 717.528 1413.59 717.716 1413.13 718.091C1412.68 718.457 1412.33 718.99 1412.09 719.689C1411.85 720.379 1411.73 721.21 1411.73 722.182C1411.73 723.153 1411.85 723.98 1412.09 724.662C1412.33 725.335 1412.68 725.851 1413.13 726.209C1413.59 726.558 1414.15 726.733 1414.8 726.733Z" fill="#FAF1C4"/>
<rect x="1015.5" y="294.5" width="276" height="92" rx="7.5" fill="white" fill-opacity="0.5" stroke="#2A1C20" stroke-width="5"/>
<path d="M1078.38 363.636C1074.65 363.636 1071.44 362.924 1068.74 361.5C1066.06 360.061 1063.99 358 1062.54 355.318C1061.1 352.621 1060.38 349.394 1060.38 345.636C1060.38 342.03 1061.11 338.879 1062.56 336.182C1064.01 333.485 1066.07 331.386 1068.72 329.886C1071.37 328.386 1074.5 327.636 1078.11 327.636C1080.74 327.636 1083.13 328.045 1085.26 328.864C1087.4 329.682 1089.23 330.871 1090.74 332.432C1092.26 333.977 1093.42 335.856 1094.24 338.068C1095.06 340.28 1095.47 342.773 1095.47 345.545V348.455H1064.29V341.545H1083.92C1083.91 340.545 1083.65 339.667 1083.15 338.909C1082.67 338.136 1082.01 337.538 1081.17 337.114C1080.36 336.674 1079.42 336.455 1078.38 336.455C1077.36 336.455 1076.43 336.674 1075.58 337.114C1074.73 337.538 1074.05 338.129 1073.54 338.886C1073.04 339.644 1072.77 340.53 1072.74 341.545V349C1072.74 350.121 1072.98 351.121 1073.45 352C1073.92 352.879 1074.59 353.568 1075.47 354.068C1076.35 354.568 1077.41 354.818 1078.65 354.818C1079.51 354.818 1080.3 354.697 1081.01 354.455C1081.74 354.212 1082.36 353.864 1082.88 353.409C1083.39 352.939 1083.77 352.379 1084.01 351.727H1095.47C1095.07 354.152 1094.14 356.258 1092.67 358.045C1091.2 359.818 1089.26 361.197 1086.83 362.182C1084.42 363.152 1081.61 363.636 1078.38 363.636ZM1111.03 328.091L1116.12 338.909L1121.49 328.091H1133.94L1124.58 345.545L1134.39 363H1122.03L1116.12 351.909L1110.39 363H1097.85L1107.76 345.545L1098.49 328.091H1111.03ZM1145.22 363.727C1143.46 363.727 1141.95 363.114 1140.7 361.886C1139.45 360.644 1138.84 359.136 1138.86 357.364C1138.84 355.636 1139.45 354.159 1140.7 352.932C1141.95 351.705 1143.46 351.091 1145.22 351.091C1146.89 351.091 1148.36 351.705 1149.63 352.932C1150.92 354.159 1151.57 355.636 1151.58 357.364C1151.57 358.545 1151.26 359.621 1150.65 360.591C1150.06 361.545 1149.29 362.311 1148.33 362.886C1147.38 363.447 1146.34 363.727 1145.22 363.727ZM1167.43 363V353.909L1184.8 339.545C1185.95 338.591 1186.93 337.697 1187.75 336.864C1188.59 336.015 1189.22 335.144 1189.66 334.25C1190.12 333.356 1190.34 332.364 1190.34 331.273C1190.34 330.076 1190.09 329.053 1189.57 328.205C1189.07 327.356 1188.37 326.705 1187.48 326.25C1186.59 325.78 1185.56 325.545 1184.39 325.545C1183.22 325.545 1182.19 325.78 1181.3 326.25C1180.42 326.72 1179.74 327.409 1179.25 328.318C1178.77 329.227 1178.53 330.333 1178.53 331.636H1166.53C1166.53 328.364 1167.26 325.545 1168.73 323.182C1170.2 320.818 1172.28 319 1174.96 317.727C1177.64 316.455 1180.78 315.818 1184.39 315.818C1188.12 315.818 1191.34 316.417 1194.07 317.614C1196.81 318.795 1198.93 320.462 1200.41 322.614C1201.91 324.765 1202.66 327.288 1202.66 330.182C1202.66 331.97 1202.29 333.75 1201.55 335.523C1200.81 337.28 1199.47 339.227 1197.55 341.364C1195.62 343.5 1192.89 346.045 1189.34 349L1184.98 352.636V352.909H1203.16V363H1167.43ZM1227.45 363.636C1223.87 363.636 1220.7 363.008 1217.92 361.75C1215.17 360.477 1212.99 358.727 1211.4 356.5C1209.82 354.273 1209.02 351.712 1208.99 348.818H1221.26C1221.31 350.424 1221.93 351.705 1223.13 352.659C1224.34 353.614 1225.78 354.091 1227.45 354.091C1228.73 354.091 1229.87 353.818 1230.86 353.273C1231.84 352.712 1232.61 351.924 1233.17 350.909C1233.73 349.894 1234.01 348.712 1233.99 347.364C1234.01 346 1233.73 344.818 1233.17 343.818C1232.61 342.803 1231.84 342.023 1230.86 341.477C1229.87 340.917 1228.73 340.636 1227.45 340.636C1226.11 340.636 1224.88 340.962 1223.74 341.614C1222.62 342.25 1221.79 343.136 1221.26 344.273L1210.17 342.091L1211.99 316.455H1243.26V326.545H1222.36L1221.45 336.818H1221.72C1222.45 335.409 1223.7 334.242 1225.49 333.318C1227.28 332.379 1229.36 331.909 1231.72 331.909C1234.49 331.909 1236.96 332.553 1239.13 333.841C1241.31 335.129 1243.03 336.909 1244.29 339.182C1245.56 341.439 1246.19 344.045 1246.17 347C1246.19 350.242 1245.42 353.121 1243.86 355.636C1242.31 358.136 1240.14 360.098 1237.33 361.523C1234.53 362.932 1231.23 363.636 1227.45 363.636Z" fill="#2A1C20"/>
<rect x="1296.5" y="425.5" width="455" height="92" rx="7.5" fill="white" fill-opacity="0.5" stroke="#2A1C20" stroke-width="5"/>
<rect x="810.5" y="528.5" width="92" height="92" rx="7.5" fill="white" fill-opacity="0.5" stroke="#2A1C20" stroke-width="5"/>
<path d="M1348.6 480L1345.33 466.909H1350.03L1351.53 474.886H1351.64L1353.31 466.909H1357.87L1359.61 474.818H1359.71L1361.15 466.909H1365.85L1362.58 480H1357.5L1355.66 472.977H1355.52L1353.68 480H1348.6ZM1369.6 480L1366.33 466.909H1371.03L1372.53 474.886H1372.64L1374.31 466.909H1378.87L1380.61 474.818H1380.71L1382.15 466.909H1386.85L1383.58 480H1378.5L1376.66 472.977H1376.52L1374.68 480H1369.6ZM1390.6 480L1387.33 466.909H1392.03L1393.53 474.886H1393.64L1395.31 466.909H1399.87L1401.61 474.818H1401.71L1403.15 466.909H1407.85L1404.58 480H1399.5L1397.66 472.977H1397.52L1395.68 480H1390.6ZM1410.06 480.273C1409.4 480.273 1408.83 480.043 1408.36 479.582C1407.9 479.116 1407.67 478.551 1407.67 477.886C1407.67 477.239 1407.9 476.685 1408.36 476.224C1408.83 475.764 1409.4 475.534 1410.06 475.534C1410.68 475.534 1411.23 475.764 1411.71 476.224C1412.19 476.685 1412.44 477.239 1412.44 477.886C1412.44 478.33 1412.32 478.733 1412.1 479.097C1411.87 479.455 1411.58 479.741 1411.23 479.957C1410.87 480.168 1410.48 480.273 1410.06 480.273ZM1417.87 484.909C1417.33 484.909 1416.81 484.866 1416.32 484.781C1415.83 484.702 1415.41 484.591 1415.04 484.449L1416.06 481.108C1416.44 481.244 1416.8 481.332 1417.12 481.372C1417.44 481.412 1417.71 481.389 1417.94 481.304C1418.18 481.219 1418.34 481.057 1418.44 480.818L1418.55 480.58L1413.94 466.909H1418.85L1420.97 475.977H1421.1L1423.25 466.909H1428.19L1423.42 481.091C1423.18 481.812 1422.84 482.46 1422.38 483.034C1421.93 483.614 1421.34 484.071 1420.61 484.406C1419.88 484.741 1418.96 484.909 1417.87 484.909ZM1435.44 480.239C1434.02 480.239 1432.81 479.957 1431.79 479.395C1430.78 478.827 1430.01 478.037 1429.47 477.026C1428.93 476.009 1428.66 474.83 1428.66 473.489C1428.66 472.148 1428.93 470.972 1429.47 469.96C1430.01 468.943 1430.78 468.153 1431.79 467.591C1432.81 467.023 1434.02 466.739 1435.44 466.739C1436.86 466.739 1438.08 467.023 1439.09 467.591C1440.1 468.153 1440.88 468.943 1441.42 469.96C1441.96 470.972 1442.23 472.148 1442.23 473.489C1442.23 474.83 1441.96 476.009 1441.42 477.026C1440.88 478.037 1440.1 478.827 1439.09 479.395C1438.08 479.957 1436.86 480.239 1435.44 480.239ZM1435.48 476.761C1435.87 476.761 1436.22 476.628 1436.51 476.361C1436.8 476.094 1437.02 475.713 1437.18 475.219C1437.34 474.724 1437.42 474.136 1437.42 473.455C1437.42 472.767 1437.34 472.179 1437.18 471.69C1437.02 471.196 1436.8 470.815 1436.51 470.548C1436.22 470.281 1435.87 470.148 1435.48 470.148C1435.06 470.148 1434.69 470.281 1434.39 470.548C1434.09 470.815 1433.86 471.196 1433.7 471.69C1433.54 472.179 1433.46 472.767 1433.46 473.455C1433.46 474.136 1433.54 474.724 1433.7 475.219C1433.86 475.713 1434.09 476.094 1434.39 476.361C1434.69 476.628 1435.06 476.761 1435.48 476.761ZM1452.62 474.273V466.909H1457.33V480H1452.86V477.511H1452.73C1452.44 478.347 1451.94 479 1451.23 479.472C1450.52 479.937 1449.68 480.17 1448.7 480.17C1447.79 480.17 1446.99 479.96 1446.3 479.54C1445.62 479.119 1445.09 478.54 1444.71 477.801C1444.33 477.062 1444.14 476.216 1444.13 475.261V466.909H1448.84V474.273C1448.84 474.92 1449.01 475.429 1449.33 475.798C1449.66 476.168 1450.12 476.352 1450.71 476.352C1451.11 476.352 1451.44 476.27 1451.73 476.105C1452.02 475.935 1452.24 475.696 1452.39 475.389C1452.55 475.077 1452.63 474.705 1452.62 474.273ZM1467.53 466.909V470.318H1458.9V466.909H1467.53ZM1460.57 463.773H1465.28V475.79C1465.28 475.972 1465.31 476.125 1465.37 476.25C1465.43 476.369 1465.53 476.46 1465.66 476.523C1465.79 476.58 1465.96 476.608 1466.16 476.608C1466.31 476.608 1466.47 476.591 1466.66 476.557C1466.85 476.523 1466.99 476.494 1467.08 476.472L1467.77 479.778C1467.56 479.841 1467.25 479.918 1466.86 480.009C1466.48 480.099 1466.02 480.159 1465.48 480.188C1464.4 480.244 1463.5 480.134 1462.76 479.855C1462.03 479.571 1461.48 479.125 1461.11 478.517C1460.74 477.909 1460.56 477.148 1460.57 476.233V463.773ZM1477.94 474.273V466.909H1482.64V480H1478.17V477.511H1478.04C1477.75 478.347 1477.26 479 1476.55 479.472C1475.84 479.937 1474.99 480.17 1474.02 480.17C1473.1 480.17 1472.3 479.96 1471.61 479.54C1470.93 479.119 1470.4 478.54 1470.02 477.801C1469.64 477.062 1469.45 476.216 1469.45 475.261V466.909H1474.15V474.273C1474.16 474.92 1474.32 475.429 1474.65 475.798C1474.98 476.168 1475.44 476.352 1476.03 476.352C1476.42 476.352 1476.76 476.27 1477.04 476.105C1477.33 475.935 1477.55 475.696 1477.71 475.389C1477.86 475.077 1477.94 474.705 1477.94 474.273ZM1484.96 480V462.545H1489.67V469.193H1489.74C1489.91 468.75 1490.16 468.344 1490.49 467.974C1490.82 467.599 1491.23 467.301 1491.71 467.08C1492.2 466.852 1492.77 466.739 1493.42 466.739C1494.28 466.739 1495.1 466.969 1495.88 467.429C1496.67 467.889 1497.3 468.614 1497.79 469.602C1498.29 470.591 1498.53 471.875 1498.53 473.455C1498.53 474.966 1498.3 476.219 1497.83 477.213C1497.36 478.207 1496.73 478.949 1495.95 479.438C1495.17 479.926 1494.32 480.17 1493.39 480.17C1492.77 480.17 1492.22 480.071 1491.74 479.872C1491.26 479.668 1490.85 479.392 1490.51 479.045C1490.18 478.693 1489.92 478.295 1489.74 477.852H1489.64V480H1484.96ZM1489.57 473.455C1489.57 474.091 1489.65 474.642 1489.81 475.108C1489.98 475.568 1490.22 475.926 1490.53 476.182C1490.84 476.432 1491.21 476.557 1491.65 476.557C1492.08 476.557 1492.44 476.435 1492.75 476.19C1493.05 475.94 1493.29 475.585 1493.44 475.125C1493.61 474.659 1493.69 474.102 1493.69 473.455C1493.69 472.807 1493.61 472.253 1493.44 471.793C1493.29 471.327 1493.05 470.972 1492.75 470.727C1492.44 470.477 1492.08 470.352 1491.65 470.352C1491.21 470.352 1490.84 470.477 1490.53 470.727C1490.22 470.972 1489.98 471.327 1489.81 471.793C1489.65 472.253 1489.57 472.807 1489.57 473.455ZM1506.77 480.239C1505.38 480.239 1504.17 479.972 1503.16 479.438C1502.16 478.898 1501.38 478.125 1500.83 477.119C1500.29 476.108 1500.02 474.898 1500.02 473.489C1500.02 472.136 1500.3 470.955 1500.84 469.943C1501.39 468.932 1502.16 468.145 1503.15 467.582C1504.15 467.02 1505.32 466.739 1506.67 466.739C1507.66 466.739 1508.56 466.892 1509.36 467.199C1510.16 467.506 1510.84 467.952 1511.41 468.537C1511.98 469.116 1512.42 469.821 1512.72 470.651C1513.03 471.48 1513.18 472.415 1513.18 473.455V474.545H1501.49V471.955H1508.85C1508.85 471.58 1508.75 471.25 1508.56 470.966C1508.38 470.676 1508.14 470.452 1507.82 470.293C1507.52 470.128 1507.17 470.045 1506.77 470.045C1506.39 470.045 1506.04 470.128 1505.73 470.293C1505.41 470.452 1505.15 470.673 1504.96 470.957C1504.77 471.241 1504.67 471.574 1504.66 471.955V474.75C1504.66 475.17 1504.75 475.545 1504.93 475.875C1505.1 476.205 1505.35 476.463 1505.68 476.651C1506.01 476.838 1506.41 476.932 1506.88 476.932C1507.2 476.932 1507.5 476.886 1507.76 476.795C1508.04 476.705 1508.27 476.574 1508.46 476.403C1508.66 476.227 1508.8 476.017 1508.89 475.773H1513.18C1513.04 476.682 1512.69 477.472 1512.14 478.142C1511.58 478.807 1510.85 479.324 1509.94 479.693C1509.04 480.057 1507.98 480.239 1506.77 480.239ZM1517.66 480.273C1517 480.273 1516.44 480.043 1515.96 479.582C1515.5 479.116 1515.27 478.551 1515.27 477.886C1515.27 477.239 1515.5 476.685 1515.96 476.224C1516.44 475.764 1517 475.534 1517.66 475.534C1518.29 475.534 1518.84 475.764 1519.31 476.224C1519.8 476.685 1520.04 477.239 1520.05 477.886C1520.04 478.33 1519.92 478.733 1519.7 479.097C1519.48 479.455 1519.19 479.741 1518.83 479.957C1518.47 480.168 1518.08 480.273 1517.66 480.273ZM1525.16 480.273C1524.5 480.273 1523.94 480.043 1523.46 479.582C1523 479.116 1522.77 478.551 1522.77 477.886C1522.77 477.239 1523 476.685 1523.46 476.224C1523.94 475.764 1524.5 475.534 1525.16 475.534C1525.79 475.534 1526.34 475.764 1526.81 476.224C1527.3 476.685 1527.54 477.239 1527.55 477.886C1527.54 478.33 1527.42 478.733 1527.2 479.097C1526.98 479.455 1526.69 479.741 1526.33 479.957C1525.97 480.168 1525.58 480.273 1525.16 480.273ZM1532.66 480.273C1532 480.273 1531.44 480.043 1530.96 479.582C1530.5 479.116 1530.27 478.551 1530.27 477.886C1530.27 477.239 1530.5 476.685 1530.96 476.224C1531.44 475.764 1532 475.534 1532.66 475.534C1533.29 475.534 1533.84 475.764 1534.31 476.224C1534.8 476.685 1535.04 477.239 1535.05 477.886C1535.04 478.33 1534.92 478.733 1534.7 479.097C1534.48 479.455 1534.19 479.741 1533.83 479.957C1533.47 480.168 1533.08 480.273 1532.66 480.273ZM1540.16 480.273C1539.5 480.273 1538.94 480.043 1538.46 479.582C1538 479.116 1537.77 478.551 1537.77 477.886C1537.77 477.239 1538 476.685 1538.46 476.224C1538.94 475.764 1539.5 475.534 1540.16 475.534C1540.79 475.534 1541.34 475.764 1541.81 476.224C1542.3 476.685 1542.54 477.239 1542.55 477.886C1542.54 478.33 1542.42 478.733 1542.2 479.097C1541.98 479.455 1541.69 479.741 1541.33 479.957C1540.97 480.168 1540.58 480.273 1540.16 480.273Z" fill="#2A1C20"/>
<path d="M1161.5 901C1161.5 925.389 1139.89 948.269 1103.06 965.197C1066.45 982.025 1015.69 992.5 959.5 992.5C903.305 992.5 852.552 982.025 815.941 965.197C779.114 948.269 757.5 925.389 757.5 901C757.5 876.611 779.114 853.731 815.941 836.803C852.552 819.975 903.305 809.5 959.5 809.5C1015.69 809.5 1066.45 819.975 1103.06 836.803C1139.89 853.731 1161.5 876.611 1161.5 901Z" fill="#2A1C20" stroke="#2E2A1F" stroke-width="5"/>
<circle cx="1154" cy="717" r="26.25" fill="#E9CB7D" stroke="#D3728C" stroke-width="3.5"/>
<circle cx="1496" cy="717" r="26.25" fill="#E9CB7D" stroke="#D3728C" stroke-width="3.5"/>
<path d="M859.682 878C859.886 875.75 859.341 873.989 858.045 872.716C856.75 871.42 854.568 870.773 851.5 870.773C849.545 870.773 847.909 871 846.591 871.455C845.295 871.909 844.284 872.534 843.557 873.33C842.852 874.125 842.409 875.045 842.227 876.091C842.023 876.909 842.034 877.659 842.261 878.341C842.511 879 842.977 879.602 843.659 880.148C844.364 880.693 845.284 881.182 846.42 881.614C847.58 882.045 848.955 882.432 850.545 882.773L856 884C859.727 884.818 862.852 885.898 865.375 887.239C867.92 888.557 869.92 890.125 871.375 891.943C872.83 893.761 873.784 895.795 874.239 898.045C874.716 900.295 874.727 902.75 874.273 905.409C873.5 910 871.716 913.886 868.92 917.068C866.125 920.25 862.477 922.67 857.977 924.33C853.477 925.989 848.273 926.818 842.364 926.818C836.318 926.818 831.182 925.92 826.955 924.125C822.75 922.307 819.705 919.534 817.818 915.807C815.955 912.057 815.5 907.273 816.455 901.455H834.455C834.182 903.591 834.409 905.386 835.136 906.841C835.864 908.295 837.034 909.398 838.648 910.148C840.261 910.898 842.273 911.273 844.682 911.273C846.727 911.273 848.477 911.023 849.932 910.523C851.386 910.023 852.534 909.33 853.375 908.443C854.216 907.557 854.727 906.545 854.909 905.409C855.091 904.364 854.909 903.432 854.364 902.614C853.818 901.795 852.83 901.057 851.398 900.398C849.966 899.739 848 899.136 845.5 898.591L838.818 897.091C832.886 895.727 828.409 893.477 825.386 890.341C822.364 887.205 821.295 882.909 822.182 877.455C822.909 873 824.739 869.114 827.67 865.795C830.625 862.455 834.375 859.864 838.92 858.023C843.489 856.159 848.545 855.227 854.091 855.227C859.727 855.227 864.443 856.17 868.239 858.057C872.057 859.943 874.795 862.591 876.455 866C878.136 869.409 878.591 873.409 877.818 878H859.682ZM918.301 873.636L915.983 887.273H881.483L883.801 873.636H918.301ZM892.528 861.091H911.347L903.369 909.159C903.256 909.886 903.278 910.5 903.438 911C903.597 911.477 903.915 911.841 904.392 912.091C904.892 912.318 905.551 912.432 906.369 912.432C906.915 912.432 907.585 912.364 908.381 912.227C909.176 912.068 909.778 911.955 910.188 911.886L910.733 925.114C909.778 925.386 908.494 925.693 906.881 926.034C905.29 926.398 903.438 926.636 901.324 926.75C896.915 926.955 893.324 926.489 890.551 925.352C887.801 924.216 885.892 922.443 884.824 920.034C883.778 917.602 883.597 914.568 884.278 910.932L892.528 861.091ZM931.707 926.818C928.389 926.818 925.537 926.273 923.151 925.182C920.787 924.068 919.06 922.386 917.969 920.136C916.901 917.864 916.662 915 917.253 911.545C917.73 908.682 918.628 906.239 919.946 904.216C921.264 902.193 922.901 900.534 924.855 899.239C926.81 897.943 929.003 896.955 931.435 896.273C933.889 895.568 936.48 895.114 939.207 894.909C942.162 894.682 944.56 894.398 946.401 894.057C948.241 893.716 949.616 893.25 950.526 892.659C951.435 892.068 951.98 891.273 952.162 890.273V890.136C952.366 888.773 952.003 887.727 951.071 887C950.162 886.273 948.889 885.909 947.253 885.909C945.48 885.909 943.946 886.295 942.651 887.068C941.378 887.841 940.503 889.045 940.026 890.682H922.707C923.435 887.5 924.923 884.568 927.173 881.886C929.446 879.182 932.457 877.023 936.207 875.409C939.98 873.773 944.48 872.955 949.707 872.955C953.435 872.955 956.707 873.398 959.526 874.284C962.344 875.148 964.673 876.364 966.514 877.932C968.378 879.477 969.685 881.295 970.435 883.386C971.207 885.455 971.389 887.705 970.98 890.136L964.98 926H947.389L948.616 918.636H948.207C946.844 920.591 945.31 922.17 943.605 923.375C941.923 924.58 940.082 925.455 938.082 926C936.105 926.545 933.98 926.818 931.707 926.818ZM939.889 914.955C941.298 914.955 942.685 914.659 944.048 914.068C945.412 913.477 946.582 912.625 947.56 911.511C948.537 910.398 949.162 909.045 949.435 907.455L950.116 903.091C949.616 903.295 949.06 903.489 948.446 903.67C947.855 903.83 947.23 903.989 946.571 904.148C945.935 904.307 945.253 904.455 944.526 904.591C943.821 904.727 943.094 904.864 942.344 905C940.844 905.227 939.582 905.602 938.56 906.125C937.537 906.625 936.741 907.25 936.173 908C935.605 908.727 935.253 909.545 935.116 910.455C934.912 911.886 935.241 913 936.105 913.795C936.991 914.568 938.253 914.955 939.889 914.955ZM973.972 926L982.699 873.636H1000.97L999.335 883.591H999.881C1001.45 879.909 1003.41 877.216 1005.78 875.511C1008.14 873.807 1010.72 872.955 1013.52 872.955C1014.34 872.955 1015.12 873.023 1015.87 873.159C1016.64 873.273 1017.4 873.432 1018.15 873.636L1015.43 889.727C1014.54 889.386 1013.44 889.148 1012.12 889.011C1010.8 888.852 1009.63 888.773 1008.61 888.773C1006.79 888.773 1005.09 889.193 1003.49 890.034C1001.93 890.852 1000.59 892.011 999.472 893.511C998.381 894.989 997.653 896.727 997.29 898.727L992.79 926H973.972ZM1057.71 873.636L1055.39 887.273H1020.89L1023.21 873.636H1057.71ZM1031.93 861.091H1050.75L1042.78 909.159C1042.66 909.886 1042.68 910.5 1042.84 911C1043 911.477 1043.32 911.841 1043.8 912.091C1044.3 912.318 1044.96 912.432 1045.78 912.432C1046.32 912.432 1046.99 912.364 1047.79 912.227C1048.58 912.068 1049.18 911.955 1049.59 911.886L1050.14 925.114C1049.18 925.386 1047.9 925.693 1046.29 926.034C1044.7 926.398 1042.84 926.636 1040.73 926.75C1036.32 926.955 1032.73 926.489 1029.96 925.352C1027.21 924.216 1025.3 922.443 1024.23 920.034C1023.18 917.602 1023 914.568 1023.68 910.932L1031.93 861.091ZM1089.93 856.182L1080.25 904.182H1064.84L1070.98 856.182H1089.93ZM1069.48 927.091C1066.82 927.091 1064.65 926.17 1062.97 924.33C1061.31 922.466 1060.61 920.205 1060.89 917.545C1061.16 914.955 1062.33 912.739 1064.4 910.898C1066.49 909.057 1068.86 908.136 1071.52 908.136C1074.05 908.136 1076.15 909.057 1077.83 910.898C1079.53 912.739 1080.25 914.955 1079.98 917.545C1079.8 919.318 1079.17 920.932 1078.1 922.386C1077.06 923.818 1075.76 924.966 1074.22 925.83C1072.69 926.67 1071.11 927.091 1069.48 927.091Z" fill="#F1CE73"/>
<defs>
<radialGradient id="paint0_radial_234_353" cx="0" cy="0" r="1" gradientUnits="userSpaceOnUse" gradientTransform="translate(960 540) rotate(90) scale(540 960)">
<stop stop-color="#262B1D"/>
<stop offset="1" stop-color="#171820"/>
</radialGradient>
</defs>
</svg>
