<svg width="1920" height="1080" viewBox="0 0 1920 1080" fill="none" xmlns="http://www.w3.org/2000/svg">
<rect width="1920" height="1080" fill="url(#paint0_radial_234_371)"/>
<path d="M636.682 147.364H617.455C617.318 145.773 616.955 144.33 616.364 143.034C615.795 141.739 615 140.625 613.977 139.693C612.977 138.739 611.761 138.011 610.33 137.511C608.898 136.989 607.273 136.727 605.455 136.727C602.273 136.727 599.58 137.5 597.375 139.045C595.193 140.591 593.534 142.807 592.398 145.693C591.284 148.58 590.727 152.045 590.727 156.091C590.727 160.364 591.295 163.943 592.432 166.83C593.591 169.693 595.261 171.852 597.443 173.307C599.625 174.739 602.25 175.455 605.318 175.455C607.068 175.455 608.636 175.239 610.023 174.807C611.409 174.352 612.614 173.705 613.636 172.864C614.659 172.023 615.489 171.011 616.125 169.83C616.784 168.625 617.227 167.273 617.455 165.773L636.682 165.909C636.455 168.864 635.625 171.875 634.193 174.943C632.761 177.989 630.727 180.807 628.091 183.398C625.477 185.966 622.239 188.034 618.375 189.602C614.511 191.17 610.023 191.955 604.909 191.955C598.5 191.955 592.75 190.58 587.659 187.83C582.591 185.08 578.58 181.034 575.625 175.693C572.693 170.352 571.227 163.818 571.227 156.091C571.227 148.318 572.727 141.773 575.727 136.455C578.727 131.114 582.773 127.08 587.864 124.352C592.955 121.602 598.636 120.227 604.909 120.227C609.318 120.227 613.375 120.83 617.08 122.034C620.784 123.239 624.034 125 626.83 127.318C629.625 129.614 631.875 132.443 633.58 135.807C635.284 139.17 636.318 143.023 636.682 147.364ZM660.145 191.818C656.804 191.818 653.849 191.273 651.281 190.182C648.736 189.068 646.736 187.386 645.281 185.136C643.827 182.886 643.099 180.023 643.099 176.545C643.099 173.682 643.588 171.239 644.565 169.216C645.543 167.17 646.906 165.5 648.656 164.205C650.406 162.909 652.44 161.92 654.759 161.239C657.099 160.557 659.622 160.114 662.327 159.909C665.259 159.682 667.611 159.409 669.384 159.091C671.179 158.75 672.474 158.284 673.27 157.693C674.065 157.08 674.463 156.273 674.463 155.273V155.136C674.463 153.773 673.94 152.727 672.895 152C671.849 151.273 670.509 150.909 668.872 150.909C667.077 150.909 665.611 151.307 664.474 152.102C663.361 152.875 662.69 154.068 662.463 155.682H645.145C645.372 152.5 646.384 149.568 648.179 146.886C649.997 144.182 652.645 142.023 656.122 140.409C659.599 138.773 663.94 137.955 669.145 137.955C672.895 137.955 676.259 138.398 679.236 139.284C682.213 140.148 684.747 141.364 686.838 142.932C688.929 144.477 690.52 146.295 691.611 148.386C692.724 150.455 693.281 152.705 693.281 155.136V191H675.69V183.636H675.281C674.236 185.591 672.963 187.17 671.463 188.375C669.986 189.58 668.293 190.455 666.384 191C664.497 191.545 662.418 191.818 660.145 191.818ZM666.281 179.955C667.713 179.955 669.054 179.659 670.304 179.068C671.577 178.477 672.611 177.625 673.406 176.511C674.202 175.398 674.599 174.045 674.599 172.455V168.091C674.099 168.295 673.565 168.489 672.997 168.67C672.452 168.852 671.861 169.023 671.224 169.182C670.611 169.341 669.952 169.489 669.247 169.625C668.565 169.761 667.849 169.886 667.099 170C665.645 170.227 664.452 170.602 663.52 171.125C662.611 171.625 661.929 172.25 661.474 173C661.043 173.727 660.827 174.545 660.827 175.455C660.827 176.909 661.338 178.023 662.361 178.795C663.384 179.568 664.69 179.955 666.281 179.955ZM721.227 191.682C717.5 191.682 714.068 190.705 710.932 188.75C707.818 186.795 705.318 183.83 703.432 179.852C701.568 175.875 700.636 170.864 700.636 164.818C700.636 158.5 701.614 153.364 703.568 149.409C705.545 145.455 708.091 142.557 711.205 140.716C714.341 138.875 717.636 137.955 721.091 137.955C723.682 137.955 725.955 138.409 727.909 139.318C729.864 140.205 731.5 141.398 732.818 142.898C734.136 144.375 735.136 146 735.818 147.773H736.091V121.182H754.909V191H736.227V182.409H735.818C735.091 184.182 734.045 185.773 732.682 187.182C731.341 188.568 729.705 189.67 727.773 190.489C725.864 191.284 723.682 191.682 721.227 191.682ZM728.182 177.227C729.909 177.227 731.386 176.727 732.614 175.727C733.864 174.705 734.818 173.273 735.477 171.432C736.159 169.568 736.5 167.364 736.5 164.818C736.5 162.227 736.159 160.011 735.477 158.17C734.818 156.307 733.864 154.886 732.614 153.909C731.386 152.909 729.909 152.409 728.182 152.409C726.455 152.409 724.977 152.909 723.75 153.909C722.545 154.886 721.614 156.307 720.955 158.17C720.318 160.011 720 162.227 720 164.818C720 167.409 720.318 169.636 720.955 171.5C721.614 173.341 722.545 174.761 723.75 175.761C724.977 176.739 726.455 177.227 728.182 177.227ZM789.239 191.955C783.648 191.955 778.83 190.886 774.784 188.75C770.761 186.591 767.659 183.5 765.477 179.477C763.318 175.432 762.239 170.591 762.239 164.955C762.239 159.545 763.33 154.818 765.511 150.773C767.693 146.727 770.773 143.58 774.75 141.33C778.727 139.08 783.42 137.955 788.83 137.955C792.784 137.955 796.364 138.568 799.568 139.795C802.773 141.023 805.511 142.807 807.784 145.148C810.057 147.466 811.807 150.284 813.034 153.602C814.261 156.92 814.875 160.659 814.875 164.818V169.182H768.102V158.818H797.557C797.534 157.318 797.148 156 796.398 154.864C795.67 153.705 794.682 152.807 793.432 152.17C792.205 151.511 790.807 151.182 789.239 151.182C787.716 151.182 786.318 151.511 785.045 152.17C783.773 152.807 782.75 153.693 781.977 154.83C781.227 155.966 780.83 157.295 780.784 158.818V170C780.784 171.682 781.136 173.182 781.841 174.5C782.545 175.818 783.557 176.852 784.875 177.602C786.193 178.352 787.784 178.727 789.648 178.727C790.943 178.727 792.125 178.545 793.193 178.182C794.284 177.818 795.216 177.295 795.989 176.614C796.761 175.909 797.33 175.068 797.693 174.091H814.875C814.284 177.727 812.886 180.886 810.682 183.568C808.477 186.227 805.557 188.295 801.92 189.773C798.307 191.227 794.08 191.955 789.239 191.955ZM841.372 161.545V191H822.554V138.636H840.418V148.591H840.963C842.099 145.273 844.099 142.67 846.963 140.784C849.849 138.898 853.213 137.955 857.054 137.955C860.759 137.955 863.974 138.807 866.702 140.511C869.452 142.193 871.577 144.511 873.077 147.466C874.599 150.42 875.349 153.795 875.327 157.591V191H856.509V161.545C856.531 158.955 855.872 156.92 854.531 155.443C853.213 153.966 851.372 153.227 849.009 153.227C847.463 153.227 846.111 153.568 844.952 154.25C843.815 154.909 842.94 155.864 842.327 157.114C841.713 158.341 841.395 159.818 841.372 161.545ZM909.844 191.955C904.162 191.955 899.298 190.83 895.253 188.58C891.207 186.307 888.105 183.148 885.946 179.102C883.787 175.034 882.707 170.318 882.707 164.955C882.707 159.591 883.787 154.886 885.946 150.841C888.105 146.773 891.207 143.614 895.253 141.364C899.298 139.091 904.162 137.955 909.844 137.955C914.98 137.955 919.423 138.886 923.173 140.75C926.946 142.591 929.866 145.205 931.935 148.591C934.003 151.955 935.048 155.909 935.071 160.455H917.616C917.366 157.705 916.571 155.614 915.23 154.182C913.912 152.727 912.207 152 910.116 152C908.48 152 907.048 152.477 905.821 153.432C904.594 154.364 903.639 155.784 902.957 157.693C902.276 159.58 901.935 161.955 901.935 164.818C901.935 167.682 902.276 170.068 902.957 171.977C903.639 173.864 904.594 175.284 905.821 176.239C907.048 177.17 908.48 177.636 910.116 177.636C911.503 177.636 912.73 177.318 913.798 176.682C914.866 176.023 915.73 175.068 916.389 173.818C917.071 172.545 917.48 171 917.616 169.182H935.071C935.003 173.795 933.946 177.818 931.901 181.25C929.855 184.659 926.957 187.295 923.207 189.159C919.48 191.023 915.026 191.955 909.844 191.955ZM967.926 191.955C962.335 191.955 957.517 190.886 953.472 188.75C949.449 186.591 946.347 183.5 944.165 179.477C942.006 175.432 940.926 170.591 940.926 164.955C940.926 159.545 942.017 154.818 944.199 150.773C946.381 146.727 949.46 143.58 953.438 141.33C957.415 139.08 962.108 137.955 967.517 137.955C971.472 137.955 975.051 138.568 978.256 139.795C981.46 141.023 984.199 142.807 986.472 145.148C988.744 147.466 990.494 150.284 991.722 153.602C992.949 156.92 993.562 160.659 993.562 164.818V169.182H946.79V158.818H976.244C976.222 157.318 975.835 156 975.085 154.864C974.358 153.705 973.369 152.807 972.119 152.17C970.892 151.511 969.494 151.182 967.926 151.182C966.403 151.182 965.006 151.511 963.733 152.17C962.46 152.807 961.438 153.693 960.665 154.83C959.915 155.966 959.517 157.295 959.472 158.818V170C959.472 171.682 959.824 173.182 960.528 174.5C961.233 175.818 962.244 176.852 963.562 177.602C964.881 178.352 966.472 178.727 968.335 178.727C969.631 178.727 970.813 178.545 971.881 178.182C972.972 177.818 973.903 177.295 974.676 176.614C975.449 175.909 976.017 175.068 976.381 174.091H993.562C992.972 177.727 991.574 180.886 989.369 183.568C987.165 186.227 984.244 188.295 980.608 189.773C976.994 191.227 972.767 191.955 967.926 191.955ZM1085.28 147.364H1066.05C1065.91 145.773 1065.55 144.33 1064.96 143.034C1064.39 141.739 1063.59 140.625 1062.57 139.693C1061.57 138.739 1060.36 138.011 1058.92 137.511C1057.49 136.989 1055.87 136.727 1054.05 136.727C1050.87 136.727 1048.17 137.5 1045.97 139.045C1043.79 140.591 1042.13 142.807 1040.99 145.693C1039.88 148.58 1039.32 152.045 1039.32 156.091C1039.32 160.364 1039.89 163.943 1041.03 166.83C1042.18 169.693 1043.86 171.852 1046.04 173.307C1048.22 174.739 1050.84 175.455 1053.91 175.455C1055.66 175.455 1057.23 175.239 1058.62 174.807C1060 174.352 1061.21 173.705 1062.23 172.864C1063.25 172.023 1064.08 171.011 1064.72 169.83C1065.38 168.625 1065.82 167.273 1066.05 165.773L1085.28 165.909C1085.05 168.864 1084.22 171.875 1082.79 174.943C1081.36 177.989 1079.32 180.807 1076.68 183.398C1074.07 185.966 1070.83 188.034 1066.97 189.602C1063.11 191.17 1058.62 191.955 1053.5 191.955C1047.09 191.955 1041.34 190.58 1036.25 187.83C1031.18 185.08 1027.17 181.034 1024.22 175.693C1021.29 170.352 1019.82 163.818 1019.82 156.091C1019.82 148.318 1021.32 141.773 1024.32 136.455C1027.32 131.114 1031.37 127.08 1036.46 124.352C1041.55 121.602 1047.23 120.227 1053.5 120.227C1057.91 120.227 1061.97 120.83 1065.67 122.034C1069.38 123.239 1072.63 125 1075.42 127.318C1078.22 129.614 1080.47 132.443 1082.17 135.807C1083.88 139.17 1084.91 143.023 1085.28 147.364ZM1112.97 121.182V191H1094.15V121.182H1112.97ZM1147.78 191.955C1142.1 191.955 1137.24 190.83 1133.19 188.58C1129.14 186.307 1126.04 183.148 1123.88 179.102C1121.72 175.034 1120.64 170.318 1120.64 164.955C1120.64 159.591 1121.72 154.886 1123.88 150.841C1126.04 146.773 1129.14 143.614 1133.19 141.364C1137.24 139.091 1142.1 137.955 1147.78 137.955C1153.46 137.955 1158.33 139.091 1162.37 141.364C1166.42 143.614 1169.52 146.773 1171.68 150.841C1173.84 154.886 1174.92 159.591 1174.92 164.955C1174.92 170.318 1173.84 175.034 1171.68 179.102C1169.52 183.148 1166.42 186.307 1162.37 188.58C1158.33 190.83 1153.46 191.955 1147.78 191.955ZM1147.92 178.045C1149.51 178.045 1150.88 177.511 1152.04 176.443C1153.2 175.375 1154.1 173.852 1154.74 171.875C1155.37 169.898 1155.69 167.545 1155.69 164.818C1155.69 162.068 1155.37 159.716 1154.74 157.761C1154.1 155.784 1153.2 154.261 1152.04 153.193C1150.88 152.125 1149.51 151.591 1147.92 151.591C1146.24 151.591 1144.79 152.125 1143.59 153.193C1142.38 154.261 1141.46 155.784 1140.83 157.761C1140.19 159.716 1139.87 162.068 1139.87 164.818C1139.87 167.545 1140.19 169.898 1140.83 171.875C1141.46 173.852 1142.38 175.375 1143.59 176.443C1144.79 177.511 1146.24 178.045 1147.92 178.045ZM1207.78 191.955C1202.1 191.955 1197.24 190.83 1193.19 188.58C1189.14 186.307 1186.04 183.148 1183.88 179.102C1181.72 175.034 1180.64 170.318 1180.64 164.955C1180.64 159.591 1181.72 154.886 1183.88 150.841C1186.04 146.773 1189.14 143.614 1193.19 141.364C1197.24 139.091 1202.1 137.955 1207.78 137.955C1212.92 137.955 1217.36 138.886 1221.11 140.75C1224.88 142.591 1227.8 145.205 1229.87 148.591C1231.94 151.955 1232.99 155.909 1233.01 160.455H1215.55C1215.3 157.705 1214.51 155.614 1213.17 154.182C1211.85 152.727 1210.14 152 1208.05 152C1206.42 152 1204.99 152.477 1203.76 153.432C1202.53 154.364 1201.58 155.784 1200.89 157.693C1200.21 159.58 1199.87 161.955 1199.87 164.818C1199.87 167.682 1200.21 170.068 1200.89 171.977C1201.58 173.864 1202.53 175.284 1203.76 176.239C1204.99 177.17 1206.42 177.636 1208.05 177.636C1209.44 177.636 1210.67 177.318 1211.74 176.682C1212.8 176.023 1213.67 175.068 1214.33 173.818C1215.01 172.545 1215.42 171 1215.55 169.182H1233.01C1232.94 173.795 1231.88 177.818 1229.84 181.25C1227.79 184.659 1224.89 187.295 1221.14 189.159C1217.42 191.023 1212.96 191.955 1207.78 191.955ZM1257.68 178.591L1257.82 156.227H1260.27L1272.95 138.636H1294.09L1272.82 166.045H1267.5L1257.68 178.591ZM1240.77 191V121.182H1259.59V191H1240.77ZM1273.09 191L1261.09 170.273L1273.36 156.909L1294.64 191H1273.09Z" fill="#F1CE73"/>
<path d="M1207.5 621C1207.5 757.69 1096.69 868.5 960 868.5C823.31 868.5 712.5 757.69 712.5 621C712.5 484.31 823.31 373.5 960 373.5C1096.69 373.5 1207.5 484.31 1207.5 621Z" fill="#834B5A" stroke="#FDE047" stroke-width="5"/>
<path d="M75.5 939V915.727H85.5455C87.2727 915.727 88.7841 916.068 90.0795 916.75C91.375 917.432 92.3826 918.39 93.1023 919.625C93.822 920.86 94.1818 922.303 94.1818 923.955C94.1818 925.621 93.8106 927.064 93.0682 928.284C92.3333 929.504 91.2992 930.443 89.9659 931.102C88.6402 931.761 87.0909 932.091 85.3182 932.091H79.3182V927.182H84.0455C84.7879 927.182 85.4205 927.053 85.9432 926.795C86.4735 926.53 86.8788 926.155 87.1591 925.67C87.447 925.186 87.5909 924.614 87.5909 923.955C87.5909 923.288 87.447 922.72 87.1591 922.25C86.8788 921.773 86.4735 921.409 85.9432 921.159C85.4205 920.902 84.7879 920.773 84.0455 920.773H81.8182V939H75.5ZM99.6392 939H92.821L100.503 915.727H109.139L116.821 939H110.003L104.912 922.136H104.73L99.6392 939ZM98.3665 929.818H111.185V934.545H98.3665V929.818ZM132.835 915.727H139.153V930.636C139.153 932.409 138.729 933.943 137.881 935.239C137.04 936.527 135.866 937.523 134.358 938.227C132.85 938.924 131.1 939.273 129.108 939.273C127.1 939.273 125.343 938.924 123.835 938.227C122.328 937.523 121.153 936.527 120.312 935.239C119.479 933.943 119.062 932.409 119.062 930.636V915.727H125.381V930.091C125.381 930.811 125.54 931.455 125.858 932.023C126.176 932.583 126.616 933.023 127.176 933.341C127.744 933.659 128.388 933.818 129.108 933.818C129.835 933.818 130.479 933.659 131.04 933.341C131.6 933.023 132.04 932.583 132.358 932.023C132.676 931.455 132.835 930.811 132.835 930.091V915.727ZM154.702 923C154.641 922.242 154.357 921.652 153.849 921.227C153.349 920.803 152.588 920.591 151.565 920.591C150.914 920.591 150.38 920.67 149.963 920.83C149.554 920.981 149.251 921.189 149.054 921.455C148.857 921.72 148.755 922.023 148.747 922.364C148.732 922.644 148.781 922.898 148.895 923.125C149.016 923.345 149.205 923.545 149.463 923.727C149.721 923.902 150.05 924.061 150.452 924.205C150.853 924.348 151.33 924.477 151.884 924.591L153.793 925C155.08 925.273 156.183 925.633 157.099 926.08C158.016 926.527 158.766 927.053 159.349 927.659C159.933 928.258 160.361 928.932 160.634 929.682C160.914 930.432 161.058 931.25 161.065 932.136C161.058 933.667 160.675 934.962 159.918 936.023C159.16 937.083 158.077 937.89 156.668 938.443C155.266 938.996 153.58 939.273 151.611 939.273C149.588 939.273 147.823 938.973 146.315 938.375C144.815 937.777 143.649 936.856 142.815 935.614C141.99 934.364 141.573 932.765 141.565 930.818H147.565C147.603 931.53 147.781 932.129 148.099 932.614C148.418 933.098 148.865 933.466 149.44 933.716C150.024 933.966 150.717 934.091 151.52 934.091C152.194 934.091 152.759 934.008 153.213 933.841C153.668 933.674 154.012 933.443 154.247 933.148C154.482 932.852 154.603 932.515 154.611 932.136C154.603 931.78 154.486 931.47 154.259 931.205C154.039 930.932 153.675 930.689 153.168 930.477C152.66 930.258 151.974 930.053 151.111 929.864L148.793 929.364C146.732 928.917 145.107 928.17 143.918 927.125C142.736 926.072 142.149 924.636 142.156 922.818C142.149 921.341 142.543 920.049 143.338 918.943C144.141 917.83 145.251 916.962 146.668 916.341C148.092 915.72 149.724 915.409 151.565 915.409C153.444 915.409 155.069 915.723 156.44 916.352C157.812 916.981 158.868 917.867 159.611 919.011C160.361 920.148 160.74 921.477 160.747 923H154.702ZM163.469 939V915.727H180.241V920.818H169.787V924.818H179.378V929.909H169.787V933.909H180.196V939H163.469Z" fill="#DCCFAE"/>
<path d="M75.5 984.727H83.3636L88.7727 997.909H89.0455L94.4545 984.727H102.318V1008H96.1364V994.545H95.9545L90.7727 1007.82H87.0455L81.8636 994.455H81.6818V1008H75.5V984.727ZM119.085 984.727H125.403V999.636C125.403 1001.41 124.979 1002.94 124.131 1004.24C123.29 1005.53 122.116 1006.52 120.608 1007.23C119.1 1007.92 117.35 1008.27 115.358 1008.27C113.35 1008.27 111.593 1007.92 110.085 1007.23C108.578 1006.52 107.403 1005.53 106.562 1004.24C105.729 1002.94 105.312 1001.41 105.312 999.636V984.727H111.631V999.091C111.631 999.811 111.79 1000.45 112.108 1001.02C112.426 1001.58 112.866 1002.02 113.426 1002.34C113.994 1002.66 114.638 1002.82 115.358 1002.82C116.085 1002.82 116.729 1002.66 117.29 1002.34C117.85 1002.02 118.29 1001.58 118.608 1001.02C118.926 1000.45 119.085 999.811 119.085 999.091V984.727ZM127.77 989.818V984.727H147.997V989.818H140.997V1008H134.77V989.818H127.77ZM150.375 1008V984.727H167.148V989.818H156.693V993.818H166.284V998.909H156.693V1002.91H167.102V1008H150.375Z" fill="#DCCFAE"/>
<path d="M814.636 653V639.364L840.682 617.818C842.409 616.386 843.886 615.045 845.114 613.795C846.364 612.523 847.318 611.216 847.977 609.875C848.659 608.534 849 607.045 849 605.409C849 603.614 848.614 602.08 847.841 600.807C847.091 599.534 846.045 598.557 844.705 597.875C843.364 597.17 841.818 596.818 840.068 596.818C838.318 596.818 836.773 597.17 835.432 597.875C834.114 598.58 833.091 599.614 832.364 600.977C831.636 602.341 831.273 604 831.273 605.955H813.273C813.273 601.045 814.375 596.818 816.58 593.273C818.784 589.727 821.898 587 825.92 585.091C829.943 583.182 834.659 582.227 840.068 582.227C845.659 582.227 850.5 583.125 854.591 584.92C858.705 586.693 861.875 589.193 864.102 592.42C866.352 595.648 867.477 599.432 867.477 603.773C867.477 606.455 866.92 609.125 865.807 611.784C864.693 614.42 862.693 617.341 859.807 620.545C856.92 623.75 852.818 627.568 847.5 632L840.955 637.455V637.864H868.227V653H814.636ZM903.972 653.955C898.472 653.955 893.585 653.011 889.312 651.125C885.062 649.216 881.722 646.591 879.29 643.25C876.858 639.909 875.631 636.068 875.608 631.727H894.699C894.722 633.068 895.131 634.273 895.926 635.341C896.744 636.386 897.858 637.205 899.267 637.795C900.676 638.386 902.29 638.682 904.108 638.682C905.858 638.682 907.403 638.375 908.744 637.761C910.085 637.125 911.131 636.25 911.881 635.136C912.631 634.023 912.994 632.75 912.972 631.318C912.994 629.909 912.563 628.659 911.676 627.568C910.813 626.477 909.597 625.625 908.028 625.011C906.46 624.398 904.653 624.091 902.608 624.091H895.517V611H902.608C904.494 611 906.153 610.693 907.585 610.08C909.04 609.466 910.165 608.614 910.96 607.523C911.778 606.432 912.176 605.182 912.153 603.773C912.176 602.409 911.847 601.205 911.165 600.159C910.483 599.114 909.528 598.295 908.301 597.705C907.097 597.114 905.699 596.818 904.108 596.818C902.381 596.818 900.835 597.125 899.472 597.739C898.131 598.352 897.074 599.205 896.301 600.295C895.528 601.386 895.131 602.636 895.108 604.045H876.972C876.994 599.773 878.165 596 880.483 592.727C882.824 589.455 886.028 586.886 890.097 585.023C894.165 583.159 898.835 582.227 904.108 582.227C909.267 582.227 913.824 583.102 917.778 584.852C921.756 586.602 924.858 589.011 927.085 592.08C929.335 595.125 930.449 598.614 930.426 602.545C930.472 606.455 929.131 609.659 926.403 612.159C923.699 614.659 920.267 616.136 916.108 616.591V617.136C921.744 617.75 925.983 619.477 928.824 622.318C931.665 625.136 933.063 628.682 933.017 632.955C933.04 637.045 931.813 640.67 929.335 643.83C926.881 646.989 923.46 649.466 919.074 651.261C914.71 653.057 909.676 653.955 903.972 653.955ZM949.969 654.091C947.332 654.091 945.071 653.17 943.185 651.33C941.321 649.466 940.401 647.205 940.423 644.545C940.401 641.955 941.321 639.739 943.185 637.898C945.071 636.057 947.332 635.136 949.969 635.136C952.469 635.136 954.673 636.057 956.582 637.898C958.514 639.739 959.491 641.955 959.514 644.545C959.491 646.318 959.026 647.932 958.116 649.386C957.23 650.818 956.071 651.966 954.639 652.83C953.207 653.67 951.651 654.091 949.969 654.091ZM994.909 653.955C989.409 653.955 984.523 653.011 980.25 651.125C976 649.216 972.659 646.591 970.227 643.25C967.795 639.909 966.568 636.068 966.545 631.727H985.636C985.659 633.068 986.068 634.273 986.864 635.341C987.682 636.386 988.795 637.205 990.205 637.795C991.614 638.386 993.227 638.682 995.045 638.682C996.795 638.682 998.341 638.375 999.682 637.761C1001.02 637.125 1002.07 636.25 1002.82 635.136C1003.57 634.023 1003.93 632.75 1003.91 631.318C1003.93 629.909 1003.5 628.659 1002.61 627.568C1001.75 626.477 1000.53 625.625 998.966 625.011C997.398 624.398 995.591 624.091 993.545 624.091H986.455V611H993.545C995.432 611 997.091 610.693 998.523 610.08C999.977 609.466 1001.1 608.614 1001.9 607.523C1002.72 606.432 1003.11 605.182 1003.09 603.773C1003.11 602.409 1002.78 601.205 1002.1 600.159C1001.42 599.114 1000.47 598.295 999.239 597.705C998.034 597.114 996.636 596.818 995.045 596.818C993.318 596.818 991.773 597.125 990.409 597.739C989.068 598.352 988.011 599.205 987.239 600.295C986.466 601.386 986.068 602.636 986.045 604.045H967.909C967.932 599.773 969.102 596 971.42 592.727C973.761 589.455 976.966 586.886 981.034 585.023C985.102 583.159 989.773 582.227 995.045 582.227C1000.2 582.227 1004.76 583.102 1008.72 584.852C1012.69 586.602 1015.8 589.011 1018.02 592.08C1020.27 595.125 1021.39 598.614 1021.36 602.545C1021.41 606.455 1020.07 609.659 1017.34 612.159C1014.64 614.659 1011.2 616.136 1007.05 616.591V617.136C1012.68 617.75 1016.92 619.477 1019.76 622.318C1022.6 625.136 1024 628.682 1023.95 632.955C1023.98 637.045 1022.75 640.67 1020.27 643.83C1017.82 646.989 1014.4 649.466 1010.01 651.261C1005.65 653.057 1000.61 653.955 994.909 653.955ZM1035.55 653L1062.96 598.727V598.318H1030.78V583.182H1082.6V598.318L1055.05 653H1035.55Z" fill="white"/>
<defs>
<radialGradient id="paint0_radial_234_371" cx="0" cy="0" r="1" gradientUnits="userSpaceOnUse" gradientTransform="translate(960 540) rotate(90) scale(540 960)">
<stop stop-color="#262B1D"/>
<stop offset="1" stop-color="#171820"/>
</radialGradient>
</defs>
</svg>
