<svg width="1920" height="1080" viewBox="0 0 1920 1080" fill="none" xmlns="http://www.w3.org/2000/svg">
<rect width="1920" height="1080" fill="url(#paint0_radial_234_408)"/>
<path d="M636.682 147.364H617.455C617.318 145.773 616.955 144.33 616.364 143.034C615.795 141.739 615 140.625 613.977 139.693C612.977 138.739 611.761 138.011 610.33 137.511C608.898 136.989 607.273 136.727 605.455 136.727C602.273 136.727 599.58 137.5 597.375 139.045C595.193 140.591 593.534 142.807 592.398 145.693C591.284 148.58 590.727 152.045 590.727 156.091C590.727 160.364 591.295 163.943 592.432 166.83C593.591 169.693 595.261 171.852 597.443 173.307C599.625 174.739 602.25 175.455 605.318 175.455C607.068 175.455 608.636 175.239 610.023 174.807C611.409 174.352 612.614 173.705 613.636 172.864C614.659 172.023 615.489 171.011 616.125 169.83C616.784 168.625 617.227 167.273 617.455 165.773L636.682 165.909C636.455 168.864 635.625 171.875 634.193 174.943C632.761 177.989 630.727 180.807 628.091 183.398C625.477 185.966 622.239 188.034 618.375 189.602C614.511 191.17 610.023 191.955 604.909 191.955C598.5 191.955 592.75 190.58 587.659 187.83C582.591 185.08 578.58 181.034 575.625 175.693C572.693 170.352 571.227 163.818 571.227 156.091C571.227 148.318 572.727 141.773 575.727 136.455C578.727 131.114 582.773 127.08 587.864 124.352C592.955 121.602 598.636 120.227 604.909 120.227C609.318 120.227 613.375 120.83 617.08 122.034C620.784 123.239 624.034 125 626.83 127.318C629.625 129.614 631.875 132.443 633.58 135.807C635.284 139.17 636.318 143.023 636.682 147.364ZM660.145 191.818C656.804 191.818 653.849 191.273 651.281 190.182C648.736 189.068 646.736 187.386 645.281 185.136C643.827 182.886 643.099 180.023 643.099 176.545C643.099 173.682 643.588 171.239 644.565 169.216C645.543 167.17 646.906 165.5 648.656 164.205C650.406 162.909 652.44 161.92 654.759 161.239C657.099 160.557 659.622 160.114 662.327 159.909C665.259 159.682 667.611 159.409 669.384 159.091C671.179 158.75 672.474 158.284 673.27 157.693C674.065 157.08 674.463 156.273 674.463 155.273V155.136C674.463 153.773 673.94 152.727 672.895 152C671.849 151.273 670.509 150.909 668.872 150.909C667.077 150.909 665.611 151.307 664.474 152.102C663.361 152.875 662.69 154.068 662.463 155.682H645.145C645.372 152.5 646.384 149.568 648.179 146.886C649.997 144.182 652.645 142.023 656.122 140.409C659.599 138.773 663.94 137.955 669.145 137.955C672.895 137.955 676.259 138.398 679.236 139.284C682.213 140.148 684.747 141.364 686.838 142.932C688.929 144.477 690.52 146.295 691.611 148.386C692.724 150.455 693.281 152.705 693.281 155.136V191H675.69V183.636H675.281C674.236 185.591 672.963 187.17 671.463 188.375C669.986 189.58 668.293 190.455 666.384 191C664.497 191.545 662.418 191.818 660.145 191.818ZM666.281 179.955C667.713 179.955 669.054 179.659 670.304 179.068C671.577 178.477 672.611 177.625 673.406 176.511C674.202 175.398 674.599 174.045 674.599 172.455V168.091C674.099 168.295 673.565 168.489 672.997 168.67C672.452 168.852 671.861 169.023 671.224 169.182C670.611 169.341 669.952 169.489 669.247 169.625C668.565 169.761 667.849 169.886 667.099 170C665.645 170.227 664.452 170.602 663.52 171.125C662.611 171.625 661.929 172.25 661.474 173C661.043 173.727 660.827 174.545 660.827 175.455C660.827 176.909 661.338 178.023 662.361 178.795C663.384 179.568 664.69 179.955 666.281 179.955ZM721.227 191.682C717.5 191.682 714.068 190.705 710.932 188.75C707.818 186.795 705.318 183.83 703.432 179.852C701.568 175.875 700.636 170.864 700.636 164.818C700.636 158.5 701.614 153.364 703.568 149.409C705.545 145.455 708.091 142.557 711.205 140.716C714.341 138.875 717.636 137.955 721.091 137.955C723.682 137.955 725.955 138.409 727.909 139.318C729.864 140.205 731.5 141.398 732.818 142.898C734.136 144.375 735.136 146 735.818 147.773H736.091V121.182H754.909V191H736.227V182.409H735.818C735.091 184.182 734.045 185.773 732.682 187.182C731.341 188.568 729.705 189.67 727.773 190.489C725.864 191.284 723.682 191.682 721.227 191.682ZM728.182 177.227C729.909 177.227 731.386 176.727 732.614 175.727C733.864 174.705 734.818 173.273 735.477 171.432C736.159 169.568 736.5 167.364 736.5 164.818C736.5 162.227 736.159 160.011 735.477 158.17C734.818 156.307 733.864 154.886 732.614 153.909C731.386 152.909 729.909 152.409 728.182 152.409C726.455 152.409 724.977 152.909 723.75 153.909C722.545 154.886 721.614 156.307 720.955 158.17C720.318 160.011 720 162.227 720 164.818C720 167.409 720.318 169.636 720.955 171.5C721.614 173.341 722.545 174.761 723.75 175.761C724.977 176.739 726.455 177.227 728.182 177.227ZM789.239 191.955C783.648 191.955 778.83 190.886 774.784 188.75C770.761 186.591 767.659 183.5 765.477 179.477C763.318 175.432 762.239 170.591 762.239 164.955C762.239 159.545 763.33 154.818 765.511 150.773C767.693 146.727 770.773 143.58 774.75 141.33C778.727 139.08 783.42 137.955 788.83 137.955C792.784 137.955 796.364 138.568 799.568 139.795C802.773 141.023 805.511 142.807 807.784 145.148C810.057 147.466 811.807 150.284 813.034 153.602C814.261 156.92 814.875 160.659 814.875 164.818V169.182H768.102V158.818H797.557C797.534 157.318 797.148 156 796.398 154.864C795.67 153.705 794.682 152.807 793.432 152.17C792.205 151.511 790.807 151.182 789.239 151.182C787.716 151.182 786.318 151.511 785.045 152.17C783.773 152.807 782.75 153.693 781.977 154.83C781.227 155.966 780.83 157.295 780.784 158.818V170C780.784 171.682 781.136 173.182 781.841 174.5C782.545 175.818 783.557 176.852 784.875 177.602C786.193 178.352 787.784 178.727 789.648 178.727C790.943 178.727 792.125 178.545 793.193 178.182C794.284 177.818 795.216 177.295 795.989 176.614C796.761 175.909 797.33 175.068 797.693 174.091H814.875C814.284 177.727 812.886 180.886 810.682 183.568C808.477 186.227 805.557 188.295 801.92 189.773C798.307 191.227 794.08 191.955 789.239 191.955ZM841.372 161.545V191H822.554V138.636H840.418V148.591H840.963C842.099 145.273 844.099 142.67 846.963 140.784C849.849 138.898 853.213 137.955 857.054 137.955C860.759 137.955 863.974 138.807 866.702 140.511C869.452 142.193 871.577 144.511 873.077 147.466C874.599 150.42 875.349 153.795 875.327 157.591V191H856.509V161.545C856.531 158.955 855.872 156.92 854.531 155.443C853.213 153.966 851.372 153.227 849.009 153.227C847.463 153.227 846.111 153.568 844.952 154.25C843.815 154.909 842.94 155.864 842.327 157.114C841.713 158.341 841.395 159.818 841.372 161.545ZM909.844 191.955C904.162 191.955 899.298 190.83 895.253 188.58C891.207 186.307 888.105 183.148 885.946 179.102C883.787 175.034 882.707 170.318 882.707 164.955C882.707 159.591 883.787 154.886 885.946 150.841C888.105 146.773 891.207 143.614 895.253 141.364C899.298 139.091 904.162 137.955 909.844 137.955C914.98 137.955 919.423 138.886 923.173 140.75C926.946 142.591 929.866 145.205 931.935 148.591C934.003 151.955 935.048 155.909 935.071 160.455H917.616C917.366 157.705 916.571 155.614 915.23 154.182C913.912 152.727 912.207 152 910.116 152C908.48 152 907.048 152.477 905.821 153.432C904.594 154.364 903.639 155.784 902.957 157.693C902.276 159.58 901.935 161.955 901.935 164.818C901.935 167.682 902.276 170.068 902.957 171.977C903.639 173.864 904.594 175.284 905.821 176.239C907.048 177.17 908.48 177.636 910.116 177.636C911.503 177.636 912.73 177.318 913.798 176.682C914.866 176.023 915.73 175.068 916.389 173.818C917.071 172.545 917.48 171 917.616 169.182H935.071C935.003 173.795 933.946 177.818 931.901 181.25C929.855 184.659 926.957 187.295 923.207 189.159C919.48 191.023 915.026 191.955 909.844 191.955ZM967.926 191.955C962.335 191.955 957.517 190.886 953.472 188.75C949.449 186.591 946.347 183.5 944.165 179.477C942.006 175.432 940.926 170.591 940.926 164.955C940.926 159.545 942.017 154.818 944.199 150.773C946.381 146.727 949.46 143.58 953.438 141.33C957.415 139.08 962.108 137.955 967.517 137.955C971.472 137.955 975.051 138.568 978.256 139.795C981.46 141.023 984.199 142.807 986.472 145.148C988.744 147.466 990.494 150.284 991.722 153.602C992.949 156.92 993.562 160.659 993.562 164.818V169.182H946.79V158.818H976.244C976.222 157.318 975.835 156 975.085 154.864C974.358 153.705 973.369 152.807 972.119 152.17C970.892 151.511 969.494 151.182 967.926 151.182C966.403 151.182 965.006 151.511 963.733 152.17C962.46 152.807 961.438 153.693 960.665 154.83C959.915 155.966 959.517 157.295 959.472 158.818V170C959.472 171.682 959.824 173.182 960.528 174.5C961.233 175.818 962.244 176.852 963.562 177.602C964.881 178.352 966.472 178.727 968.335 178.727C969.631 178.727 970.813 178.545 971.881 178.182C972.972 177.818 973.903 177.295 974.676 176.614C975.449 175.909 976.017 175.068 976.381 174.091H993.562C992.972 177.727 991.574 180.886 989.369 183.568C987.165 186.227 984.244 188.295 980.608 189.773C976.994 191.227 972.767 191.955 967.926 191.955ZM1085.28 147.364H1066.05C1065.91 145.773 1065.55 144.33 1064.96 143.034C1064.39 141.739 1063.59 140.625 1062.57 139.693C1061.57 138.739 1060.36 138.011 1058.92 137.511C1057.49 136.989 1055.87 136.727 1054.05 136.727C1050.87 136.727 1048.17 137.5 1045.97 139.045C1043.79 140.591 1042.13 142.807 1040.99 145.693C1039.88 148.58 1039.32 152.045 1039.32 156.091C1039.32 160.364 1039.89 163.943 1041.03 166.83C1042.18 169.693 1043.86 171.852 1046.04 173.307C1048.22 174.739 1050.84 175.455 1053.91 175.455C1055.66 175.455 1057.23 175.239 1058.62 174.807C1060 174.352 1061.21 173.705 1062.23 172.864C1063.25 172.023 1064.08 171.011 1064.72 169.83C1065.38 168.625 1065.82 167.273 1066.05 165.773L1085.28 165.909C1085.05 168.864 1084.22 171.875 1082.79 174.943C1081.36 177.989 1079.32 180.807 1076.68 183.398C1074.07 185.966 1070.83 188.034 1066.97 189.602C1063.11 191.17 1058.62 191.955 1053.5 191.955C1047.09 191.955 1041.34 190.58 1036.25 187.83C1031.18 185.08 1027.17 181.034 1024.22 175.693C1021.29 170.352 1019.82 163.818 1019.82 156.091C1019.82 148.318 1021.32 141.773 1024.32 136.455C1027.32 131.114 1031.37 127.08 1036.46 124.352C1041.55 121.602 1047.23 120.227 1053.5 120.227C1057.91 120.227 1061.97 120.83 1065.67 122.034C1069.38 123.239 1072.63 125 1075.42 127.318C1078.22 129.614 1080.47 132.443 1082.17 135.807C1083.88 139.17 1084.91 143.023 1085.28 147.364ZM1112.97 121.182V191H1094.15V121.182H1112.97ZM1147.78 191.955C1142.1 191.955 1137.24 190.83 1133.19 188.58C1129.14 186.307 1126.04 183.148 1123.88 179.102C1121.72 175.034 1120.64 170.318 1120.64 164.955C1120.64 159.591 1121.72 154.886 1123.88 150.841C1126.04 146.773 1129.14 143.614 1133.19 141.364C1137.24 139.091 1142.1 137.955 1147.78 137.955C1153.46 137.955 1158.33 139.091 1162.37 141.364C1166.42 143.614 1169.52 146.773 1171.68 150.841C1173.84 154.886 1174.92 159.591 1174.92 164.955C1174.92 170.318 1173.84 175.034 1171.68 179.102C1169.52 183.148 1166.42 186.307 1162.37 188.58C1158.33 190.83 1153.46 191.955 1147.78 191.955ZM1147.92 178.045C1149.51 178.045 1150.88 177.511 1152.04 176.443C1153.2 175.375 1154.1 173.852 1154.74 171.875C1155.37 169.898 1155.69 167.545 1155.69 164.818C1155.69 162.068 1155.37 159.716 1154.74 157.761C1154.1 155.784 1153.2 154.261 1152.04 153.193C1150.88 152.125 1149.51 151.591 1147.92 151.591C1146.24 151.591 1144.79 152.125 1143.59 153.193C1142.38 154.261 1141.46 155.784 1140.83 157.761C1140.19 159.716 1139.87 162.068 1139.87 164.818C1139.87 167.545 1140.19 169.898 1140.83 171.875C1141.46 173.852 1142.38 175.375 1143.59 176.443C1144.79 177.511 1146.24 178.045 1147.92 178.045ZM1207.78 191.955C1202.1 191.955 1197.24 190.83 1193.19 188.58C1189.14 186.307 1186.04 183.148 1183.88 179.102C1181.72 175.034 1180.64 170.318 1180.64 164.955C1180.64 159.591 1181.72 154.886 1183.88 150.841C1186.04 146.773 1189.14 143.614 1193.19 141.364C1197.24 139.091 1202.1 137.955 1207.78 137.955C1212.92 137.955 1217.36 138.886 1221.11 140.75C1224.88 142.591 1227.8 145.205 1229.87 148.591C1231.94 151.955 1232.99 155.909 1233.01 160.455H1215.55C1215.3 157.705 1214.51 155.614 1213.17 154.182C1211.85 152.727 1210.14 152 1208.05 152C1206.42 152 1204.99 152.477 1203.76 153.432C1202.53 154.364 1201.58 155.784 1200.89 157.693C1200.21 159.58 1199.87 161.955 1199.87 164.818C1199.87 167.682 1200.21 170.068 1200.89 171.977C1201.58 173.864 1202.53 175.284 1203.76 176.239C1204.99 177.17 1206.42 177.636 1208.05 177.636C1209.44 177.636 1210.67 177.318 1211.74 176.682C1212.8 176.023 1213.67 175.068 1214.33 173.818C1215.01 172.545 1215.42 171 1215.55 169.182H1233.01C1232.94 173.795 1231.88 177.818 1229.84 181.25C1227.79 184.659 1224.89 187.295 1221.14 189.159C1217.42 191.023 1212.96 191.955 1207.78 191.955ZM1257.68 178.591L1257.82 156.227H1260.27L1272.95 138.636H1294.09L1272.82 166.045H1267.5L1257.68 178.591ZM1240.77 191V121.182H1259.59V191H1240.77ZM1273.09 191L1261.09 170.273L1273.36 156.909L1294.64 191H1273.09Z" fill="#F1CE73"/>
<path d="M714.669 368.455V353.182H775.351V368.455H754.351V423H735.669V368.455H714.669ZM782.757 423V370.636H801.575V423H782.757ZM792.166 365.182C789.621 365.182 787.439 364.341 785.621 362.659C783.803 360.977 782.893 358.955 782.893 356.591C782.893 354.227 783.803 352.205 785.621 350.523C787.439 348.841 789.621 348 792.166 348C794.734 348 796.916 348.841 798.712 350.523C800.53 352.205 801.439 354.227 801.439 356.591C801.439 358.955 800.53 360.977 798.712 362.659C796.916 364.341 794.734 365.182 792.166 365.182ZM811.163 423V370.636H829.027V380.591H829.572C830.663 377.318 832.527 374.727 835.163 372.818C837.8 370.909 840.936 369.955 844.572 369.955C848.254 369.955 851.425 370.932 854.084 372.886C856.743 374.818 858.345 377.386 858.891 380.591H859.436C860.322 377.386 862.209 374.818 865.095 372.886C867.982 370.932 871.368 369.955 875.254 369.955C880.277 369.955 884.345 371.568 887.459 374.795C890.595 378.023 892.163 382.318 892.163 387.682V423H873.345V392.455C873.345 390.159 872.766 388.364 871.607 387.068C870.447 385.75 868.891 385.091 866.936 385.091C865.004 385.091 863.47 385.75 862.334 387.068C861.22 388.364 860.663 390.159 860.663 392.455V423H842.663V392.455C842.663 390.159 842.084 388.364 840.925 387.068C839.766 385.75 838.209 385.091 836.254 385.091C834.959 385.091 833.845 385.386 832.913 385.977C831.982 386.568 831.254 387.42 830.732 388.534C830.232 389.625 829.982 390.932 829.982 392.455V423H811.163ZM926.536 423.955C920.945 423.955 916.126 422.886 912.081 420.75C908.058 418.591 904.956 415.5 902.774 411.477C900.615 407.432 899.536 402.591 899.536 396.955C899.536 391.545 900.626 386.818 902.808 382.773C904.99 378.727 908.07 375.58 912.047 373.33C916.024 371.08 920.717 369.955 926.126 369.955C930.081 369.955 933.661 370.568 936.865 371.795C940.07 373.023 942.808 374.807 945.081 377.148C947.354 379.466 949.104 382.284 950.331 385.602C951.558 388.92 952.172 392.659 952.172 396.818V401.182H905.399V390.818H934.854C934.831 389.318 934.445 388 933.695 386.864C932.967 385.705 931.979 384.807 930.729 384.17C929.501 383.511 928.104 383.182 926.536 383.182C925.013 383.182 923.615 383.511 922.342 384.17C921.07 384.807 920.047 385.693 919.274 386.83C918.524 387.966 918.126 389.295 918.081 390.818V402C918.081 403.682 918.433 405.182 919.138 406.5C919.842 407.818 920.854 408.852 922.172 409.602C923.49 410.352 925.081 410.727 926.945 410.727C928.24 410.727 929.422 410.545 930.49 410.182C931.581 409.818 932.513 409.295 933.286 408.614C934.058 407.909 934.626 407.068 934.99 406.091H952.172C951.581 409.727 950.183 412.886 947.979 415.568C945.774 418.227 942.854 420.295 939.217 421.773C935.604 423.227 931.376 423.955 926.536 423.955ZM975.396 353.182V361.364C975.396 363.591 974.942 365.818 974.033 368.045C973.146 370.25 972.01 372.307 970.624 374.216C969.26 376.102 967.851 377.682 966.396 378.955L958.624 375C959.578 373.364 960.43 371.466 961.18 369.307C961.93 367.148 962.305 364.5 962.305 361.364V353.182H975.396ZM1026.37 387.682H1009.05C1008.96 386.614 1008.59 385.693 1007.93 384.92C1007.27 384.148 1006.42 383.557 1005.37 383.148C1004.35 382.716 1003.21 382.5 1001.96 382.5C1000.35 382.5 998.962 382.795 997.803 383.386C996.643 383.977 996.075 384.818 996.098 385.909C996.075 386.682 996.405 387.398 997.087 388.057C997.791 388.716 999.143 389.227 1001.14 389.591L1011.78 391.5C1017.14 392.477 1021.13 394.125 1023.75 396.443C1026.38 398.739 1027.71 401.818 1027.73 405.682C1027.71 409.409 1026.6 412.648 1024.39 415.398C1022.21 418.125 1019.22 420.239 1015.43 421.739C1011.65 423.216 1007.35 423.955 1002.51 423.955C994.507 423.955 988.246 422.318 983.723 419.045C979.223 415.773 976.712 411.455 976.189 406.091H994.871C995.121 407.75 995.939 409.034 997.325 409.943C998.734 410.83 1000.51 411.273 1002.64 411.273C1004.37 411.273 1005.79 410.977 1006.9 410.386C1008.04 409.795 1008.62 408.955 1008.64 407.864C1008.62 406.864 1008.12 406.068 1007.14 405.477C1006.19 404.886 1004.69 404.409 1002.64 404.045L993.371 402.409C988.03 401.477 984.03 399.705 981.371 397.091C978.712 394.477 977.393 391.114 977.416 387C977.393 383.364 978.348 380.284 980.28 377.761C982.234 375.216 985.018 373.284 988.632 371.966C992.268 370.625 996.575 369.955 1001.55 369.955C1009.12 369.955 1015.09 371.523 1019.45 374.659C1023.84 377.795 1026.14 382.136 1026.37 387.682ZM1088.02 400.091V370.636H1106.84V423H1088.98V413.045H1088.43C1087.3 416.386 1085.31 419 1082.47 420.886C1079.63 422.75 1076.25 423.682 1072.34 423.682C1068.68 423.682 1065.48 422.841 1062.73 421.159C1060 419.477 1057.88 417.159 1056.35 414.205C1054.85 411.25 1054.09 407.864 1054.07 404.045V370.636H1072.89V400.091C1072.91 402.682 1073.57 404.716 1074.87 406.193C1076.18 407.67 1078.02 408.409 1080.39 408.409C1081.96 408.409 1083.31 408.08 1084.44 407.42C1085.6 406.739 1086.49 405.784 1087.1 404.557C1087.74 403.307 1088.05 401.818 1088.02 400.091ZM1116.41 442.636V370.636H1135.1V379.773H1135.5C1136.19 378 1137.19 376.375 1138.5 374.898C1139.82 373.398 1141.46 372.205 1143.41 371.318C1145.37 370.409 1147.64 369.955 1150.23 369.955C1153.69 369.955 1156.97 370.875 1160.08 372.716C1163.22 374.557 1165.77 377.455 1167.72 381.409C1169.7 385.364 1170.69 390.5 1170.69 396.818C1170.69 402.864 1169.74 407.875 1167.86 411.852C1165.99 415.83 1163.49 418.795 1160.36 420.75C1157.24 422.705 1153.82 423.682 1150.1 423.682C1147.64 423.682 1145.45 423.284 1143.52 422.489C1141.61 421.67 1139.97 420.568 1138.61 419.182C1137.27 417.773 1136.23 416.182 1135.5 414.409H1135.23V442.636H1116.41ZM1134.82 396.818C1134.82 399.364 1135.15 401.568 1135.81 403.432C1136.49 405.273 1137.45 406.705 1138.67 407.727C1139.92 408.727 1141.41 409.227 1143.14 409.227C1144.87 409.227 1146.33 408.739 1147.54 407.761C1148.77 406.761 1149.7 405.341 1150.33 403.5C1150.99 401.636 1151.32 399.409 1151.32 396.818C1151.32 394.227 1150.99 392.011 1150.33 390.17C1149.7 388.307 1148.77 386.886 1147.54 385.909C1146.33 384.909 1144.87 384.409 1143.14 384.409C1141.41 384.409 1139.92 384.909 1138.67 385.909C1137.45 386.886 1136.49 388.307 1135.81 390.17C1135.15 392.011 1134.82 394.227 1134.82 396.818ZM1200.39 353.182L1198.62 401.182H1183.07L1181.3 353.182H1200.39ZM1190.84 424.091C1188.21 424.091 1185.94 423.17 1184.06 421.33C1182.19 419.466 1181.27 417.205 1181.3 414.545C1181.27 411.955 1182.19 409.739 1184.06 407.898C1185.94 406.057 1188.21 405.136 1190.84 405.136C1193.34 405.136 1195.55 406.057 1197.46 407.898C1199.39 409.739 1200.37 411.955 1200.39 414.545C1200.37 416.318 1199.9 417.932 1198.99 419.386C1198.1 420.818 1196.94 421.966 1195.51 422.83C1194.08 423.67 1192.52 424.091 1190.84 424.091ZM573.75 540V470.182H603.886C609.068 470.182 613.602 471.125 617.489 473.011C621.375 474.898 624.398 477.614 626.557 481.159C628.716 484.705 629.795 488.955 629.795 493.909C629.795 498.909 628.682 503.125 626.455 506.557C624.25 509.989 621.148 512.58 617.148 514.33C613.17 516.08 608.523 516.955 603.205 516.955H585.205V502.227H599.386C601.614 502.227 603.511 501.955 605.08 501.409C606.67 500.841 607.886 499.943 608.727 498.716C609.591 497.489 610.023 495.886 610.023 493.909C610.023 491.909 609.591 490.284 608.727 489.034C607.886 487.761 606.67 486.83 605.08 486.239C603.511 485.625 601.614 485.318 599.386 485.318H592.705V540H573.75ZM614.659 507.955L632.114 540H611.523L594.477 507.955H614.659ZM662.114 540.955C656.523 540.955 651.705 539.886 647.659 537.75C643.636 535.591 640.534 532.5 638.352 528.477C636.193 524.432 635.114 519.591 635.114 513.955C635.114 508.545 636.205 503.818 638.386 499.773C640.568 495.727 643.648 492.58 647.625 490.33C651.602 488.08 656.295 486.955 661.705 486.955C665.659 486.955 669.239 487.568 672.443 488.795C675.648 490.023 678.386 491.807 680.659 494.148C682.932 496.466 684.682 499.284 685.909 502.602C687.136 505.92 687.75 509.659 687.75 513.818V518.182H640.977V507.818H670.432C670.409 506.318 670.023 505 669.273 503.864C668.545 502.705 667.557 501.807 666.307 501.17C665.08 500.511 663.682 500.182 662.114 500.182C660.591 500.182 659.193 500.511 657.92 501.17C656.648 501.807 655.625 502.693 654.852 503.83C654.102 504.966 653.705 506.295 653.659 507.818V519C653.659 520.682 654.011 522.182 654.716 523.5C655.42 524.818 656.432 525.852 657.75 526.602C659.068 527.352 660.659 527.727 662.523 527.727C663.818 527.727 665 527.545 666.068 527.182C667.159 526.818 668.091 526.295 668.864 525.614C669.636 524.909 670.205 524.068 670.568 523.091H687.75C687.159 526.727 685.761 529.886 683.557 532.568C681.352 535.227 678.432 537.295 674.795 538.773C671.182 540.227 666.955 540.955 662.114 540.955ZM710.02 540.818C706.679 540.818 703.724 540.273 701.156 539.182C698.611 538.068 696.611 536.386 695.156 534.136C693.702 531.886 692.974 529.023 692.974 525.545C692.974 522.682 693.463 520.239 694.44 518.216C695.418 516.17 696.781 514.5 698.531 513.205C700.281 511.909 702.315 510.92 704.634 510.239C706.974 509.557 709.497 509.114 712.202 508.909C715.134 508.682 717.486 508.409 719.259 508.091C721.054 507.75 722.349 507.284 723.145 506.693C723.94 506.08 724.338 505.273 724.338 504.273V504.136C724.338 502.773 723.815 501.727 722.77 501C721.724 500.273 720.384 499.909 718.747 499.909C716.952 499.909 715.486 500.307 714.349 501.102C713.236 501.875 712.565 503.068 712.338 504.682H695.02C695.247 501.5 696.259 498.568 698.054 495.886C699.872 493.182 702.52 491.023 705.997 489.409C709.474 487.773 713.815 486.955 719.02 486.955C722.77 486.955 726.134 487.398 729.111 488.284C732.088 489.148 734.622 490.364 736.713 491.932C738.804 493.477 740.395 495.295 741.486 497.386C742.599 499.455 743.156 501.705 743.156 504.136V540H725.565V532.636H725.156C724.111 534.591 722.838 536.17 721.338 537.375C719.861 538.58 718.168 539.455 716.259 540C714.372 540.545 712.293 540.818 710.02 540.818ZM716.156 528.955C717.588 528.955 718.929 528.659 720.179 528.068C721.452 527.477 722.486 526.625 723.281 525.511C724.077 524.398 724.474 523.045 724.474 521.455V517.091C723.974 517.295 723.44 517.489 722.872 517.67C722.327 517.852 721.736 518.023 721.099 518.182C720.486 518.341 719.827 518.489 719.122 518.625C718.44 518.761 717.724 518.886 716.974 519C715.52 519.227 714.327 519.602 713.395 520.125C712.486 520.625 711.804 521.25 711.349 522C710.918 522.727 710.702 523.545 710.702 524.455C710.702 525.909 711.213 527.023 712.236 527.795C713.259 528.568 714.565 528.955 716.156 528.955ZM771.102 540.682C767.375 540.682 763.943 539.705 760.807 537.75C757.693 535.795 755.193 532.83 753.307 528.852C751.443 524.875 750.511 519.864 750.511 513.818C750.511 507.5 751.489 502.364 753.443 498.409C755.42 494.455 757.966 491.557 761.08 489.716C764.216 487.875 767.511 486.955 770.966 486.955C773.557 486.955 775.83 487.409 777.784 488.318C779.739 489.205 781.375 490.398 782.693 491.898C784.011 493.375 785.011 495 785.693 496.773H785.966V470.182H804.784V540H786.102V531.409H785.693C784.966 533.182 783.92 534.773 782.557 536.182C781.216 537.568 779.58 538.67 777.648 539.489C775.739 540.284 773.557 540.682 771.102 540.682ZM778.057 526.227C779.784 526.227 781.261 525.727 782.489 524.727C783.739 523.705 784.693 522.273 785.352 520.432C786.034 518.568 786.375 516.364 786.375 513.818C786.375 511.227 786.034 509.011 785.352 507.17C784.693 505.307 783.739 503.886 782.489 502.909C781.261 501.909 779.784 501.409 778.057 501.409C776.33 501.409 774.852 501.909 773.625 502.909C772.42 503.886 771.489 505.307 770.83 507.17C770.193 509.011 769.875 511.227 769.875 513.818C769.875 516.409 770.193 518.636 770.83 520.5C771.489 522.341 772.42 523.761 773.625 524.761C774.852 525.739 776.33 526.227 778.057 526.227ZM825.477 559.636C823.318 559.636 821.261 559.466 819.307 559.125C817.352 558.807 815.636 558.364 814.159 557.795L818.25 544.432C819.795 544.977 821.205 545.33 822.477 545.489C823.773 545.648 824.875 545.557 825.784 545.216C826.716 544.875 827.386 544.227 827.795 543.273L828.205 542.318L809.795 487.636H829.432L837.886 523.909H838.432L847.023 487.636H866.795L847.705 544.364C846.75 547.25 845.364 549.841 843.545 552.136C841.75 554.455 839.386 556.284 836.455 557.625C833.523 558.966 829.864 559.636 825.477 559.636ZM922.5 487.636V501.273H888V487.636H922.5ZM894.682 475.091H913.5V523.159C913.5 523.886 913.625 524.5 913.875 525C914.125 525.477 914.511 525.841 915.034 526.091C915.557 526.318 916.227 526.432 917.045 526.432C917.614 526.432 918.273 526.364 919.023 526.227C919.795 526.091 920.364 525.977 920.727 525.886L923.455 539.114C922.614 539.364 921.409 539.67 919.841 540.034C918.295 540.398 916.455 540.636 914.318 540.75C910 540.977 906.375 540.534 903.443 539.42C900.511 538.284 898.307 536.5 896.83 534.068C895.352 531.636 894.636 528.591 894.682 524.932V475.091ZM954.844 540.955C949.162 540.955 944.298 539.83 940.253 537.58C936.207 535.307 933.105 532.148 930.946 528.102C928.787 524.034 927.707 519.318 927.707 513.955C927.707 508.591 928.787 503.886 930.946 499.841C933.105 495.773 936.207 492.614 940.253 490.364C944.298 488.091 949.162 486.955 954.844 486.955C960.526 486.955 965.389 488.091 969.435 490.364C973.48 492.614 976.582 495.773 978.741 499.841C980.901 503.886 981.98 508.591 981.98 513.955C981.98 519.318 980.901 524.034 978.741 528.102C976.582 532.148 973.48 535.307 969.435 537.58C965.389 539.83 960.526 540.955 954.844 540.955ZM954.98 527.045C956.571 527.045 957.946 526.511 959.105 525.443C960.264 524.375 961.162 522.852 961.798 520.875C962.435 518.898 962.753 516.545 962.753 513.818C962.753 511.068 962.435 508.716 961.798 506.761C961.162 504.784 960.264 503.261 959.105 502.193C957.946 501.125 956.571 500.591 954.98 500.591C953.298 500.591 951.855 501.125 950.651 502.193C949.446 503.261 948.526 504.784 947.889 506.761C947.253 508.716 946.935 511.068 946.935 513.818C946.935 516.545 947.253 518.898 947.889 520.875C948.526 522.852 949.446 524.375 950.651 525.443C951.855 526.511 953.298 527.045 954.98 527.045ZM1008.47 540V470.182H1057.56V485.455H1027.42V497.455H1054.56V512.727H1027.42V540H1008.47ZM1086.19 540.955C1080.51 540.955 1075.64 539.83 1071.6 537.58C1067.55 535.307 1064.45 532.148 1062.29 528.102C1060.13 524.034 1059.05 519.318 1059.05 513.955C1059.05 508.591 1060.13 503.886 1062.29 499.841C1064.45 495.773 1067.55 492.614 1071.6 490.364C1075.64 488.091 1080.51 486.955 1086.19 486.955C1091.87 486.955 1096.73 488.091 1100.78 490.364C1104.82 492.614 1107.93 495.773 1110.09 499.841C1112.24 503.886 1113.32 508.591 1113.32 513.955C1113.32 519.318 1112.24 524.034 1110.09 528.102C1107.93 532.148 1104.82 535.307 1100.78 537.58C1096.73 539.83 1091.87 540.955 1086.19 540.955ZM1086.32 527.045C1087.91 527.045 1089.29 526.511 1090.45 525.443C1091.61 524.375 1092.51 522.852 1093.14 520.875C1093.78 518.898 1094.1 516.545 1094.1 513.818C1094.1 511.068 1093.78 508.716 1093.14 506.761C1092.51 504.784 1091.61 503.261 1090.45 502.193C1089.29 501.125 1087.91 500.591 1086.32 500.591C1084.64 500.591 1083.2 501.125 1081.99 502.193C1080.79 503.261 1079.87 504.784 1079.23 506.761C1078.6 508.716 1078.28 511.068 1078.28 513.818C1078.28 516.545 1078.6 518.898 1079.23 520.875C1079.87 522.852 1080.79 524.375 1081.99 525.443C1083.2 526.511 1084.64 527.045 1086.32 527.045ZM1146.19 540.955C1140.51 540.955 1135.64 539.83 1131.6 537.58C1127.55 535.307 1124.45 532.148 1122.29 528.102C1120.13 524.034 1119.05 519.318 1119.05 513.955C1119.05 508.591 1120.13 503.886 1122.29 499.841C1124.45 495.773 1127.55 492.614 1131.6 490.364C1135.64 488.091 1140.51 486.955 1146.19 486.955C1151.32 486.955 1155.77 487.886 1159.52 489.75C1163.29 491.591 1166.21 494.205 1168.28 497.591C1170.35 500.955 1171.39 504.909 1171.41 509.455H1153.96C1153.71 506.705 1152.91 504.614 1151.57 503.182C1150.26 501.727 1148.55 501 1146.46 501C1144.82 501 1143.39 501.477 1142.16 502.432C1140.94 503.364 1139.98 504.784 1139.3 506.693C1138.62 508.58 1138.28 510.955 1138.28 513.818C1138.28 516.682 1138.62 519.068 1139.3 520.977C1139.98 522.864 1140.94 524.284 1142.16 525.239C1143.39 526.17 1144.82 526.636 1146.46 526.636C1147.85 526.636 1149.07 526.318 1150.14 525.682C1151.21 525.023 1152.07 524.068 1152.73 522.818C1153.41 521.545 1153.82 520 1153.96 518.182H1171.41C1171.35 522.795 1170.29 526.818 1168.24 530.25C1166.2 533.659 1163.3 536.295 1159.55 538.159C1155.82 540.023 1151.37 540.955 1146.19 540.955ZM1213.13 517.091V487.636H1231.95V540H1214.09V530.045H1213.54C1212.41 533.386 1210.42 536 1207.58 537.886C1204.74 539.75 1201.36 540.682 1197.45 540.682C1193.79 540.682 1190.59 539.841 1187.84 538.159C1185.11 536.477 1182.99 534.159 1181.46 531.205C1179.96 528.25 1179.2 524.864 1179.18 521.045V487.636H1198V517.091C1198.02 519.682 1198.68 521.716 1199.97 523.193C1201.29 524.67 1203.13 525.409 1205.5 525.409C1207.07 525.409 1208.42 525.08 1209.55 524.42C1210.71 523.739 1211.6 522.784 1212.21 521.557C1212.85 520.307 1213.16 518.818 1213.13 517.091ZM1289.39 504.682H1272.07C1271.98 503.614 1271.6 502.693 1270.94 501.92C1270.28 501.148 1269.43 500.557 1268.39 500.148C1267.36 499.716 1266.23 499.5 1264.98 499.5C1263.36 499.5 1261.98 499.795 1260.82 500.386C1259.66 500.977 1259.09 501.818 1259.11 502.909C1259.09 503.682 1259.42 504.398 1260.1 505.057C1260.81 505.716 1262.16 506.227 1264.16 506.591L1274.8 508.5C1280.16 509.477 1284.15 511.125 1286.76 513.443C1289.4 515.739 1290.73 518.818 1290.75 522.682C1290.73 526.409 1289.61 529.648 1287.41 532.398C1285.23 535.125 1282.24 537.239 1278.44 538.739C1274.67 540.216 1270.36 540.955 1265.52 540.955C1257.52 540.955 1251.26 539.318 1246.74 536.045C1242.24 532.773 1239.73 528.455 1239.2 523.091H1257.89C1258.14 524.75 1258.95 526.034 1260.34 526.943C1261.75 527.83 1263.52 528.273 1265.66 528.273C1267.39 528.273 1268.81 527.977 1269.92 527.386C1271.06 526.795 1271.64 525.955 1271.66 524.864C1271.64 523.864 1271.14 523.068 1270.16 522.477C1269.2 521.886 1267.7 521.409 1265.66 521.045L1256.39 519.409C1251.05 518.477 1247.05 516.705 1244.39 514.091C1241.73 511.477 1240.41 508.114 1240.43 504C1240.41 500.364 1241.36 497.284 1243.3 494.761C1245.25 492.216 1248.03 490.284 1251.65 488.966C1255.28 487.625 1259.59 486.955 1264.57 486.955C1272.14 486.955 1278.1 488.523 1282.47 491.659C1286.85 494.795 1289.16 499.136 1289.39 504.682ZM1311.73 518.182V516.545C1311.73 512.795 1312.03 509.807 1312.62 507.58C1313.21 505.352 1314.09 503.568 1315.24 502.227C1316.4 500.864 1317.82 499.636 1319.51 498.545C1320.96 497.591 1322.26 496.67 1323.39 495.784C1324.55 494.898 1325.46 493.955 1326.12 492.955C1326.8 491.955 1327.14 490.818 1327.14 489.545C1327.14 488.409 1326.87 487.409 1326.32 486.545C1325.78 485.682 1325.04 485.011 1324.11 484.534C1323.18 484.057 1322.14 483.818 1321.01 483.818C1319.78 483.818 1318.64 484.102 1317.6 484.67C1316.57 485.239 1315.74 486.023 1315.11 487.023C1314.49 488.023 1314.19 489.182 1314.19 490.5H1296.73C1296.78 485.5 1297.91 481.443 1300.14 478.33C1302.37 475.193 1305.32 472.898 1309.01 471.443C1312.69 469.966 1316.73 469.227 1321.14 469.227C1326.01 469.227 1330.35 469.943 1334.16 471.375C1337.98 472.784 1340.99 474.92 1343.2 477.784C1345.4 480.625 1346.51 484.182 1346.51 488.455C1346.51 491.205 1346.03 493.625 1345.07 495.716C1344.14 497.784 1342.84 499.614 1341.15 501.205C1339.49 502.773 1337.55 504.205 1335.32 505.5C1333.69 506.455 1332.31 507.443 1331.2 508.466C1330.09 509.466 1329.24 510.614 1328.68 511.909C1328.11 513.182 1327.82 514.727 1327.82 516.545V518.182H1311.73ZM1320.05 541.091C1317.41 541.091 1315.15 540.17 1313.27 538.33C1311.4 536.466 1310.48 534.205 1310.51 531.545C1310.48 528.955 1311.4 526.739 1313.27 524.898C1315.15 523.057 1317.41 522.136 1320.05 522.136C1322.55 522.136 1324.76 523.057 1326.66 524.898C1328.6 526.739 1329.57 528.955 1329.6 531.545C1329.57 533.318 1329.11 534.932 1328.2 536.386C1327.31 537.818 1326.15 538.966 1324.72 539.83C1323.29 540.67 1321.73 541.091 1320.05 541.091Z" fill="white"/>
<path d="M1204.5 782.5C1204.5 796.657 1197.98 810.339 1185.79 822.999C1173.59 835.672 1155.81 847.198 1133.65 856.932C1089.34 876.398 1027.94 888.5 960 888.5C892.055 888.5 830.663 876.398 786.35 856.932C764.19 847.198 746.413 835.672 734.211 822.999C722.021 810.339 715.5 796.657 715.5 782.5C715.5 768.343 722.021 754.661 734.211 742.001C746.413 729.328 764.19 717.802 786.35 708.068C830.663 688.602 892.055 676.5 960 676.5C1027.94 676.5 1089.34 688.602 1133.65 708.068C1155.81 717.802 1173.59 729.328 1185.79 742.001C1197.98 754.661 1204.5 768.343 1204.5 782.5Z" fill="#834B5A" stroke="#FDE047" stroke-width="5"/>
<path d="M758.182 826L773.636 732.909H839.091L835.636 753.273H795.455L792.909 769.273H829.091L825.636 789.636H789.455L783.455 826H758.182ZM861.625 827.273C854.049 827.273 847.807 825.773 842.898 822.773C838.019 819.742 834.595 815.53 832.625 810.136C830.655 804.712 830.261 798.424 831.443 791.273C832.625 784.121 835.095 777.848 838.852 772.455C842.61 767.03 847.443 762.818 853.352 759.818C859.261 756.788 866.019 755.273 873.625 755.273C881.17 755.273 887.383 756.788 892.261 759.818C897.17 762.818 900.61 767.03 902.58 772.455C904.58 777.848 904.989 784.121 903.807 791.273C902.625 798.424 900.14 804.712 896.352 810.136C892.564 815.53 887.716 819.742 881.807 822.773C875.928 825.773 869.201 827.273 861.625 827.273ZM864.716 808.727C866.898 808.727 868.883 808.015 870.67 806.591C872.489 805.167 874.034 803.136 875.307 800.5C876.61 797.864 877.564 794.727 878.17 791.091C878.777 787.424 878.867 784.288 878.443 781.682C878.019 779.045 877.14 777.015 875.807 775.591C874.473 774.167 872.716 773.455 870.534 773.455C868.352 773.455 866.352 774.167 864.534 775.591C862.716 777.015 861.17 779.045 859.898 781.682C858.625 784.288 857.686 787.424 857.08 791.091C856.473 794.727 856.367 797.864 856.761 800.5C857.186 803.136 858.064 805.167 859.398 806.591C860.761 808.015 862.534 808.727 864.716 808.727ZM941.625 827.273C934.049 827.273 927.807 825.773 922.898 822.773C917.989 819.742 914.549 815.53 912.58 810.136C910.61 804.712 910.231 798.424 911.443 791.273C912.595 784.121 915.049 777.848 918.807 772.455C922.595 767.03 927.443 762.818 933.352 759.818C939.292 756.788 946.049 755.273 953.625 755.273C960.473 755.273 966.186 756.515 970.761 759C975.367 761.455 978.655 764.939 980.625 769.455C982.625 773.939 983.14 779.212 982.17 785.273H958.898C959.17 781.636 958.58 778.848 957.125 776.909C955.701 774.97 953.625 774 950.898 774C948.655 774 946.595 774.636 944.716 775.909C942.867 777.152 941.277 779.045 939.943 781.591C938.64 784.106 937.686 787.273 937.08 791.091C936.473 794.909 936.398 798.091 936.852 800.636C937.337 803.152 938.277 805.045 939.67 806.318C941.095 807.561 942.898 808.182 945.08 808.182C946.958 808.182 948.686 807.758 950.261 806.909C951.867 806.03 953.246 804.758 954.398 803.091C955.58 801.394 956.473 799.333 957.08 796.909H980.352C979.201 803.091 976.883 808.455 973.398 813C969.913 817.545 965.473 821.061 960.08 823.545C954.686 826.03 948.534 827.273 941.625 827.273ZM1036.16 795.455L1042.7 756.182H1067.8L1056.16 826H1032.34L1034.52 812.727H1033.8C1031.64 817.182 1028.43 820.667 1024.16 823.182C1019.92 825.667 1015.19 826.909 1009.98 826.909C1005.1 826.909 1001.02 825.788 997.75 823.545C994.477 821.303 992.159 818.212 990.795 814.273C989.432 810.333 989.159 805.818 989.977 800.727L997.432 756.182H1022.52L1015.98 795.455C1015.46 798.909 1015.9 801.621 1017.3 803.591C1018.72 805.561 1021.01 806.545 1024.16 806.545C1026.25 806.545 1028.13 806.106 1029.8 805.227C1031.49 804.318 1032.89 803.045 1033.98 801.409C1035.1 799.742 1035.83 797.758 1036.16 795.455ZM1140.38 778.909H1117.83C1117.95 777.455 1117.69 776.212 1117.06 775.182C1116.42 774.152 1115.53 773.364 1114.38 772.818C1113.25 772.273 1111.98 772 1110.56 772C1108.07 772 1105.81 772.561 1103.78 773.682C1101.75 774.773 1100.62 776.212 1100.38 778C1100.22 778.697 1100.45 779.348 1101.06 779.955C1101.66 780.561 1103.25 781.121 1105.83 781.636L1119.65 784.182C1126.56 785.455 1131.59 787.773 1134.74 791.136C1137.92 794.47 1139.07 798.879 1138.19 804.364C1137.38 809.121 1135.28 813.212 1131.92 816.636C1128.56 820.061 1124.28 822.697 1119.1 824.545C1113.95 826.364 1108.25 827.273 1102.01 827.273C1091.01 827.273 1082.77 825.076 1077.28 820.682C1071.83 816.288 1069.34 810.545 1069.83 803.455H1094.19C1094.25 805.727 1095.01 807.439 1096.47 808.591C1097.95 809.712 1099.92 810.303 1102.38 810.364C1105.04 810.455 1107.38 809.924 1109.38 808.773C1111.38 807.591 1112.5 806.121 1112.74 804.364C1112.83 803.364 1112.39 802.606 1111.42 802.091C1110.48 801.576 1108.68 801.061 1106.01 800.545L1094.01 798.364C1087.1 797.121 1082.07 794.636 1078.92 790.909C1075.77 787.152 1074.68 782.364 1075.65 776.545C1076.44 771.909 1078.31 768.015 1081.28 764.864C1084.28 761.712 1088.22 759.333 1093.1 757.727C1097.98 756.091 1103.62 755.273 1110.01 755.273C1120.47 755.273 1128.38 757.379 1133.74 761.591C1139.13 765.773 1141.34 771.545 1140.38 778.909Z" fill="#F1CE73"/>
<defs>
<radialGradient id="paint0_radial_234_408" cx="0" cy="0" r="1" gradientUnits="userSpaceOnUse" gradientTransform="translate(960 540) rotate(90) scale(540 960)">
<stop stop-color="#262B1D"/>
<stop offset="1" stop-color="#171820"/>
</radialGradient>
</defs>
</svg>
