<svg width="1920" height="1080" viewBox="0 0 1920 1080" fill="none" xmlns="http://www.w3.org/2000/svg">
<rect width="1920" height="1080" fill="url(#paint0_radial_234_392)"/>
<path d="M636.682 147.364H617.455C617.318 145.773 616.955 144.33 616.364 143.034C615.795 141.739 615 140.625 613.977 139.693C612.977 138.739 611.761 138.011 610.33 137.511C608.898 136.989 607.273 136.727 605.455 136.727C602.273 136.727 599.58 137.5 597.375 139.045C595.193 140.591 593.534 142.807 592.398 145.693C591.284 148.58 590.727 152.045 590.727 156.091C590.727 160.364 591.295 163.943 592.432 166.83C593.591 169.693 595.261 171.852 597.443 173.307C599.625 174.739 602.25 175.455 605.318 175.455C607.068 175.455 608.636 175.239 610.023 174.807C611.409 174.352 612.614 173.705 613.636 172.864C614.659 172.023 615.489 171.011 616.125 169.83C616.784 168.625 617.227 167.273 617.455 165.773L636.682 165.909C636.455 168.864 635.625 171.875 634.193 174.943C632.761 177.989 630.727 180.807 628.091 183.398C625.477 185.966 622.239 188.034 618.375 189.602C614.511 191.17 610.023 191.955 604.909 191.955C598.5 191.955 592.75 190.58 587.659 187.83C582.591 185.08 578.58 181.034 575.625 175.693C572.693 170.352 571.227 163.818 571.227 156.091C571.227 148.318 572.727 141.773 575.727 136.455C578.727 131.114 582.773 127.08 587.864 124.352C592.955 121.602 598.636 120.227 604.909 120.227C609.318 120.227 613.375 120.83 617.08 122.034C620.784 123.239 624.034 125 626.83 127.318C629.625 129.614 631.875 132.443 633.58 135.807C635.284 139.17 636.318 143.023 636.682 147.364ZM660.145 191.818C656.804 191.818 653.849 191.273 651.281 190.182C648.736 189.068 646.736 187.386 645.281 185.136C643.827 182.886 643.099 180.023 643.099 176.545C643.099 173.682 643.588 171.239 644.565 169.216C645.543 167.17 646.906 165.5 648.656 164.205C650.406 162.909 652.44 161.92 654.759 161.239C657.099 160.557 659.622 160.114 662.327 159.909C665.259 159.682 667.611 159.409 669.384 159.091C671.179 158.75 672.474 158.284 673.27 157.693C674.065 157.08 674.463 156.273 674.463 155.273V155.136C674.463 153.773 673.94 152.727 672.895 152C671.849 151.273 670.509 150.909 668.872 150.909C667.077 150.909 665.611 151.307 664.474 152.102C663.361 152.875 662.69 154.068 662.463 155.682H645.145C645.372 152.5 646.384 149.568 648.179 146.886C649.997 144.182 652.645 142.023 656.122 140.409C659.599 138.773 663.94 137.955 669.145 137.955C672.895 137.955 676.259 138.398 679.236 139.284C682.213 140.148 684.747 141.364 686.838 142.932C688.929 144.477 690.52 146.295 691.611 148.386C692.724 150.455 693.281 152.705 693.281 155.136V191H675.69V183.636H675.281C674.236 185.591 672.963 187.17 671.463 188.375C669.986 189.58 668.293 190.455 666.384 191C664.497 191.545 662.418 191.818 660.145 191.818ZM666.281 179.955C667.713 179.955 669.054 179.659 670.304 179.068C671.577 178.477 672.611 177.625 673.406 176.511C674.202 175.398 674.599 174.045 674.599 172.455V168.091C674.099 168.295 673.565 168.489 672.997 168.67C672.452 168.852 671.861 169.023 671.224 169.182C670.611 169.341 669.952 169.489 669.247 169.625C668.565 169.761 667.849 169.886 667.099 170C665.645 170.227 664.452 170.602 663.52 171.125C662.611 171.625 661.929 172.25 661.474 173C661.043 173.727 660.827 174.545 660.827 175.455C660.827 176.909 661.338 178.023 662.361 178.795C663.384 179.568 664.69 179.955 666.281 179.955ZM721.227 191.682C717.5 191.682 714.068 190.705 710.932 188.75C707.818 186.795 705.318 183.83 703.432 179.852C701.568 175.875 700.636 170.864 700.636 164.818C700.636 158.5 701.614 153.364 703.568 149.409C705.545 145.455 708.091 142.557 711.205 140.716C714.341 138.875 717.636 137.955 721.091 137.955C723.682 137.955 725.955 138.409 727.909 139.318C729.864 140.205 731.5 141.398 732.818 142.898C734.136 144.375 735.136 146 735.818 147.773H736.091V121.182H754.909V191H736.227V182.409H735.818C735.091 184.182 734.045 185.773 732.682 187.182C731.341 188.568 729.705 189.67 727.773 190.489C725.864 191.284 723.682 191.682 721.227 191.682ZM728.182 177.227C729.909 177.227 731.386 176.727 732.614 175.727C733.864 174.705 734.818 173.273 735.477 171.432C736.159 169.568 736.5 167.364 736.5 164.818C736.5 162.227 736.159 160.011 735.477 158.17C734.818 156.307 733.864 154.886 732.614 153.909C731.386 152.909 729.909 152.409 728.182 152.409C726.455 152.409 724.977 152.909 723.75 153.909C722.545 154.886 721.614 156.307 720.955 158.17C720.318 160.011 720 162.227 720 164.818C720 167.409 720.318 169.636 720.955 171.5C721.614 173.341 722.545 174.761 723.75 175.761C724.977 176.739 726.455 177.227 728.182 177.227ZM789.239 191.955C783.648 191.955 778.83 190.886 774.784 188.75C770.761 186.591 767.659 183.5 765.477 179.477C763.318 175.432 762.239 170.591 762.239 164.955C762.239 159.545 763.33 154.818 765.511 150.773C767.693 146.727 770.773 143.58 774.75 141.33C778.727 139.08 783.42 137.955 788.83 137.955C792.784 137.955 796.364 138.568 799.568 139.795C802.773 141.023 805.511 142.807 807.784 145.148C810.057 147.466 811.807 150.284 813.034 153.602C814.261 156.92 814.875 160.659 814.875 164.818V169.182H768.102V158.818H797.557C797.534 157.318 797.148 156 796.398 154.864C795.67 153.705 794.682 152.807 793.432 152.17C792.205 151.511 790.807 151.182 789.239 151.182C787.716 151.182 786.318 151.511 785.045 152.17C783.773 152.807 782.75 153.693 781.977 154.83C781.227 155.966 780.83 157.295 780.784 158.818V170C780.784 171.682 781.136 173.182 781.841 174.5C782.545 175.818 783.557 176.852 784.875 177.602C786.193 178.352 787.784 178.727 789.648 178.727C790.943 178.727 792.125 178.545 793.193 178.182C794.284 177.818 795.216 177.295 795.989 176.614C796.761 175.909 797.33 175.068 797.693 174.091H814.875C814.284 177.727 812.886 180.886 810.682 183.568C808.477 186.227 805.557 188.295 801.92 189.773C798.307 191.227 794.08 191.955 789.239 191.955ZM841.372 161.545V191H822.554V138.636H840.418V148.591H840.963C842.099 145.273 844.099 142.67 846.963 140.784C849.849 138.898 853.213 137.955 857.054 137.955C860.759 137.955 863.974 138.807 866.702 140.511C869.452 142.193 871.577 144.511 873.077 147.466C874.599 150.42 875.349 153.795 875.327 157.591V191H856.509V161.545C856.531 158.955 855.872 156.92 854.531 155.443C853.213 153.966 851.372 153.227 849.009 153.227C847.463 153.227 846.111 153.568 844.952 154.25C843.815 154.909 842.94 155.864 842.327 157.114C841.713 158.341 841.395 159.818 841.372 161.545ZM909.844 191.955C904.162 191.955 899.298 190.83 895.253 188.58C891.207 186.307 888.105 183.148 885.946 179.102C883.787 175.034 882.707 170.318 882.707 164.955C882.707 159.591 883.787 154.886 885.946 150.841C888.105 146.773 891.207 143.614 895.253 141.364C899.298 139.091 904.162 137.955 909.844 137.955C914.98 137.955 919.423 138.886 923.173 140.75C926.946 142.591 929.866 145.205 931.935 148.591C934.003 151.955 935.048 155.909 935.071 160.455H917.616C917.366 157.705 916.571 155.614 915.23 154.182C913.912 152.727 912.207 152 910.116 152C908.48 152 907.048 152.477 905.821 153.432C904.594 154.364 903.639 155.784 902.957 157.693C902.276 159.58 901.935 161.955 901.935 164.818C901.935 167.682 902.276 170.068 902.957 171.977C903.639 173.864 904.594 175.284 905.821 176.239C907.048 177.17 908.48 177.636 910.116 177.636C911.503 177.636 912.73 177.318 913.798 176.682C914.866 176.023 915.73 175.068 916.389 173.818C917.071 172.545 917.48 171 917.616 169.182H935.071C935.003 173.795 933.946 177.818 931.901 181.25C929.855 184.659 926.957 187.295 923.207 189.159C919.48 191.023 915.026 191.955 909.844 191.955ZM967.926 191.955C962.335 191.955 957.517 190.886 953.472 188.75C949.449 186.591 946.347 183.5 944.165 179.477C942.006 175.432 940.926 170.591 940.926 164.955C940.926 159.545 942.017 154.818 944.199 150.773C946.381 146.727 949.46 143.58 953.438 141.33C957.415 139.08 962.108 137.955 967.517 137.955C971.472 137.955 975.051 138.568 978.256 139.795C981.46 141.023 984.199 142.807 986.472 145.148C988.744 147.466 990.494 150.284 991.722 153.602C992.949 156.92 993.562 160.659 993.562 164.818V169.182H946.79V158.818H976.244C976.222 157.318 975.835 156 975.085 154.864C974.358 153.705 973.369 152.807 972.119 152.17C970.892 151.511 969.494 151.182 967.926 151.182C966.403 151.182 965.006 151.511 963.733 152.17C962.46 152.807 961.438 153.693 960.665 154.83C959.915 155.966 959.517 157.295 959.472 158.818V170C959.472 171.682 959.824 173.182 960.528 174.5C961.233 175.818 962.244 176.852 963.562 177.602C964.881 178.352 966.472 178.727 968.335 178.727C969.631 178.727 970.813 178.545 971.881 178.182C972.972 177.818 973.903 177.295 974.676 176.614C975.449 175.909 976.017 175.068 976.381 174.091H993.562C992.972 177.727 991.574 180.886 989.369 183.568C987.165 186.227 984.244 188.295 980.608 189.773C976.994 191.227 972.767 191.955 967.926 191.955ZM1085.28 147.364H1066.05C1065.91 145.773 1065.55 144.33 1064.96 143.034C1064.39 141.739 1063.59 140.625 1062.57 139.693C1061.57 138.739 1060.36 138.011 1058.92 137.511C1057.49 136.989 1055.87 136.727 1054.05 136.727C1050.87 136.727 1048.17 137.5 1045.97 139.045C1043.79 140.591 1042.13 142.807 1040.99 145.693C1039.88 148.58 1039.32 152.045 1039.32 156.091C1039.32 160.364 1039.89 163.943 1041.03 166.83C1042.18 169.693 1043.86 171.852 1046.04 173.307C1048.22 174.739 1050.84 175.455 1053.91 175.455C1055.66 175.455 1057.23 175.239 1058.62 174.807C1060 174.352 1061.21 173.705 1062.23 172.864C1063.25 172.023 1064.08 171.011 1064.72 169.83C1065.38 168.625 1065.82 167.273 1066.05 165.773L1085.28 165.909C1085.05 168.864 1084.22 171.875 1082.79 174.943C1081.36 177.989 1079.32 180.807 1076.68 183.398C1074.07 185.966 1070.83 188.034 1066.97 189.602C1063.11 191.17 1058.62 191.955 1053.5 191.955C1047.09 191.955 1041.34 190.58 1036.25 187.83C1031.18 185.08 1027.17 181.034 1024.22 175.693C1021.29 170.352 1019.82 163.818 1019.82 156.091C1019.82 148.318 1021.32 141.773 1024.32 136.455C1027.32 131.114 1031.37 127.08 1036.46 124.352C1041.55 121.602 1047.23 120.227 1053.5 120.227C1057.91 120.227 1061.97 120.83 1065.67 122.034C1069.38 123.239 1072.63 125 1075.42 127.318C1078.22 129.614 1080.47 132.443 1082.17 135.807C1083.88 139.17 1084.91 143.023 1085.28 147.364ZM1112.97 121.182V191H1094.15V121.182H1112.97ZM1147.78 191.955C1142.1 191.955 1137.24 190.83 1133.19 188.58C1129.14 186.307 1126.04 183.148 1123.88 179.102C1121.72 175.034 1120.64 170.318 1120.64 164.955C1120.64 159.591 1121.72 154.886 1123.88 150.841C1126.04 146.773 1129.14 143.614 1133.19 141.364C1137.24 139.091 1142.1 137.955 1147.78 137.955C1153.46 137.955 1158.33 139.091 1162.37 141.364C1166.42 143.614 1169.52 146.773 1171.68 150.841C1173.84 154.886 1174.92 159.591 1174.92 164.955C1174.92 170.318 1173.84 175.034 1171.68 179.102C1169.52 183.148 1166.42 186.307 1162.37 188.58C1158.33 190.83 1153.46 191.955 1147.78 191.955ZM1147.92 178.045C1149.51 178.045 1150.88 177.511 1152.04 176.443C1153.2 175.375 1154.1 173.852 1154.74 171.875C1155.37 169.898 1155.69 167.545 1155.69 164.818C1155.69 162.068 1155.37 159.716 1154.74 157.761C1154.1 155.784 1153.2 154.261 1152.04 153.193C1150.88 152.125 1149.51 151.591 1147.92 151.591C1146.24 151.591 1144.79 152.125 1143.59 153.193C1142.38 154.261 1141.46 155.784 1140.83 157.761C1140.19 159.716 1139.87 162.068 1139.87 164.818C1139.87 167.545 1140.19 169.898 1140.83 171.875C1141.46 173.852 1142.38 175.375 1143.59 176.443C1144.79 177.511 1146.24 178.045 1147.92 178.045ZM1207.78 191.955C1202.1 191.955 1197.24 190.83 1193.19 188.58C1189.14 186.307 1186.04 183.148 1183.88 179.102C1181.72 175.034 1180.64 170.318 1180.64 164.955C1180.64 159.591 1181.72 154.886 1183.88 150.841C1186.04 146.773 1189.14 143.614 1193.19 141.364C1197.24 139.091 1202.1 137.955 1207.78 137.955C1212.92 137.955 1217.36 138.886 1221.11 140.75C1224.88 142.591 1227.8 145.205 1229.87 148.591C1231.94 151.955 1232.99 155.909 1233.01 160.455H1215.55C1215.3 157.705 1214.51 155.614 1213.17 154.182C1211.85 152.727 1210.14 152 1208.05 152C1206.42 152 1204.99 152.477 1203.76 153.432C1202.53 154.364 1201.58 155.784 1200.89 157.693C1200.21 159.58 1199.87 161.955 1199.87 164.818C1199.87 167.682 1200.21 170.068 1200.89 171.977C1201.58 173.864 1202.53 175.284 1203.76 176.239C1204.99 177.17 1206.42 177.636 1208.05 177.636C1209.44 177.636 1210.67 177.318 1211.74 176.682C1212.8 176.023 1213.67 175.068 1214.33 173.818C1215.01 172.545 1215.42 171 1215.55 169.182H1233.01C1232.94 173.795 1231.88 177.818 1229.84 181.25C1227.79 184.659 1224.89 187.295 1221.14 189.159C1217.42 191.023 1212.96 191.955 1207.78 191.955ZM1257.68 178.591L1257.82 156.227H1260.27L1272.95 138.636H1294.09L1272.82 166.045H1267.5L1257.68 178.591ZM1240.77 191V121.182H1259.59V191H1240.77ZM1273.09 191L1261.09 170.273L1273.36 156.909L1294.64 191H1273.09Z" fill="#F1CE73"/>
<path d="M714.169 368.455V353.182H774.851V368.455H753.851V423H735.169V368.455H714.169ZM782.257 423V370.636H801.075V423H782.257ZM791.666 365.182C789.121 365.182 786.939 364.341 785.121 362.659C783.303 360.977 782.393 358.955 782.393 356.591C782.393 354.227 783.303 352.205 785.121 350.523C786.939 348.841 789.121 348 791.666 348C794.234 348 796.416 348.841 798.212 350.523C800.03 352.205 800.939 354.227 800.939 356.591C800.939 358.955 800.03 360.977 798.212 362.659C796.416 364.341 794.234 365.182 791.666 365.182ZM810.663 423V370.636H828.527V380.591H829.072C830.163 377.318 832.027 374.727 834.663 372.818C837.3 370.909 840.436 369.955 844.072 369.955C847.754 369.955 850.925 370.932 853.584 372.886C856.243 374.818 857.845 377.386 858.391 380.591H858.936C859.822 377.386 861.709 374.818 864.595 372.886C867.482 370.932 870.868 369.955 874.754 369.955C879.777 369.955 883.845 371.568 886.959 374.795C890.095 378.023 891.663 382.318 891.663 387.682V423H872.845V392.455C872.845 390.159 872.266 388.364 871.107 387.068C869.947 385.75 868.391 385.091 866.436 385.091C864.504 385.091 862.97 385.75 861.834 387.068C860.72 388.364 860.163 390.159 860.163 392.455V423H842.163V392.455C842.163 390.159 841.584 388.364 840.425 387.068C839.266 385.75 837.709 385.091 835.754 385.091C834.459 385.091 833.345 385.386 832.413 385.977C831.482 386.568 830.754 387.42 830.232 388.534C829.732 389.625 829.482 390.932 829.482 392.455V423H810.663ZM926.036 423.955C920.445 423.955 915.626 422.886 911.581 420.75C907.558 418.591 904.456 415.5 902.274 411.477C900.115 407.432 899.036 402.591 899.036 396.955C899.036 391.545 900.126 386.818 902.308 382.773C904.49 378.727 907.57 375.58 911.547 373.33C915.524 371.08 920.217 369.955 925.626 369.955C929.581 369.955 933.161 370.568 936.365 371.795C939.57 373.023 942.308 374.807 944.581 377.148C946.854 379.466 948.604 382.284 949.831 385.602C951.058 388.92 951.672 392.659 951.672 396.818V401.182H904.899V390.818H934.354C934.331 389.318 933.945 388 933.195 386.864C932.467 385.705 931.479 384.807 930.229 384.17C929.001 383.511 927.604 383.182 926.036 383.182C924.513 383.182 923.115 383.511 921.842 384.17C920.57 384.807 919.547 385.693 918.774 386.83C918.024 387.966 917.626 389.295 917.581 390.818V402C917.581 403.682 917.933 405.182 918.638 406.5C919.342 407.818 920.354 408.852 921.672 409.602C922.99 410.352 924.581 410.727 926.445 410.727C927.74 410.727 928.922 410.545 929.99 410.182C931.081 409.818 932.013 409.295 932.786 408.614C933.558 407.909 934.126 407.068 934.49 406.091H951.672C951.081 409.727 949.683 412.886 947.479 415.568C945.274 418.227 942.354 420.295 938.717 421.773C935.104 423.227 930.876 423.955 926.036 423.955ZM974.896 353.182V361.364C974.896 363.591 974.442 365.818 973.533 368.045C972.646 370.25 971.51 372.307 970.124 374.216C968.76 376.102 967.351 377.682 965.896 378.955L958.124 375C959.078 373.364 959.93 371.466 960.68 369.307C961.43 367.148 961.805 364.5 961.805 361.364V353.182H974.896ZM1025.87 387.682H1008.55C1008.46 386.614 1008.09 385.693 1007.43 384.92C1006.77 384.148 1005.92 383.557 1004.87 383.148C1003.85 382.716 1002.71 382.5 1001.46 382.5C999.848 382.5 998.462 382.795 997.303 383.386C996.143 383.977 995.575 384.818 995.598 385.909C995.575 386.682 995.905 387.398 996.587 388.057C997.291 388.716 998.643 389.227 1000.64 389.591L1011.28 391.5C1016.64 392.477 1020.63 394.125 1023.25 396.443C1025.88 398.739 1027.21 401.818 1027.23 405.682C1027.21 409.409 1026.1 412.648 1023.89 415.398C1021.71 418.125 1018.72 420.239 1014.93 421.739C1011.15 423.216 1006.85 423.955 1002.01 423.955C994.007 423.955 987.746 422.318 983.223 419.045C978.723 415.773 976.212 411.455 975.689 406.091H994.371C994.621 407.75 995.439 409.034 996.825 409.943C998.234 410.83 1000.01 411.273 1002.14 411.273C1003.87 411.273 1005.29 410.977 1006.4 410.386C1007.54 409.795 1008.12 408.955 1008.14 407.864C1008.12 406.864 1007.62 406.068 1006.64 405.477C1005.69 404.886 1004.19 404.409 1002.14 404.045L992.871 402.409C987.53 401.477 983.53 399.705 980.871 397.091C978.212 394.477 976.893 391.114 976.916 387C976.893 383.364 977.848 380.284 979.78 377.761C981.734 375.216 984.518 373.284 988.132 371.966C991.768 370.625 996.075 369.955 1001.05 369.955C1008.62 369.955 1014.59 371.523 1018.95 374.659C1023.34 377.795 1025.64 382.136 1025.87 387.682ZM1087.52 400.091V370.636H1106.34V423H1088.48V413.045H1087.93C1086.8 416.386 1084.81 419 1081.97 420.886C1079.13 422.75 1075.75 423.682 1071.84 423.682C1068.18 423.682 1064.98 422.841 1062.23 421.159C1059.5 419.477 1057.38 417.159 1055.85 414.205C1054.35 411.25 1053.59 407.864 1053.57 404.045V370.636H1072.39V400.091C1072.41 402.682 1073.07 404.716 1074.37 406.193C1075.68 407.67 1077.52 408.409 1079.89 408.409C1081.46 408.409 1082.81 408.08 1083.94 407.42C1085.1 406.739 1085.99 405.784 1086.6 404.557C1087.24 403.307 1087.55 401.818 1087.52 400.091ZM1115.91 442.636V370.636H1134.6V379.773H1135C1135.69 378 1136.69 376.375 1138 374.898C1139.32 373.398 1140.96 372.205 1142.91 371.318C1144.87 370.409 1147.14 369.955 1149.73 369.955C1153.19 369.955 1156.47 370.875 1159.58 372.716C1162.72 374.557 1165.27 377.455 1167.22 381.409C1169.2 385.364 1170.19 390.5 1170.19 396.818C1170.19 402.864 1169.24 407.875 1167.36 411.852C1165.49 415.83 1162.99 418.795 1159.86 420.75C1156.74 422.705 1153.32 423.682 1149.6 423.682C1147.14 423.682 1144.95 423.284 1143.02 422.489C1141.11 421.67 1139.47 420.568 1138.11 419.182C1136.77 417.773 1135.73 416.182 1135 414.409H1134.73V442.636H1115.91ZM1134.32 396.818C1134.32 399.364 1134.65 401.568 1135.31 403.432C1135.99 405.273 1136.95 406.705 1138.17 407.727C1139.42 408.727 1140.91 409.227 1142.64 409.227C1144.37 409.227 1145.83 408.739 1147.04 407.761C1148.27 406.761 1149.2 405.341 1149.83 403.5C1150.49 401.636 1150.82 399.409 1150.82 396.818C1150.82 394.227 1150.49 392.011 1149.83 390.17C1149.2 388.307 1148.27 386.886 1147.04 385.909C1145.83 384.909 1144.37 384.409 1142.64 384.409C1140.91 384.409 1139.42 384.909 1138.17 385.909C1136.95 386.886 1135.99 388.307 1135.31 390.17C1134.65 392.011 1134.32 394.227 1134.32 396.818ZM1199.89 353.182L1198.12 401.182H1182.57L1180.8 353.182H1199.89ZM1190.34 424.091C1187.71 424.091 1185.44 423.17 1183.56 421.33C1181.69 419.466 1180.77 417.205 1180.8 414.545C1180.77 411.955 1181.69 409.739 1183.56 407.898C1185.44 406.057 1187.71 405.136 1190.34 405.136C1192.84 405.136 1195.05 406.057 1196.96 407.898C1198.89 409.739 1199.87 411.955 1199.89 414.545C1199.87 416.318 1199.4 417.932 1198.49 419.386C1197.6 420.818 1196.44 421.966 1195.01 422.83C1193.58 423.67 1192.02 424.091 1190.34 424.091ZM609.484 540V470.182H639.621C644.803 470.182 649.337 471.125 653.223 473.011C657.109 474.898 660.132 477.614 662.291 481.159C664.45 484.705 665.53 488.955 665.53 493.909C665.53 498.909 664.416 503.125 662.189 506.557C659.984 509.989 656.882 512.58 652.882 514.33C648.905 516.08 644.257 516.955 638.939 516.955H620.939V502.227H635.121C637.348 502.227 639.246 501.955 640.814 501.409C642.405 500.841 643.621 499.943 644.462 498.716C645.325 497.489 645.757 495.886 645.757 493.909C645.757 491.909 645.325 490.284 644.462 489.034C643.621 487.761 642.405 486.83 640.814 486.239C639.246 485.625 637.348 485.318 635.121 485.318H628.439V540H609.484ZM650.393 507.955L667.848 540H647.257L630.212 507.955H650.393ZM697.848 540.955C692.257 540.955 687.439 539.886 683.393 537.75C679.371 535.591 676.268 532.5 674.087 528.477C671.928 524.432 670.848 519.591 670.848 513.955C670.848 508.545 671.939 503.818 674.121 499.773C676.303 495.727 679.382 492.58 683.359 490.33C687.337 488.08 692.03 486.955 697.439 486.955C701.393 486.955 704.973 487.568 708.178 488.795C711.382 490.023 714.121 491.807 716.393 494.148C718.666 496.466 720.416 499.284 721.643 502.602C722.871 505.92 723.484 509.659 723.484 513.818V518.182H676.712V507.818H706.166C706.143 506.318 705.757 505 705.007 503.864C704.28 502.705 703.291 501.807 702.041 501.17C700.814 500.511 699.416 500.182 697.848 500.182C696.325 500.182 694.928 500.511 693.655 501.17C692.382 501.807 691.359 502.693 690.587 503.83C689.837 504.966 689.439 506.295 689.393 507.818V519C689.393 520.682 689.746 522.182 690.45 523.5C691.155 524.818 692.166 525.852 693.484 526.602C694.803 527.352 696.393 527.727 698.257 527.727C699.553 527.727 700.734 527.545 701.803 527.182C702.893 526.818 703.825 526.295 704.598 525.614C705.371 524.909 705.939 524.068 706.303 523.091H723.484C722.893 526.727 721.496 529.886 719.291 532.568C717.087 535.227 714.166 537.295 710.53 538.773C706.916 540.227 702.689 540.955 697.848 540.955ZM745.754 540.818C742.413 540.818 739.459 540.273 736.891 539.182C734.345 538.068 732.345 536.386 730.891 534.136C729.436 531.886 728.709 529.023 728.709 525.545C728.709 522.682 729.197 520.239 730.175 518.216C731.152 516.17 732.516 514.5 734.266 513.205C736.016 511.909 738.05 510.92 740.368 510.239C742.709 509.557 745.232 509.114 747.936 508.909C750.868 508.682 753.22 508.409 754.993 508.091C756.788 507.75 758.084 507.284 758.879 506.693C759.675 506.08 760.072 505.273 760.072 504.273V504.136C760.072 502.773 759.55 501.727 758.504 501C757.459 500.273 756.118 499.909 754.482 499.909C752.686 499.909 751.22 500.307 750.084 501.102C748.97 501.875 748.3 503.068 748.072 504.682H730.754C730.982 501.5 731.993 498.568 733.788 495.886C735.607 493.182 738.254 491.023 741.732 489.409C745.209 487.773 749.55 486.955 754.754 486.955C758.504 486.955 761.868 487.398 764.845 488.284C767.822 489.148 770.357 490.364 772.447 491.932C774.538 493.477 776.129 495.295 777.22 497.386C778.334 499.455 778.891 501.705 778.891 504.136V540H761.3V532.636H760.891C759.845 534.591 758.572 536.17 757.072 537.375C755.595 538.58 753.902 539.455 751.993 540C750.107 540.545 748.027 540.818 745.754 540.818ZM751.891 528.955C753.322 528.955 754.663 528.659 755.913 528.068C757.186 527.477 758.22 526.625 759.016 525.511C759.811 524.398 760.209 523.045 760.209 521.455V517.091C759.709 517.295 759.175 517.489 758.607 517.67C758.061 517.852 757.47 518.023 756.834 518.182C756.22 518.341 755.561 518.489 754.857 518.625C754.175 518.761 753.459 518.886 752.709 519C751.254 519.227 750.061 519.602 749.129 520.125C748.22 520.625 747.538 521.25 747.084 522C746.652 522.727 746.436 523.545 746.436 524.455C746.436 525.909 746.947 527.023 747.97 527.795C748.993 528.568 750.3 528.955 751.891 528.955ZM806.837 540.682C803.109 540.682 799.678 539.705 796.541 537.75C793.428 535.795 790.928 532.83 789.041 528.852C787.178 524.875 786.246 519.864 786.246 513.818C786.246 507.5 787.223 502.364 789.178 498.409C791.155 494.455 793.7 491.557 796.814 489.716C799.95 487.875 803.246 486.955 806.7 486.955C809.291 486.955 811.564 487.409 813.518 488.318C815.473 489.205 817.109 490.398 818.428 491.898C819.746 493.375 820.746 495 821.428 496.773H821.7V470.182H840.518V540H821.837V531.409H821.428C820.7 533.182 819.655 534.773 818.291 536.182C816.95 537.568 815.314 538.67 813.382 539.489C811.473 540.284 809.291 540.682 806.837 540.682ZM813.791 526.227C815.518 526.227 816.996 525.727 818.223 524.727C819.473 523.705 820.428 522.273 821.087 520.432C821.768 518.568 822.109 516.364 822.109 513.818C822.109 511.227 821.768 509.011 821.087 507.17C820.428 505.307 819.473 503.886 818.223 502.909C816.996 501.909 815.518 501.409 813.791 501.409C812.064 501.409 810.587 501.909 809.359 502.909C808.155 503.886 807.223 505.307 806.564 507.17C805.928 509.011 805.609 511.227 805.609 513.818C805.609 516.409 805.928 518.636 806.564 520.5C807.223 522.341 808.155 523.761 809.359 524.761C810.587 525.739 812.064 526.227 813.791 526.227ZM861.212 559.636C859.053 559.636 856.996 559.466 855.041 559.125C853.087 558.807 851.371 558.364 849.893 557.795L853.984 544.432C855.53 544.977 856.939 545.33 858.212 545.489C859.507 545.648 860.609 545.557 861.518 545.216C862.45 544.875 863.121 544.227 863.53 543.273L863.939 542.318L845.53 487.636H865.166L873.621 523.909H874.166L882.757 487.636H902.53L883.439 544.364C882.484 547.25 881.098 549.841 879.28 552.136C877.484 554.455 875.121 556.284 872.189 557.625C869.257 558.966 865.598 559.636 861.212 559.636ZM958.234 487.636V501.273H923.734V487.636H958.234ZM930.416 475.091H949.234V523.159C949.234 523.886 949.359 524.5 949.609 525C949.859 525.477 950.246 525.841 950.768 526.091C951.291 526.318 951.962 526.432 952.78 526.432C953.348 526.432 954.007 526.364 954.757 526.227C955.53 526.091 956.098 525.977 956.462 525.886L959.189 539.114C958.348 539.364 957.143 539.67 955.575 540.034C954.03 540.398 952.189 540.636 950.053 540.75C945.734 540.977 942.109 540.534 939.178 539.42C936.246 538.284 934.041 536.5 932.564 534.068C931.087 531.636 930.371 528.591 930.416 524.932V475.091ZM990.578 540.955C984.896 540.955 980.033 539.83 975.987 537.58C971.942 535.307 968.839 532.148 966.68 528.102C964.521 524.034 963.442 519.318 963.442 513.955C963.442 508.591 964.521 503.886 966.68 499.841C968.839 495.773 971.942 492.614 975.987 490.364C980.033 488.091 984.896 486.955 990.578 486.955C996.26 486.955 1001.12 488.091 1005.17 490.364C1009.21 492.614 1012.32 495.773 1014.48 499.841C1016.63 503.886 1017.71 508.591 1017.71 513.955C1017.71 519.318 1016.63 524.034 1014.48 528.102C1012.32 532.148 1009.21 535.307 1005.17 537.58C1001.12 539.83 996.26 540.955 990.578 540.955ZM990.714 527.045C992.305 527.045 993.68 526.511 994.839 525.443C995.999 524.375 996.896 522.852 997.533 520.875C998.169 518.898 998.487 516.545 998.487 513.818C998.487 511.068 998.169 508.716 997.533 506.761C996.896 504.784 995.999 503.261 994.839 502.193C993.68 501.125 992.305 500.591 990.714 500.591C989.033 500.591 987.589 501.125 986.385 502.193C985.18 503.261 984.26 504.784 983.624 506.761C982.987 508.716 982.669 511.068 982.669 513.818C982.669 516.545 982.987 518.898 983.624 520.875C984.26 522.852 985.18 524.375 986.385 525.443C987.589 526.511 989.033 527.045 990.714 527.045ZM1044.2 540V470.182H1074.34C1079.52 470.182 1084.06 471.125 1087.94 473.011C1091.83 474.898 1094.85 477.614 1097.01 481.159C1099.17 484.705 1100.25 488.955 1100.25 493.909C1100.25 498.909 1099.13 503.125 1096.91 506.557C1094.7 509.989 1091.6 512.58 1087.6 514.33C1083.62 516.08 1078.98 516.955 1073.66 516.955H1055.66V502.227H1069.84C1072.07 502.227 1073.96 501.955 1075.53 501.409C1077.12 500.841 1078.34 499.943 1079.18 498.716C1080.04 497.489 1080.48 495.886 1080.48 493.909C1080.48 491.909 1080.04 490.284 1079.18 489.034C1078.34 487.761 1077.12 486.83 1075.53 486.239C1073.96 485.625 1072.07 485.318 1069.84 485.318H1063.16V540H1044.2ZM1085.11 507.955L1102.57 540H1081.98L1064.93 507.955H1085.11ZM1132.57 540.955C1126.98 540.955 1122.16 539.886 1118.11 537.75C1114.09 535.591 1110.99 532.5 1108.81 528.477C1106.65 524.432 1105.57 519.591 1105.57 513.955C1105.57 508.545 1106.66 503.818 1108.84 499.773C1111.02 495.727 1114.1 492.58 1118.08 490.33C1122.06 488.08 1126.75 486.955 1132.16 486.955C1136.11 486.955 1139.69 487.568 1142.9 488.795C1146.1 490.023 1148.84 491.807 1151.11 494.148C1153.38 496.466 1155.13 499.284 1156.36 502.602C1157.59 505.92 1158.2 509.659 1158.2 513.818V518.182H1111.43V507.818H1140.88C1140.86 506.318 1140.48 505 1139.73 503.864C1139 502.705 1138.01 501.807 1136.76 501.17C1135.53 500.511 1134.13 500.182 1132.57 500.182C1131.04 500.182 1129.65 500.511 1128.37 501.17C1127.1 501.807 1126.08 502.693 1125.31 503.83C1124.56 504.966 1124.16 506.295 1124.11 507.818V519C1124.11 520.682 1124.46 522.182 1125.17 523.5C1125.87 524.818 1126.88 525.852 1128.2 526.602C1129.52 527.352 1131.11 527.727 1132.98 527.727C1134.27 527.727 1135.45 527.545 1136.52 527.182C1137.61 526.818 1138.54 526.295 1139.32 525.614C1140.09 524.909 1140.66 524.068 1141.02 523.091H1158.2C1157.61 526.727 1156.21 529.886 1154.01 532.568C1151.81 535.227 1148.88 537.295 1145.25 538.773C1141.63 540.227 1137.41 540.955 1132.57 540.955ZM1213.75 504.682H1196.43C1196.34 503.614 1195.96 502.693 1195.3 501.92C1194.64 501.148 1193.79 500.557 1192.75 500.148C1191.72 499.716 1190.59 499.5 1189.34 499.5C1187.72 499.5 1186.34 499.795 1185.18 500.386C1184.02 500.977 1183.45 501.818 1183.47 502.909C1183.45 503.682 1183.78 504.398 1184.46 505.057C1185.17 505.716 1186.52 506.227 1188.52 506.591L1199.15 508.5C1204.52 509.477 1208.51 511.125 1211.12 513.443C1213.76 515.739 1215.09 518.818 1215.11 522.682C1215.09 526.409 1213.97 529.648 1211.77 532.398C1209.59 535.125 1206.6 537.239 1202.8 538.739C1199.03 540.216 1194.72 540.955 1189.88 540.955C1181.88 540.955 1175.62 539.318 1171.1 536.045C1166.6 532.773 1164.09 528.455 1163.56 523.091H1182.25C1182.5 524.75 1183.31 526.034 1184.7 526.943C1186.11 527.83 1187.88 528.273 1190.02 528.273C1191.75 528.273 1193.17 527.977 1194.28 527.386C1195.42 526.795 1196 525.955 1196.02 524.864C1196 523.864 1195.5 523.068 1194.52 522.477C1193.56 521.886 1192.06 521.409 1190.02 521.045L1180.75 519.409C1175.4 518.477 1171.4 516.705 1168.75 514.091C1166.09 511.477 1164.77 508.114 1164.79 504C1164.77 500.364 1165.72 497.284 1167.65 494.761C1169.61 492.216 1172.39 490.284 1176.01 488.966C1179.64 487.625 1183.95 486.955 1188.93 486.955C1196.5 486.955 1202.46 488.523 1206.83 491.659C1211.21 494.795 1213.52 499.136 1213.75 504.682ZM1253.55 487.636V501.273H1219.05V487.636H1253.55ZM1225.73 475.091H1244.55V523.159C1244.55 523.886 1244.67 524.5 1244.92 525C1245.17 525.477 1245.56 525.841 1246.08 526.091C1246.6 526.318 1247.27 526.432 1248.09 526.432C1248.66 526.432 1249.32 526.364 1250.07 526.227C1250.84 526.091 1251.41 525.977 1251.77 525.886L1254.5 539.114C1253.66 539.364 1252.46 539.67 1250.89 540.034C1249.34 540.398 1247.5 540.636 1245.37 540.75C1241.05 540.977 1237.42 540.534 1234.49 539.42C1231.56 538.284 1229.35 536.5 1227.88 534.068C1226.4 531.636 1225.68 528.591 1225.73 524.932V475.091ZM1275 518.182V516.545C1275 512.795 1275.29 509.807 1275.88 507.58C1276.48 505.352 1277.35 503.568 1278.51 502.227C1279.67 500.864 1281.09 499.636 1282.77 498.545C1284.23 497.591 1285.52 496.67 1286.66 495.784C1287.82 494.898 1288.73 493.955 1289.38 492.955C1290.07 491.955 1290.41 490.818 1290.41 489.545C1290.41 488.409 1290.13 487.409 1289.59 486.545C1289.04 485.682 1288.31 485.011 1287.37 484.534C1286.44 484.057 1285.41 483.818 1284.27 483.818C1283.04 483.818 1281.91 484.102 1280.86 484.67C1279.84 485.239 1279.01 486.023 1278.37 487.023C1277.76 488.023 1277.45 489.182 1277.45 490.5H1260C1260.04 485.5 1261.18 481.443 1263.41 478.33C1265.63 475.193 1268.59 472.898 1272.27 471.443C1275.95 469.966 1280 469.227 1284.41 469.227C1289.27 469.227 1293.61 469.943 1297.43 471.375C1301.25 472.784 1304.26 474.92 1306.46 477.784C1308.67 480.625 1309.77 484.182 1309.77 488.455C1309.77 491.205 1309.29 493.625 1308.34 495.716C1307.41 497.784 1306.1 499.614 1304.42 501.205C1302.76 502.773 1300.82 504.205 1298.59 505.5C1296.95 506.455 1295.58 507.443 1294.46 508.466C1293.35 509.466 1292.51 510.614 1291.94 511.909C1291.37 513.182 1291.09 514.727 1291.09 516.545V518.182H1275ZM1283.32 541.091C1280.68 541.091 1278.42 540.17 1276.53 538.33C1274.67 536.466 1273.75 534.205 1273.77 531.545C1273.75 528.955 1274.67 526.739 1276.53 524.898C1278.42 523.057 1280.68 522.136 1283.32 522.136C1285.82 522.136 1288.02 523.057 1289.93 524.898C1291.86 526.739 1292.84 528.955 1292.86 531.545C1292.84 533.318 1292.37 534.932 1291.46 536.386C1290.58 537.818 1289.42 538.966 1287.99 539.83C1286.56 540.67 1285 541.091 1283.32 541.091Z" fill="white"/>
<path d="M1135.5 794.5C1135.5 823.035 1112.85 849.508 1074.77 868.996C1036.82 888.415 984.23 900.5 926 900.5C867.77 900.5 815.176 888.415 777.232 868.996C739.155 849.508 716.5 823.035 716.5 794.5C716.5 765.965 739.155 739.492 777.232 720.004C815.176 700.585 867.77 688.5 926 688.5C984.23 688.5 1036.82 700.585 1074.77 720.004C1112.85 739.492 1135.5 765.965 1135.5 794.5Z" fill="#5A63A6" stroke="#FDE047" stroke-width="5"/>
<path d="M782.182 838L797.636 744.909H837.818C844.727 744.909 850.561 746.167 855.318 748.682C860.076 751.197 863.5 754.818 865.591 759.545C867.682 764.273 868.182 769.939 867.091 776.545C866 783.212 863.591 788.833 859.864 793.409C856.167 797.955 851.455 801.409 845.727 803.773C840.03 806.106 833.636 807.273 826.545 807.273H802.545L805.818 787.636H824.727C827.697 787.636 830.303 787.273 832.545 786.545C834.788 785.788 836.606 784.606 838 783C839.394 781.364 840.303 779.212 840.727 776.545C841.152 773.879 840.939 771.712 840.091 770.045C839.242 768.348 837.833 767.106 835.864 766.318C833.894 765.5 831.455 765.091 828.545 765.091H819.636L807.455 838H782.182ZM843.818 795.273L860 838H832.545L816.909 795.273H843.818ZM901.068 839.273C893.614 839.273 887.432 837.848 882.523 835C877.614 832.121 874.159 828 872.159 822.636C870.159 817.242 869.795 810.788 871.068 803.273C872.28 796.061 874.78 789.758 878.568 784.364C882.386 778.97 887.189 774.773 892.977 771.773C898.795 768.773 905.311 767.273 912.523 767.273C917.795 767.273 922.417 768.091 926.386 769.727C930.386 771.364 933.644 773.742 936.159 776.864C938.674 779.985 940.371 783.758 941.25 788.182C942.159 792.576 942.159 797.545 941.25 803.091L940.341 808.909H877.977L880.159 795.091H919.432C919.735 793.091 919.538 791.333 918.841 789.818C918.174 788.273 917.098 787.076 915.614 786.227C914.159 785.348 912.402 784.909 910.341 784.909C908.28 784.909 906.341 785.348 904.523 786.227C902.735 787.106 901.205 788.333 899.932 789.909C898.689 791.485 897.856 793.333 897.432 795.455L894.705 810C894.341 812.242 894.477 814.242 895.114 816C895.75 817.758 896.856 819.136 898.432 820.136C900.008 821.136 902.038 821.636 904.523 821.636C906.22 821.636 907.826 821.409 909.341 820.955C910.886 820.47 912.25 819.773 913.432 818.864C914.644 817.924 915.614 816.788 916.341 815.455H939.25C937.614 820.303 935.023 824.515 931.477 828.091C927.962 831.636 923.629 834.394 918.477 836.364C913.356 838.303 907.553 839.273 901.068 839.273ZM1017.12 790.909H994.58C994.701 789.455 994.443 788.212 993.807 787.182C993.17 786.152 992.277 785.364 991.125 784.818C990.004 784.273 988.731 784 987.307 784C984.822 784 982.564 784.561 980.534 785.682C978.504 786.773 977.367 788.212 977.125 790C976.973 790.697 977.201 791.348 977.807 791.955C978.413 792.561 980.004 793.121 982.58 793.636L996.398 796.182C1003.31 797.455 1008.34 799.773 1011.49 803.136C1014.67 806.47 1015.82 810.879 1014.94 816.364C1014.13 821.121 1012.03 825.212 1008.67 828.636C1005.31 832.061 1001.03 834.697 995.852 836.545C990.701 838.364 985.004 839.273 978.761 839.273C967.761 839.273 959.519 837.076 954.034 832.682C948.58 828.288 946.095 822.545 946.58 815.455H970.943C971.004 817.727 971.761 819.439 973.216 820.591C974.701 821.712 976.67 822.303 979.125 822.364C981.792 822.455 984.125 821.924 986.125 820.773C988.125 819.591 989.246 818.121 989.489 816.364C989.58 815.364 989.14 814.606 988.17 814.091C987.231 813.576 985.428 813.061 982.761 812.545L970.761 810.364C963.852 809.121 958.822 806.636 955.67 802.909C952.519 799.152 951.428 794.364 952.398 788.545C953.186 783.909 955.064 780.015 958.034 776.864C961.034 773.712 964.973 771.333 969.852 769.727C974.731 768.091 980.367 767.273 986.761 767.273C997.216 767.273 1005.13 769.379 1010.49 773.591C1015.88 777.773 1018.09 783.545 1017.12 790.909ZM1074.19 768.182L1071.1 786.364H1025.1L1028.19 768.182H1074.19ZM1039.83 751.455H1064.92L1054.28 815.545C1054.13 816.515 1054.16 817.333 1054.38 818C1054.59 818.636 1055.01 819.121 1055.65 819.455C1056.31 819.758 1057.19 819.909 1058.28 819.909C1059.01 819.909 1059.91 819.818 1060.97 819.636C1062.03 819.424 1062.83 819.273 1063.38 819.182L1064.1 836.818C1062.83 837.182 1061.12 837.591 1058.97 838.045C1056.84 838.53 1054.38 838.848 1051.56 839C1045.68 839.273 1040.89 838.652 1037.19 837.136C1033.53 835.621 1030.98 833.258 1029.56 830.045C1028.16 826.803 1027.92 822.758 1028.83 817.909L1039.83 751.455Z" fill="#F1CE73"/>
<defs>
<radialGradient id="paint0_radial_234_392" cx="0" cy="0" r="1" gradientUnits="userSpaceOnUse" gradientTransform="translate(960 540) rotate(90) scale(540 960)">
<stop stop-color="#262B1D"/>
<stop offset="1" stop-color="#171820"/>
</radialGradient>
</defs>
</svg>
