<svg width="1920" height="1080" viewBox="0 0 1920 1080" fill="none" xmlns="http://www.w3.org/2000/svg">
<rect width="1920" height="1080" fill="url(#paint0_radial_234_330)"/>
<path d="M636.682 147.364H617.455C617.318 145.773 616.955 144.33 616.364 143.034C615.795 141.739 615 140.625 613.977 139.693C612.977 138.739 611.761 138.011 610.33 137.511C608.898 136.989 607.273 136.727 605.455 136.727C602.273 136.727 599.58 137.5 597.375 139.045C595.193 140.591 593.534 142.807 592.398 145.693C591.284 148.58 590.727 152.045 590.727 156.091C590.727 160.364 591.295 163.943 592.432 166.83C593.591 169.693 595.261 171.852 597.443 173.307C599.625 174.739 602.25 175.455 605.318 175.455C607.068 175.455 608.636 175.239 610.023 174.807C611.409 174.352 612.614 173.705 613.636 172.864C614.659 172.023 615.489 171.011 616.125 169.83C616.784 168.625 617.227 167.273 617.455 165.773L636.682 165.909C636.455 168.864 635.625 171.875 634.193 174.943C632.761 177.989 630.727 180.807 628.091 183.398C625.477 185.966 622.239 188.034 618.375 189.602C614.511 191.17 610.023 191.955 604.909 191.955C598.5 191.955 592.75 190.58 587.659 187.83C582.591 185.08 578.58 181.034 575.625 175.693C572.693 170.352 571.227 163.818 571.227 156.091C571.227 148.318 572.727 141.773 575.727 136.455C578.727 131.114 582.773 127.08 587.864 124.352C592.955 121.602 598.636 120.227 604.909 120.227C609.318 120.227 613.375 120.83 617.08 122.034C620.784 123.239 624.034 125 626.83 127.318C629.625 129.614 631.875 132.443 633.58 135.807C635.284 139.17 636.318 143.023 636.682 147.364ZM660.145 191.818C656.804 191.818 653.849 191.273 651.281 190.182C648.736 189.068 646.736 187.386 645.281 185.136C643.827 182.886 643.099 180.023 643.099 176.545C643.099 173.682 643.588 171.239 644.565 169.216C645.543 167.17 646.906 165.5 648.656 164.205C650.406 162.909 652.44 161.92 654.759 161.239C657.099 160.557 659.622 160.114 662.327 159.909C665.259 159.682 667.611 159.409 669.384 159.091C671.179 158.75 672.474 158.284 673.27 157.693C674.065 157.08 674.463 156.273 674.463 155.273V155.136C674.463 153.773 673.94 152.727 672.895 152C671.849 151.273 670.509 150.909 668.872 150.909C667.077 150.909 665.611 151.307 664.474 152.102C663.361 152.875 662.69 154.068 662.463 155.682H645.145C645.372 152.5 646.384 149.568 648.179 146.886C649.997 144.182 652.645 142.023 656.122 140.409C659.599 138.773 663.94 137.955 669.145 137.955C672.895 137.955 676.259 138.398 679.236 139.284C682.213 140.148 684.747 141.364 686.838 142.932C688.929 144.477 690.52 146.295 691.611 148.386C692.724 150.455 693.281 152.705 693.281 155.136V191H675.69V183.636H675.281C674.236 185.591 672.963 187.17 671.463 188.375C669.986 189.58 668.293 190.455 666.384 191C664.497 191.545 662.418 191.818 660.145 191.818ZM666.281 179.955C667.713 179.955 669.054 179.659 670.304 179.068C671.577 178.477 672.611 177.625 673.406 176.511C674.202 175.398 674.599 174.045 674.599 172.455V168.091C674.099 168.295 673.565 168.489 672.997 168.67C672.452 168.852 671.861 169.023 671.224 169.182C670.611 169.341 669.952 169.489 669.247 169.625C668.565 169.761 667.849 169.886 667.099 170C665.645 170.227 664.452 170.602 663.52 171.125C662.611 171.625 661.929 172.25 661.474 173C661.043 173.727 660.827 174.545 660.827 175.455C660.827 176.909 661.338 178.023 662.361 178.795C663.384 179.568 664.69 179.955 666.281 179.955ZM721.227 191.682C717.5 191.682 714.068 190.705 710.932 188.75C707.818 186.795 705.318 183.83 703.432 179.852C701.568 175.875 700.636 170.864 700.636 164.818C700.636 158.5 701.614 153.364 703.568 149.409C705.545 145.455 708.091 142.557 711.205 140.716C714.341 138.875 717.636 137.955 721.091 137.955C723.682 137.955 725.955 138.409 727.909 139.318C729.864 140.205 731.5 141.398 732.818 142.898C734.136 144.375 735.136 146 735.818 147.773H736.091V121.182H754.909V191H736.227V182.409H735.818C735.091 184.182 734.045 185.773 732.682 187.182C731.341 188.568 729.705 189.67 727.773 190.489C725.864 191.284 723.682 191.682 721.227 191.682ZM728.182 177.227C729.909 177.227 731.386 176.727 732.614 175.727C733.864 174.705 734.818 173.273 735.477 171.432C736.159 169.568 736.5 167.364 736.5 164.818C736.5 162.227 736.159 160.011 735.477 158.17C734.818 156.307 733.864 154.886 732.614 153.909C731.386 152.909 729.909 152.409 728.182 152.409C726.455 152.409 724.977 152.909 723.75 153.909C722.545 154.886 721.614 156.307 720.955 158.17C720.318 160.011 720 162.227 720 164.818C720 167.409 720.318 169.636 720.955 171.5C721.614 173.341 722.545 174.761 723.75 175.761C724.977 176.739 726.455 177.227 728.182 177.227ZM789.239 191.955C783.648 191.955 778.83 190.886 774.784 188.75C770.761 186.591 767.659 183.5 765.477 179.477C763.318 175.432 762.239 170.591 762.239 164.955C762.239 159.545 763.33 154.818 765.511 150.773C767.693 146.727 770.773 143.58 774.75 141.33C778.727 139.08 783.42 137.955 788.83 137.955C792.784 137.955 796.364 138.568 799.568 139.795C802.773 141.023 805.511 142.807 807.784 145.148C810.057 147.466 811.807 150.284 813.034 153.602C814.261 156.92 814.875 160.659 814.875 164.818V169.182H768.102V158.818H797.557C797.534 157.318 797.148 156 796.398 154.864C795.67 153.705 794.682 152.807 793.432 152.17C792.205 151.511 790.807 151.182 789.239 151.182C787.716 151.182 786.318 151.511 785.045 152.17C783.773 152.807 782.75 153.693 781.977 154.83C781.227 155.966 780.83 157.295 780.784 158.818V170C780.784 171.682 781.136 173.182 781.841 174.5C782.545 175.818 783.557 176.852 784.875 177.602C786.193 178.352 787.784 178.727 789.648 178.727C790.943 178.727 792.125 178.545 793.193 178.182C794.284 177.818 795.216 177.295 795.989 176.614C796.761 175.909 797.33 175.068 797.693 174.091H814.875C814.284 177.727 812.886 180.886 810.682 183.568C808.477 186.227 805.557 188.295 801.92 189.773C798.307 191.227 794.08 191.955 789.239 191.955ZM841.372 161.545V191H822.554V138.636H840.418V148.591H840.963C842.099 145.273 844.099 142.67 846.963 140.784C849.849 138.898 853.213 137.955 857.054 137.955C860.759 137.955 863.974 138.807 866.702 140.511C869.452 142.193 871.577 144.511 873.077 147.466C874.599 150.42 875.349 153.795 875.327 157.591V191H856.509V161.545C856.531 158.955 855.872 156.92 854.531 155.443C853.213 153.966 851.372 153.227 849.009 153.227C847.463 153.227 846.111 153.568 844.952 154.25C843.815 154.909 842.94 155.864 842.327 157.114C841.713 158.341 841.395 159.818 841.372 161.545ZM909.844 191.955C904.162 191.955 899.298 190.83 895.253 188.58C891.207 186.307 888.105 183.148 885.946 179.102C883.787 175.034 882.707 170.318 882.707 164.955C882.707 159.591 883.787 154.886 885.946 150.841C888.105 146.773 891.207 143.614 895.253 141.364C899.298 139.091 904.162 137.955 909.844 137.955C914.98 137.955 919.423 138.886 923.173 140.75C926.946 142.591 929.866 145.205 931.935 148.591C934.003 151.955 935.048 155.909 935.071 160.455H917.616C917.366 157.705 916.571 155.614 915.23 154.182C913.912 152.727 912.207 152 910.116 152C908.48 152 907.048 152.477 905.821 153.432C904.594 154.364 903.639 155.784 902.957 157.693C902.276 159.58 901.935 161.955 901.935 164.818C901.935 167.682 902.276 170.068 902.957 171.977C903.639 173.864 904.594 175.284 905.821 176.239C907.048 177.17 908.48 177.636 910.116 177.636C911.503 177.636 912.73 177.318 913.798 176.682C914.866 176.023 915.73 175.068 916.389 173.818C917.071 172.545 917.48 171 917.616 169.182H935.071C935.003 173.795 933.946 177.818 931.901 181.25C929.855 184.659 926.957 187.295 923.207 189.159C919.48 191.023 915.026 191.955 909.844 191.955ZM967.926 191.955C962.335 191.955 957.517 190.886 953.472 188.75C949.449 186.591 946.347 183.5 944.165 179.477C942.006 175.432 940.926 170.591 940.926 164.955C940.926 159.545 942.017 154.818 944.199 150.773C946.381 146.727 949.46 143.58 953.438 141.33C957.415 139.08 962.108 137.955 967.517 137.955C971.472 137.955 975.051 138.568 978.256 139.795C981.46 141.023 984.199 142.807 986.472 145.148C988.744 147.466 990.494 150.284 991.722 153.602C992.949 156.92 993.562 160.659 993.562 164.818V169.182H946.79V158.818H976.244C976.222 157.318 975.835 156 975.085 154.864C974.358 153.705 973.369 152.807 972.119 152.17C970.892 151.511 969.494 151.182 967.926 151.182C966.403 151.182 965.006 151.511 963.733 152.17C962.46 152.807 961.438 153.693 960.665 154.83C959.915 155.966 959.517 157.295 959.472 158.818V170C959.472 171.682 959.824 173.182 960.528 174.5C961.233 175.818 962.244 176.852 963.562 177.602C964.881 178.352 966.472 178.727 968.335 178.727C969.631 178.727 970.813 178.545 971.881 178.182C972.972 177.818 973.903 177.295 974.676 176.614C975.449 175.909 976.017 175.068 976.381 174.091H993.562C992.972 177.727 991.574 180.886 989.369 183.568C987.165 186.227 984.244 188.295 980.608 189.773C976.994 191.227 972.767 191.955 967.926 191.955ZM1085.28 147.364H1066.05C1065.91 145.773 1065.55 144.33 1064.96 143.034C1064.39 141.739 1063.59 140.625 1062.57 139.693C1061.57 138.739 1060.36 138.011 1058.92 137.511C1057.49 136.989 1055.87 136.727 1054.05 136.727C1050.87 136.727 1048.17 137.5 1045.97 139.045C1043.79 140.591 1042.13 142.807 1040.99 145.693C1039.88 148.58 1039.32 152.045 1039.32 156.091C1039.32 160.364 1039.89 163.943 1041.03 166.83C1042.18 169.693 1043.86 171.852 1046.04 173.307C1048.22 174.739 1050.84 175.455 1053.91 175.455C1055.66 175.455 1057.23 175.239 1058.62 174.807C1060 174.352 1061.21 173.705 1062.23 172.864C1063.25 172.023 1064.08 171.011 1064.72 169.83C1065.38 168.625 1065.82 167.273 1066.05 165.773L1085.28 165.909C1085.05 168.864 1084.22 171.875 1082.79 174.943C1081.36 177.989 1079.32 180.807 1076.68 183.398C1074.07 185.966 1070.83 188.034 1066.97 189.602C1063.11 191.17 1058.62 191.955 1053.5 191.955C1047.09 191.955 1041.34 190.58 1036.25 187.83C1031.18 185.08 1027.17 181.034 1024.22 175.693C1021.29 170.352 1019.82 163.818 1019.82 156.091C1019.82 148.318 1021.32 141.773 1024.32 136.455C1027.32 131.114 1031.37 127.08 1036.46 124.352C1041.55 121.602 1047.23 120.227 1053.5 120.227C1057.91 120.227 1061.97 120.83 1065.67 122.034C1069.38 123.239 1072.63 125 1075.42 127.318C1078.22 129.614 1080.47 132.443 1082.17 135.807C1083.88 139.17 1084.91 143.023 1085.28 147.364ZM1112.97 121.182V191H1094.15V121.182H1112.97ZM1147.78 191.955C1142.1 191.955 1137.24 190.83 1133.19 188.58C1129.14 186.307 1126.04 183.148 1123.88 179.102C1121.72 175.034 1120.64 170.318 1120.64 164.955C1120.64 159.591 1121.72 154.886 1123.88 150.841C1126.04 146.773 1129.14 143.614 1133.19 141.364C1137.24 139.091 1142.1 137.955 1147.78 137.955C1153.46 137.955 1158.33 139.091 1162.37 141.364C1166.42 143.614 1169.52 146.773 1171.68 150.841C1173.84 154.886 1174.92 159.591 1174.92 164.955C1174.92 170.318 1173.84 175.034 1171.68 179.102C1169.52 183.148 1166.42 186.307 1162.37 188.58C1158.33 190.83 1153.46 191.955 1147.78 191.955ZM1147.92 178.045C1149.51 178.045 1150.88 177.511 1152.04 176.443C1153.2 175.375 1154.1 173.852 1154.74 171.875C1155.37 169.898 1155.69 167.545 1155.69 164.818C1155.69 162.068 1155.37 159.716 1154.74 157.761C1154.1 155.784 1153.2 154.261 1152.04 153.193C1150.88 152.125 1149.51 151.591 1147.92 151.591C1146.24 151.591 1144.79 152.125 1143.59 153.193C1142.38 154.261 1141.46 155.784 1140.83 157.761C1140.19 159.716 1139.87 162.068 1139.87 164.818C1139.87 167.545 1140.19 169.898 1140.83 171.875C1141.46 173.852 1142.38 175.375 1143.59 176.443C1144.79 177.511 1146.24 178.045 1147.92 178.045ZM1207.78 191.955C1202.1 191.955 1197.24 190.83 1193.19 188.58C1189.14 186.307 1186.04 183.148 1183.88 179.102C1181.72 175.034 1180.64 170.318 1180.64 164.955C1180.64 159.591 1181.72 154.886 1183.88 150.841C1186.04 146.773 1189.14 143.614 1193.19 141.364C1197.24 139.091 1202.1 137.955 1207.78 137.955C1212.92 137.955 1217.36 138.886 1221.11 140.75C1224.88 142.591 1227.8 145.205 1229.87 148.591C1231.94 151.955 1232.99 155.909 1233.01 160.455H1215.55C1215.3 157.705 1214.51 155.614 1213.17 154.182C1211.85 152.727 1210.14 152 1208.05 152C1206.42 152 1204.99 152.477 1203.76 153.432C1202.53 154.364 1201.58 155.784 1200.89 157.693C1200.21 159.58 1199.87 161.955 1199.87 164.818C1199.87 167.682 1200.21 170.068 1200.89 171.977C1201.58 173.864 1202.53 175.284 1203.76 176.239C1204.99 177.17 1206.42 177.636 1208.05 177.636C1209.44 177.636 1210.67 177.318 1211.74 176.682C1212.8 176.023 1213.67 175.068 1214.33 173.818C1215.01 172.545 1215.42 171 1215.55 169.182H1233.01C1232.94 173.795 1231.88 177.818 1229.84 181.25C1227.79 184.659 1224.89 187.295 1221.14 189.159C1217.42 191.023 1212.96 191.955 1207.78 191.955ZM1257.68 178.591L1257.82 156.227H1260.27L1272.95 138.636H1294.09L1272.82 166.045H1267.5L1257.68 178.591ZM1240.77 191V121.182H1259.59V191H1240.77ZM1273.09 191L1261.09 170.273L1273.36 156.909L1294.64 191H1273.09Z" fill="#F1CE73"/>
<path d="M327.375 364V317.455H340.011V335.636H356.739V317.455H369.375V364H356.739V345.818H340.011V364H327.375ZM392.375 364.636C388.587 364.636 385.345 363.886 382.648 362.386C379.951 360.871 377.883 358.765 376.443 356.068C375.004 353.356 374.284 350.212 374.284 346.636C374.284 343.061 375.004 339.924 376.443 337.227C377.883 334.515 379.951 332.409 382.648 330.909C385.345 329.394 388.587 328.636 392.375 328.636C396.163 328.636 399.405 329.394 402.102 330.909C404.799 332.409 406.867 334.515 408.307 337.227C409.746 339.924 410.466 343.061 410.466 346.636C410.466 350.212 409.746 353.356 408.307 356.068C406.867 358.765 404.799 360.871 402.102 362.386C399.405 363.886 396.163 364.636 392.375 364.636ZM392.466 355.364C393.527 355.364 394.443 355.008 395.216 354.295C395.989 353.583 396.587 352.568 397.011 351.25C397.436 349.932 397.648 348.364 397.648 346.545C397.648 344.712 397.436 343.144 397.011 341.841C396.587 340.523 395.989 339.508 395.216 338.795C394.443 338.083 393.527 337.727 392.466 337.727C391.345 337.727 390.383 338.083 389.58 338.795C388.777 339.508 388.163 340.523 387.739 341.841C387.314 343.144 387.102 344.712 387.102 346.545C387.102 348.364 387.314 349.932 387.739 351.25C388.163 352.568 388.777 353.583 389.58 354.295C390.383 355.008 391.345 355.364 392.466 355.364ZM421.114 364L412.386 329.091H424.932L428.932 350.364H429.205L433.659 329.091H445.841L450.477 350.182H450.75L454.568 329.091H467.114L458.386 364H444.841L439.932 345.273H439.568L434.659 364H421.114ZM496.227 317.455V364H483.682V317.455H496.227ZM519.438 364.636C515.65 364.636 512.407 363.886 509.71 362.386C507.013 360.871 504.945 358.765 503.506 356.068C502.066 353.356 501.347 350.212 501.347 346.636C501.347 343.061 502.066 339.924 503.506 337.227C504.945 334.515 507.013 332.409 509.71 330.909C512.407 329.394 515.65 328.636 519.438 328.636C523.225 328.636 526.468 329.394 529.165 330.909C531.862 332.409 533.93 334.515 535.369 337.227C536.809 339.924 537.528 343.061 537.528 346.636C537.528 350.212 536.809 353.356 535.369 356.068C533.93 358.765 531.862 360.871 529.165 362.386C526.468 363.886 523.225 364.636 519.438 364.636ZM519.528 355.364C520.589 355.364 521.506 355.008 522.278 354.295C523.051 353.583 523.65 352.568 524.074 351.25C524.498 349.932 524.71 348.364 524.71 346.545C524.71 344.712 524.498 343.144 524.074 341.841C523.65 340.523 523.051 339.508 522.278 338.795C521.506 338.083 520.589 337.727 519.528 337.727C518.407 337.727 517.445 338.083 516.642 338.795C515.839 339.508 515.225 340.523 514.801 341.841C514.377 343.144 514.165 344.712 514.165 346.545C514.165 348.364 514.377 349.932 514.801 351.25C515.225 352.568 515.839 353.583 516.642 354.295C517.445 355.008 518.407 355.364 519.528 355.364ZM555.165 344.364V364H542.619V329.091H554.528V335.727H554.892C555.65 333.515 556.983 331.78 558.892 330.523C560.816 329.265 563.059 328.636 565.619 328.636C568.089 328.636 570.233 329.205 572.051 330.341C573.884 331.462 575.301 333.008 576.301 334.977C577.316 336.947 577.816 339.197 577.801 341.727V364H565.256V344.364C565.271 342.636 564.831 341.28 563.938 340.295C563.059 339.311 561.831 338.818 560.256 338.818C559.225 338.818 558.324 339.045 557.551 339.5C556.794 339.939 556.21 340.576 555.801 341.409C555.392 342.227 555.18 343.212 555.165 344.364ZM600.812 377.818C597.312 377.818 594.312 377.318 591.812 376.318C589.328 375.333 587.396 373.97 586.017 372.227C584.653 370.5 583.888 368.515 583.722 366.273H595.812C595.934 367.015 596.237 367.614 596.722 368.068C597.206 368.523 597.828 368.848 598.585 369.045C599.358 369.258 600.222 369.364 601.176 369.364C602.797 369.364 604.138 368.97 605.199 368.182C606.275 367.394 606.812 365.97 606.812 363.909V358H606.449C605.994 359.182 605.297 360.189 604.358 361.023C603.419 361.841 602.29 362.47 600.972 362.909C599.653 363.333 598.206 363.545 596.631 363.545C594.146 363.545 591.858 362.97 589.767 361.818C587.691 360.667 586.025 358.841 584.767 356.341C583.525 353.841 582.903 350.576 582.903 346.545C582.903 342.333 583.555 338.909 584.858 336.273C586.176 333.636 587.873 331.705 589.949 330.477C592.04 329.25 594.237 328.636 596.54 328.636C598.267 328.636 599.782 328.939 601.085 329.545C602.388 330.136 603.479 330.932 604.358 331.932C605.237 332.917 605.903 334 606.358 335.182H606.631V329.091H619.176V363.909C619.176 366.864 618.411 369.371 616.881 371.432C615.366 373.508 613.229 375.091 610.472 376.182C607.714 377.273 604.494 377.818 600.812 377.818ZM601.267 354.636C602.419 354.636 603.403 354.318 604.222 353.682C605.055 353.03 605.691 352.106 606.131 350.909C606.585 349.697 606.812 348.242 606.812 346.545C606.812 344.818 606.585 343.341 606.131 342.114C605.691 340.871 605.055 339.924 604.222 339.273C603.403 338.606 602.419 338.273 601.267 338.273C600.116 338.273 599.131 338.606 598.312 339.273C597.509 339.924 596.888 340.871 596.449 342.114C596.025 343.341 595.812 344.818 595.812 346.545C595.812 348.273 596.025 349.742 596.449 350.955C596.888 352.152 597.509 353.068 598.312 353.705C599.131 354.326 600.116 354.636 601.267 354.636ZM659.125 329.091V338.182H636.125V329.091H659.125ZM640.58 320.727H653.125V352.773C653.125 353.258 653.208 353.667 653.375 354C653.542 354.318 653.799 354.561 654.148 354.727C654.496 354.879 654.943 354.955 655.489 354.955C655.867 354.955 656.307 354.909 656.807 354.818C657.322 354.727 657.701 354.652 657.943 354.591L659.761 363.409C659.201 363.576 658.398 363.78 657.352 364.023C656.322 364.265 655.095 364.424 653.67 364.5C650.792 364.652 648.375 364.356 646.42 363.614C644.466 362.856 642.996 361.667 642.011 360.045C641.027 358.424 640.549 356.394 640.58 353.955V320.727ZM680.688 364.636C676.9 364.636 673.657 363.886 670.96 362.386C668.263 360.871 666.195 358.765 664.756 356.068C663.316 353.356 662.597 350.212 662.597 346.636C662.597 343.061 663.316 339.924 664.756 337.227C666.195 334.515 668.263 332.409 670.96 330.909C673.657 329.394 676.9 328.636 680.688 328.636C684.475 328.636 687.718 329.394 690.415 330.909C693.112 332.409 695.18 334.515 696.619 337.227C698.059 339.924 698.778 343.061 698.778 346.636C698.778 350.212 698.059 353.356 696.619 356.068C695.18 358.765 693.112 360.871 690.415 362.386C687.718 363.886 684.475 364.636 680.688 364.636ZM680.778 355.364C681.839 355.364 682.756 355.008 683.528 354.295C684.301 353.583 684.9 352.568 685.324 351.25C685.748 349.932 685.96 348.364 685.96 346.545C685.96 344.712 685.748 343.144 685.324 341.841C684.9 340.523 684.301 339.508 683.528 338.795C682.756 338.083 681.839 337.727 680.778 337.727C679.657 337.727 678.695 338.083 677.892 338.795C677.089 339.508 676.475 340.523 676.051 341.841C675.627 343.144 675.415 344.712 675.415 346.545C675.415 348.364 675.627 349.932 676.051 351.25C676.475 352.568 677.089 353.583 677.892 354.295C678.695 355.008 679.657 355.364 680.778 355.364ZM716.438 364V317.455H749.165V327.636H729.074V335.636H747.165V345.818H729.074V364H716.438ZM768.25 364.636C764.462 364.636 761.22 363.886 758.523 362.386C755.826 360.871 753.758 358.765 752.318 356.068C750.879 353.356 750.159 350.212 750.159 346.636C750.159 343.061 750.879 339.924 752.318 337.227C753.758 334.515 755.826 332.409 758.523 330.909C761.22 329.394 764.462 328.636 768.25 328.636C772.038 328.636 775.28 329.394 777.977 330.909C780.674 332.409 782.742 334.515 784.182 337.227C785.621 339.924 786.341 343.061 786.341 346.636C786.341 350.212 785.621 353.356 784.182 356.068C782.742 358.765 780.674 360.871 777.977 362.386C775.28 363.886 772.038 364.636 768.25 364.636ZM768.341 355.364C769.402 355.364 770.318 355.008 771.091 354.295C771.864 353.583 772.462 352.568 772.886 351.25C773.311 349.932 773.523 348.364 773.523 346.545C773.523 344.712 773.311 343.144 772.886 341.841C772.462 340.523 771.864 339.508 771.091 338.795C770.318 338.083 769.402 337.727 768.341 337.727C767.22 337.727 766.258 338.083 765.455 338.795C764.652 339.508 764.038 340.523 763.614 341.841C763.189 343.144 762.977 344.712 762.977 346.545C762.977 348.364 763.189 349.932 763.614 351.25C764.038 352.568 764.652 353.583 765.455 354.295C766.258 355.008 767.22 355.364 768.341 355.364ZM808.25 364.636C804.462 364.636 801.22 363.886 798.523 362.386C795.826 360.871 793.758 358.765 792.318 356.068C790.879 353.356 790.159 350.212 790.159 346.636C790.159 343.061 790.879 339.924 792.318 337.227C793.758 334.515 795.826 332.409 798.523 330.909C801.22 329.394 804.462 328.636 808.25 328.636C811.674 328.636 814.636 329.258 817.136 330.5C819.652 331.727 821.598 333.47 822.977 335.727C824.356 337.97 825.053 340.606 825.068 343.636H813.432C813.265 341.803 812.735 340.409 811.841 339.455C810.962 338.485 809.826 338 808.432 338C807.341 338 806.386 338.318 805.568 338.955C804.75 339.576 804.114 340.523 803.659 341.795C803.205 343.053 802.977 344.636 802.977 346.545C802.977 348.455 803.205 350.045 803.659 351.318C804.114 352.576 804.75 353.523 805.568 354.159C806.386 354.78 807.341 355.091 808.432 355.091C809.356 355.091 810.174 354.879 810.886 354.455C811.598 354.015 812.174 353.379 812.614 352.545C813.068 351.697 813.341 350.667 813.432 349.455H825.068C825.023 352.53 824.318 355.212 822.955 357.5C821.591 359.773 819.659 361.53 817.159 362.773C814.674 364.015 811.705 364.636 808.25 364.636ZM852.881 348.727V329.091H865.426V364H853.517V357.364H853.153C852.396 359.591 851.07 361.333 849.176 362.591C847.282 363.833 845.032 364.455 842.426 364.455C839.987 364.455 837.85 363.894 836.017 362.773C834.199 361.652 832.782 360.106 831.767 358.136C830.767 356.167 830.259 353.909 830.244 351.364V329.091H842.79V348.727C842.805 350.455 843.244 351.811 844.108 352.795C844.987 353.78 846.214 354.273 847.79 354.273C848.835 354.273 849.737 354.053 850.494 353.614C851.267 353.159 851.858 352.523 852.267 351.705C852.691 350.871 852.896 349.879 852.881 348.727ZM903.716 340.455H892.17C892.11 339.742 891.86 339.129 891.42 338.614C890.981 338.098 890.413 337.705 889.716 337.432C889.034 337.144 888.277 337 887.443 337C886.367 337 885.443 337.197 884.67 337.591C883.898 337.985 883.519 338.545 883.534 339.273C883.519 339.788 883.739 340.265 884.193 340.705C884.663 341.144 885.564 341.485 886.898 341.727L893.989 343C897.564 343.652 900.223 344.75 901.966 346.295C903.723 347.826 904.61 349.879 904.625 352.455C904.61 354.939 903.867 357.098 902.398 358.932C900.943 360.75 898.951 362.159 896.42 363.159C893.905 364.144 891.034 364.636 887.807 364.636C882.473 364.636 878.299 363.545 875.284 361.364C872.284 359.182 870.61 356.303 870.261 352.727H882.716C882.883 353.833 883.428 354.689 884.352 355.295C885.292 355.886 886.473 356.182 887.898 356.182C889.049 356.182 889.996 355.985 890.739 355.591C891.496 355.197 891.883 354.636 891.898 353.909C891.883 353.242 891.549 352.712 890.898 352.318C890.261 351.924 889.261 351.606 887.898 351.364L881.716 350.273C878.155 349.652 875.489 348.47 873.716 346.727C871.943 344.985 871.064 342.742 871.08 340C871.064 337.576 871.701 335.523 872.989 333.841C874.292 332.144 876.148 330.856 878.557 329.977C880.981 329.083 883.852 328.636 887.17 328.636C892.216 328.636 896.193 329.682 899.102 331.773C902.027 333.864 903.564 336.758 903.716 340.455ZM918.614 349.455V348.364C918.614 345.864 918.811 343.871 919.205 342.386C919.598 340.902 920.182 339.712 920.955 338.818C921.727 337.909 922.674 337.091 923.795 336.364C924.765 335.727 925.629 335.114 926.386 334.523C927.159 333.932 927.765 333.303 928.205 332.636C928.659 331.97 928.886 331.212 928.886 330.364C928.886 329.606 928.705 328.939 928.341 328.364C927.977 327.788 927.485 327.341 926.864 327.023C926.242 326.705 925.553 326.545 924.795 326.545C923.977 326.545 923.22 326.735 922.523 327.114C921.841 327.492 921.288 328.015 920.864 328.682C920.455 329.348 920.25 330.121 920.25 331H908.614C908.644 327.667 909.402 324.962 910.886 322.886C912.371 320.795 914.341 319.265 916.795 318.295C919.25 317.311 921.947 316.818 924.886 316.818C928.129 316.818 931.023 317.295 933.568 318.25C936.114 319.189 938.121 320.614 939.591 322.523C941.061 324.417 941.795 326.788 941.795 329.636C941.795 331.47 941.477 333.083 940.841 334.477C940.22 335.856 939.348 337.076 938.227 338.136C937.121 339.182 935.826 340.136 934.341 341C933.25 341.636 932.333 342.295 931.591 342.977C930.848 343.644 930.288 344.409 929.909 345.273C929.53 346.121 929.341 347.152 929.341 348.364V349.455H918.614ZM924.159 364.727C922.402 364.727 920.894 364.114 919.636 362.886C918.394 361.644 917.78 360.136 917.795 358.364C917.78 356.636 918.394 355.159 919.636 353.932C920.894 352.705 922.402 352.091 924.159 352.091C925.826 352.091 927.295 352.705 928.568 353.932C929.856 355.159 930.508 356.636 930.523 358.364C930.508 359.545 930.197 360.621 929.591 361.591C929 362.545 928.227 363.311 927.273 363.886C926.318 364.447 925.28 364.727 924.159 364.727Z" fill="#FAF1C4"/>
<path d="M321.938 488V441.455H342.028C345.483 441.455 348.506 442.136 351.097 443.5C353.688 444.864 355.703 446.78 357.142 449.25C358.581 451.72 359.301 454.606 359.301 457.909C359.301 461.242 358.559 464.129 357.074 466.568C355.604 469.008 353.536 470.886 350.869 472.205C348.218 473.523 345.119 474.182 341.574 474.182H329.574V464.364H339.028C340.513 464.364 341.778 464.106 342.824 463.591C343.884 463.061 344.695 462.311 345.256 461.341C345.831 460.371 346.119 459.227 346.119 457.909C346.119 456.576 345.831 455.439 345.256 454.5C344.695 453.545 343.884 452.818 342.824 452.318C341.778 451.803 340.513 451.545 339.028 451.545H334.574V488H321.938ZM376.665 441.455V488H364.119V441.455H376.665ZM392.784 488.545C390.557 488.545 388.587 488.182 386.875 487.455C385.178 486.712 383.845 485.591 382.875 484.091C381.905 482.591 381.42 480.682 381.42 478.364C381.42 476.455 381.746 474.826 382.398 473.477C383.049 472.114 383.958 471 385.125 470.136C386.292 469.273 387.648 468.614 389.193 468.159C390.754 467.705 392.436 467.409 394.239 467.273C396.193 467.121 397.761 466.939 398.943 466.727C400.14 466.5 401.004 466.189 401.534 465.795C402.064 465.386 402.33 464.848 402.33 464.182V464.091C402.33 463.182 401.981 462.485 401.284 462C400.587 461.515 399.693 461.273 398.602 461.273C397.405 461.273 396.428 461.538 395.67 462.068C394.928 462.583 394.481 463.379 394.33 464.455H382.784C382.936 462.333 383.61 460.379 384.807 458.591C386.019 456.788 387.784 455.348 390.102 454.273C392.42 453.182 395.314 452.636 398.784 452.636C401.284 452.636 403.527 452.932 405.511 453.523C407.496 454.098 409.186 454.909 410.58 455.955C411.973 456.985 413.034 458.197 413.761 459.591C414.504 460.97 414.875 462.47 414.875 464.091V488H403.148V483.091H402.875C402.178 484.394 401.33 485.447 400.33 486.25C399.345 487.053 398.216 487.636 396.943 488C395.686 488.364 394.299 488.545 392.784 488.545ZM396.875 480.636C397.83 480.636 398.723 480.439 399.557 480.045C400.405 479.652 401.095 479.083 401.625 478.341C402.155 477.598 402.42 476.697 402.42 475.636V472.727C402.087 472.864 401.731 472.992 401.352 473.114C400.989 473.235 400.595 473.348 400.17 473.455C399.761 473.561 399.322 473.659 398.852 473.75C398.398 473.841 397.92 473.924 397.42 474C396.451 474.152 395.655 474.402 395.034 474.75C394.428 475.083 393.973 475.5 393.67 476C393.383 476.485 393.239 477.03 393.239 477.636C393.239 478.606 393.58 479.348 394.261 479.864C394.943 480.379 395.814 480.636 396.875 480.636ZM427.256 501.091C425.816 501.091 424.445 500.977 423.142 500.75C421.839 500.538 420.695 500.242 419.71 499.864L422.438 490.955C423.468 491.318 424.407 491.553 425.256 491.659C426.119 491.765 426.854 491.705 427.46 491.477C428.081 491.25 428.528 490.818 428.801 490.182L429.074 489.545L416.801 453.091H429.892L435.528 477.273H435.892L441.619 453.091H454.801L442.074 490.909C441.438 492.833 440.513 494.561 439.301 496.091C438.104 497.636 436.528 498.856 434.574 499.75C432.619 500.644 430.18 501.091 427.256 501.091ZM470.915 441.455V488H458.369V441.455H470.915ZM477.307 488V453.091H489.852V488H477.307ZM483.58 449.455C481.883 449.455 480.428 448.894 479.216 447.773C478.004 446.652 477.398 445.303 477.398 443.727C477.398 442.152 478.004 440.803 479.216 439.682C480.428 438.561 481.883 438 483.58 438C485.292 438 486.746 438.561 487.943 439.682C489.155 440.803 489.761 442.152 489.761 443.727C489.761 445.303 489.155 446.652 487.943 447.773C486.746 448.894 485.292 449.455 483.58 449.455ZM528.153 464.455H516.608C516.547 463.742 516.297 463.129 515.858 462.614C515.419 462.098 514.85 461.705 514.153 461.432C513.472 461.144 512.714 461 511.881 461C510.805 461 509.881 461.197 509.108 461.591C508.335 461.985 507.956 462.545 507.972 463.273C507.956 463.788 508.176 464.265 508.631 464.705C509.1 465.144 510.002 465.485 511.335 465.727L518.426 467C522.002 467.652 524.661 468.75 526.403 470.295C528.161 471.826 529.047 473.879 529.062 476.455C529.047 478.939 528.305 481.098 526.835 482.932C525.381 484.75 523.388 486.159 520.858 487.159C518.343 488.144 515.472 488.636 512.244 488.636C506.911 488.636 502.737 487.545 499.722 485.364C496.722 483.182 495.047 480.303 494.699 476.727H507.153C507.32 477.833 507.866 478.689 508.79 479.295C509.729 479.886 510.911 480.182 512.335 480.182C513.487 480.182 514.434 479.985 515.176 479.591C515.934 479.197 516.32 478.636 516.335 477.909C516.32 477.242 515.987 476.712 515.335 476.318C514.699 475.924 513.699 475.606 512.335 475.364L506.153 474.273C502.593 473.652 499.926 472.47 498.153 470.727C496.381 468.985 495.502 466.742 495.517 464C495.502 461.576 496.138 459.523 497.426 457.841C498.729 456.144 500.585 454.856 502.994 453.977C505.419 453.083 508.29 452.636 511.608 452.636C516.653 452.636 520.631 453.682 523.54 455.773C526.464 457.864 528.002 460.758 528.153 464.455ZM554.688 453.091V462.182H531.688V453.091H554.688ZM536.142 444.727H548.688V476.773C548.688 477.258 548.771 477.667 548.938 478C549.104 478.318 549.362 478.561 549.71 478.727C550.059 478.879 550.506 478.955 551.051 478.955C551.43 478.955 551.869 478.909 552.369 478.818C552.884 478.727 553.263 478.652 553.506 478.591L555.324 487.409C554.763 487.576 553.96 487.78 552.915 488.023C551.884 488.265 550.657 488.424 549.233 488.5C546.354 488.652 543.938 488.356 541.983 487.614C540.028 486.856 538.559 485.667 537.574 484.045C536.589 482.424 536.112 480.394 536.142 477.955V444.727ZM599.92 441.455H612.557V471.273C612.557 474.818 611.708 477.886 610.011 480.477C608.33 483.053 605.981 485.045 602.966 486.455C599.951 487.848 596.451 488.545 592.466 488.545C588.451 488.545 584.936 487.848 581.92 486.455C578.905 485.045 576.557 483.053 574.875 480.477C573.208 477.886 572.375 474.818 572.375 471.273V441.455H585.011V470.182C585.011 471.621 585.33 472.909 585.966 474.045C586.602 475.167 587.481 476.045 588.602 476.682C589.739 477.318 591.027 477.636 592.466 477.636C593.92 477.636 595.208 477.318 596.33 476.682C597.451 476.045 598.33 475.167 598.966 474.045C599.602 472.909 599.92 471.621 599.92 470.182V441.455ZM618.562 488V441.455H638.653C642.108 441.455 645.131 442.083 647.722 443.341C650.313 444.598 652.328 446.409 653.767 448.773C655.206 451.136 655.926 453.97 655.926 457.273C655.926 460.606 655.184 463.417 653.699 465.705C652.229 467.992 650.161 469.72 647.494 470.886C644.843 472.053 641.744 472.636 638.199 472.636H626.199V462.818H635.653C637.138 462.818 638.403 462.636 639.449 462.273C640.509 461.894 641.32 461.295 641.881 460.477C642.456 459.659 642.744 458.591 642.744 457.273C642.744 455.939 642.456 454.856 641.881 454.023C641.32 453.174 640.509 452.553 639.449 452.159C638.403 451.75 637.138 451.545 635.653 451.545H631.199V488H618.562ZM645.835 466.636L657.472 488H643.744L632.381 466.636H645.835ZM661.312 488V441.455H673.949V477.818H692.767V488H661.312ZM731.716 453.091V462.182H708.352V453.091H731.716ZM712.807 488V452.091C712.807 449.212 713.322 446.826 714.352 444.932C715.383 443.038 716.837 441.621 718.716 440.682C720.595 439.742 722.807 439.273 725.352 439.273C726.943 439.273 728.489 439.394 729.989 439.636C731.504 439.879 732.625 440.091 733.352 440.273L731.534 449.273C731.08 449.136 730.549 449.03 729.943 448.955C729.337 448.864 728.807 448.818 728.352 448.818C727.17 448.818 726.375 449.068 725.966 449.568C725.557 450.068 725.352 450.727 725.352 451.545V488H712.807ZM752.312 488.636C748.525 488.636 745.282 487.886 742.585 486.386C739.888 484.871 737.82 482.765 736.381 480.068C734.941 477.356 734.222 474.212 734.222 470.636C734.222 467.061 734.941 463.924 736.381 461.227C737.82 458.515 739.888 456.409 742.585 454.909C745.282 453.394 748.525 452.636 752.312 452.636C756.1 452.636 759.343 453.394 762.04 454.909C764.737 456.409 766.805 458.515 768.244 461.227C769.684 463.924 770.403 467.061 770.403 470.636C770.403 474.212 769.684 477.356 768.244 480.068C766.805 482.765 764.737 484.871 762.04 486.386C759.343 487.886 756.1 488.636 752.312 488.636ZM752.403 479.364C753.464 479.364 754.381 479.008 755.153 478.295C755.926 477.583 756.525 476.568 756.949 475.25C757.373 473.932 757.585 472.364 757.585 470.545C757.585 468.712 757.373 467.144 756.949 465.841C756.525 464.523 755.926 463.508 755.153 462.795C754.381 462.083 753.464 461.727 752.403 461.727C751.282 461.727 750.32 462.083 749.517 462.795C748.714 463.508 748.1 464.523 747.676 465.841C747.252 467.144 747.04 468.712 747.04 470.545C747.04 472.364 747.252 473.932 747.676 475.25C748.1 476.568 748.714 477.583 749.517 478.295C750.32 479.008 751.282 479.364 752.403 479.364ZM775.494 488V453.091H787.676V459.727H788.04C788.676 457.273 789.684 455.477 791.062 454.341C792.456 453.205 794.085 452.636 795.949 452.636C796.494 452.636 797.032 452.682 797.562 452.773C798.108 452.848 798.631 452.962 799.131 453.114V463.818C798.509 463.606 797.744 463.447 796.835 463.341C795.926 463.235 795.146 463.182 794.494 463.182C793.267 463.182 792.161 463.462 791.176 464.023C790.206 464.568 789.441 465.341 788.881 466.341C788.32 467.326 788.04 468.485 788.04 469.818V488H775.494ZM815.812 488V441.455H848.54V451.636H828.449V459.636H846.54V469.818H828.449V488H815.812ZM867.625 488.636C863.837 488.636 860.595 487.886 857.898 486.386C855.201 484.871 853.133 482.765 851.693 480.068C850.254 477.356 849.534 474.212 849.534 470.636C849.534 467.061 850.254 463.924 851.693 461.227C853.133 458.515 855.201 456.409 857.898 454.909C860.595 453.394 863.837 452.636 867.625 452.636C871.413 452.636 874.655 453.394 877.352 454.909C880.049 456.409 882.117 458.515 883.557 461.227C884.996 463.924 885.716 467.061 885.716 470.636C885.716 474.212 884.996 477.356 883.557 480.068C882.117 482.765 880.049 484.871 877.352 486.386C874.655 487.886 871.413 488.636 867.625 488.636ZM867.716 479.364C868.777 479.364 869.693 479.008 870.466 478.295C871.239 477.583 871.837 476.568 872.261 475.25C872.686 473.932 872.898 472.364 872.898 470.545C872.898 468.712 872.686 467.144 872.261 465.841C871.837 464.523 871.239 463.508 870.466 462.795C869.693 462.083 868.777 461.727 867.716 461.727C866.595 461.727 865.633 462.083 864.83 462.795C864.027 463.508 863.413 464.523 862.989 465.841C862.564 467.144 862.352 468.712 862.352 470.545C862.352 472.364 862.564 473.932 862.989 475.25C863.413 476.568 864.027 477.583 864.83 478.295C865.633 479.008 866.595 479.364 867.716 479.364ZM907.625 488.636C903.837 488.636 900.595 487.886 897.898 486.386C895.201 484.871 893.133 482.765 891.693 480.068C890.254 477.356 889.534 474.212 889.534 470.636C889.534 467.061 890.254 463.924 891.693 461.227C893.133 458.515 895.201 456.409 897.898 454.909C900.595 453.394 903.837 452.636 907.625 452.636C911.049 452.636 914.011 453.258 916.511 454.5C919.027 455.727 920.973 457.47 922.352 459.727C923.731 461.97 924.428 464.606 924.443 467.636H912.807C912.64 465.803 912.11 464.409 911.216 463.455C910.337 462.485 909.201 462 907.807 462C906.716 462 905.761 462.318 904.943 462.955C904.125 463.576 903.489 464.523 903.034 465.795C902.58 467.053 902.352 468.636 902.352 470.545C902.352 472.455 902.58 474.045 903.034 475.318C903.489 476.576 904.125 477.523 904.943 478.159C905.761 478.78 906.716 479.091 907.807 479.091C908.731 479.091 909.549 478.879 910.261 478.455C910.973 478.015 911.549 477.379 911.989 476.545C912.443 475.697 912.716 474.667 912.807 473.455H924.443C924.398 476.53 923.693 479.212 922.33 481.5C920.966 483.773 919.034 485.53 916.534 486.773C914.049 488.015 911.08 488.636 907.625 488.636ZM952.256 472.727V453.091H964.801V488H952.892V481.364H952.528C951.771 483.591 950.445 485.333 948.551 486.591C946.657 487.833 944.407 488.455 941.801 488.455C939.362 488.455 937.225 487.894 935.392 486.773C933.574 485.652 932.157 484.106 931.142 482.136C930.142 480.167 929.634 477.909 929.619 475.364V453.091H942.165V472.727C942.18 474.455 942.619 475.811 943.483 476.795C944.362 477.78 945.589 478.273 947.165 478.273C948.21 478.273 949.112 478.053 949.869 477.614C950.642 477.159 951.233 476.523 951.642 475.705C952.066 474.871 952.271 473.879 952.256 472.727ZM1003.09 464.455H991.545C991.485 463.742 991.235 463.129 990.795 462.614C990.356 462.098 989.788 461.705 989.091 461.432C988.409 461.144 987.652 461 986.818 461C985.742 461 984.818 461.197 984.045 461.591C983.273 461.985 982.894 462.545 982.909 463.273C982.894 463.788 983.114 464.265 983.568 464.705C984.038 465.144 984.939 465.485 986.273 465.727L993.364 467C996.939 467.652 999.598 468.75 1001.34 470.295C1003.1 471.826 1003.98 473.879 1004 476.455C1003.98 478.939 1003.24 481.098 1001.77 482.932C1000.32 484.75 998.326 486.159 995.795 487.159C993.28 488.144 990.409 488.636 987.182 488.636C981.848 488.636 977.674 487.545 974.659 485.364C971.659 483.182 969.985 480.303 969.636 476.727H982.091C982.258 477.833 982.803 478.689 983.727 479.295C984.667 479.886 985.848 480.182 987.273 480.182C988.424 480.182 989.371 479.985 990.114 479.591C990.871 479.197 991.258 478.636 991.273 477.909C991.258 477.242 990.924 476.712 990.273 476.318C989.636 475.924 988.636 475.606 987.273 475.364L981.091 474.273C977.53 473.652 974.864 472.47 973.091 470.727C971.318 468.985 970.439 466.742 970.455 464C970.439 461.576 971.076 459.523 972.364 457.841C973.667 456.144 975.523 454.856 977.932 453.977C980.356 453.083 983.227 452.636 986.545 452.636C991.591 452.636 995.568 453.682 998.477 455.773C1001.4 457.864 1002.94 460.758 1003.09 464.455ZM1020.1 451.636V441.455H1060.56V451.636H1046.56V488H1034.1V451.636H1020.1ZM1083.38 472.727V453.091H1095.93V488H1084.02V481.364H1083.65C1082.9 483.591 1081.57 485.333 1079.68 486.591C1077.78 487.833 1075.53 488.455 1072.93 488.455C1070.49 488.455 1068.35 487.894 1066.52 486.773C1064.7 485.652 1063.28 484.106 1062.27 482.136C1061.27 480.167 1060.76 477.909 1060.74 475.364V453.091H1073.29V472.727C1073.3 474.455 1073.74 475.811 1074.61 476.795C1075.49 477.78 1076.71 478.273 1078.29 478.273C1079.34 478.273 1080.24 478.053 1080.99 477.614C1081.77 477.159 1082.36 476.523 1082.77 475.705C1083.19 474.871 1083.4 473.879 1083.38 472.727ZM1114.85 468.364V488H1102.31V453.091H1114.22V459.727H1114.58C1115.34 457.515 1116.67 455.78 1118.58 454.523C1120.5 453.265 1122.75 452.636 1125.31 452.636C1127.78 452.636 1129.92 453.205 1131.74 454.341C1133.57 455.462 1134.99 457.008 1135.99 458.977C1137 460.947 1137.5 463.197 1137.49 465.727V488H1124.94V468.364C1124.96 466.636 1124.52 465.28 1123.62 464.295C1122.75 463.311 1121.52 462.818 1119.94 462.818C1118.91 462.818 1118.01 463.045 1117.24 463.5C1116.48 463.939 1115.9 464.576 1115.49 465.409C1115.08 466.227 1114.87 467.212 1114.85 468.364ZM1160.41 488.636C1156.68 488.636 1153.47 487.924 1150.77 486.5C1148.09 485.061 1146.02 483 1144.57 480.318C1143.13 477.621 1142.41 474.394 1142.41 470.636C1142.41 467.03 1143.14 463.879 1144.59 461.182C1146.05 458.485 1148.1 456.386 1150.75 454.886C1153.4 453.386 1156.53 452.636 1160.14 452.636C1162.77 452.636 1165.16 453.045 1167.3 453.864C1169.43 454.682 1171.26 455.871 1172.77 457.432C1174.29 458.977 1175.45 460.856 1176.27 463.068C1177.09 465.28 1177.5 467.773 1177.5 470.545V473.455H1146.32V466.545H1165.95C1165.94 465.545 1165.68 464.667 1165.18 463.909C1164.7 463.136 1164.04 462.538 1163.2 462.114C1162.39 461.674 1161.45 461.455 1160.41 461.455C1159.39 461.455 1158.46 461.674 1157.61 462.114C1156.77 462.538 1156.08 463.129 1155.57 463.886C1155.07 464.644 1154.8 465.53 1154.77 466.545V474C1154.77 475.121 1155.01 476.121 1155.48 477C1155.95 477.879 1156.62 478.568 1157.5 479.068C1158.38 479.568 1159.44 479.818 1160.68 479.818C1161.55 479.818 1162.33 479.697 1163.05 479.455C1163.77 479.212 1164.39 478.864 1164.91 478.409C1165.42 477.939 1165.8 477.379 1166.05 476.727H1177.5C1177.11 479.152 1176.17 481.258 1174.7 483.045C1173.23 484.818 1171.29 486.197 1168.86 487.182C1166.45 488.152 1163.64 488.636 1160.41 488.636ZM1214.53 464.455H1202.98C1202.92 463.742 1202.67 463.129 1202.23 462.614C1201.79 462.098 1201.23 461.705 1200.53 461.432C1199.85 461.144 1199.09 461 1198.26 461C1197.18 461 1196.26 461.197 1195.48 461.591C1194.71 461.985 1194.33 462.545 1194.35 463.273C1194.33 463.788 1194.55 464.265 1195.01 464.705C1195.48 465.144 1196.38 465.485 1197.71 465.727L1204.8 467C1208.38 467.652 1211.04 468.75 1212.78 470.295C1214.54 471.826 1215.42 473.879 1215.44 476.455C1215.42 478.939 1214.68 481.098 1213.21 482.932C1211.76 484.75 1209.76 486.159 1207.23 487.159C1204.72 488.144 1201.85 488.636 1198.62 488.636C1193.29 488.636 1189.11 487.545 1186.1 485.364C1183.1 483.182 1181.42 480.303 1181.07 476.727H1193.53C1193.7 477.833 1194.24 478.689 1195.16 479.295C1196.1 479.886 1197.29 480.182 1198.71 480.182C1199.86 480.182 1200.81 479.985 1201.55 479.591C1202.31 479.197 1202.7 478.636 1202.71 477.909C1202.7 477.242 1202.36 476.712 1201.71 476.318C1201.07 475.924 1200.07 475.606 1198.71 475.364L1192.53 474.273C1188.97 473.652 1186.3 472.47 1184.53 470.727C1182.76 468.985 1181.88 466.742 1181.89 464C1181.88 461.576 1182.51 459.523 1183.8 457.841C1185.1 456.144 1186.96 454.856 1189.37 453.977C1191.79 453.083 1194.66 452.636 1197.98 452.636C1203.03 452.636 1207.01 453.682 1209.91 455.773C1212.84 457.864 1214.38 460.758 1214.53 464.455Z" fill="#FAF1C4"/>
<path d="M334.435 612H320.798L336.162 565.455H353.435L368.798 612H355.162L344.98 578.273H344.616L334.435 612ZM331.889 593.636H357.526V603.091H331.889V593.636ZM396.099 596.727V577.091H408.645V612H396.736V605.364H396.372C395.615 607.591 394.289 609.333 392.395 610.591C390.501 611.833 388.251 612.455 385.645 612.455C383.205 612.455 381.069 611.894 379.236 610.773C377.418 609.652 376.001 608.106 374.986 606.136C373.986 604.167 373.478 601.909 373.463 599.364V577.091H386.009V596.727C386.024 598.455 386.463 599.811 387.327 600.795C388.205 601.78 389.433 602.273 391.009 602.273C392.054 602.273 392.955 602.053 393.713 601.614C394.486 601.159 395.077 600.523 395.486 599.705C395.91 598.871 396.115 597.879 396.099 596.727ZM435.844 577.091V586.182H412.844V577.091H435.844ZM417.298 568.727H429.844V600.773C429.844 601.258 429.927 601.667 430.094 602C430.26 602.318 430.518 602.561 430.866 602.727C431.215 602.879 431.662 602.955 432.207 602.955C432.586 602.955 433.026 602.909 433.526 602.818C434.041 602.727 434.42 602.652 434.662 602.591L436.48 611.409C435.92 611.576 435.116 611.78 434.071 612.023C433.041 612.265 431.813 612.424 430.389 612.5C427.51 612.652 425.094 612.356 423.139 611.614C421.185 610.856 419.715 609.667 418.73 608.045C417.745 606.424 417.268 604.394 417.298 601.955V568.727ZM457.406 612.636C453.618 612.636 450.376 611.886 447.679 610.386C444.982 608.871 442.914 606.765 441.474 604.068C440.035 601.356 439.315 598.212 439.315 594.636C439.315 591.061 440.035 587.924 441.474 585.227C442.914 582.515 444.982 580.409 447.679 578.909C450.376 577.394 453.618 576.636 457.406 576.636C461.194 576.636 464.437 577.394 467.134 578.909C469.83 580.409 471.899 582.515 473.338 585.227C474.777 587.924 475.497 591.061 475.497 594.636C475.497 598.212 474.777 601.356 473.338 604.068C471.899 606.765 469.83 608.871 467.134 610.386C464.437 611.886 461.194 612.636 457.406 612.636ZM457.497 603.364C458.558 603.364 459.474 603.008 460.247 602.295C461.02 601.583 461.618 600.568 462.043 599.25C462.467 597.932 462.679 596.364 462.679 594.545C462.679 592.712 462.467 591.144 462.043 589.841C461.618 588.523 461.02 587.508 460.247 586.795C459.474 586.083 458.558 585.727 457.497 585.727C456.376 585.727 455.414 586.083 454.611 586.795C453.808 587.508 453.194 588.523 452.77 589.841C452.346 591.144 452.134 592.712 452.134 594.545C452.134 596.364 452.346 597.932 452.77 599.25C453.194 600.568 453.808 601.583 454.611 602.295C455.414 603.008 456.376 603.364 457.497 603.364ZM493.156 612V565.455H513.247C516.702 565.455 519.724 566.083 522.315 567.341C524.906 568.598 526.921 570.409 528.361 572.773C529.8 575.136 530.52 577.97 530.52 581.273C530.52 584.606 529.777 587.417 528.293 589.705C526.823 591.992 524.755 593.72 522.088 594.886C519.437 596.053 516.338 596.636 512.793 596.636H500.793V586.818H510.247C511.732 586.818 512.997 586.636 514.043 586.273C515.103 585.894 515.914 585.295 516.474 584.477C517.05 583.659 517.338 582.591 517.338 581.273C517.338 579.939 517.05 578.856 516.474 578.023C515.914 577.174 515.103 576.553 514.043 576.159C512.997 575.75 511.732 575.545 510.247 575.545H505.793V612H493.156ZM520.429 590.636L532.065 612H518.338L506.974 590.636H520.429ZM552.065 612.636C548.338 612.636 545.126 611.924 542.429 610.5C539.747 609.061 537.679 607 536.224 604.318C534.785 601.621 534.065 598.394 534.065 594.636C534.065 591.03 534.793 587.879 536.247 585.182C537.702 582.485 539.755 580.386 542.406 578.886C545.058 577.386 548.187 576.636 551.793 576.636C554.429 576.636 556.815 577.045 558.952 577.864C561.088 578.682 562.914 579.871 564.429 581.432C565.944 582.977 567.111 584.856 567.929 587.068C568.747 589.28 569.156 591.773 569.156 594.545V597.455H537.974V590.545H557.611C557.596 589.545 557.338 588.667 556.838 587.909C556.353 587.136 555.694 586.538 554.861 586.114C554.043 585.674 553.111 585.455 552.065 585.455C551.05 585.455 550.118 585.674 549.27 586.114C548.421 586.538 547.74 587.129 547.224 587.886C546.724 588.644 546.459 589.53 546.429 590.545V598C546.429 599.121 546.664 600.121 547.134 601C547.603 601.879 548.277 602.568 549.156 603.068C550.035 603.568 551.096 603.818 552.338 603.818C553.202 603.818 553.99 603.697 554.702 603.455C555.429 603.212 556.05 602.864 556.565 602.409C557.08 601.939 557.459 601.379 557.702 600.727H569.156C568.762 603.152 567.83 605.258 566.361 607.045C564.891 608.818 562.944 610.197 560.52 611.182C558.111 612.152 555.293 612.636 552.065 612.636ZM606.185 588.455H594.639C594.579 587.742 594.329 587.129 593.889 586.614C593.45 586.098 592.882 585.705 592.185 585.432C591.503 585.144 590.745 585 589.912 585C588.836 585 587.912 585.197 587.139 585.591C586.366 585.985 585.988 586.545 586.003 587.273C585.988 587.788 586.207 588.265 586.662 588.705C587.132 589.144 588.033 589.485 589.366 589.727L596.457 591C600.033 591.652 602.692 592.75 604.435 594.295C606.192 595.826 607.079 597.879 607.094 600.455C607.079 602.939 606.336 605.098 604.866 606.932C603.412 608.75 601.42 610.159 598.889 611.159C596.374 612.144 593.503 612.636 590.276 612.636C584.942 612.636 580.768 611.545 577.753 609.364C574.753 607.182 573.079 604.303 572.73 600.727H585.185C585.351 601.833 585.897 602.689 586.821 603.295C587.76 603.886 588.942 604.182 590.366 604.182C591.518 604.182 592.465 603.985 593.207 603.591C593.965 603.197 594.351 602.636 594.366 601.909C594.351 601.242 594.018 600.712 593.366 600.318C592.73 599.924 591.73 599.606 590.366 599.364L584.185 598.273C580.624 597.652 577.957 596.47 576.185 594.727C574.412 592.985 573.533 590.742 573.548 588C573.533 585.576 574.17 583.523 575.457 581.841C576.76 580.144 578.616 578.856 581.026 577.977C583.45 577.083 586.321 576.636 589.639 576.636C594.685 576.636 598.662 577.682 601.571 579.773C604.495 581.864 606.033 584.758 606.185 588.455ZM632.719 577.091V586.182H609.719V577.091H632.719ZM614.173 568.727H626.719V600.773C626.719 601.258 626.802 601.667 626.969 602C627.135 602.318 627.393 602.561 627.741 602.727C628.09 602.879 628.537 602.955 629.082 602.955C629.461 602.955 629.901 602.909 630.401 602.818C630.916 602.727 631.295 602.652 631.537 602.591L633.355 611.409C632.795 611.576 631.991 611.78 630.946 612.023C629.916 612.265 628.688 612.424 627.264 612.5C624.385 612.652 621.969 612.356 620.014 611.614C618.06 610.856 616.59 609.667 615.605 608.045C614.62 606.424 614.143 604.394 614.173 601.955V568.727Z" fill="#FAF1C4"/>
<path d="M318.375 734V687.455H351.92V697.636H331.011V705.636H350.193V715.818H331.011V723.818H351.83V734H318.375ZM370.915 714.364V734H358.369V699.091H370.278V705.727H370.642C371.4 703.515 372.733 701.78 374.642 700.523C376.566 699.265 378.809 698.636 381.369 698.636C383.839 698.636 385.983 699.205 387.801 700.341C389.634 701.462 391.051 703.008 392.051 704.977C393.066 706.947 393.566 709.197 393.551 711.727V734H381.006V714.364C381.021 712.636 380.581 711.28 379.688 710.295C378.809 709.311 377.581 708.818 376.006 708.818C374.975 708.818 374.074 709.045 373.301 709.5C372.544 709.939 371.96 710.576 371.551 711.409C371.142 712.227 370.93 713.212 370.915 714.364ZM412.381 734.455C409.896 734.455 407.608 733.803 405.517 732.5C403.441 731.197 401.775 729.22 400.517 726.568C399.275 723.917 398.653 720.576 398.653 716.545C398.653 712.333 399.305 708.909 400.608 706.273C401.926 703.636 403.623 701.705 405.699 700.477C407.79 699.25 409.987 698.636 412.29 698.636C414.017 698.636 415.532 698.939 416.835 699.545C418.138 700.136 419.229 700.932 420.108 701.932C420.987 702.917 421.653 704 422.108 705.182H422.29V687.455H434.835V734H422.381V728.273H422.108C421.623 729.455 420.926 730.515 420.017 731.455C419.123 732.379 418.032 733.114 416.744 733.659C415.472 734.189 414.017 734.455 412.381 734.455ZM417.017 724.818C418.169 724.818 419.153 724.485 419.972 723.818C420.805 723.136 421.441 722.182 421.881 720.955C422.335 719.712 422.562 718.242 422.562 716.545C422.562 714.818 422.335 713.341 421.881 712.114C421.441 710.871 420.805 709.924 419.972 709.273C419.153 708.606 418.169 708.273 417.017 708.273C415.866 708.273 414.881 708.606 414.062 709.273C413.259 709.924 412.638 710.871 412.199 712.114C411.775 713.341 411.562 714.818 411.562 716.545C411.562 718.273 411.775 719.758 412.199 721C412.638 722.227 413.259 723.174 414.062 723.841C414.881 724.492 415.866 724.818 417.017 724.818ZM470.562 734.636C466.775 734.636 463.532 733.886 460.835 732.386C458.138 730.871 456.07 728.765 454.631 726.068C453.191 723.356 452.472 720.212 452.472 716.636C452.472 713.061 453.191 709.924 454.631 707.227C456.07 704.515 458.138 702.409 460.835 700.909C463.532 699.394 466.775 698.636 470.562 698.636C474.35 698.636 477.593 699.394 480.29 700.909C482.987 702.409 485.055 704.515 486.494 707.227C487.934 709.924 488.653 713.061 488.653 716.636C488.653 720.212 487.934 723.356 486.494 726.068C485.055 728.765 482.987 730.871 480.29 732.386C477.593 733.886 474.35 734.636 470.562 734.636ZM470.653 725.364C471.714 725.364 472.631 725.008 473.403 724.295C474.176 723.583 474.775 722.568 475.199 721.25C475.623 719.932 475.835 718.364 475.835 716.545C475.835 714.712 475.623 713.144 475.199 711.841C474.775 710.523 474.176 709.508 473.403 708.795C472.631 708.083 471.714 707.727 470.653 707.727C469.532 707.727 468.57 708.083 467.767 708.795C466.964 709.508 466.35 710.523 465.926 711.841C465.502 713.144 465.29 714.712 465.29 716.545C465.29 718.364 465.502 719.932 465.926 721.25C466.35 722.568 466.964 723.583 467.767 724.295C468.57 725.008 469.532 725.364 470.653 725.364ZM514.653 699.091V708.182H491.29V699.091H514.653ZM495.744 734V698.091C495.744 695.212 496.259 692.826 497.29 690.932C498.32 689.038 499.775 687.621 501.653 686.682C503.532 685.742 505.744 685.273 508.29 685.273C509.881 685.273 511.426 685.394 512.926 685.636C514.441 685.879 515.563 686.091 516.29 686.273L514.472 695.273C514.017 695.136 513.487 695.03 512.881 694.955C512.275 694.864 511.744 694.818 511.29 694.818C510.108 694.818 509.313 695.068 508.903 695.568C508.494 696.068 508.29 696.727 508.29 697.545V734H495.744ZM532.062 734V687.455H564.79V697.636H544.699V705.636H562.79V715.818H544.699V734H532.062ZM583.875 734.636C580.087 734.636 576.845 733.886 574.148 732.386C571.451 730.871 569.383 728.765 567.943 726.068C566.504 723.356 565.784 720.212 565.784 716.636C565.784 713.061 566.504 709.924 567.943 707.227C569.383 704.515 571.451 702.409 574.148 700.909C576.845 699.394 580.087 698.636 583.875 698.636C587.663 698.636 590.905 699.394 593.602 700.909C596.299 702.409 598.367 704.515 599.807 707.227C601.246 709.924 601.966 713.061 601.966 716.636C601.966 720.212 601.246 723.356 599.807 726.068C598.367 728.765 596.299 730.871 593.602 732.386C590.905 733.886 587.663 734.636 583.875 734.636ZM583.966 725.364C585.027 725.364 585.943 725.008 586.716 724.295C587.489 723.583 588.087 722.568 588.511 721.25C588.936 719.932 589.148 718.364 589.148 716.545C589.148 714.712 588.936 713.144 588.511 711.841C588.087 710.523 587.489 709.508 586.716 708.795C585.943 708.083 585.027 707.727 583.966 707.727C582.845 707.727 581.883 708.083 581.08 708.795C580.277 709.508 579.663 710.523 579.239 711.841C578.814 713.144 578.602 714.712 578.602 716.545C578.602 718.364 578.814 719.932 579.239 721.25C579.663 722.568 580.277 723.583 581.08 724.295C581.883 725.008 582.845 725.364 583.966 725.364ZM623.875 734.636C620.087 734.636 616.845 733.886 614.148 732.386C611.451 730.871 609.383 728.765 607.943 726.068C606.504 723.356 605.784 720.212 605.784 716.636C605.784 713.061 606.504 709.924 607.943 707.227C609.383 704.515 611.451 702.409 614.148 700.909C616.845 699.394 620.087 698.636 623.875 698.636C627.299 698.636 630.261 699.258 632.761 700.5C635.277 701.727 637.223 703.47 638.602 705.727C639.981 707.97 640.678 710.606 640.693 713.636H629.057C628.89 711.803 628.36 710.409 627.466 709.455C626.587 708.485 625.451 708 624.057 708C622.966 708 622.011 708.318 621.193 708.955C620.375 709.576 619.739 710.523 619.284 711.795C618.83 713.053 618.602 714.636 618.602 716.545C618.602 718.455 618.83 720.045 619.284 721.318C619.739 722.576 620.375 723.523 621.193 724.159C622.011 724.78 622.966 725.091 624.057 725.091C624.981 725.091 625.799 724.879 626.511 724.455C627.223 724.015 627.799 723.379 628.239 722.545C628.693 721.697 628.966 720.667 629.057 719.455H640.693C640.648 722.53 639.943 725.212 638.58 727.5C637.216 729.773 635.284 731.53 632.784 732.773C630.299 734.015 627.33 734.636 623.875 734.636ZM668.506 718.727V699.091H681.051V734H669.142V727.364H668.778C668.021 729.591 666.695 731.333 664.801 732.591C662.907 733.833 660.657 734.455 658.051 734.455C655.612 734.455 653.475 733.894 651.642 732.773C649.824 731.652 648.407 730.106 647.392 728.136C646.392 726.167 645.884 723.909 645.869 721.364V699.091H658.415V718.727C658.43 720.455 658.869 721.811 659.733 722.795C660.612 723.78 661.839 724.273 663.415 724.273C664.46 724.273 665.362 724.053 666.119 723.614C666.892 723.159 667.483 722.523 667.892 721.705C668.316 720.871 668.521 719.879 668.506 718.727ZM719.341 710.455H707.795C707.735 709.742 707.485 709.129 707.045 708.614C706.606 708.098 706.038 707.705 705.341 707.432C704.659 707.144 703.902 707 703.068 707C701.992 707 701.068 707.197 700.295 707.591C699.523 707.985 699.144 708.545 699.159 709.273C699.144 709.788 699.364 710.265 699.818 710.705C700.288 711.144 701.189 711.485 702.523 711.727L709.614 713C713.189 713.652 715.848 714.75 717.591 716.295C719.348 717.826 720.235 719.879 720.25 722.455C720.235 724.939 719.492 727.098 718.023 728.932C716.568 730.75 714.576 732.159 712.045 733.159C709.53 734.144 706.659 734.636 703.432 734.636C698.098 734.636 693.924 733.545 690.909 731.364C687.909 729.182 686.235 726.303 685.886 722.727H698.341C698.508 723.833 699.053 724.689 699.977 725.295C700.917 725.886 702.098 726.182 703.523 726.182C704.674 726.182 705.621 725.985 706.364 725.591C707.121 725.197 707.508 724.636 707.523 723.909C707.508 723.242 707.174 722.712 706.523 722.318C705.886 721.924 704.886 721.606 703.523 721.364L697.341 720.273C693.78 719.652 691.114 718.47 689.341 716.727C687.568 714.985 686.689 712.742 686.705 710C686.689 707.576 687.326 705.523 688.614 703.841C689.917 702.144 691.773 700.856 694.182 699.977C696.606 699.083 699.477 698.636 702.795 698.636C707.841 698.636 711.818 699.682 714.727 701.773C717.652 703.864 719.189 706.758 719.341 710.455ZM736.352 697.636V687.455H776.807V697.636H762.807V734H750.352V697.636H736.352ZM781.744 734V699.091H794.29V734H781.744ZM788.017 695.455C786.32 695.455 784.866 694.894 783.653 693.773C782.441 692.652 781.835 691.303 781.835 689.727C781.835 688.152 782.441 686.803 783.653 685.682C784.866 684.561 786.32 684 788.017 684C789.729 684 791.184 684.561 792.381 685.682C793.593 686.803 794.199 688.152 794.199 689.727C794.199 691.303 793.593 692.652 792.381 693.773C791.184 694.894 789.729 695.455 788.017 695.455ZM800.682 734V699.091H812.591V705.727H812.955C813.682 703.545 814.924 701.818 816.682 700.545C818.439 699.273 820.53 698.636 822.955 698.636C825.409 698.636 827.523 699.288 829.295 700.591C831.068 701.879 832.136 703.591 832.5 705.727H832.864C833.455 703.591 834.712 701.879 836.636 700.591C838.561 699.288 840.818 698.636 843.409 698.636C846.758 698.636 849.47 699.712 851.545 701.864C853.636 704.015 854.682 706.879 854.682 710.455V734H842.136V713.636C842.136 712.106 841.75 710.909 840.977 710.045C840.205 709.167 839.167 708.727 837.864 708.727C836.576 708.727 835.553 709.167 834.795 710.045C834.053 710.909 833.682 712.106 833.682 713.636V734H821.682V713.636C821.682 712.106 821.295 710.909 820.523 710.045C819.75 709.167 818.712 708.727 817.409 708.727C816.545 708.727 815.803 708.924 815.182 709.318C814.561 709.712 814.076 710.28 813.727 711.023C813.394 711.75 813.227 712.621 813.227 713.636V734H800.682ZM877.597 734.636C873.869 734.636 870.657 733.924 867.96 732.5C865.278 731.061 863.21 729 861.756 726.318C860.316 723.621 859.597 720.394 859.597 716.636C859.597 713.03 860.324 709.879 861.778 707.182C863.233 704.485 865.286 702.386 867.938 700.886C870.589 699.386 873.718 698.636 877.324 698.636C879.96 698.636 882.347 699.045 884.483 699.864C886.619 700.682 888.445 701.871 889.96 703.432C891.475 704.977 892.642 706.856 893.46 709.068C894.278 711.28 894.688 713.773 894.688 716.545V719.455H863.506V712.545H883.142C883.127 711.545 882.869 710.667 882.369 709.909C881.884 709.136 881.225 708.538 880.392 708.114C879.574 707.674 878.642 707.455 877.597 707.455C876.581 707.455 875.65 707.674 874.801 708.114C873.953 708.538 873.271 709.129 872.756 709.886C872.256 710.644 871.991 711.53 871.96 712.545V720C871.96 721.121 872.195 722.121 872.665 723C873.134 723.879 873.809 724.568 874.688 725.068C875.566 725.568 876.627 725.818 877.869 725.818C878.733 725.818 879.521 725.697 880.233 725.455C880.96 725.212 881.581 724.864 882.097 724.409C882.612 723.939 882.991 723.379 883.233 722.727H894.688C894.294 725.152 893.362 727.258 891.892 729.045C890.422 730.818 888.475 732.197 886.051 733.182C883.642 734.152 880.824 734.636 877.597 734.636Z" fill="#FAF1C4"/>
<path d="M935.803 732V705.818H954.212V711.545H942.911V716.045H953.087V721.773H942.911V732H935.803ZM961.978 732.307C960.725 732.307 959.617 732.102 958.654 731.693C957.7 731.276 956.95 730.645 956.404 729.801C955.859 728.957 955.586 727.884 955.586 726.58C955.586 725.506 955.769 724.589 956.136 723.831C956.502 723.064 957.014 722.438 957.67 721.952C958.326 721.466 959.089 721.095 959.958 720.839C960.836 720.584 961.782 720.418 962.796 720.341C963.896 720.256 964.778 720.153 965.443 720.034C966.116 719.906 966.602 719.732 966.9 719.51C967.198 719.28 967.347 718.977 967.347 718.602V718.551C967.347 718.04 967.151 717.648 966.759 717.375C966.367 717.102 965.865 716.966 965.251 716.966C964.578 716.966 964.028 717.115 963.602 717.413C963.184 717.703 962.933 718.151 962.847 718.756H956.353C956.438 717.562 956.818 716.463 957.491 715.457C958.173 714.443 959.166 713.634 960.47 713.028C961.774 712.415 963.401 712.108 965.353 712.108C966.759 712.108 968.021 712.274 969.137 712.607C970.254 712.93 971.204 713.386 971.988 713.974C972.772 714.554 973.369 715.236 973.778 716.02C974.195 716.795 974.404 717.639 974.404 718.551V732H967.808V729.239H967.654C967.262 729.972 966.785 730.564 966.222 731.016C965.669 731.467 965.034 731.795 964.318 732C963.61 732.205 962.83 732.307 961.978 732.307ZM964.279 727.858C964.816 727.858 965.319 727.747 965.788 727.526C966.265 727.304 966.653 726.984 966.951 726.567C967.249 726.149 967.399 725.642 967.399 725.045V723.409C967.211 723.486 967.011 723.558 966.798 723.626C966.593 723.695 966.372 723.759 966.133 723.818C965.903 723.878 965.656 723.933 965.392 723.984C965.136 724.036 964.867 724.082 964.586 724.125C964.041 724.21 963.593 724.351 963.244 724.547C962.903 724.734 962.647 724.969 962.477 725.25C962.315 725.523 962.234 725.83 962.234 726.17C962.234 726.716 962.426 727.134 962.809 727.423C963.193 727.713 963.683 727.858 964.279 727.858ZM984.884 732.256C983.486 732.256 982.199 731.889 981.023 731.156C979.856 730.423 978.918 729.311 978.211 727.82C977.512 726.328 977.162 724.449 977.162 722.182C977.162 719.812 977.529 717.886 978.262 716.403C979.003 714.92 979.958 713.834 981.126 713.143C982.302 712.453 983.537 712.108 984.833 712.108C985.805 712.108 986.657 712.278 987.39 712.619C988.123 712.952 988.736 713.399 989.231 713.962C989.725 714.516 990.1 715.125 990.356 715.79H990.458V705.818H997.515V732H990.509V728.778H990.356C990.083 729.443 989.691 730.04 989.18 730.568C988.677 731.088 988.063 731.501 987.339 731.808C986.623 732.107 985.805 732.256 984.884 732.256ZM987.492 726.835C988.14 726.835 988.694 726.648 989.154 726.273C989.623 725.889 989.981 725.352 990.228 724.662C990.483 723.963 990.611 723.136 990.611 722.182C990.611 721.21 990.483 720.379 990.228 719.689C989.981 718.99 989.623 718.457 989.154 718.091C988.694 717.716 988.14 717.528 987.492 717.528C986.844 717.528 986.29 717.716 985.83 718.091C985.378 718.457 985.029 718.99 984.782 719.689C984.543 720.379 984.424 721.21 984.424 722.182C984.424 723.153 984.543 723.989 984.782 724.688C985.029 725.378 985.378 725.911 985.83 726.286C986.29 726.652 986.844 726.835 987.492 726.835ZM1010.39 732.358C1008.29 732.358 1006.48 731.957 1004.97 731.156C1003.46 730.347 1002.3 729.187 1001.48 727.679C1000.67 726.162 1000.26 724.347 1000.26 722.233C1000.26 720.205 1000.67 718.432 1001.49 716.915C1002.31 715.398 1003.46 714.217 1004.96 713.374C1006.45 712.53 1008.21 712.108 1010.23 712.108C1011.72 712.108 1013.06 712.338 1014.26 712.798C1015.46 713.259 1016.49 713.928 1017.34 714.805C1018.2 715.675 1018.85 716.732 1019.31 717.976C1019.77 719.22 1020 720.622 1020 722.182V723.818H1002.46V719.932H1013.51C1013.5 719.369 1013.35 718.875 1013.07 718.449C1012.8 718.014 1012.43 717.678 1011.96 717.439C1011.5 717.192 1010.98 717.068 1010.39 717.068C1009.82 717.068 1009.29 717.192 1008.82 717.439C1008.34 717.678 1007.96 718.01 1007.67 718.436C1007.38 718.862 1007.23 719.361 1007.22 719.932V724.125C1007.22 724.756 1007.35 725.318 1007.61 725.812C1007.88 726.307 1008.26 726.695 1008.75 726.976C1009.25 727.257 1009.84 727.398 1010.54 727.398C1011.03 727.398 1011.47 727.33 1011.87 727.193C1012.28 727.057 1012.63 726.861 1012.92 726.605C1013.21 726.341 1013.42 726.026 1013.56 725.659H1020C1019.78 727.023 1019.26 728.207 1018.43 729.213C1017.6 730.21 1016.51 730.986 1015.14 731.54C1013.79 732.085 1012.2 732.358 1010.39 732.358ZM1055.31 718.909C1055.31 721.824 1054.75 724.283 1053.61 726.286C1052.48 728.28 1050.95 729.793 1049.03 730.824C1047.1 731.847 1044.95 732.358 1042.58 732.358C1040.2 732.358 1038.04 731.842 1036.11 730.811C1034.2 729.771 1032.67 728.254 1031.54 726.26C1030.41 724.257 1029.85 721.807 1029.85 718.909C1029.85 715.994 1030.41 713.54 1031.54 711.545C1032.67 709.543 1034.2 708.03 1036.11 707.007C1038.04 705.976 1040.2 705.46 1042.58 705.46C1044.95 705.46 1047.1 705.976 1049.03 707.007C1050.95 708.03 1052.48 709.543 1053.61 711.545C1054.75 713.54 1055.31 715.994 1055.31 718.909ZM1048 718.909C1048 717.341 1047.79 716.02 1047.38 714.946C1046.97 713.864 1046.36 713.045 1045.55 712.491C1044.75 711.929 1043.76 711.648 1042.58 711.648C1041.41 711.648 1040.41 711.929 1039.6 712.491C1038.8 713.045 1038.19 713.864 1037.78 714.946C1037.37 716.02 1037.16 717.341 1037.16 718.909C1037.16 720.477 1037.37 721.803 1037.78 722.885C1038.19 723.959 1038.8 724.777 1039.6 725.339C1040.41 725.893 1041.41 726.17 1042.58 726.17C1043.76 726.17 1044.75 725.893 1045.55 725.339C1046.36 724.777 1046.97 723.959 1047.38 722.885C1047.79 721.803 1048 720.477 1048 718.909ZM1071.44 723.409V712.364H1078.5V732H1071.8V728.267H1071.59C1071.17 729.52 1070.42 730.5 1069.35 731.207C1068.29 731.906 1067.02 732.256 1065.56 732.256C1064.19 732.256 1062.98 731.94 1061.95 731.31C1060.93 730.679 1060.13 729.81 1059.56 728.702C1059 727.594 1058.71 726.324 1058.71 724.892V712.364H1065.76V723.409C1065.77 724.381 1066.02 725.143 1066.5 725.697C1067 726.251 1067.69 726.528 1068.58 726.528C1069.16 726.528 1069.67 726.405 1070.1 726.158C1070.53 725.902 1070.86 725.544 1071.09 725.084C1071.33 724.615 1071.45 724.057 1071.44 723.409ZM1093.79 712.364V717.477H1080.86V712.364H1093.79ZM1083.36 707.659H1090.42V725.685C1090.42 725.957 1090.47 726.188 1090.56 726.375C1090.65 726.554 1090.8 726.69 1091 726.784C1091.19 726.869 1091.44 726.912 1091.75 726.912C1091.96 726.912 1092.21 726.886 1092.49 726.835C1092.78 726.784 1092.99 726.741 1093.13 726.707L1094.15 731.668C1093.84 731.761 1093.39 731.876 1092.8 732.013C1092.22 732.149 1091.53 732.239 1090.73 732.281C1089.11 732.366 1087.75 732.2 1086.65 731.783C1085.55 731.357 1084.72 730.687 1084.17 729.776C1083.61 728.864 1083.35 727.722 1083.36 726.349V707.659Z" fill="#FAF1C4"/>
<path d="M1218.02 732V705.818H1236.43V711.545H1225.13V716.045H1235.3V721.773H1225.13V732H1218.02ZM1239.14 732V712.364H1246.2V732H1239.14ZM1242.67 710.318C1241.72 710.318 1240.9 710.003 1240.22 709.372C1239.54 708.741 1239.19 707.983 1239.19 707.097C1239.19 706.21 1239.54 705.452 1240.22 704.821C1240.9 704.19 1241.72 703.875 1242.67 703.875C1243.63 703.875 1244.45 704.19 1245.13 704.821C1245.81 705.452 1246.15 706.21 1246.15 707.097C1246.15 707.983 1245.81 708.741 1245.13 709.372C1244.45 710.003 1243.63 710.318 1242.67 710.318ZM1256.85 720.955V732H1249.8V712.364H1256.49V716.097H1256.7C1257.13 714.852 1257.88 713.876 1258.95 713.169C1260.03 712.462 1261.29 712.108 1262.73 712.108C1264.12 712.108 1265.33 712.428 1266.35 713.067C1267.38 713.697 1268.18 714.567 1268.74 715.675C1269.31 716.783 1269.59 718.048 1269.59 719.472V732H1262.53V720.955C1262.54 719.983 1262.29 719.22 1261.79 718.666C1261.29 718.112 1260.6 717.835 1259.72 717.835C1259.14 717.835 1258.63 717.963 1258.19 718.219C1257.77 718.466 1257.44 718.824 1257.21 719.293C1256.98 719.753 1256.86 720.307 1256.85 720.955ZM1273.07 732V712.364H1280.13V732H1273.07ZM1276.6 710.318C1275.64 710.318 1274.82 710.003 1274.14 709.372C1273.46 708.741 1273.12 707.983 1273.12 707.097C1273.12 706.21 1273.46 705.452 1274.14 704.821C1274.82 704.19 1275.64 703.875 1276.6 703.875C1277.56 703.875 1278.38 704.19 1279.05 704.821C1279.73 705.452 1280.07 706.21 1280.07 707.097C1280.07 707.983 1279.73 708.741 1279.05 709.372C1278.38 710.003 1277.56 710.318 1276.6 710.318ZM1301.67 718.756H1295.18C1295.14 718.355 1295 718.01 1294.75 717.72C1294.51 717.43 1294.19 717.209 1293.8 717.055C1293.41 716.893 1292.99 716.812 1292.52 716.812C1291.91 716.812 1291.39 716.923 1290.96 717.145C1290.52 717.366 1290.31 717.682 1290.32 718.091C1290.31 718.381 1290.43 718.649 1290.69 718.896C1290.95 719.143 1291.46 719.335 1292.21 719.472L1296.2 720.188C1298.21 720.554 1299.71 721.172 1300.69 722.041C1301.67 722.902 1302.17 724.057 1302.18 725.506C1302.17 726.903 1301.76 728.118 1300.93 729.149C1300.11 730.172 1298.99 730.964 1297.57 731.527C1296.15 732.081 1294.54 732.358 1292.72 732.358C1289.72 732.358 1287.37 731.744 1285.68 730.517C1283.99 729.29 1283.05 727.67 1282.85 725.659H1289.86C1289.95 726.281 1290.26 726.763 1290.78 727.104C1291.31 727.436 1291.97 727.602 1292.77 727.602C1293.42 727.602 1293.95 727.491 1294.37 727.27C1294.8 727.048 1295.01 726.733 1295.02 726.324C1295.01 725.949 1294.83 725.651 1294.46 725.429C1294.1 725.207 1293.54 725.028 1292.77 724.892L1289.3 724.278C1287.29 723.929 1285.79 723.264 1284.8 722.284C1283.8 721.304 1283.3 720.043 1283.31 718.5C1283.3 717.136 1283.66 715.982 1284.39 715.036C1285.12 714.081 1286.16 713.357 1287.52 712.862C1288.88 712.359 1290.5 712.108 1292.36 712.108C1295.2 712.108 1297.44 712.696 1299.08 713.872C1300.72 715.048 1301.59 716.676 1301.67 718.756ZM1311.94 720.955V732H1304.89V705.818H1311.69V716.097H1311.89C1312.33 714.844 1313.07 713.868 1314.1 713.169C1315.13 712.462 1316.37 712.108 1317.82 712.108C1319.21 712.108 1320.42 712.423 1321.44 713.054C1322.47 713.685 1323.27 714.554 1323.83 715.662C1324.4 716.77 1324.68 718.04 1324.68 719.472V732H1317.62V720.955C1317.63 719.983 1317.38 719.22 1316.89 718.666C1316.4 718.112 1315.71 717.835 1314.81 717.835C1314.23 717.835 1313.73 717.963 1313.3 718.219C1312.87 718.466 1312.54 718.824 1312.3 719.293C1312.07 719.753 1311.95 720.307 1311.94 720.955ZM1349.34 714C1349.27 713.148 1348.95 712.483 1348.38 712.006C1347.82 711.528 1346.96 711.29 1345.81 711.29C1345.08 711.29 1344.48 711.379 1344.01 711.558C1343.55 711.729 1343.21 711.963 1342.99 712.261C1342.77 712.56 1342.65 712.901 1342.64 713.284C1342.63 713.599 1342.68 713.885 1342.81 714.141C1342.95 714.388 1343.16 714.614 1343.45 714.818C1343.74 715.014 1344.11 715.193 1344.56 715.355C1345.01 715.517 1345.55 715.662 1346.17 715.79L1348.32 716.25C1349.77 716.557 1351.01 716.962 1352.04 717.464C1353.07 717.967 1353.91 718.56 1354.57 719.241C1355.23 719.915 1355.71 720.673 1356.02 721.517C1356.33 722.361 1356.49 723.281 1356.5 724.278C1356.49 726 1356.06 727.457 1355.21 728.651C1354.36 729.844 1353.14 730.751 1351.55 731.374C1349.98 731.996 1348.08 732.307 1345.86 732.307C1343.59 732.307 1341.6 731.97 1339.91 731.297C1338.22 730.624 1336.91 729.588 1335.97 728.19C1335.04 726.784 1334.57 724.986 1334.56 722.795H1341.31C1341.36 723.597 1341.56 724.27 1341.91 724.815C1342.27 725.361 1342.78 725.774 1343.42 726.055C1344.08 726.337 1344.86 726.477 1345.76 726.477C1346.52 726.477 1347.16 726.384 1347.67 726.196C1348.18 726.009 1348.57 725.749 1348.83 725.416C1349.09 725.084 1349.23 724.705 1349.24 724.278C1349.23 723.878 1349.1 723.528 1348.84 723.23C1348.6 722.923 1348.19 722.651 1347.62 722.412C1347.05 722.165 1346.27 721.935 1345.3 721.722L1342.69 721.159C1340.38 720.656 1338.55 719.817 1337.21 718.641C1335.88 717.456 1335.22 715.841 1335.23 713.795C1335.22 712.134 1335.66 710.68 1336.56 709.436C1337.46 708.183 1338.71 707.207 1340.3 706.509C1341.91 705.81 1343.74 705.46 1345.81 705.46C1347.93 705.46 1349.76 705.814 1351.3 706.521C1352.84 707.229 1354.03 708.226 1354.86 709.513C1355.71 710.791 1356.13 712.287 1356.14 714H1349.34ZM1368.77 732.358C1366.64 732.358 1364.81 731.936 1363.3 731.092C1361.78 730.24 1360.62 729.055 1359.81 727.538C1359 726.013 1358.59 724.244 1358.59 722.233C1358.59 720.222 1359 718.457 1359.81 716.94C1360.62 715.415 1361.78 714.23 1363.3 713.386C1364.81 712.534 1366.64 712.108 1368.77 712.108C1370.9 712.108 1372.72 712.534 1374.24 713.386C1375.76 714.23 1376.92 715.415 1377.73 716.94C1378.54 718.457 1378.94 720.222 1378.94 722.233C1378.94 724.244 1378.54 726.013 1377.73 727.538C1376.92 729.055 1375.76 730.24 1374.24 731.092C1372.72 731.936 1370.9 732.358 1368.77 732.358ZM1368.82 727.142C1369.42 727.142 1369.93 726.942 1370.37 726.541C1370.8 726.141 1371.14 725.57 1371.38 724.828C1371.61 724.087 1371.73 723.205 1371.73 722.182C1371.73 721.151 1371.61 720.268 1371.38 719.536C1371.14 718.794 1370.8 718.223 1370.37 717.822C1369.93 717.422 1369.42 717.222 1368.82 717.222C1368.19 717.222 1367.65 717.422 1367.2 717.822C1366.74 718.223 1366.4 718.794 1366.16 719.536C1365.92 720.268 1365.8 721.151 1365.8 722.182C1365.8 723.205 1365.92 724.087 1366.16 724.828C1366.4 725.57 1366.74 726.141 1367.2 726.541C1367.65 726.942 1368.19 727.142 1368.82 727.142ZM1388.86 720.955V732H1381.81V712.364H1388.51V716.097H1388.71C1389.14 714.852 1389.89 713.876 1390.96 713.169C1392.04 712.462 1393.3 712.108 1394.74 712.108C1396.13 712.108 1397.34 712.428 1398.36 713.067C1399.39 713.697 1400.19 714.567 1400.75 715.675C1401.32 716.783 1401.61 718.048 1401.6 719.472V732H1394.54V720.955C1394.55 719.983 1394.3 719.22 1393.8 718.666C1393.3 718.112 1392.61 717.835 1391.73 717.835C1391.15 717.835 1390.64 717.963 1390.21 718.219C1389.78 718.466 1389.45 718.824 1389.22 719.293C1388.99 719.753 1388.87 720.307 1388.86 720.955ZM1414.54 739.773C1412.57 739.773 1410.88 739.491 1409.48 738.929C1408.08 738.375 1406.99 737.608 1406.22 736.628C1405.45 735.656 1405.02 734.54 1404.93 733.278H1411.73C1411.8 733.696 1411.97 734.033 1412.24 734.288C1412.51 734.544 1412.86 734.727 1413.29 734.838C1413.72 734.957 1414.21 735.017 1414.75 735.017C1415.66 735.017 1416.41 734.795 1417.01 734.352C1417.61 733.909 1417.92 733.108 1417.92 731.949V728.625H1417.71C1417.46 729.29 1417.06 729.857 1416.54 730.325C1416.01 730.786 1415.37 731.139 1414.63 731.386C1413.89 731.625 1413.08 731.744 1412.19 731.744C1410.79 731.744 1409.5 731.42 1408.33 730.773C1407.16 730.125 1406.22 729.098 1405.52 727.692C1404.82 726.286 1404.47 724.449 1404.47 722.182C1404.47 719.812 1404.83 717.886 1405.57 716.403C1406.31 714.92 1407.26 713.834 1408.43 713.143C1409.61 712.453 1410.84 712.108 1412.14 712.108C1413.11 712.108 1413.96 712.278 1414.69 712.619C1415.43 712.952 1416.04 713.399 1416.54 713.962C1417.03 714.516 1417.4 715.125 1417.66 715.79H1417.81V712.364H1424.87V731.949C1424.87 733.611 1424.44 735.021 1423.58 736.18C1422.73 737.348 1421.53 738.239 1419.97 738.852C1418.42 739.466 1416.61 739.773 1414.54 739.773ZM1414.8 726.733C1415.44 726.733 1416 726.554 1416.46 726.196C1416.93 725.83 1417.29 725.31 1417.53 724.636C1417.79 723.955 1417.92 723.136 1417.92 722.182C1417.92 721.21 1417.79 720.379 1417.53 719.689C1417.29 718.99 1416.93 718.457 1416.46 718.091C1416 717.716 1415.44 717.528 1414.8 717.528C1414.15 717.528 1413.59 717.716 1413.13 718.091C1412.68 718.457 1412.33 718.99 1412.09 719.689C1411.85 720.379 1411.73 721.21 1411.73 722.182C1411.73 723.153 1411.85 723.98 1412.09 724.662C1412.33 725.335 1412.68 725.851 1413.13 726.209C1413.59 726.558 1414.15 726.733 1414.8 726.733Z" fill="#FAF1C4"/>
<rect x="1015.5" y="294.5" width="276" height="92" rx="7.5" fill="white" fill-opacity="0.5" stroke="#2A1C20" stroke-width="5"/>
<path d="M1078.38 363.636C1074.65 363.636 1071.44 362.924 1068.74 361.5C1066.06 360.061 1063.99 358 1062.54 355.318C1061.1 352.621 1060.38 349.394 1060.38 345.636C1060.38 342.03 1061.11 338.879 1062.56 336.182C1064.01 333.485 1066.07 331.386 1068.72 329.886C1071.37 328.386 1074.5 327.636 1078.11 327.636C1080.74 327.636 1083.13 328.045 1085.26 328.864C1087.4 329.682 1089.23 330.871 1090.74 332.432C1092.26 333.977 1093.42 335.856 1094.24 338.068C1095.06 340.28 1095.47 342.773 1095.47 345.545V348.455H1064.29V341.545H1083.92C1083.91 340.545 1083.65 339.667 1083.15 338.909C1082.67 338.136 1082.01 337.538 1081.17 337.114C1080.36 336.674 1079.42 336.455 1078.38 336.455C1077.36 336.455 1076.43 336.674 1075.58 337.114C1074.73 337.538 1074.05 338.129 1073.54 338.886C1073.04 339.644 1072.77 340.53 1072.74 341.545V349C1072.74 350.121 1072.98 351.121 1073.45 352C1073.92 352.879 1074.59 353.568 1075.47 354.068C1076.35 354.568 1077.41 354.818 1078.65 354.818C1079.51 354.818 1080.3 354.697 1081.01 354.455C1081.74 354.212 1082.36 353.864 1082.88 353.409C1083.39 352.939 1083.77 352.379 1084.01 351.727H1095.47C1095.07 354.152 1094.14 356.258 1092.67 358.045C1091.2 359.818 1089.26 361.197 1086.83 362.182C1084.42 363.152 1081.61 363.636 1078.38 363.636ZM1111.03 328.091L1116.12 338.909L1121.49 328.091H1133.94L1124.58 345.545L1134.39 363H1122.03L1116.12 351.909L1110.39 363H1097.85L1107.76 345.545L1098.49 328.091H1111.03ZM1145.22 363.727C1143.46 363.727 1141.95 363.114 1140.7 361.886C1139.45 360.644 1138.84 359.136 1138.86 357.364C1138.84 355.636 1139.45 354.159 1140.7 352.932C1141.95 351.705 1143.46 351.091 1145.22 351.091C1146.89 351.091 1148.36 351.705 1149.63 352.932C1150.92 354.159 1151.57 355.636 1151.58 357.364C1151.57 358.545 1151.26 359.621 1150.65 360.591C1150.06 361.545 1149.29 362.311 1148.33 362.886C1147.38 363.447 1146.34 363.727 1145.22 363.727ZM1167.43 363V353.909L1184.8 339.545C1185.95 338.591 1186.93 337.697 1187.75 336.864C1188.59 336.015 1189.22 335.144 1189.66 334.25C1190.12 333.356 1190.34 332.364 1190.34 331.273C1190.34 330.076 1190.09 329.053 1189.57 328.205C1189.07 327.356 1188.37 326.705 1187.48 326.25C1186.59 325.78 1185.56 325.545 1184.39 325.545C1183.22 325.545 1182.19 325.78 1181.3 326.25C1180.42 326.72 1179.74 327.409 1179.25 328.318C1178.77 329.227 1178.53 330.333 1178.53 331.636H1166.53C1166.53 328.364 1167.26 325.545 1168.73 323.182C1170.2 320.818 1172.28 319 1174.96 317.727C1177.64 316.455 1180.78 315.818 1184.39 315.818C1188.12 315.818 1191.34 316.417 1194.07 317.614C1196.81 318.795 1198.93 320.462 1200.41 322.614C1201.91 324.765 1202.66 327.288 1202.66 330.182C1202.66 331.97 1202.29 333.75 1201.55 335.523C1200.81 337.28 1199.47 339.227 1197.55 341.364C1195.62 343.5 1192.89 346.045 1189.34 349L1184.98 352.636V352.909H1203.16V363H1167.43ZM1227.45 363.636C1223.87 363.636 1220.7 363.008 1217.92 361.75C1215.17 360.477 1212.99 358.727 1211.4 356.5C1209.82 354.273 1209.02 351.712 1208.99 348.818H1221.26C1221.31 350.424 1221.93 351.705 1223.13 352.659C1224.34 353.614 1225.78 354.091 1227.45 354.091C1228.73 354.091 1229.87 353.818 1230.86 353.273C1231.84 352.712 1232.61 351.924 1233.17 350.909C1233.73 349.894 1234.01 348.712 1233.99 347.364C1234.01 346 1233.73 344.818 1233.17 343.818C1232.61 342.803 1231.84 342.023 1230.86 341.477C1229.87 340.917 1228.73 340.636 1227.45 340.636C1226.11 340.636 1224.88 340.962 1223.74 341.614C1222.62 342.25 1221.79 343.136 1221.26 344.273L1210.17 342.091L1211.99 316.455H1243.26V326.545H1222.36L1221.45 336.818H1221.72C1222.45 335.409 1223.7 334.242 1225.49 333.318C1227.28 332.379 1229.36 331.909 1231.72 331.909C1234.49 331.909 1236.96 332.553 1239.13 333.841C1241.31 335.129 1243.03 336.909 1244.29 339.182C1245.56 341.439 1246.19 344.045 1246.17 347C1246.19 350.242 1245.42 353.121 1243.86 355.636C1242.31 358.136 1240.14 360.098 1237.33 361.523C1234.53 362.932 1231.23 363.636 1227.45 363.636Z" fill="#2A1C20"/>
<rect x="1296.5" y="425.5" width="455" height="92" rx="7.5" fill="white" fill-opacity="0.5" stroke="#2A1C20" stroke-width="5"/>
<rect x="684.5" y="540.5" width="92" height="92" rx="7.5" fill="white" fill-opacity="0.5" stroke="#2A1C20" stroke-width="5"/>
<path d="M1348.6 480L1345.33 466.909H1350.03L1351.53 474.886H1351.64L1353.31 466.909H1357.87L1359.61 474.818H1359.71L1361.15 466.909H1365.85L1362.58 480H1357.5L1355.66 472.977H1355.52L1353.68 480H1348.6ZM1369.6 480L1366.33 466.909H1371.03L1372.53 474.886H1372.64L1374.31 466.909H1378.87L1380.61 474.818H1380.71L1382.15 466.909H1386.85L1383.58 480H1378.5L1376.66 472.977H1376.52L1374.68 480H1369.6ZM1390.6 480L1387.33 466.909H1392.03L1393.53 474.886H1393.64L1395.31 466.909H1399.87L1401.61 474.818H1401.71L1403.15 466.909H1407.85L1404.58 480H1399.5L1397.66 472.977H1397.52L1395.68 480H1390.6ZM1410.06 480.273C1409.4 480.273 1408.83 480.043 1408.36 479.582C1407.9 479.116 1407.67 478.551 1407.67 477.886C1407.67 477.239 1407.9 476.685 1408.36 476.224C1408.83 475.764 1409.4 475.534 1410.06 475.534C1410.68 475.534 1411.23 475.764 1411.71 476.224C1412.19 476.685 1412.44 477.239 1412.44 477.886C1412.44 478.33 1412.32 478.733 1412.1 479.097C1411.87 479.455 1411.58 479.741 1411.23 479.957C1410.87 480.168 1410.48 480.273 1410.06 480.273ZM1417.87 484.909C1417.33 484.909 1416.81 484.866 1416.32 484.781C1415.83 484.702 1415.41 484.591 1415.04 484.449L1416.06 481.108C1416.44 481.244 1416.8 481.332 1417.12 481.372C1417.44 481.412 1417.71 481.389 1417.94 481.304C1418.18 481.219 1418.34 481.057 1418.44 480.818L1418.55 480.58L1413.94 466.909H1418.85L1420.97 475.977H1421.1L1423.25 466.909H1428.19L1423.42 481.091C1423.18 481.812 1422.84 482.46 1422.38 483.034C1421.93 483.614 1421.34 484.071 1420.61 484.406C1419.88 484.741 1418.96 484.909 1417.87 484.909ZM1435.44 480.239C1434.02 480.239 1432.81 479.957 1431.79 479.395C1430.78 478.827 1430.01 478.037 1429.47 477.026C1428.93 476.009 1428.66 474.83 1428.66 473.489C1428.66 472.148 1428.93 470.972 1429.47 469.96C1430.01 468.943 1430.78 468.153 1431.79 467.591C1432.81 467.023 1434.02 466.739 1435.44 466.739C1436.86 466.739 1438.08 467.023 1439.09 467.591C1440.1 468.153 1440.88 468.943 1441.42 469.96C1441.96 470.972 1442.23 472.148 1442.23 473.489C1442.23 474.83 1441.96 476.009 1441.42 477.026C1440.88 478.037 1440.1 478.827 1439.09 479.395C1438.08 479.957 1436.86 480.239 1435.44 480.239ZM1435.48 476.761C1435.87 476.761 1436.22 476.628 1436.51 476.361C1436.8 476.094 1437.02 475.713 1437.18 475.219C1437.34 474.724 1437.42 474.136 1437.42 473.455C1437.42 472.767 1437.34 472.179 1437.18 471.69C1437.02 471.196 1436.8 470.815 1436.51 470.548C1436.22 470.281 1435.87 470.148 1435.48 470.148C1435.06 470.148 1434.69 470.281 1434.39 470.548C1434.09 470.815 1433.86 471.196 1433.7 471.69C1433.54 472.179 1433.46 472.767 1433.46 473.455C1433.46 474.136 1433.54 474.724 1433.7 475.219C1433.86 475.713 1434.09 476.094 1434.39 476.361C1434.69 476.628 1435.06 476.761 1435.48 476.761ZM1452.62 474.273V466.909H1457.33V480H1452.86V477.511H1452.73C1452.44 478.347 1451.94 479 1451.23 479.472C1450.52 479.937 1449.68 480.17 1448.7 480.17C1447.79 480.17 1446.99 479.96 1446.3 479.54C1445.62 479.119 1445.09 478.54 1444.71 477.801C1444.33 477.062 1444.14 476.216 1444.13 475.261V466.909H1448.84V474.273C1448.84 474.92 1449.01 475.429 1449.33 475.798C1449.66 476.168 1450.12 476.352 1450.71 476.352C1451.11 476.352 1451.44 476.27 1451.73 476.105C1452.02 475.935 1452.24 475.696 1452.39 475.389C1452.55 475.077 1452.63 474.705 1452.62 474.273ZM1467.53 466.909V470.318H1458.9V466.909H1467.53ZM1460.57 463.773H1465.28V475.79C1465.28 475.972 1465.31 476.125 1465.37 476.25C1465.43 476.369 1465.53 476.46 1465.66 476.523C1465.79 476.58 1465.96 476.608 1466.16 476.608C1466.31 476.608 1466.47 476.591 1466.66 476.557C1466.85 476.523 1466.99 476.494 1467.08 476.472L1467.77 479.778C1467.56 479.841 1467.25 479.918 1466.86 480.009C1466.48 480.099 1466.02 480.159 1465.48 480.188C1464.4 480.244 1463.5 480.134 1462.76 479.855C1462.03 479.571 1461.48 479.125 1461.11 478.517C1460.74 477.909 1460.56 477.148 1460.57 476.233V463.773ZM1477.94 474.273V466.909H1482.64V480H1478.17V477.511H1478.04C1477.75 478.347 1477.26 479 1476.55 479.472C1475.84 479.937 1474.99 480.17 1474.02 480.17C1473.1 480.17 1472.3 479.96 1471.61 479.54C1470.93 479.119 1470.4 478.54 1470.02 477.801C1469.64 477.062 1469.45 476.216 1469.45 475.261V466.909H1474.15V474.273C1474.16 474.92 1474.32 475.429 1474.65 475.798C1474.98 476.168 1475.44 476.352 1476.03 476.352C1476.42 476.352 1476.76 476.27 1477.04 476.105C1477.33 475.935 1477.55 475.696 1477.71 475.389C1477.86 475.077 1477.94 474.705 1477.94 474.273ZM1484.96 480V462.545H1489.67V469.193H1489.74C1489.91 468.75 1490.16 468.344 1490.49 467.974C1490.82 467.599 1491.23 467.301 1491.71 467.08C1492.2 466.852 1492.77 466.739 1493.42 466.739C1494.28 466.739 1495.1 466.969 1495.88 467.429C1496.67 467.889 1497.3 468.614 1497.79 469.602C1498.29 470.591 1498.53 471.875 1498.53 473.455C1498.53 474.966 1498.3 476.219 1497.83 477.213C1497.36 478.207 1496.73 478.949 1495.95 479.438C1495.17 479.926 1494.32 480.17 1493.39 480.17C1492.77 480.17 1492.22 480.071 1491.74 479.872C1491.26 479.668 1490.85 479.392 1490.51 479.045C1490.18 478.693 1489.92 478.295 1489.74 477.852H1489.64V480H1484.96ZM1489.57 473.455C1489.57 474.091 1489.65 474.642 1489.81 475.108C1489.98 475.568 1490.22 475.926 1490.53 476.182C1490.84 476.432 1491.21 476.557 1491.65 476.557C1492.08 476.557 1492.44 476.435 1492.75 476.19C1493.05 475.94 1493.29 475.585 1493.44 475.125C1493.61 474.659 1493.69 474.102 1493.69 473.455C1493.69 472.807 1493.61 472.253 1493.44 471.793C1493.29 471.327 1493.05 470.972 1492.75 470.727C1492.44 470.477 1492.08 470.352 1491.65 470.352C1491.21 470.352 1490.84 470.477 1490.53 470.727C1490.22 470.972 1489.98 471.327 1489.81 471.793C1489.65 472.253 1489.57 472.807 1489.57 473.455ZM1506.77 480.239C1505.38 480.239 1504.17 479.972 1503.16 479.438C1502.16 478.898 1501.38 478.125 1500.83 477.119C1500.29 476.108 1500.02 474.898 1500.02 473.489C1500.02 472.136 1500.3 470.955 1500.84 469.943C1501.39 468.932 1502.16 468.145 1503.15 467.582C1504.15 467.02 1505.32 466.739 1506.67 466.739C1507.66 466.739 1508.56 466.892 1509.36 467.199C1510.16 467.506 1510.84 467.952 1511.41 468.537C1511.98 469.116 1512.42 469.821 1512.72 470.651C1513.03 471.48 1513.18 472.415 1513.18 473.455V474.545H1501.49V471.955H1508.85C1508.85 471.58 1508.75 471.25 1508.56 470.966C1508.38 470.676 1508.14 470.452 1507.82 470.293C1507.52 470.128 1507.17 470.045 1506.77 470.045C1506.39 470.045 1506.04 470.128 1505.73 470.293C1505.41 470.452 1505.15 470.673 1504.96 470.957C1504.77 471.241 1504.67 471.574 1504.66 471.955V474.75C1504.66 475.17 1504.75 475.545 1504.93 475.875C1505.1 476.205 1505.35 476.463 1505.68 476.651C1506.01 476.838 1506.41 476.932 1506.88 476.932C1507.2 476.932 1507.5 476.886 1507.76 476.795C1508.04 476.705 1508.27 476.574 1508.46 476.403C1508.66 476.227 1508.8 476.017 1508.89 475.773H1513.18C1513.04 476.682 1512.69 477.472 1512.14 478.142C1511.58 478.807 1510.85 479.324 1509.94 479.693C1509.04 480.057 1507.98 480.239 1506.77 480.239ZM1517.66 480.273C1517 480.273 1516.44 480.043 1515.96 479.582C1515.5 479.116 1515.27 478.551 1515.27 477.886C1515.27 477.239 1515.5 476.685 1515.96 476.224C1516.44 475.764 1517 475.534 1517.66 475.534C1518.29 475.534 1518.84 475.764 1519.31 476.224C1519.8 476.685 1520.04 477.239 1520.05 477.886C1520.04 478.33 1519.92 478.733 1519.7 479.097C1519.48 479.455 1519.19 479.741 1518.83 479.957C1518.47 480.168 1518.08 480.273 1517.66 480.273ZM1525.16 480.273C1524.5 480.273 1523.94 480.043 1523.46 479.582C1523 479.116 1522.77 478.551 1522.77 477.886C1522.77 477.239 1523 476.685 1523.46 476.224C1523.94 475.764 1524.5 475.534 1525.16 475.534C1525.79 475.534 1526.34 475.764 1526.81 476.224C1527.3 476.685 1527.54 477.239 1527.55 477.886C1527.54 478.33 1527.42 478.733 1527.2 479.097C1526.98 479.455 1526.69 479.741 1526.33 479.957C1525.97 480.168 1525.58 480.273 1525.16 480.273ZM1532.66 480.273C1532 480.273 1531.44 480.043 1530.96 479.582C1530.5 479.116 1530.27 478.551 1530.27 477.886C1530.27 477.239 1530.5 476.685 1530.96 476.224C1531.44 475.764 1532 475.534 1532.66 475.534C1533.29 475.534 1533.84 475.764 1534.31 476.224C1534.8 476.685 1535.04 477.239 1535.05 477.886C1535.04 478.33 1534.92 478.733 1534.7 479.097C1534.48 479.455 1534.19 479.741 1533.83 479.957C1533.47 480.168 1533.08 480.273 1532.66 480.273ZM1540.16 480.273C1539.5 480.273 1538.94 480.043 1538.46 479.582C1538 479.116 1537.77 478.551 1537.77 477.886C1537.77 477.239 1538 476.685 1538.46 476.224C1538.94 475.764 1539.5 475.534 1540.16 475.534C1540.79 475.534 1541.34 475.764 1541.81 476.224C1542.3 476.685 1542.54 477.239 1542.55 477.886C1542.54 478.33 1542.42 478.733 1542.2 479.097C1541.98 479.455 1541.69 479.741 1541.33 479.957C1540.97 480.168 1540.58 480.273 1540.16 480.273Z" fill="#2A1C20"/>
<path d="M1133.5 901C1133.5 925.586 1114.8 948.424 1083.27 965.263C1051.85 982.044 1008.27 992.5 960 992.5C911.727 992.5 868.148 982.044 836.727 965.263C805.2 948.424 786.5 925.586 786.5 901C786.5 876.414 805.2 853.576 836.727 836.737C868.148 819.956 911.727 809.5 960 809.5C1008.27 809.5 1051.85 819.956 1083.27 836.737C1114.8 853.576 1133.5 876.414 1133.5 901Z" fill="#2A1C20" stroke="#2E2A1F" stroke-width="5"/>
<circle cx="1154" cy="717" r="26.25" fill="#E9CB7D" stroke="#D3728C" stroke-width="3.5"/>
<circle cx="1496" cy="717" r="26.25" fill="#E9CB7D" stroke="#D3728C" stroke-width="3.5"/>
<path d="M915.136 856.182L903.545 926H887.727L868.636 889.318H868.227L862.091 926H843.136L854.727 856.182H870.818L889.636 892.727H890.182L896.182 856.182H915.136ZM937.739 926.955C932.148 926.955 927.511 925.886 923.83 923.75C920.148 921.591 917.557 918.5 916.057 914.477C914.557 910.432 914.284 905.591 915.239 899.955C916.148 894.545 918.023 889.818 920.864 885.773C923.727 881.727 927.33 878.58 931.67 876.33C936.034 874.08 940.92 872.955 946.33 872.955C950.284 872.955 953.75 873.568 956.727 874.795C959.727 876.023 962.17 877.807 964.057 880.148C965.943 882.489 967.216 885.318 967.875 888.636C968.557 891.932 968.557 895.659 967.875 899.818L967.193 904.182H920.42L922.057 893.818H951.511C951.739 892.318 951.591 891 951.068 889.864C950.568 888.705 949.761 887.807 948.648 887.17C947.557 886.511 946.239 886.182 944.693 886.182C943.148 886.182 941.693 886.511 940.33 887.17C938.989 887.83 937.841 888.75 936.886 889.932C935.955 891.114 935.33 892.5 935.011 894.091L932.966 905C932.693 906.682 932.795 908.182 933.273 909.5C933.75 910.818 934.58 911.852 935.761 912.602C936.943 913.352 938.466 913.727 940.33 913.727C941.602 913.727 942.807 913.557 943.943 913.216C945.102 912.852 946.125 912.33 947.011 911.648C947.92 910.943 948.648 910.091 949.193 909.091H966.375C965.148 912.727 963.205 915.886 960.545 918.568C957.909 921.227 954.659 923.295 950.795 924.773C946.955 926.227 942.602 926.955 937.739 926.955ZM995.582 873.636L1000.49 889.864L1011.26 873.636H1029.95L1011.54 899.818L1021.9 926H1003.36L997.219 909.364L985.901 926H967.082L986.31 899.818L976.764 873.636H995.582ZM1067.86 873.636L1065.55 887.273H1031.05L1033.36 873.636H1067.86ZM1042.09 861.091H1060.91L1052.93 909.159C1052.82 909.886 1052.84 910.5 1053 911C1053.16 911.477 1053.48 911.841 1053.95 912.091C1054.45 912.318 1055.11 912.432 1055.93 912.432C1056.48 912.432 1057.15 912.364 1057.94 912.227C1058.74 912.068 1059.34 911.955 1059.75 911.886L1060.3 925.114C1059.34 925.386 1058.06 925.693 1056.44 926.034C1054.85 926.398 1053 926.636 1050.89 926.75C1046.48 926.955 1042.89 926.489 1040.11 925.352C1037.36 924.216 1035.45 922.443 1034.39 920.034C1033.34 917.602 1033.16 914.568 1033.84 910.932L1042.09 861.091Z" fill="#F1CE73"/>
<defs>
<radialGradient id="paint0_radial_234_330" cx="0" cy="0" r="1" gradientUnits="userSpaceOnUse" gradientTransform="translate(960 540) rotate(90) scale(540 960)">
<stop stop-color="#262B1D"/>
<stop offset="1" stop-color="#171820"/>
</radialGradient>
</defs>
</svg>
